<svg xmlns="http://www.w3.org/2000/svg" viewBox="0 0 36.85 32.1"><defs><style>.cls-1{fill:#96ca4f;}</style></defs><title>basket</title><g id="Layer_2" data-name="Layer 2"><g id="Layer_1-2" data-name="Layer 1"><path class="cls-1" d="M27.07,25.39a1.4,1.4,0,1,1-2.79,0V18.06a1.4,1.4,0,0,1,2.79,0Zm-7.29,0a1.4,1.4,0,1,1-2.79,0V18.06a1.4,1.4,0,0,1,2.79,0Zm-7.32,0a1.4,1.4,0,1,1-2.79,0V18.06a1.4,1.4,0,0,1,2.79,0ZM11.34,4.26h1.74v.2a1.3,1.3,0,0,0,1.28,1.28h8.1a1.29,1.29,0,0,0,1.27-1.28v-.2h1.75l4.22,7.17H7.07Zm22.93,7.17H32.92L27.45,2.17a1.35,1.35,0,0,0-1.2-.7H23.73V1.28A1.29,1.29,0,0,0,22.46,0h-8.1a1.29,1.29,0,0,0-1.28,1.28v.19H10.56a1.41,1.41,0,0,0-1.2.7l-5.5,9.26H2.5A2.48,2.48,0,0,0,.1,14.61L4.32,30.24A2.54,2.54,0,0,0,6.76,32.1H30.13a2.58,2.58,0,0,0,2.44-1.86l4.22-15.63a2.6,2.6,0,0,0-2.52-3.18"/></g></g></svg>