<svg xmlns="http://www.w3.org/2000/svg" viewBox="0 0 29.17 36.85"><defs><style>.cls-1{fill:#96ca4f;}</style></defs><title>can</title><g id="Layer_2" data-name="Layer 2"><g id="Layer_1-2" data-name="Layer 1"><path class="cls-1" d="M1.61,21.07,5.29,35.79a1.53,1.53,0,0,0,1.53,1.06H22.05a1.52,1.52,0,0,0,1.51-1l4.08-15.09H1.54Z"/><path class="cls-1" d="M27.64,16.12H1.54a1.54,1.54,0,1,0,0,3.07h26.1a1.54,1.54,0,0,0,0-3.07"/><path class="cls-1" d="M3.07,14.59a1.54,1.54,0,0,0,1.54-1.54,10,10,0,0,1,20,0,1.54,1.54,0,1,0,3.07,0,13.05,13.05,0,0,0-26.1,0,1.53,1.53,0,0,0,1.53,1.54"/></g></g></svg>