<svg xmlns="http://www.w3.org/2000/svg" viewBox="0 0 32.61 28.5"><defs><style>.cls-1{fill:#96ca4f;}</style></defs><title>certification</title><g id="Layer_2" data-name="Layer 2"><g id="Layer_1-2" data-name="Layer 1"><path class="cls-1" d="M27.15,7.46H17.71a.68.68,0,1,1,0-1.35h9.44a.68.68,0,1,1,0,1.35m0,4.07H17.71a.68.68,0,1,1,0-1.35h9.44a.68.68,0,1,1,0,1.35m0,4.07H17.71a.68.68,0,1,1,0-1.35h9.44a.68.68,0,1,1,0,1.35m0,4.07H17.71a.68.68,0,1,1,0-1.35h9.44a.68.68,0,1,1,0,1.35M32,0H12.89a.67.67,0,0,0-.64.68V3.75l.64.13a2.58,2.58,0,0,1,2,2.52l0,8.17A9.65,9.65,0,0,1,12.63,21a5,5,0,0,1-.38.41v6.43a.67.67,0,0,0,.64.68H26.5V24.42a2,2,0,0,1,2-2h4.07V.68A.67.67,0,0,0,32,0"/><path class="cls-1" d="M28.54,23.75a.67.67,0,0,0-.68.67v4.07l4.75-4.74H28.54Z"/><path class="cls-1" d="M13.61,14.57l0-8.17a1.2,1.2,0,0,0-.95-1.19l-.38-.07L7,4.09l-.24,0-.23,0L1,5.24A1.21,1.21,0,0,0,0,6.44l0,8.17c0,4.31,3.11,7.78,6.8,7.78h0a6.57,6.57,0,0,0,5.41-3.16,8.43,8.43,0,0,0,1.36-4.66"/></g></g></svg>