<?xml version="1.0" encoding="utf-8"?>
<!-- Generator: Adobe Illustrator 23.0.2, SVG Export Plug-In . SVG Version: 6.00 Build 0)  -->
<svg version="1.1" id="Layer_1" xmlns="http://www.w3.org/2000/svg" xmlns:xlink="http://www.w3.org/1999/xlink" x="0px" y="0px"
	 viewBox="0 0 80 80" style="enable-background:new 0 0 80 80;" xml:space="preserve">
<style type="text/css">
	.st0{clip-path:url(#SVGID_2_);}
	.st1{fill:#007BBB;}
</style>
<g>
	<g>
		<defs>
			<rect id="SVGID_1_" x="9.5" y="10.2" width="61" height="59.5"/>
		</defs>
		<clipPath id="SVGID_2_">
			<use xlink:href="#SVGID_1_"  style="overflow:visible;"/>
		</clipPath>
		<g id="Layer_1-2" class="st0">
			<path class="st1" d="M34.7,21.7l11,10.7c0.4,0.3,0.8,0.5,1.3,0.5c0.5,0,0.9-0.2,1.2-0.5l16.6-16.1V24c0.1,1,1,1.8,2,1.7
				c0.9-0.1,1.6-0.8,1.7-1.7V12c0-1-0.9-1.8-1.9-1.8H54.4c-1,0-1.8,0.8-1.8,1.8c0,0,0,0,0,0c0,1,0.8,1.8,1.8,1.8c0,0,0,0,0,0h7.8
				L47.1,28.6L36.1,18c-0.8-0.7-2-0.7-2.8,0L10.1,40.7c-0.7,0.7-0.7,1.8-0.1,2.5c0,0,0.1,0.1,0.1,0.1c0.7,0.7,1.9,0.7,2.6,0
				L34.7,21.7z M24.1,49.3H14c-1.4,0-2.6,0.8-2.6,1.9v16.7c0,1,1.1,1.9,2.6,1.9h10.2c1.4,0,2.6-0.8,2.6-1.9V51.2
				C26.7,50.2,25.6,49.4,24.1,49.3 M46,39.4H36c-1.4,0-2.6,0.8-2.6,1.8v26.6c0,1,1.1,1.8,2.6,1.8h10c1.4,0,2.6-0.8,2.6-1.8V41.3
				C48.6,40.3,47.5,39.4,46,39.4 M67.9,29.6H57.7c-1.4,0-2.6,0.8-2.6,1.8v36.5c0,1,1.2,1.8,2.6,1.8h10.2c1.4,0,2.6-0.8,2.6-1.8V31.4
				C70.5,30.4,69.3,29.6,67.9,29.6"/>
		</g>
	</g>
</g>
</svg>
