<svg xmlns="http://www.w3.org/2000/svg" width="40.21" height="45.06" viewBox="0 0 40.21 45.06"><defs><style>.cls-1{fill:#28a5de;}</style></defs><title>connect</title><g id="Layer_2" data-name="Layer 2"><g id="Layer_1-2" data-name="Layer 1"><path class="cls-1" d="M11.76,18.65v-.31a1,1,0,0,1,.46-.81l.28-.14L9.59,15.72V16a1,1,0,0,1-.46.81L8.85,17Z"/><path class="cls-1" d="M28.5,26.4v.32a1,1,0,0,1-.46.81l-.28.18,2.91,1.62V29a1,1,0,0,1,.46-.81l.28-.14Z"/><path class="cls-1" d="M11.76,26.72V26.4L8.85,28l.28.13a.93.93,0,0,1,.46.81v.32l2.91-1.62-.28-.18a.88.88,0,0,1-.46-.77"/><path class="cls-1" d="M28.5,18.34v.31L31.41,17l-.28-.13a.93.93,0,0,1-.46-.81v-.32l-2.91,1.62.28.14a.93.93,0,0,1,.46.81"/><path class="cls-1" d="M39.75,10.9l-.27-.13-3-1.71-.23-.14a.89.89,0,0,0-.46-.13.8.8,0,0,0-.46.13l-.23.14L32,10.81l-.23.14a.93.93,0,0,0-.46.81v4a1,1,0,0,0,.46.81l.28.14,3,1.71.23.13a.83.83,0,0,0,.92,0l.23-.13,3.09-1.76.23-.13a.93.93,0,0,0,.46-.81v-4a1,1,0,0,0-.46-.82"/><path class="cls-1" d="M20.57,10.41a.89.89,0,0,1-.46.13.87.87,0,0,1-.46-.13l-.28-.18v3.29l.28-.18a.88.88,0,0,1,.46-.14.91.91,0,0,1,.46.14l.28.13V10.23Z"/><path class="cls-1" d="M19.65,34.65a.88.88,0,0,1,.46-.14.91.91,0,0,1,.46.14l.27.13V31.5l-.27.18a.89.89,0,0,1-.46.13.87.87,0,0,1-.46-.13l-.28-.14v3.29Z"/><path class="cls-1" d="M24.12,37.35l-.23-.13-3-1.71-.28-.19a.89.89,0,0,0-.46-.13.76.76,0,0,0-.46.13l-.28.14-3,1.71-.23.14a.94.94,0,0,0-.47.81v4a1,1,0,0,0,.47.81l.23.13,3,1.72.28.13a.88.88,0,0,0,.46.14.91.91,0,0,0,.46-.14l.28-.13,3-1.72.23-.13a.93.93,0,0,0,.46-.81v-4a.73.73,0,0,0-.46-.77"/><path class="cls-1" d="M39.75,28.52l-.23-.13-3-1.72-.23-.13a.91.91,0,0,0-.46-.14.76.76,0,0,0-.46.14l-.23.13L32,28.39l-.28.13a.93.93,0,0,0-.46.81v4a1,1,0,0,0,.46.81l.23.14,3.09,1.76.23.13a.83.83,0,0,0,.92,0l.23-.13,3-1.72.27-.13a.93.93,0,0,0,.46-.81v-4a1,1,0,0,0-.46-.86"/><path class="cls-1" d="M8.53,28.52l-.28-.13-3-1.72L5,26.54a.94.94,0,0,0-.46-.14.94.94,0,0,0-.47.14l-.27.13L.74,28.39l-.23.13a.93.93,0,0,0-.46.81v4a1,1,0,0,0,.46.81l.27.14,3,1.71.28.14a.89.89,0,0,0,.46.13A.8.8,0,0,0,5,36.14L5.16,36l3.09-1.76.24-.13A1,1,0,0,0,9,33.3v-4a.85.85,0,0,0-.42-.77"/><path class="cls-1" d="M16.09,7.7l.24.14,3,1.71.28.18a.88.88,0,0,0,.46.14.91.91,0,0,0,.46-.14l.27-.13,3.05-1.72.23-.13a.93.93,0,0,0,.46-.81v-4a1,1,0,0,0-.46-.81L23.89,2,20.84.27,20.57.13A.89.89,0,0,0,20.11,0a.76.76,0,0,0-.46.13l-.28.19L16.37,2l-.23.13a.93.93,0,0,0-.46.81V7a.72.72,0,0,0,.41.72"/><path class="cls-1" d="M.46,16.49l.23.14,3.09,1.75.23.14a.89.89,0,0,0,.46.13.76.76,0,0,0,.46-.13l.23-.14,3.05-1.71.27-.13A.94.94,0,0,0,9,15.73v-4a1,1,0,0,0-.47-.82l-.23-.13L5.16,9l-.23-.13a.88.88,0,0,0-.46-.14A.81.81,0,0,0,4,8.88L3.78,9l-3,1.76-.28.13a.94.94,0,0,0-.46.82v4a.85.85,0,0,0,.46.76"/><path class="cls-1" d="M22.68,21.2H16.9v-1h5.78Zm0,2.44a2.15,2.15,0,0,1-1.32,2v-.2H18.22v.2a2.15,2.15,0,0,1-1.32-2V21.52h5.78Zm-1.57,2.14v.88H18.47v-.95h2.64Zm-.35,1.32v2H18.82v-2.2h1.94Zm-3.29-9.72a.72.72,0,0,1,1.43,0V20H17.47Zm3.21,0a.72.72,0,0,1,1.43,0V20H20.68Zm6.71.46-.27-.13-6.28-3.56L20.57,14a.89.89,0,0,0-.46-.13.76.76,0,0,0-.46.13l-.28.18L13.1,17.71l-.28.13a.93.93,0,0,0-.46.81v7.66a1,1,0,0,0,.46.81l.28.14,6.22,3.51.28.14a.88.88,0,0,0,.92,0l.28-.14L27,27.26l.28-.18a.93.93,0,0,0,.46-.81V18.65h.09a1,1,0,0,0-.46-.81"/></g></g></svg>