<svg xmlns="http://www.w3.org/2000/svg" width="59.31" height="73.18" viewBox="0 0 59.31 73.18"><defs><style>.cls-1{fill:#fff;}</style></defs><title>container</title><g id="Layer_2" data-name="Layer 2"><g id="Layer_1-2" data-name="Layer 1"><path class="cls-1" d="M5.5,62.83a1.07,1.07,0,0,1,2.14,0v5.53a1,1,0,0,1-1.07,1,1,1,0,0,1-1.07-1Zm3.52,0a1.07,1.07,0,0,1,2.14,0v5.53a1.07,1.07,0,0,1-2.14,0Zm3.21,0a1.07,1.07,0,0,1,2.14,0v5.53a1.07,1.07,0,0,1-2.14,0Zm3.52,0a1.07,1.07,0,0,1,2.13,0v5.53a1.07,1.07,0,0,1-2.13,0Zm3.51,0a1.07,1.07,0,0,1,2.14,0v5.53a1.07,1.07,0,0,1-2.14,0Zm3.21,0a1.07,1.07,0,0,1,2.14,0v5.53a1.07,1.07,0,0,1-2.14,0Zm3.52,0a1.07,1.07,0,0,1,2.14,0v5.53a1.07,1.07,0,0,1-2.14,0ZM1.07,73.18H32.71a1,1,0,0,0,1.07-1v-13a1,1,0,0,0-1.07-1H1.07a1,1,0,0,0-1.07,1v13a1,1,0,0,0,1.07,1"/><path class="cls-1" d="M5.5,31.18a1,1,0,0,1,1.07-1,1,1,0,0,1,1.07,1v5.53a1,1,0,0,1-1.07,1,1,1,0,0,1-1.07-1Zm3.52,0a1.07,1.07,0,0,1,2.14,0v5.53a1.07,1.07,0,0,1-2.14,0Zm3.21,0a1.07,1.07,0,0,1,2.14,0v5.53a1.07,1.07,0,0,1-2.14,0Zm3.52,0a1.07,1.07,0,0,1,2.13,0v5.53a1.07,1.07,0,0,1-2.13,0Zm3.51,0a1.07,1.07,0,0,1,2.14,0v5.53a1.07,1.07,0,0,1-2.14,0Zm3.21,0a1.07,1.07,0,0,1,2.14,0v5.53a1.07,1.07,0,0,1-2.14,0Zm3.52,0a1.07,1.07,0,0,1,2.14,0v5.53a1.07,1.07,0,0,1-2.14,0ZM1.07,41.53H32.71a1,1,0,0,0,1.07-1v-13a1,1,0,0,0-1.07-1H1.07A1,1,0,0,0,0,27.5v13a1,1,0,0,0,1.07,1"/><path class="cls-1" d="M5.5,47a1.07,1.07,0,0,1,2.14,0v5.53a1,1,0,0,1-1.07,1,1,1,0,0,1-1.07-1ZM9,47a1.07,1.07,0,0,1,2.14,0v5.53a1.07,1.07,0,0,1-2.14,0Zm3.21,0a1.07,1.07,0,0,1,2.14,0v5.53a1.07,1.07,0,0,1-2.14,0Zm3.52,0a1.07,1.07,0,0,1,2.13,0v5.53a1.07,1.07,0,0,1-2.13,0Zm3.51,0a1.07,1.07,0,0,1,2.14,0v5.53a1.07,1.07,0,0,1-2.14,0Zm3.21,0a1.07,1.07,0,0,1,2.14,0v5.53a1.07,1.07,0,0,1-2.14,0ZM26,47a1.07,1.07,0,0,1,2.14,0v5.53a1.07,1.07,0,0,1-2.14,0ZM1.07,57.36H32.71a1,1,0,0,0,1.07-1v-13a1,1,0,0,0-1.07-1H1.07a1,1,0,0,0-1.07,1v13a1,1,0,0,0,1.07,1"/><path class="cls-1" d="M5.5,15.36a1,1,0,0,1,1.07-1,1,1,0,0,1,1.07,1v5.53a1,1,0,0,1-1.07,1,1,1,0,0,1-1.07-1Zm3.52,0a1.07,1.07,0,0,1,2.14,0v5.53a1.07,1.07,0,0,1-2.14,0Zm3.21,0a1.07,1.07,0,0,1,2.14,0v5.53a1.07,1.07,0,0,1-2.14,0Zm3.52,0a1.07,1.07,0,0,1,2.13,0v5.53a1.07,1.07,0,0,1-2.13,0Zm3.51,0a1.07,1.07,0,0,1,2.14,0v5.53a1.07,1.07,0,0,1-2.14,0Zm3.21,0a1.07,1.07,0,0,1,2.14,0v5.53a1.07,1.07,0,0,1-2.14,0Zm3.52,0a1.07,1.07,0,0,1,2.14,0v5.53a1.07,1.07,0,0,1-2.14,0ZM1.07,25.71H32.71a1,1,0,0,0,1.07-1v-13a1,1,0,0,0-1.07-1H1.07a1,1,0,0,0-1.07,1v13a1,1,0,0,0,1.07,1"/><path class="cls-1" d="M39.83,36.46a.74.74,0,0,1,1.47,0v3.87a.74.74,0,0,1-1.47,0Zm2.42,0a.74.74,0,0,1,1.48,0v3.87a.74.74,0,0,1-1.48,0Zm2.21,0a.74.74,0,0,1,1.48,0v3.87a.74.74,0,0,1-1.48,0Zm2.43,0a.74.74,0,0,1,1.47,0v3.87a.74.74,0,0,1-1.47,0Zm2.42,0a.74.74,0,0,1,1.47,0v3.87a.74.74,0,0,1-1.47,0Zm2.21,0a.74.74,0,0,1,1.47,0v3.87a.74.74,0,0,1-1.47,0Zm2.42,0a.74.74,0,0,1,1.48,0v3.87a.74.74,0,0,1-1.48,0ZM36.77,43.7H58.58a.71.71,0,0,0,.73-.69V33.89a.72.72,0,0,0-.73-.7H36.77a.72.72,0,0,0-.73.7V43a.71.71,0,0,0,.73.69"/><path class="cls-1" d="M39.83,14.34a.74.74,0,0,1,1.47,0V18.2a.74.74,0,0,1-1.47,0Zm2.42,0a.74.74,0,0,1,1.48,0V18.2a.74.74,0,0,1-1.48,0Zm2.21,0a.74.74,0,0,1,1.48,0V18.2a.74.74,0,0,1-1.48,0Zm2.43,0a.74.74,0,0,1,1.47,0V18.2a.74.74,0,0,1-1.47,0Zm2.42,0a.74.74,0,0,1,1.47,0V18.2a.74.74,0,0,1-1.47,0Zm2.21,0a.74.74,0,0,1,1.47,0V18.2a.74.74,0,0,1-1.47,0Zm2.42,0a.74.74,0,0,1,1.48,0V18.2a.74.74,0,0,1-1.48,0ZM36.77,21.57H58.58a.71.71,0,0,0,.73-.69V11.76a.72.72,0,0,0-.73-.7H36.77a.72.72,0,0,0-.73.7v9.12a.71.71,0,0,0,.73.69"/><path class="cls-1" d="M39.83,25.4a.74.74,0,0,1,1.47,0v3.87a.74.74,0,0,1-1.47,0Zm2.42,0a.74.74,0,0,1,1.48,0v3.87a.74.74,0,0,1-1.48,0Zm2.21,0a.74.74,0,0,1,1.48,0v3.87a.74.74,0,0,1-1.48,0Zm2.43,0a.74.74,0,0,1,1.47,0v3.87a.74.74,0,0,1-1.47,0Zm2.42,0a.74.74,0,0,1,1.47,0v3.87a.74.74,0,0,1-1.47,0Zm2.21,0a.74.74,0,0,1,1.47,0v3.87a.74.74,0,0,1-1.47,0Zm2.42,0a.74.74,0,0,1,1.48,0v3.87a.74.74,0,0,1-1.48,0ZM36.77,32.64H58.58a.71.71,0,0,0,.73-.69V22.82a.71.71,0,0,0-.73-.69H36.77a.71.71,0,0,0-.73.69V32a.71.71,0,0,0,.73.69"/><path class="cls-1" d="M39.83,3.27a.74.74,0,0,1,1.47,0V7.14a.74.74,0,0,1-1.47,0Zm2.42,0a.74.74,0,0,1,1.48,0V7.14a.74.74,0,0,1-1.48,0Zm2.21,0a.74.74,0,0,1,1.48,0V7.14a.74.74,0,0,1-1.48,0Zm2.43,0a.74.74,0,0,1,1.47,0V7.14a.74.74,0,0,1-1.47,0Zm2.42,0a.74.74,0,0,1,1.47,0V7.14a.74.74,0,0,1-1.47,0Zm2.21,0a.74.74,0,0,1,1.47,0V7.14a.74.74,0,0,1-1.47,0Zm2.42,0a.74.74,0,0,1,1.48,0V7.14a.74.74,0,0,1-1.48,0ZM36.77,10.51H58.58a.71.71,0,0,0,.73-.69V.69A.71.71,0,0,0,58.58,0H36.77A.71.71,0,0,0,36,.69V9.82a.71.71,0,0,0,.73.69"/></g></g></svg>