<svg xmlns="http://www.w3.org/2000/svg" width="42.76" height="48.45" viewBox="0 0 42.76 48.45"><defs><style>.cls-1{fill:#0f6386;}</style></defs><title>costRed</title><g id="Layer_2" data-name="Layer 2"><g id="Layer_1-2" data-name="Layer 1"><rect class="cls-1" x="41.14" y="46.83" width="1.62" height="1.62"/><rect class="cls-1" x="34.24" y="46.83" width="1.73" height="1.62"/><rect class="cls-1" x="37.68" y="46.83" width="1.72" height="1.62"/><rect class="cls-1" x="30.78" y="46.83" width="1.73" height="1.62"/><rect class="cls-1" x="27.33" y="46.83" width="1.73" height="1.62"/><rect class="cls-1" x="23.88" y="46.83" width="1.73" height="1.62"/><rect class="cls-1" x="20.53" y="46.83" width="1.62" height="1.62"/><rect class="cls-1" x="20.53" y="23.39" width="1.62" height="1.67"/><rect class="cls-1" x="20.53" y="26.74" width="1.62" height="1.67"/><rect class="cls-1" x="20.53" y="6.64" width="1.62" height="1.67"/><rect class="cls-1" x="20.53" y="3.3" width="1.62" height="1.67"/><rect class="cls-1" x="20.53" y="30.09" width="1.62" height="1.67"/><rect class="cls-1" x="20.53" y="43.49" width="1.62" height="1.67"/><rect class="cls-1" x="20.53" y="33.44" width="1.62" height="1.68"/><rect class="cls-1" x="20.53" y="36.79" width="1.62" height="1.68"/><rect class="cls-1" x="20.53" y="40.13" width="1.62" height="1.68"/><rect class="cls-1" x="20.53" width="1.62" height="1.62"/><rect class="cls-1" x="30.78" width="1.73" height="1.62"/><rect class="cls-1" x="27.33" width="1.73" height="1.62"/><rect class="cls-1" x="23.88" width="1.73" height="1.62"/><rect class="cls-1" x="37.69" width="1.72" height="1.62"/><rect class="cls-1" x="34.24" width="1.73" height="1.62"/><rect class="cls-1" x="41.14" width="1.62" height="1.62"/><rect class="cls-1" x="41.14" y="3.3" width="1.62" height="1.67"/><rect class="cls-1" x="41.14" y="6.64" width="1.62" height="1.67"/><rect class="cls-1" x="41.14" y="26.74" width="1.62" height="1.67"/><rect class="cls-1" x="41.14" y="30.09" width="1.62" height="1.67"/><rect class="cls-1" x="41.14" y="23.39" width="1.62" height="1.68"/><rect class="cls-1" x="41.14" y="40.13" width="1.62" height="1.68"/><rect class="cls-1" x="41.14" y="13.34" width="1.62" height="1.68"/><rect class="cls-1" x="41.14" y="36.79" width="1.62" height="1.68"/><rect class="cls-1" x="41.14" y="16.69" width="1.62" height="1.68"/><rect class="cls-1" x="41.14" y="20.04" width="1.62" height="1.67"/><rect class="cls-1" x="41.14" y="43.49" width="1.62" height="1.67"/><rect class="cls-1" x="41.14" y="33.44" width="1.62" height="1.68"/><rect class="cls-1" x="41.14" y="9.99" width="1.62" height="1.68"/><path class="cls-1" d="M8,37.94a2.08,2.08,0,1,1,.6-1.47A2.06,2.06,0,0,1,8,37.94M4.46,12a2.07,2.07,0,1,1,2.07,2.07A2.07,2.07,0,0,1,4.46,12M34,7.36l-.57-.58a4.58,4.58,0,0,0-6.45,0L13.33,20.43l-3.08-3.08a6.39,6.39,0,0,0,.9-.75,6.53,6.53,0,1,0-9.24,0l7.63,7.63L1.91,31.85A6.54,6.54,0,0,0,6.53,43a6.46,6.46,0,0,0,4.62-1.92,6.54,6.54,0,0,0,0-9.24,6.32,6.32,0,0,0-.9-.74L13.34,28l4.31,4.32,1.14-1.15v-5.3l-1.66-1.66Z"/><path class="cls-1" d="M30.1,31.45a.84.84,0,0,0,.27.64,3.07,3.07,0,0,0,.86.51V30.54c-.75.11-1.13.42-1.13.91"/><path class="cls-1" d="M32.44,35.63v2.19c.79-.14,1.19-.48,1.19-1a.78.78,0,0,0-.3-.62,4,4,0,0,0-.89-.53"/><path class="cls-1" d="M35.26,38.89a4.94,4.94,0,0,1-2.82,1v1.8H31.23V39.94a9.63,9.63,0,0,1-3.75-.76V36.87a10.73,10.73,0,0,0,1.84.67,10.31,10.31,0,0,0,1.91.34V35.16l-.58-.23a6.64,6.64,0,0,1-2.47-1.49,2.86,2.86,0,0,1-.72-2,2.59,2.59,0,0,1,1-2.09,5,5,0,0,1,2.77-1V27h1.21v1.31a10,10,0,0,1,3.63.81l-.83,2.05a9.48,9.48,0,0,0-2.8-.68V33.1a12.29,12.29,0,0,1,2.43,1.14,3.24,3.24,0,0,1,1.06,1.06,2.56,2.56,0,0,1,.34,1.35,2.78,2.78,0,0,1-1,2.24M23.65,27.09V45.33h16V11.11Z"/></g></g></svg>