<svg xmlns="http://www.w3.org/2000/svg" viewBox="0 0 47.97 47.99"><defs><style>.cls-1{fill:#007bbb;}</style></defs><title>deployment</title><g id="Layer_2" data-name="Layer 2"><g id="Layer_1-2" data-name="Layer 1"><path class="cls-1" d="M18.85,23.89a7.26,7.26,0,0,0-10.06.36L.66,32.38a2.26,2.26,0,0,0,0,3.19l6.77,6.77a2.26,2.26,0,0,0,3.19,0L19,34a7,7,0,0,0-.13-10.09"/><path class="cls-1" d="M47.77,2.75h0A4,4,0,1,0,45.22,7.8a4,4,0,0,0,2.55-5"/><path class="cls-1" d="M44.45,18.05a4.94,4.94,0,0,0-2.29-6.59l-2.65-1.33a1.46,1.46,0,0,0-.44-.16c-6.85-3-15.43.3-18.87,7a2.07,2.07,0,0,0,3.68,1.89A11.19,11.19,0,0,1,35,13.06L18.2,45a2.09,2.09,0,0,0,.91,2.81,2,2,0,0,0,.95.23,2.09,2.09,0,0,0,1.86-1.14l9.31-17.72L35,31a10.44,10.44,0,0,1,4.23,13.93,2.08,2.08,0,0,0,2.48,3,2,2,0,0,0,1.22-1A14.28,14.28,0,0,0,39,28.74l1.76-3.4Z"/></g></g></svg>