<svg xmlns="http://www.w3.org/2000/svg" width="96.12" height="105.34" viewBox="0 0 96.12 105.34"><defs><style>.cls-1{fill:#fff;}</style></defs><title>earthMoon</title><g id="Layer_2" data-name="Layer 2"><g id="Layer_1-2" data-name="Layer 1"><path class="cls-1" d="M33.18,65.22C14.87,65.22,0,50.61,0,32.61S14.87,0,33.18,0,66.37,14.61,66.37,32.61,51.5,65.22,33.18,65.22m24-38.58c.16.08.24.48.49.64a2.47,2.47,0,0,1,.66.81.28.28,0,0,0,.08.16,1.33,1.33,0,0,1,.57.65h0a.57.57,0,0,1,0,.72c-.08.09-.24.33-.33.41a1.75,1.75,0,0,1-.41.56l-.08.08c-.66-.24-1.56-1.93-1.64-1.85s.57,1,.49,1.21l-.08.08c-.08.16-.08.56-.41.56s-1.07-1.53-1.07-1.77c.08-.65.49-.65.33-1.29a2,2,0,0,1,0-1.38,3.46,3.46,0,0,0,.08-.4c.08-.4.66-.32.91-.16a.32.32,0,0,1,.16.32h-.08a1.54,1.54,0,0,0,.33.65M24.72,42.7c1-.08,1,.08,1.07.32a1.88,1.88,0,0,0,.58.49l.08.08a5.42,5.42,0,0,0,.74.64.6.6,0,0,1,.32.49c.09.08.09.24.66.32s.49.73.82,1a.31.31,0,0,1,.17.32c0,.08-.08.16-.08.25s-.17.08-.25.16c-.58.24-.74-.16-1.23-.25s-.91-1.61-1.65-2.26c-.08-.08-.08-.16-.16-.24s-.08-.32-.74-.56l-.33-.33Zm4.6,3.88c.33-.25.58.08.82.16a2.08,2.08,0,0,1,.91.32.61.61,0,0,0,.33.32c.24.24.16.16-.17.57,0,0,.66.4.66.72-.08.65-1.81-.32-1.89-.48,0,0-.74-.32-.9-.65-.33-.56-.33-.56,0-.8.08,0,.16-.08.24-.16m12.9-13.32c.16-.16.24-.41.49-.25s0,.81.25.89c.49.16.41,1.29.9,1.62a3.4,3.4,0,0,1-.16.88c-.25-.08-1.73-.4-1.65-.88s-.49-1.94.17-2.26m.08-11.14v.32a2.75,2.75,0,0,0,.9,1.37c.25.24.09,1.21-.08,1.45s-.16.17-.33.17a1.5,1.5,0,0,0-.41.16c-.24.24-.24.48-.41.56a1.14,1.14,0,0,1-1.23-.32c-.25-.4-2-1.78-1.89-1.94s0-.08.08-.16h.17a3.74,3.74,0,0,1,.9-.08,2.9,2.9,0,0,1,.66-.81,1.32,1.32,0,0,0-.5-1.29c-.24-.08-.32-.4-.41-.48-.49-.24-.9-1.54-.9-1.94s1.15-.81,1.48-.4a18.37,18.37,0,0,1,1.56,2c.08.32.82.88.41,1.37m-.58-7c.42-.25,2.22.16,2,1.12,0,.09.41.17.49.17a2,2,0,0,1,2.38.08c.33.24.9.24,1.07.8,0,.25,1.23,1.22,1.39,2a4.39,4.39,0,0,1,.83.89c.82.24,1.06,2.91.49,3.55a.44.44,0,0,1-.33.16c-1.4-.08-1.64.81-1.81,1.54-.16.48-.24,1-.74,1.13a.17.17,0,0,0-.16.16c-.25.24-.08,1,.25,1.21.65.56.9.89.74,1.05s-.58,0-1.15-.16a3.86,3.86,0,0,0-1.4-.41c-.82.08-1.48-1.13-1.64-2.18-.09-.08.41-.4.33-.4-.33-.24-.5-.08-.5-.89a2.32,2.32,0,0,1,.33-.64c.82-.81-.33-3.31-1.07-4.2a2.25,2.25,0,0,1-.41-2.34c0-.16,0-.16-.08-.08a.32.32,0,0,0-.25.08c-.32.16-.9.89-1.31,1-.08,0-.25-.08-.41-.49,0-.56-.9-1-.41-1.53.74-.24,1.39-1.61,1.39-1.61m10.52,8.55c.41,0,.74,0,.82.65.08.16.33.24.41.4.33.49-.57,1-.9,1.21-.09.08-.25.16-.33.24-.58.41-1.15.65-1.81-.16-.33-.48,0-.89,0-1.29-.08-.81.41-.81.9-.81a3.83,3.83,0,0,0,.91-.24m7.47,28.09h0c-.9.24-1.72,1.13-2.46.65a.44.44,0,0,0-.33-.17c-1.15-.16-.82-3.55-.9-4.76-.09-.72,1.15-2.58,1.23-3.23,0-1.21,2.13-2.42,2-3.47,0-.88.58-1.53.66-2.26a1.72,1.72,0,0,1,1.07-1c0-.16.16-.4.16-.48-.25.08-1,1.13-1.48,1.13-1-.16-2.22-.81-1.48-1.78.09-.16.09-.24,0-.32-.41-.64,0-1,.25-1.53.08-.16.16-.25.25-.25s.08-.08.16-.08.25-.08.49-.16c.41-.16.41-.24.41-.64,0-.16-.16-.08-.24-.16-.25-.33-.66-.41-1.23-.89-.74-1,1.06-1.94,1.06-2,0-.48-.16-.89-.16-1.37s-.58-1.46-.49-1.62c.24-.4.41-1.37.65-1.61s.09-.41.09-.73c.24-.56-.41-1.21.16-2.34.08-.08.16-.16-.08-.4a11.36,11.36,0,0,1-1.07-1.62c-.25-.72-.25,0-.25.08.17.25.09.33-.08.41s-.33.08-.57.08c-.41,0-.25-.08,0,.08,1.06.89.9,1.37,1.23,2.5.16.41.41.49.57.73s.09.24-.08.32c-.49.32-1.31-.24-1.72.24-.09.17-.17.24-.33.17-.74-.33-.49-.65-.91-1.05-.65-.73-.65-.73-.57-1.38a2.36,2.36,0,0,0-.58-1.93,20.09,20.09,0,0,1-1.39-2.1,2.16,2.16,0,0,1-.08-1.46.44.44,0,0,1,.65-.32c.41.16,1.48.24,1.56.32.25.25.41.33.5.33.08-.16-.25-1.05-.33-.89s-.17.4-.74.16c-.66-.4-.82-.65-.66-.81s.41-.16.25-.32c-.41-.56,0-1.94-1.07-2.91-.49-.48-.74-1.61-1.31-1.37-1.32.57-1.15,0-1.89-.72a4.63,4.63,0,0,0-1-.73,3.43,3.43,0,0,0-1.15-.16c-1.39,0-1.72-.32-2-.73a.58.58,0,0,0-.41-.32V8.72c-1.23-.65-1.32-1.05-1.15-1.29.24-.41.82-1-.49-.81a2.53,2.53,0,0,1-1.89-.32c-2.14-1.13-1.24-.08-1.89.08-.25.08-.58-.08-1-.24-2.22-1-1,1-2.13.8-.25,0-.5-.24-.83-.48s-.73-.57-.9-.41c-.41.33-.41.49-.41.57-.08.56-1.56.48-2.3,1a1.75,1.75,0,0,1-1.56.24c-.41-.16-1.31,0-1.48-.32s.58-.89.82-1,.09-.08.09-.32-.41-.49-.66-.65-.25-.16-.25-.24,0-.16.08-.16c.66-1.78,1.73-1.54,2.47-1.29.16,0,.33.08.41,0,1.07-.65.57-1.94,2.46-1.54.74.16,1,0,1.07-.32a9.77,9.77,0,0,0,0-1.53C35.4.4,34.33.32,33.18.32,15,.32.33,14.77.33,32.61a32.29,32.29,0,0,0,20.78,30,1.46,1.46,0,0,1,.74-1.21c.65-.41.24-1,0-1.37-.91-1.38-.33-1.86-1.23-3,0-.73-1.32-1.37-1.07-2.67,0-.4,1-1.69,1.31-1.69a15.43,15.43,0,0,1,1.73-.16c.41-.65.9-.49,1.06-1.29.09-.17.25-.17.33-.25s0-.08-.16-.24a9,9,0,0,0-2-.89,1.06,1.06,0,0,0-.5-.72c-.41-.24-.9-.57-.82-1.94a6.42,6.42,0,0,0-1.72-4.12,2.07,2.07,0,0,1-1.07-1c-.16-.4-1.4-1.53-1.4-1.69.09-1-.82-1.53-.9-2.26s-.49-.73-.66-1c-.24-1,.09-1.21.41-1.37.83-.57.66-3.07.66-3.79,0-.89.58-1.78.58-2.26h-.09a4,4,0,0,0-.57,1.21c-.41.88,0,2.34-.25,2.58s-.65-.16-.82-.4c-.9-1.78.74-7.67,2.14-9s3-3.87,5-4c.08,0,2.38-3.88,3.37-4.52C26,15,27.51,12.83,26.94,12a3.72,3.72,0,0,1-1.15-1.3c-.66-1-1.89-1.21-.57-2.34a2.29,2.29,0,0,0,.9,1.22,4.19,4.19,0,0,1,1.15-1,1.22,1.22,0,0,1,1.39,0c.25.16.5.48.74.64s.33,0,.5-.24c.33-.73,1.48-.4,1.64.24,1.64-.08,1.07.33,1.89.81.16.16.25.16-.08.64s.24.81-.66,1.46c-.08,0-.08.16-.08.32a18.74,18.74,0,0,0,2,5.41c0-.08.17-.32.25-.32.24-.16-.5-.65-.5-1.13a.8.8,0,0,1,.25-.65c.17-.16-.41-.56-.41-.81.33-.56,2.46-.64,2.22.65-.08.73.24.56.41,1a2.43,2.43,0,0,1-.33,1.86c-.16.16-.41.32-.41.56s.66,0,.74.08.57-.89.74-.89c1.39-.4.08,1.86.08,1.86.08.32.49.4.82.48s.74.25.74.57c0,.08.08.73.08.73-.08.32-1.56.4-1.89.56-.82.4-3.77.08-3.69,1.21,0,.4-.17,2.67.57,2.42.58.57.91.81.58,1.54-.08.24-.41,1.29.08,1.85a1.76,1.76,0,0,0,.41-.64c.08-.17.08-.24.66-.65.08-.08.33-.4.57-.64a.64.64,0,0,0,.25-.25c0-.72-.58-.72.08-1.53,1-1.29,1.4-1.45,1.64-1.21l.25.24a.83.83,0,0,0,.33.41,1.92,1.92,0,0,1,.49.4c.08.16.25.32.25.48l.24.49c.17.24.33.4.25.72,0,.16.25.33.49.49a2.12,2.12,0,0,1,.66.56c0,.08.08.16.16.25a1.56,1.56,0,0,1,.5,1c.08.33.24.57.33.89a1.75,1.75,0,0,1-.17,2.1,1.49,1.49,0,0,1-2.13.32,7.49,7.49,0,0,0-1.89-.08.68.68,0,0,0-.5.33c.25.08,1.48-.49,2.06.4,0,.08-.33.73-.25.73.08.16.49.16.66.16.33,0,.57.56.49.89,0,.48-.41.48-.74.32-.08-.08-.82.24-1.15.08s-.49.16-.74.24-.41,0-.49-.48-.9-.08-1.07.16a2.63,2.63,0,0,1-1.15.64c-.24.08-.16.08-.49,0-.08,0-.74.41-1,.49a4.94,4.94,0,0,0-1.39,1.53c-.25.73-1.64.49-2.22.89-.49,0-1.31.08-1.56.56s-.33.17-.58.89v.25c0,.64,0,1.45-.9,1.45-.57,0-.74-.65-.57-1.13a2.54,2.54,0,0,0-1.24-2.58,1.28,1.28,0,0,0-.73-.17A1.22,1.22,0,0,1,23.74,38a2.33,2.33,0,0,0-2.06-1.21c-.33,0-1.64.56-1.72.89a3.66,3.66,0,0,0-1,1.93c.17.33.41,1,.66,1.46a2,2,0,0,1,.82.4.52.52,0,0,0,.58.08,1.15,1.15,0,0,1,1.23-.16c.49.24.9.48.82,1.13a4.81,4.81,0,0,0-.58.65,1.66,1.66,0,0,1-.65.64c-.25.08-.58.32-.08.48a3.35,3.35,0,0,1,1.15,1c.24.25.82,1,.65,1.38l-.41.4a1.75,1.75,0,0,0-.49,1.21A1.43,1.43,0,0,0,23,49.4a1.71,1.71,0,0,0,.49.32c.74.08,1,.81,1.23.73,1.23-.4,3-.4,3.86.89.08.16,2.55.32,3.12,1a1,1,0,0,0,.91.48,1.12,1.12,0,0,1,1.15.81,7.54,7.54,0,0,0,3,2.58c2.63,1.13.58,4,5.84,4,1.39,0,1.23.72,1.39,1.29.17.4-3.61,1.37-4,2.82A32.9,32.9,0,0,0,59.71,51.74m4.93-20.1c-.08-.56,0-.72.25-.72h.16c.66.24.33-.89.82-1.05H66c-.08-.89-.24-1.86-.41-2.75a3,3,0,0,1-.74,1.05c-.49.41.83,1.7.25,2.1-.25.24-1.23.4-1.48.08-.16-.16-.08-.24-.33-.24-.08-.08-.24-.08-.24,0s.65.72.74.89c.33.32-.41,1.13-.74.72s-.5-.16-.74-.32c-.33.57-.33,1.13-.58,1.45a23,23,0,0,0-.41,2.67s.25.64.33.64l1.48-2.5c.08-.16.16-.24.49-.24s.5.48.74.56a2.05,2.05,0,0,0,.33-.56.74.74,0,0,0,.08-.41c-.08-.4,0-1-.08-1.37"/><path class="cls-1" d="M66,79.23a.52.52,0,0,1,.08-.71h0a.5.5,0,0,1,.7.08h0a.51.51,0,0,1-.08.71h0a.5.5,0,0,1-.31.1h0A.51.51,0,0,1,66,79.23Zm-1.26-1.6a.5.5,0,0,1,.08-.7h0a.5.5,0,0,1,.7.08h0a.5.5,0,0,1-.08.7h0a.51.51,0,0,1-.31.11h0A.47.47,0,0,1,64.77,77.63ZM63.5,76a.52.52,0,0,1,.08-.71h0a.51.51,0,0,1,.71.09h0a.5.5,0,0,1-.08.7h0a.56.56,0,0,1-.32.11h0A.52.52,0,0,1,63.5,76Zm-1.26-1.6a.5.5,0,0,1,.08-.7h0a.49.49,0,0,1,.7.08h0a.51.51,0,0,1-.08.71h0a.5.5,0,0,1-.31.1h0A.48.48,0,0,1,62.24,74.44ZM61,72.85a.49.49,0,0,1,.08-.7h0a.5.5,0,0,1,.7.08h0a.5.5,0,0,1-.08.7h0a.51.51,0,0,1-.31.11h0A.49.49,0,0,1,61,72.85Zm-1.27-1.59a.51.51,0,0,1,.08-.71h0a.51.51,0,0,1,.71.09h0a.5.5,0,0,1-.09.7h0a.5.5,0,0,1-.31.1h0A.51.51,0,0,1,59.71,71.26Zm-1.26-1.6a.49.49,0,0,1,.08-.7h0a.5.5,0,0,1,.7.08h0a.49.49,0,0,1-.08.7h0a.45.45,0,0,1-.31.11h0A.48.48,0,0,1,58.45,69.66Zm-1.27-1.59a.5.5,0,0,1,.08-.7h0a.5.5,0,0,1,.71.08h0a.5.5,0,0,1-.08.7h0a.56.56,0,0,1-.31.11h0A.53.53,0,0,1,57.18,68.07Zm-1.26-1.59a.51.51,0,0,1,.08-.71h0a.5.5,0,0,1,.7.08h0a.51.51,0,0,1-.08.71h0a.5.5,0,0,1-.31.1h0A.5.5,0,0,1,55.92,66.48Zm-1.27-1.6a.5.5,0,0,1,.09-.7h0a.5.5,0,0,1,.7.08h0a.5.5,0,0,1-.08.7h0a.51.51,0,0,1-.31.11h0A.5.5,0,0,1,54.65,64.88Zm-1.26-1.59a.5.5,0,0,1,.08-.7h0a.51.51,0,0,1,.71.08h0a.5.5,0,0,1-.08.7h0a.56.56,0,0,1-.32.11h0A.52.52,0,0,1,53.39,63.29Z"/><path class="cls-1" d="M62.33,63l1.51-.29.32.43-2,.33-.88,1.86L61,64.92l.71-1.4-1.55.29-.32-.43,2-.33.86-1.83.32.43Z"/><path class="cls-1" d="M63.23,64.9l1.53-1,.94,1.26-.34.25-.72-1L63.8,65a.84.84,0,0,1,.42.29.77.77,0,0,1,.13.73,1.49,1.49,0,0,1-.55.72,1.4,1.4,0,0,1-.86.32.87.87,0,0,1-.69-.38.9.9,0,0,1-.19-.69,1.21,1.21,0,0,1,.41-.68l.25.33a.9.9,0,0,0-.27.43.49.49,0,0,0,.1.38.45.45,0,0,0,.42.19,1.19,1.19,0,0,0,.56-.25,1,1,0,0,0,.37-.47.5.5,0,0,0-.08-.47.52.52,0,0,0-.3-.21l-.16,0Z"/><path class="cls-1" d="M64.84,67.05l1.53-1,.94,1.25-.33.25-.73-1-.83.52a.88.88,0,0,1,.41.29.78.78,0,0,1,.14.73,1.43,1.43,0,0,1-.56.72,1.38,1.38,0,0,1-.86.32.91.91,0,0,1-.69-.38.89.89,0,0,1-.18-.69,1.11,1.11,0,0,1,.41-.67l.25.32a.83.83,0,0,0-.27.43.44.44,0,0,0,.09.38.46.46,0,0,0,.42.19,1,1,0,0,0,.56-.25.91.91,0,0,0,.37-.47.47.47,0,0,0-.07-.46.49.49,0,0,0-.3-.21l-.17,0Z"/><path class="cls-1" d="M81.24,104.61A14.12,14.12,0,1,1,95.39,90.5a14.15,14.15,0,0,1-14.15,14.11m0-28.95A14.84,14.84,0,1,0,96.12,90.5,14.87,14.87,0,0,0,81.24,75.66"/><path class="cls-1" d="M76.48,85.51c-.58,1-1.62,1.49-2.31,1.09s-.79-1.54-.21-2.54a2.24,2.24,0,0,1,1.77-1.23,1,1,0,0,1,.54.14c.69.4.78,1.54.21,2.54m.15-3.17c-1-.6-2.52,0-3.3,1.36s-.57,2.93.47,3.53a1.87,1.87,0,0,0,.89.23,3,3,0,0,0,2.42-1.59c.77-1.35.56-2.93-.48-3.53"/><path class="cls-1" d="M91.49,95.18a5.05,5.05,0,0,1-1.3,1.95,1.3,1.3,0,0,1-1.2.41c-.32-.13-.53-.53-.59-1.12a5.13,5.13,0,0,1,.4-2.31,5.05,5.05,0,0,1,1.3-2,1.65,1.65,0,0,1,1-.45.61.61,0,0,1,.24,0c.63.26.87,1.73.19,3.43m.08-4.1a1.93,1.93,0,0,0-1.95.54,6.33,6.33,0,0,0-1.94,4.87,1.9,1.9,0,0,0,1,1.72,1.25,1.25,0,0,0,.51.1,2.31,2.31,0,0,0,1.43-.63,5.84,5.84,0,0,0,1.5-2.23c.8-2,.54-3.92-.59-4.37"/><path class="cls-1" d="M75.22,97.66a1,1,0,1,1,1-1,1,1,0,0,1-1,1m0-2.75A1.74,1.74,0,1,0,77,96.65a1.74,1.74,0,0,0-1.74-1.74"/><path class="cls-1" d="M80,90.5a1.67,1.67,0,1,1,1.67,1.66A1.67,1.67,0,0,1,80,90.5m4.06,0a2.4,2.4,0,1,0-2.39,2.39,2.39,2.39,0,0,0,2.39-2.39"/><path class="cls-1" d="M85.81,83.69A1.16,1.16,0,1,1,87,82.53a1.16,1.16,0,0,1-1.17,1.16m0-3a1.89,1.89,0,1,0,1.89,1.88,1.88,1.88,0,0,0-1.89-1.88"/><path class="cls-1" d="M69.46,86.56a.36.36,0,0,0-.68-.24,11.3,11.3,0,0,0,.53,9,.37.37,0,0,0,.32.2.41.41,0,0,0,.17,0A.37.37,0,0,0,70,95a10.6,10.6,0,0,1-.49-8.39"/><path class="cls-1" d="M71,97a.36.36,0,1,0-.65.33,5.22,5.22,0,0,0,1.72,2,.36.36,0,0,0,.2.06.38.38,0,0,0,.3-.16.35.35,0,0,0-.1-.5A4.58,4.58,0,0,1,71,97"/><path class="cls-1" d="M87.74,80.24a9.73,9.73,0,0,1,4.54,6.28.36.36,0,0,0,.36.28h.07a.36.36,0,0,0,.28-.43,10.39,10.39,0,0,0-4.89-6.75.37.37,0,0,0-.5.13.35.35,0,0,0,.14.49"/><path class="cls-1" d="M93.14,87.92a.35.35,0,0,0-.4-.31.36.36,0,0,0-.32.4,7.07,7.07,0,0,1,0,1.72.36.36,0,0,0,.32.4h.05a.34.34,0,0,0,.35-.32,7.47,7.47,0,0,0,0-1.89"/><path class="cls-1" d="M82.62,100a.29.29,0,1,1-.29.29.29.29,0,0,1,.29-.29"/><path class="cls-1" d="M83.56,98.24a.65.65,0,0,1,.66.65.66.66,0,1,1-1.31,0,.65.65,0,0,1,.65-.65"/><path class="cls-1" d="M81.68,98.32a.43.43,0,0,1,0,.86.43.43,0,1,1,0-.86"/><path class="cls-1" d="M73.11,90.5a.36.36,0,1,1,0,.72.36.36,0,0,1,0-.72"/><path class="cls-1" d="M74.49,89.48a.73.73,0,0,1,.73.73.73.73,0,0,1-.73.72.72.72,0,0,1-.72-.72.73.73,0,0,1,.72-.73"/><path class="cls-1" d="M74.2,91.73a.36.36,0,1,1,0,.72.36.36,0,0,1,0-.72"/><path class="cls-1" d="M80,79.57a.36.36,0,1,1-.36.36.36.36,0,0,1,.36-.36"/><path class="cls-1" d="M81.82,78.34a.87.87,0,1,1-.87.86.86.86,0,0,1,.87-.86"/><path class="cls-1" d="M81.24,81a.58.58,0,1,1-.58.58.58.58,0,0,1,.58-.58"/><path class="cls-1" d="M89.22,86.3a.36.36,0,1,1,0,.72.36.36,0,0,1,0-.72"/></g></g></svg>