<?xml version="1.0" encoding="utf-8"?>
<!-- Generator: Adobe Illustrator 23.0.3, SVG Export Plug-In . SVG Version: 6.00 Build 0)  -->
<svg version="1.1" id="Layer_1" xmlns="http://www.w3.org/2000/svg" xmlns:xlink="http://www.w3.org/1999/xlink" x="0px" y="0px"
	 viewBox="0 0 61.6 61.6" style="enable-background:new 0 0 61.6 61.6;" xml:space="preserve">
<style type="text/css">
	.st0{fill:#2B2B2B;}
	.st1{fill:#3D3D3D;}
	.st2{fill:#919191;}
	.st3{fill:#6B6B6B;}
	.st4{fill:#525252;}
	.st5{fill:#737373;}
	.st6{fill:#28A5DE;}
	.st7{fill:none;stroke:#28A5DE;stroke-width:1.02;stroke-linecap:round;stroke-linejoin:round;}
</style>
<path class="st0" d="M31.7,57.7c0.1-0.1,0.4-0.2,0.5,0l0,0H31.7z"/>
<path class="st1" d="M30.2,57.7c0.1,0,0.2,0,0.3,0.1L30.2,57.7C30.2,57.7,30.1,57.7,30.2,57.7L30.2,57.7"/>
<path class="st2" d="M29.5,57.7c0-0.1,0.1-0.1,0.2-0.1s0,0,0,0l0,0L29.5,57.7z"/>
<path class="st3" d="M29.7,57.7L29.7,57.7l0.3-0.1l0,0l0,0L29.7,57.7z"/>
<path class="st4" d="M30,57.7L30,57.7l0.2-0.1v0.1H30z"/>
<path class="st5" d="M32.9,57.7c0.1-0.1,0.2-0.1,0.2,0H32.9z"/>
<path class="st6" d="M29.7,17.5c0,0.2-0.2,0.3-0.3,0.3l0,0c-0.1,0-0.1,0.1-0.2,0.2c-0.1,0.3-0.3,0.3-0.7,0.4c-0.2,0-0.4-0.2-0.4-0.4
	c0-0.3,0.2-0.2,0.4-0.2s0.4,0,0.5-0.3s0.3-0.1,0.5-0.1S29.7,17.3,29.7,17.5 M27.3,18.4c-0.3,0-0.3-0.1-0.3-0.3s0.1-0.4,0.3-0.4
	c0.2,0,0.3,0.1,0.3,0.3l0,0C27.6,18.4,27.4,18.4,27.3,18.4 M42.7,15.1c0.2-0.6,0.7-1.1,1.3-1.1c0.2,0.1,0.5,0.1,0.5,0.3
	c0.1,0.2,0,0.5-0.2,0.6c-0.4,0.2-0.7,0.6-1.1,0.6S42.6,15.4,42.7,15.1 M44.2,13.4c0-0.3,0.2-0.5,0.5-0.5c0.7-0.2,0.7-0.2,0.8,0.5
	c0.1,0.8,0.7,1.5,1.5,1.8c-0.2,0.2-0.3,0.6-0.7,0.6c-0.5,0.1-1.1,0.1-1.6,0.1c-0.2,0-0.1-0.2-0.1-0.3s-0.2-0.6,0.3-0.7
	c0.2,0,0.4,0,0.4-0.2s-0.1-0.4-0.3-0.5s-0.4-0.2-0.5-0.3C44.3,13.9,44.2,13.7,44.2,13.4 M58,22.9c-0.2-0.4-0.3-0.8-0.4-1.2
	c-0.1-0.6-0.4-0.7-1-0.7c-0.7,0.1-1.4-0.4-1.5-1.1v-0.1c0-0.2,0-0.5-0.1-0.7c-1.1,0.2-0.8,1.2-1.2,1.8c-0.5-0.5-1.2-1-1.1-1.9
	c0-0.1,0-0.2-0.1-0.2c-0.8-0.6-1.3-1.6-2.5-1.2c0,0.6,0.4,1.1,1,1.3c0.3,0.1,0.5,0.3,0.8,0.4c0.1,0.1,0.3,0.2,0.1,0.3
	s-0.1,0.4-0.2,0.6s0,0.2-0.1,0.3c-0.4,0.3-1,0.3-1.3-0.1c-0.1-0.1-0.1-0.2-0.2-0.3h0.7c0.2,0,0.3-0.1,0.3-0.3s-0.1-0.2-0.2-0.2
	c-0.4-0.3-0.8-0.5-1.2-0.8s-0.8-0.5-0.8-1c-0.3,0.2-0.5,0.4-0.7,0.6s-0.3,0.2-0.4,0.1c-0.6-0.3-0.9,0.1-1.2,0.5
	c-0.2,0.2-0.5,0.5-0.5,0.7c-0.4,1.3-1.5,1.1-2.4,1.1h-0.1c-0.7,0-1-0.3-1.1-0.9c0-0.2-0.1-0.4-0.1-0.6c-0.1-0.5,0.2-1,0.7-1.1
	c0,0,0,0,0.1,0c0.6-0.2,1.3-0.1,1.9,0.1c0.2,0.1,0.3,0,0.4-0.2s0.3-0.5-0.1-0.5s-0.4-0.1-0.3-0.4s-0.2-0.9,0.5-0.9
	c0.7,0.1,1.3-0.3,1.6-0.9c0.3-0.7,1-0.7,1.6-0.7c0.4,0,0.8,0.3,1,0s0-0.7-0.1-1.1c0,0,0-0.1-0.1-0.1s-0.3,0.1-0.4,0.1
	c-0.5,0.3-0.8,0.2-0.9-0.4c0-0.2-0.2-0.4-0.4-0.4c-0.6-0.1-0.7-0.5-0.3-1c0.4-0.3,0.8-0.6,1.3-0.7c0.6-0.3,0.6-0.6,0.2-1
	c-0.9-0.7-1.8-1.4-2.8-2c-5.8-3.7-12.8-5.1-19.6-4c-4.1,0.6-8,2.2-11.4,4.5c-0.1,0.1-0.3,0.1-0.3,0.3c0.5,0.1,1-0.1,1.4,0.1
	c0.5,0.2,1,0.4,1.6,0.4c0.1,0,0.2-0.1,0.2-0.2c0.2,0,0.3-0.2,0.2-0.4V8.7c-0.1-0.2-0.2-0.1-0.4-0.2c-0.4,0-0.7,0-1.1-0.1
	c0.5-0.3,0.9-0.7,1.3-0.9c0.7-0.4,1.6-0.2,2.2,0.3c0.4,0.6,1.2,0.7,1.8,0.3c0.1,0,0.1-0.1,0.2-0.2c0.4-0.3,0.4-0.3,0.8,0
	c-0.4,0.8-1.4,1.2-2.2,1c0,0.3,0.1,0.5,0.1,0.7s0,0.2,0.2,0.2c0.6-0.1,1.3,0.4,1.7-0.4c0.1-0.1,0.2-0.1,0.4-0.1h0.6
	c0.4,0,0.3-0.3,0.3-0.5s-0.1-0.2-0.3-0.2c-0.4,0-0.3-0.2-0.2-0.5C24,8.2,24.2,8,24.4,8c0.6-0.1,1.3,0,1.9,0.1
	c-0.2,0.2-0.5,0.4-0.7,0.6c-0.4,0.2-0.2,0.6-0.1,0.8s0.6,0.2,0.9,0.2s0.1-0.4,0.1-0.6c-0.1-0.4,0.1-0.8,0.5-0.9c0,0,0,0,0.1,0
	c0.9-0.5,2-0.5,3-0.1c0.5,0.2,0.9,0.4,1.4,0.6C31.8,8.8,32,9.1,32,9.4l0,0c0,0.2-0.1,0.5,0.3,0.5c0.6,0,0.5,0.3,0.3,0.6
	s-0.4,0.3-0.6,0.2c-0.5-0.1-0.8,0.1-0.9,0.6c0,0.1,0,0.3-0.3,0.2l-2.5-0.6l2-1.2C29.6,9,29.6,9,28.7,9.1c-0.4,0.1-0.8-0.1-1.1,0.2
	c-0.3,0.5-0.9,0.7-1.4,0.6c0,0.2,0.1,0.5,0.3,0.6c-0.2,0.3-0.6,0-0.7,0.3s-0.3,0.2-0.5,0.3s-0.2-0.2-0.2-0.4c0-0.3-0.1-0.4-0.5-0.3
	c-1.1,0.4-2.1,0.9-3.1,1.6c-0.1,0-0.2,0.1-0.1,0.2c0,0.7,0.5,1.2,1.2,1.3c0.4,0.1,0.9,0,1.1,0.2s0,0.7,0.1,1.1
	c0,0.1-0.1,0.3,0.1,0.3s0.5,0.1,0.6-0.2s0.2-0.4,0.3-0.5s0.2-0.6,0.5-0.7s1-0.1,1.1-0.4s0.1-0.8,0.1-1.2c0-0.6,0.4-1,0.9-1.1
	c0.1,0,0.3,0,0.4,0.1c0.2,0.1,0.4,0.1,0.7,0.2c0.6,0,0.8,0.3,0.7,0.9s0.1,0.6,0.6,0.4s0.8-0.4,1.3-0.6c0,0.2,0,0.4,0,0.5
	c-0.2,0.6,0.2,1.3,0.8,1.5l0,0c0.1,0.6,0.1,0.8,0.1,1c0,0.4-0.1,0.7-0.6,0.8c-0.2,0-0.4,0-0.4,0.2s0.2,0.3,0.4,0.4l0.6,0.3
	c0.3,0.1,0.2,0.4,0.2,0.6s-0.3,0.2-0.4,0.1c-0.4-0.1-0.7-0.2-1-0.3c-0.6-0.2-0.6-0.4-0.2-0.8c0.1-0.1,0.2-0.3,0.1-0.4
	c0-0.2-0.1-0.2-0.3-0.2s-0.2,0.1-0.3,0.2c-0.4,0.3-1,0.3-1.4,0c-0.3-0.3-0.7-0.4-1.1-0.2c-0.1,0.1-0.2,0.2-0.2,0.4
	c0,0.2,0.1,0.3,0.3,0.3l0.6,0.1c-0.3,0.4-0.3,0.4-0.8,0.3c-0.2-0.1-0.4,0-0.6,0.2c-0.6,0.4-0.8,1.1-1.4,1.4c-1.1,0.5-2,1.3-2.7,2.2
	c-0.1,0.1-0.2,0.2-0.2,0.3c0,0.5-0.3,0.8-0.7,1c-0.3,0.2-0.6,0.4-1,0.6c-0.6,0.5-1.2,0.9-0.9,1.9c0,0.2,0,0.5,0,0.7
	c-0.6-0.3-1.4-0.4-1.2-1.3c0.1-0.3-0.2-0.2-0.4-0.2c-0.9,0-1.8-0.1-2.7,0c-0.8,0-1.5,0.4-2,0.9c-0.5,0.6-0.9,1.3-1,2.1
	c0,0.5,0.4,1,0.9,1.2c0.6,0.2,1.2,0,1.6-0.4c0.3-0.2,0.6-0.4,0.9-0.6c0.1-0.1,0.3-0.3,0.5-0.2c0.2,0.2,0.2,0.4,0.1,0.7
	c0,0.1-0.1,0.2-0.2,0.3s-0.3,0.5-0.4,0.7l0.6,0.1c0.9,0.1,0.9,0.1,1,1c0,0.3,0.1,0.7,0.1,1c0,0.4,0.1,0.5,0.5,0.6
	c0.6,0.2,1.1,0.2,1.7,0.2c0.5-0.1,0.8-0.8,1.2-1.2c0.1-0.1,0.2-0.4,0.3-0.3c0.7,0.2,1.5,0,2,0.7c0.5,0.5,1.4,0.5,1.9,0l0,0
	c0.1-0.2,0.2,0,0.3,0c0.5,0.2,1,0.6,1.2,1.2c0.2,0.5,0.7,0.8,1.2,0.7c1.1,0,1.2,0.1,1.6,1c0.1,0.3,0.1,0.7,0.1,1s0.1,0.4,0.4,0.6
	c1.1,0.5,2.4,0.7,3.6,0.6c0.3-0.1,0.6,0.1,0.7,0.4c0.2,0.5,0.7,0.9,1.3,1c0.3,0,0.3,0.2,0.2,0.4c-0.1,0.7-0.7,1.2-1.1,1.7
	c-0.2,0.2-0.3,0.4-0.3,0.7c0,0.7-0.2,1.3-0.2,2s-0.3,1.3-0.9,1.6c-0.4,0.3-0.9,0.2-1.3,0.2c-0.6,0-1,0.4-1,1c0,0.1,0,0.2,0,0.3
	c0.1,0.3,0.1,0.6,0.2,0.8c0.1,0.3,0,0.6-0.2,0.9c-0.7,0.8-1.4,1.6-1.9,2.6c0,0.1-0.1,0.2-0.2,0.3c-0.7,0.4-1.4,0.7-2.1,0.8
	c-0.2,0-0.5,0-0.5,0.3s0.2,0.3,0.4,0.3c0.4,0.1,0.3,0.3,0.2,0.6s-0.2,0.2-0.3,0.3s-0.4,0.2-0.2,0.4s0.2,0.4,0.6,0.4
	c0.6,0,0.7,0.1,0.5,0.7c0,0.2-0.1,0.3-0.1,0.5c-0.2,0.3-0.1,0.6,0.2,0.8l0,0c0.2,0.2,0.5,0.4,0.7,0.6c0.2,0.1,0.2,0.3,0.1,0.5
	l-0.1,0.1c-0.6,0-1.2,0.2-1.7-0.1c-0.8-0.5-1.5-1.2-2-2c-0.7-0.9-0.9-2.1-0.7-3.2c0.1-0.2,0-0.5-0.2-0.7c-0.7-0.6-0.9-1.5-0.5-2.4
	c0-0.2,0-0.3,0.1-0.5s0-0.4-0.2-0.4S23,46.1,23,45.9c0-1.3,0-2.5,0-3.8c0-0.2,0.1-0.4-0.1-0.5c-0.6-0.6-1.3-1-2.1-1.2
	c-0.3,0-0.4-0.2-0.4-0.4c0-0.4-0.2-0.7-0.4-0.9c-0.4-0.5-0.7-1-1.1-1.4c-0.5-0.4-0.7-1-0.4-1.6c0.1-0.3,0.1-0.5,0-0.8
	c-0.1-0.5,0.2-1,0.7-1.2c0.6-0.1,1-0.7,0.9-1.3v-0.1c-0.2-0.9,0.1-0.7-0.9-0.8H19c-0.7,0.1-1.5-0.2-1.9-0.9
	c-0.6-0.9-1.5-1.4-2.6-1.5c-0.3,0-0.4-0.1-0.3-0.4c0-0.1,0.1-0.3-0.1-0.3s-0.7-0.3-0.8,0S13,29,12.8,28.9s-0.4-0.1-0.6-0.1
	c-0.9,0-1.7-0.6-2.1-1.4c-0.1-0.3-0.2-0.5,0-0.7s0.1-0.5,0-0.7c-0.7-1-1.5-1.9-1.5-3.2l0,0c-0.1-0.3-0.3-0.2-0.5-0.2
	S7.9,22.9,7.9,23c0,0.8,0.3,1.6,0.8,2.2c0.1,0.2,0.3,0.3,0.4,0.5c0.1,0.2,0.1,0.6-0.1,0.7c-0.4,0.1-0.8,0-1-0.3
	c-0.7-0.9-1.1-2.1-0.9-3.3c0,0,0-0.1,0-0.2c0.1-0.2,0-0.4-0.2-0.4c0,0,0,0-0.1,0c-0.8-0.2-1-0.7-0.9-1.4c0-0.1,0-0.2,0-0.3
	c-0.2,0.1-0.2,0.2-0.2,0.4C3.4,26.1,3,32,4.5,37.6c2.9,10.6,12,18.5,22.9,19.9c0.6,0,1.1,0.1,1.7,0.3h0.4c0.1-0.1,0.2,0,0.2,0h0.4
	c0.1,0,0.2,0,0.3,0h1.2c0.2-0.1,0.4-0.1,0.5,0h0.7c0.1-0.1,0.2-0.1,0.2,0h0.3c0-0.1,0.2-0.1,0.3-0.1c1.3-0.1,2.7-0.3,4-0.6
	c5.9-1.3,11.1-4.5,15-9c0.1-0.1,0.2-0.1,0.1-0.3c-0.8,0-0.8,0-0.8-0.8c0.1-0.7-0.1-1.3-0.6-1.8c-0.4-0.3-0.5-0.8-0.5-1.3
	c0-0.3,0-0.6,0-0.9c0-0.3-0.1-0.7-0.4-0.9c-0.5-0.4-0.7-1.2-0.3-1.7c0.2-0.4,0.4-0.8,0.7-1.2c0.1-0.2,0.1-0.4,0-0.6
	c-0.5-0.9-1.1-1.8-1.6-2.7c-0.1-0.2-0.2-0.4-0.2-0.6c0.1-0.5,0.1-0.9,0.2-1.4s0-0.6-0.5-0.7c-0.5,0.1-0.9,0-1.3-0.3
	c-0.5-0.6-1.4-0.6-2-0.1l-0.1,0.1C45.2,33,45,33.1,44.8,33c-0.5-0.1-1.1-0.1-1.6,0c-1,0.2-1.2,0.2-1.8-0.4c-0.3-0.4-0.6-0.7-0.9-1
	c-1-0.8-1.5-2-1.2-3.3c0-0.2,0-0.4,0.3-0.5s0.2-0.5,0.3-0.7s-0.1-0.2-0.2-0.2c-0.5,0.1-0.4-0.3-0.5-0.5s0-0.4,0.2-0.6
	c0.7-0.5,1.4-1,2.2-1.5c0.4-0.2,0.7-0.7,0.6-1.1c0-0.3-0.2-0.7,0.1-0.8c0.6-0.3,1.1-0.9,1.9-0.8c0.7,0.2,1.5,0,2.1-0.4
	c0.1-0.1,0.3-0.1,0.5-0.1c0.5,0,1.1-0.1,1.6-0.1c1.2-0.1,1.2-0.1,1.2,1c0,0.3,0.1,0.4,0.4,0.5c0.9,0.1,1.7,0.4,2.5,0.8
	c0.2,0.2,0.5,0.1,0.5-0.3c0-0.1-0.1-0.4,0.1-0.5c0.6,0,1.2-0.4,1.8,0.2c0.3,0.3,0.6,0.6,1.1,0.7c0.6,0,1.2,0,1.8,0
	c0.3,0,0.4-0.1,0.3-0.4"/>
<g>
	<path class="st6" d="M32.3,61c0-0.3,0.2-0.5,0.5-0.5l0,0c0,0,0,0,0,0l0,0c0.3,0,0.5,0.2,0.5,0.5l0,0c0,0.3-0.2,0.5-0.5,0.6l0,0
		c0,0,0,0,0,0l0,0C32.5,61.5,32.3,61.3,32.3,61z M34.3,60.8c0-0.3,0.2-0.5,0.4-0.6l0,0c0.3,0,0.5,0.2,0.6,0.4l0,0
		c0,0.3-0.1,0.5-0.4,0.6l0,0c0,0,0,0-0.1,0l0,0C34.6,61.3,34.4,61.1,34.3,60.8z M36.4,60.5c-0.1-0.3,0.1-0.5,0.4-0.6l0,0
		c0.3-0.1,0.5,0.1,0.6,0.4l0,0c0.1,0.3-0.1,0.5-0.4,0.6l0,0c0,0-0.1,0-0.1,0l0,0C36.7,60.9,36.5,60.8,36.4,60.5z M38.4,60.1
		c-0.1-0.3,0.1-0.6,0.4-0.6l0,0c0.3-0.1,0.5,0.1,0.6,0.4l0,0c0.1,0.3-0.1,0.5-0.4,0.6l0,0c0,0-0.1,0-0.1,0l0,0
		C38.7,60.4,38.5,60.3,38.4,60.1z M40.4,59.5c-0.1-0.3,0-0.5,0.3-0.7l0,0c0,0,0,0,0,0l0,0c0.3-0.1,0.5,0,0.6,0.3l0,0
		c0.1,0.3,0,0.6-0.3,0.6l0,0c-0.1,0-0.1,0-0.2,0l0,0C40.7,59.8,40.5,59.7,40.4,59.5z M42.3,58.7c-0.1-0.3,0-0.6,0.3-0.7l0,0
		c0.2-0.1,0.6,0,0.7,0.3l0,0c0.1,0.2,0,0.5-0.3,0.7l0,0c-0.1,0-0.1,0-0.2,0l0,0C42.6,59.1,42.4,58.9,42.3,58.7z M44.2,57.9
		c-0.1-0.2,0-0.6,0.2-0.7l0,0c0.2-0.1,0.6,0,0.7,0.2l0,0c0.1,0.2,0,0.6-0.2,0.7l0,0c-0.1,0-0.2,0.1-0.2,0.1l0,0
		C44.5,58.2,44.3,58.1,44.2,57.9z M46,56.9c-0.2-0.2-0.1-0.6,0.2-0.7l0,0c0.2-0.1,0.5-0.1,0.7,0.2l0,0c0.1,0.2,0.1,0.5-0.2,0.7l0,0
		c-0.1,0.1-0.2,0.1-0.3,0.1l0,0C46.3,57.1,46.1,57.1,46,56.9z M47.8,55.8c-0.2-0.2-0.1-0.6,0.1-0.7l0,0l0,0l0,0
		c0.2-0.2,0.5-0.1,0.7,0.1l0,0c0.2,0.2,0.1,0.6-0.1,0.7l0,0C48.4,56,48.3,56,48.2,56l0,0C48,56,47.9,55.9,47.8,55.8z M49.5,54.6
		c-0.2-0.2-0.2-0.5,0.1-0.7l0,0c0.2-0.2,0.5-0.2,0.7,0.1l0,0c0.2,0.2,0.1,0.5-0.1,0.7l0,0c-0.1,0.1-0.2,0.1-0.3,0.1l0,0
		C49.7,54.8,49.6,54.7,49.5,54.6z M51,53.2c-0.2-0.2-0.2-0.5,0-0.7l0,0c0.2-0.2,0.5-0.2,0.7,0l0,0c0.2,0.2,0.2,0.5,0,0.7l0,0
		c-0.1,0.1-0.2,0.1-0.3,0.1l0,0C51.3,53.4,51.1,53.3,51,53.2z M52.5,51.8c-0.2-0.2-0.2-0.5,0-0.7l0,0l0,0l0,0c0.2-0.2,0.5-0.2,0.7,0
		l0,0c0.2,0.2,0.2,0.5,0,0.7l0,0c-0.1,0.1-0.2,0.2-0.4,0.2l0,0C52.8,51.9,52.6,51.9,52.5,51.8z M53.9,50.3c-0.2-0.2-0.3-0.5-0.1-0.7
		l0,0c0.2-0.2,0.5-0.2,0.7-0.1l0,0c0.2,0.2,0.2,0.5,0.1,0.7l0,0c-0.1,0.1-0.2,0.2-0.4,0.2l0,0C54.1,50.4,54,50.3,53.9,50.3z
		 M55.2,48.6c-0.2-0.2-0.3-0.5-0.1-0.7l0,0c0.2-0.2,0.5-0.3,0.7-0.1l0,0c0.2,0.2,0.3,0.5,0.1,0.7l0,0c-0.1,0.1-0.3,0.2-0.4,0.2l0,0
		C55.4,48.7,55.3,48.7,55.2,48.6z M56.4,46.9c-0.2-0.2-0.3-0.5-0.2-0.7l0,0c0.2-0.2,0.5-0.3,0.7-0.2l0,0c0.2,0.1,0.3,0.5,0.2,0.7
		l0,0C57,46.9,56.8,47,56.6,47l0,0C56.5,47,56.4,47,56.4,46.9z M57.4,45.1c-0.2-0.1-0.4-0.4-0.2-0.7l0,0c0,0,0,0,0,0l0,0
		c0.1-0.2,0.4-0.3,0.7-0.2l0,0c0.3,0.1,0.3,0.4,0.2,0.7l0,0c-0.1,0.2-0.3,0.3-0.5,0.3l0,0C57.6,45.2,57.5,45.2,57.4,45.1z
		 M58.3,43.3c-0.3-0.1-0.4-0.4-0.3-0.7l0,0c0.1-0.3,0.4-0.4,0.7-0.3l0,0c0.3,0.1,0.4,0.4,0.3,0.7l0,0c-0.1,0.2-0.3,0.3-0.5,0.3l0,0
		C58.5,43.3,58.4,43.3,58.3,43.3z M59.1,41.4c-0.3-0.1-0.4-0.4-0.3-0.7l0,0c0.1-0.3,0.4-0.4,0.7-0.3l0,0c0.3,0.1,0.4,0.4,0.3,0.6
		l0,0c-0.1,0.2-0.3,0.3-0.5,0.3l0,0C59.2,41.4,59.2,41.4,59.1,41.4z M59.8,39.4c-0.3-0.1-0.4-0.4-0.3-0.6l0,0
		c0.1-0.3,0.3-0.4,0.6-0.3l0,0c0.3,0.1,0.4,0.3,0.3,0.6l0,0c-0.1,0.2-0.3,0.4-0.5,0.4l0,0C59.9,39.4,59.8,39.4,59.8,39.4z
		 M60.3,37.4c-0.3-0.1-0.5-0.3-0.4-0.6l0,0l0,0l0,0c0.1-0.3,0.3-0.5,0.6-0.4l0,0c0.3,0,0.5,0.3,0.4,0.6l0,0c0,0.2-0.3,0.4-0.5,0.4
		l0,0C60.4,37.4,60.3,37.4,60.3,37.4z M60.7,35.4c-0.3,0-0.5-0.3-0.4-0.6l0,0l0,0l0,0c0-0.3,0.3-0.5,0.6-0.4l0,0
		c0.3,0,0.5,0.3,0.4,0.6l0,0C61.2,35.2,61,35.4,60.7,35.4L60.7,35.4C60.7,35.4,60.7,35.4,60.7,35.4z M60.9,33.3
		c-0.3,0-0.5-0.3-0.5-0.5l0,0c0-0.3,0.3-0.5,0.5-0.5l0,0c0.3,0,0.5,0.3,0.5,0.5l0,0C61.4,33.1,61.2,33.3,60.9,33.3L60.9,33.3
		C60.9,33.3,60.9,33.3,60.9,33.3z"/>
</g>
<g>
	<path class="st6" d="M60.5,28.7L60.5,28.7L60.5,28.7c0-0.3,0.2-0.5,0.5-0.5l0,0c0.3,0,0.5,0.2,0.5,0.5l0,0c0,0.3-0.2,0.5-0.5,0.5
		l0,0c0,0,0,0,0,0l0,0C60.7,29.2,60.5,29,60.5,28.7z M60.3,26.7c0-0.3,0.2-0.5,0.4-0.6l0,0c0.3,0,0.5,0.1,0.6,0.4l0,0
		c0,0.3-0.2,0.5-0.4,0.6l0,0c0,0,0,0-0.1,0l0,0C60.5,27.1,60.3,27,60.3,26.7z M59.9,24.7c-0.1-0.3,0.1-0.5,0.4-0.6l0,0
		c0.3-0.1,0.5,0.1,0.6,0.4l0,0c0.1,0.3-0.1,0.5-0.4,0.6l0,0c0,0-0.1,0-0.1,0l0,0C60.2,25.1,60,24.9,59.9,24.7z M59.5,22.7
		c-0.1-0.3,0.1-0.5,0.3-0.6l0,0c0.3-0.1,0.5,0.1,0.6,0.4l0,0c0.1,0.3-0.1,0.5-0.4,0.6l0,0c0,0-0.1,0-0.1,0l0,0
		C59.7,23.1,59.5,23,59.5,22.7z M58.8,20.8C58.8,20.8,58.8,20.8,58.8,20.8L58.8,20.8c-0.1-0.3,0-0.6,0.3-0.7l0,0
		c0.3-0.1,0.5,0,0.7,0.3l0,0c0.1,0.3,0,0.6-0.3,0.6l0,0c-0.1,0-0.1,0-0.2,0l0,0C59.1,21.1,58.9,21,58.8,20.8z M58.1,18.9
		c-0.1-0.3,0-0.6,0.3-0.7l0,0c0.3-0.1,0.6,0,0.7,0.3l0,0c0.1,0.3,0,0.6-0.3,0.7l0,0c-0.1,0-0.1,0-0.2,0l0,0
		C58.3,19.2,58.2,19.1,58.1,18.9z M57.2,17.1c-0.1-0.2,0-0.6,0.2-0.7l0,0c0.2-0.1,0.6,0,0.7,0.2l0,0c0.1,0.2,0,0.5-0.2,0.7l0,0
		c-0.1,0-0.2,0.1-0.2,0.1l0,0C57.5,17.3,57.3,17.2,57.2,17.1z M56.2,15.3C56.2,15.3,56.2,15.3,56.2,15.3L56.2,15.3
		c-0.1-0.2-0.1-0.6,0.2-0.7l0,0c0.2-0.1,0.6-0.1,0.7,0.2l0,0c0.1,0.2,0.1,0.6-0.2,0.7l0,0c-0.1,0-0.2,0.1-0.3,0.1l0,0
		C56.5,15.5,56.3,15.4,56.2,15.3z M55.1,13.6c-0.2-0.2-0.1-0.6,0.1-0.7l0,0c0.2-0.2,0.6-0.1,0.7,0.1l0,0c0.2,0.2,0.1,0.5-0.1,0.7
		l0,0c-0.1,0.1-0.2,0.1-0.3,0.1l0,0C55.3,13.8,55.2,13.7,55.1,13.6z M53.8,12c-0.2-0.2-0.2-0.5,0.1-0.7l0,0c0.2-0.2,0.5-0.1,0.7,0.1
		l0,0c0.2,0.2,0.2,0.5-0.1,0.7l0,0c-0.1,0.1-0.2,0.1-0.3,0.1l0,0C54.1,12.2,53.9,12.1,53.8,12z M52.5,10.4L52.5,10.4L52.5,10.4
		c-0.2-0.2-0.2-0.5,0-0.7l0,0c0.2-0.2,0.5-0.2,0.7,0l0,0c0.2,0.2,0.2,0.5,0,0.7l0,0c-0.1,0.1-0.2,0.1-0.3,0.1l0,0
		C52.7,10.6,52.6,10.5,52.5,10.4z M51.1,9c-0.2-0.2-0.2-0.5,0-0.7l0,0c0.2-0.2,0.5-0.2,0.7,0l0,0C52,8.5,52,8.8,51.8,9l0,0
		c-0.1,0.1-0.2,0.2-0.4,0.2l0,0C51.3,9.1,51.1,9.1,51.1,9z M49.5,7.7c-0.2-0.2-0.2-0.5-0.1-0.7l0,0c0.2-0.2,0.5-0.2,0.7-0.1l0,0
		c0.2,0.2,0.3,0.5,0.1,0.7l0,0c-0.1,0.1-0.2,0.2-0.4,0.2l0,0C49.7,7.8,49.6,7.7,49.5,7.7z M47.9,6.4c-0.2-0.2-0.3-0.5-0.1-0.7l0,0
		c0.2-0.2,0.5-0.3,0.7-0.1l0,0c0.2,0.2,0.3,0.5,0.1,0.7l0,0c-0.1,0.1-0.3,0.2-0.4,0.2l0,0C48.1,6.5,48,6.5,47.9,6.4z M46.2,5.3
		C46,5.2,45.9,4.9,46,4.6l0,0c0.2-0.2,0.5-0.3,0.7-0.2l0,0C47,4.6,47,4.9,46.9,5.2l0,0c-0.1,0.2-0.3,0.2-0.4,0.2l0,0
		C46.4,5.4,46.3,5.4,46.2,5.3z M44.4,4.3c-0.2-0.1-0.3-0.4-0.2-0.7l0,0c0.1-0.2,0.4-0.3,0.7-0.2l0,0c0.2,0.1,0.4,0.4,0.2,0.7l0,0
		c-0.1,0.2-0.3,0.3-0.4,0.3l0,0C44.6,4.4,44.5,4.4,44.4,4.3z M42.6,3.5c-0.3-0.1-0.4-0.4-0.3-0.7l0,0c0.1-0.3,0.4-0.4,0.7-0.3l0,0
		c0.2,0.1,0.4,0.4,0.3,0.7l0,0c-0.1,0.2-0.3,0.3-0.5,0.3l0,0C42.7,3.5,42.7,3.5,42.6,3.5z M40.7,2.7c-0.3-0.1-0.4-0.4-0.3-0.6l0,0
		c0.1-0.3,0.4-0.4,0.7-0.3l0,0c0.3,0.1,0.4,0.4,0.3,0.7l0,0c-0.1,0.2-0.3,0.3-0.5,0.3l0,0C40.8,2.7,40.8,2.7,40.7,2.7z M38.8,2.1
		c-0.3-0.1-0.4-0.4-0.3-0.6l0,0C38.5,1.2,38.8,1,39,1.1l0,0c0.3,0.1,0.4,0.4,0.4,0.6l0,0c-0.1,0.2-0.3,0.4-0.5,0.4l0,0
		C38.8,2.1,38.8,2.1,38.8,2.1z M36.8,1.6L36.8,1.6L36.8,1.6c-0.3-0.1-0.5-0.3-0.4-0.6l0,0c0.1-0.3,0.3-0.5,0.6-0.4l0,0
		c0.3,0.1,0.4,0.3,0.4,0.6l0,0c0,0.2-0.3,0.4-0.5,0.4l0,0C36.8,1.6,36.8,1.6,36.8,1.6z M34.8,1.3c-0.3,0-0.5-0.3-0.4-0.6l0,0
		c0-0.3,0.3-0.5,0.6-0.4v0c0.3,0,0.5,0.3,0.4,0.6l0,0C35.3,1.1,35.1,1.3,34.8,1.3L34.8,1.3C34.8,1.3,34.8,1.3,34.8,1.3z M32.8,1.1
		c-0.3,0-0.5-0.3-0.5-0.5l0,0c0-0.3,0.3-0.5,0.5-0.5l0,0c0.3,0,0.5,0.3,0.5,0.5l0,0C33.3,0.9,33.1,1.1,32.8,1.1L32.8,1.1
		C32.8,1.1,32.8,1.1,32.8,1.1z"/>
</g>
<g>
	<path class="st6" d="M0.5,29.3C0.2,29.2,0,29,0,28.7l0,0c0-0.3,0.3-0.5,0.5-0.5l0,0c0.3,0,0.5,0.3,0.5,0.5l0,0
		C1,29,0.8,29.3,0.5,29.3L0.5,29.3C0.5,29.3,0.5,29.3,0.5,29.3z M0.7,27.2c-0.3,0-0.5-0.3-0.4-0.6l0,0c0-0.3,0.3-0.5,0.6-0.4l0,0
		c0.3,0,0.5,0.3,0.4,0.6l0,0C1.2,27,1,27.2,0.7,27.2L0.7,27.2C0.7,27.2,0.7,27.2,0.7,27.2z M1,25.1c-0.3-0.1-0.4-0.3-0.4-0.6l0,0
		c0.1-0.3,0.3-0.5,0.6-0.4l0,0c0.3,0.1,0.5,0.3,0.4,0.6l0,0c0,0,0,0,0,0l0,0c0,0.2-0.3,0.4-0.5,0.4l0,0C1.1,25.2,1,25.2,1,25.1z
		 M1.5,23.1c-0.3-0.1-0.4-0.4-0.4-0.6l0,0c0.1-0.3,0.4-0.4,0.6-0.4l0,0c0.3,0.1,0.4,0.4,0.4,0.6l0,0C2,23,1.8,23.1,1.6,23.1l0,0
		C1.6,23.1,1.5,23.1,1.5,23.1z M2.1,21.1c-0.3-0.1-0.4-0.4-0.3-0.6l0,0c0.1-0.3,0.4-0.4,0.6-0.3l0,0c0.3,0.1,0.4,0.4,0.3,0.6l0,0
		c-0.1,0.2-0.3,0.3-0.5,0.3l0,0C2.2,21.2,2.1,21.2,2.1,21.1z M2.8,19.2c-0.3-0.1-0.4-0.4-0.3-0.7l0,0c0.1-0.3,0.4-0.4,0.7-0.3l0,0
		c0.2,0.1,0.4,0.4,0.3,0.7l0,0c-0.1,0.2-0.3,0.3-0.5,0.3l0,0C2.9,19.2,2.8,19.2,2.8,19.2z M3.6,17.3c-0.2-0.1-0.3-0.4-0.2-0.7l0,0
		c0.1-0.2,0.4-0.4,0.7-0.2l0,0c0.3,0.1,0.4,0.4,0.2,0.7l0,0l0,0l0,0c-0.1,0.2-0.3,0.3-0.5,0.3l0,0C3.8,17.4,3.7,17.4,3.6,17.3z
		 M4.6,15.5c-0.2-0.1-0.3-0.5-0.2-0.7l0,0c0.1-0.2,0.5-0.3,0.7-0.2l0,0c0.2,0.1,0.3,0.5,0.2,0.7l0,0l0,0l0,0
		c-0.1,0.1-0.3,0.2-0.4,0.2l0,0C4.8,15.6,4.7,15.6,4.6,15.5z M5.7,13.8c-0.2-0.2-0.3-0.5-0.1-0.7l0,0c0.2-0.2,0.5-0.3,0.7-0.1l0,0
		c0.2,0.2,0.3,0.5,0.1,0.7l0,0c-0.1,0.1-0.3,0.2-0.4,0.2l0,0C5.9,13.8,5.8,13.8,5.7,13.8z M6.9,12.1c-0.2-0.2-0.2-0.5-0.1-0.7l0,0
		c0.2-0.2,0.5-0.2,0.7-0.1l0,0c0.2,0.2,0.2,0.5,0.1,0.7l0,0c-0.1,0.1-0.2,0.2-0.4,0.2l0,0C7.1,12.2,7,12.2,6.9,12.1z M8.3,10.5
		C8.1,10.3,8,10,8.2,9.8l0,0c0.2-0.2,0.5-0.2,0.7,0l0,0c0.2,0.2,0.2,0.5,0,0.7l0,0c-0.1,0.1-0.2,0.2-0.4,0.2l0,0
		C8.5,10.6,8.4,10.6,8.3,10.5z M9.7,9c-0.2-0.2-0.2-0.5,0-0.7l0,0c0.2-0.2,0.5-0.2,0.7,0l0,0c0.2,0.2,0.2,0.5,0,0.7l0,0
		c-0.1,0.1-0.2,0.1-0.4,0.1l0,0C9.9,9.2,9.8,9.1,9.7,9z M11.2,7.6c-0.2-0.2-0.1-0.5,0.1-0.7l0,0C11.5,6.7,11.8,6.8,12,7l0,0
		c0.2,0.2,0.1,0.5-0.1,0.7l0,0c-0.1,0.1-0.2,0.1-0.3,0.1l0,0C11.5,7.8,11.3,7.7,11.2,7.6z M12.9,6.3c-0.2-0.2-0.1-0.5,0.1-0.7l0,0
		c0.2-0.2,0.6-0.1,0.7,0.1l0,0c0.2,0.2,0.1,0.5-0.1,0.7l0,0c-0.1,0.1-0.2,0.1-0.3,0.1l0,0C13.1,6.6,13,6.5,12.9,6.3z M14.6,5.2
		c-0.1-0.2-0.1-0.6,0.2-0.7l0,0c0.2-0.1,0.5-0.1,0.7,0.2l0,0c0.1,0.2,0.1,0.6-0.2,0.7l0,0c-0.1,0-0.2,0.1-0.3,0.1l0,0
		C14.8,5.4,14.7,5.3,14.6,5.2z M16.4,4.1c-0.1-0.2,0-0.6,0.2-0.7l0,0c0.2-0.1,0.6,0,0.7,0.2l0,0c0.1,0.2,0,0.6-0.2,0.7l0,0
		c-0.1,0-0.1,0.1-0.2,0.1l0,0C16.6,4.4,16.5,4.3,16.4,4.1z M18.2,3.2c-0.1-0.3,0-0.6,0.3-0.7l0,0c0.2-0.1,0.6,0,0.7,0.3l0,0
		c0.1,0.3,0,0.6-0.3,0.7l0,0c-0.1,0-0.1,0.1-0.2,0.1l0,0C18.5,3.5,18.3,3.4,18.2,3.2z M20.1,2.4c-0.1-0.3,0-0.6,0.3-0.6l0,0
		c0.3-0.1,0.6,0,0.6,0.3l0,0c0.1,0.3,0,0.6-0.3,0.6l0,0c-0.1,0-0.1,0-0.2,0l0,0C20.4,2.8,20.2,2.6,20.1,2.4z M22.1,1.8
		c-0.1-0.3,0.1-0.5,0.4-0.6l0,0c0.3-0.1,0.6,0.1,0.6,0.3l0,0C23.2,1.8,23,2,22.7,2.1l0,0c-0.1,0-0.1,0-0.1,0l0,0
		C22.4,2.1,22.2,2,22.1,1.8z M24.1,1.2C24,1,24.2,0.7,24.5,0.6l0,0C24.8,0.6,25,0.8,25.1,1l0,0c0.1,0.3-0.1,0.5-0.4,0.6l0,0l0,0l0,0
		c0,0-0.1,0-0.1,0l0,0C24.4,1.7,24.1,1.5,24.1,1.2z M26.1,0.9c0-0.3,0.2-0.5,0.4-0.6l0,0c0.3,0,0.5,0.2,0.6,0.4l0,0
		c0,0.3-0.2,0.5-0.4,0.6l0,0c0,0-0.1,0-0.1,0l0,0C26.4,1.3,26.2,1.1,26.1,0.9z M28.2,0.6c0-0.3,0.2-0.5,0.5-0.5l0,0
		c0.3,0,0.5,0.2,0.5,0.5l0,0c0,0.3-0.2,0.5-0.5,0.5l0,0c0,0,0,0,0,0l0,0C28.4,1.1,28.2,0.9,28.2,0.6z"/>
</g>
<g>
	<path class="st6" d="M28.7,61.5c-0.3,0-0.5-0.3-0.5-0.5l0,0c0-0.3,0.3-0.5,0.5-0.5l0,0c0.3,0,0.5,0.3,0.5,0.5l0,0
		C29.2,61.2,29,61.5,28.7,61.5L28.7,61.5C28.7,61.5,28.7,61.5,28.7,61.5z M26.6,61.2L26.6,61.2c-0.3,0-0.5-0.3-0.4-0.6l0,0
		c0-0.3,0.3-0.5,0.6-0.4l0,0c0.3,0,0.5,0.3,0.4,0.6l0,0C27.1,61.1,26.9,61.2,26.6,61.2L26.6,61.2C26.6,61.2,26.6,61.2,26.6,61.2z
		 M24.5,60.9c-0.3,0-0.5-0.3-0.4-0.6l0,0c0.1-0.3,0.3-0.4,0.6-0.4l0,0l0,0l0,0c0.3,0.1,0.5,0.3,0.4,0.6l0,0
		c-0.1,0.2-0.3,0.4-0.5,0.4l0,0C24.6,60.9,24.6,60.9,24.5,60.9z M22.5,60.4c-0.3-0.1-0.4-0.4-0.4-0.6l0,0c0.1-0.3,0.4-0.4,0.6-0.3
		l0,0c0.3,0.1,0.4,0.3,0.4,0.6l0,0c-0.1,0.2-0.3,0.4-0.5,0.4l0,0C22.6,60.4,22.5,60.4,22.5,60.4z M20.5,59.8
		c-0.3-0.1-0.4-0.4-0.3-0.7l0,0c0.1-0.3,0.4-0.4,0.6-0.3l0,0c0.3,0.1,0.4,0.4,0.3,0.6l0,0c-0.1,0.2-0.3,0.4-0.5,0.4l0,0
		C20.6,59.8,20.5,59.8,20.5,59.8z M18.5,59c-0.3-0.1-0.4-0.4-0.3-0.7l0,0c0.1-0.3,0.4-0.4,0.7-0.3l0,0c0.2,0.1,0.4,0.4,0.3,0.7l0,0
		c-0.1,0.2-0.3,0.3-0.5,0.3l0,0C18.6,59,18.6,59,18.5,59z M16.6,58.1L16.6,58.1c-0.2-0.1-0.3-0.4-0.2-0.7l0,0
		c0.1-0.2,0.4-0.3,0.7-0.2l0,0l0,0l0,0c0.2,0.1,0.4,0.4,0.2,0.7l0,0c-0.1,0.2-0.3,0.3-0.5,0.3l0,0C16.8,58.2,16.7,58.1,16.6,58.1z
		 M14.8,57.1c-0.2-0.1-0.3-0.5-0.2-0.7l0,0c0.1-0.2,0.5-0.3,0.7-0.2l0,0c0.2,0.1,0.3,0.5,0.2,0.7l0,0c-0.1,0.2-0.3,0.2-0.4,0.2l0,0
		C15,57.1,14.9,57.1,14.8,57.1z M13,55.9c-0.2-0.2-0.3-0.5-0.1-0.7l0,0c0.2-0.2,0.5-0.3,0.7-0.1l0,0c0.2,0.2,0.3,0.5,0.1,0.7l0,0
		c-0.1,0.2-0.3,0.2-0.4,0.2l0,0C13.2,56,13.1,56,13,55.9z M11.3,54.6c-0.2-0.2-0.2-0.5-0.1-0.7l0,0c0.2-0.2,0.5-0.2,0.7-0.1l0,0
		c0.2,0.2,0.3,0.5,0.1,0.7l0,0c-0.1,0.1-0.2,0.2-0.4,0.2l0,0C11.6,54.8,11.4,54.7,11.3,54.6z M9.8,53.3L9.8,53.3
		c-0.2-0.2-0.2-0.5,0-0.7l0,0c0.2-0.2,0.5-0.2,0.7,0l0,0c0.2,0.2,0.2,0.5,0,0.7l0,0c-0.1,0.1-0.2,0.2-0.4,0.2l0,0
		C10,53.4,9.9,53.4,9.8,53.3z M8.3,51.8L8.3,51.8c-0.2-0.2-0.2-0.5,0-0.7l0,0c0.2-0.2,0.5-0.2,0.7,0l0,0c0.2,0.2,0.2,0.5,0,0.7l0,0
		c-0.1,0.1-0.2,0.1-0.4,0.1l0,0C8.5,51.9,8.4,51.9,8.3,51.8z M6.9,50.2L6.9,50.2C6.7,50,6.8,49.6,7,49.5l0,0
		c0.2-0.2,0.5-0.2,0.7,0.1l0,0l0,0l0,0c0.2,0.2,0.1,0.5-0.1,0.7l0,0c-0.1,0.1-0.2,0.1-0.3,0.1l0,0C7.1,50.4,7,50.3,6.9,50.2z
		 M5.6,48.5c-0.2-0.2-0.1-0.5,0.1-0.7l0,0c0.2-0.2,0.6-0.1,0.7,0.1l0,0c0.2,0.2,0.1,0.5-0.1,0.7l0,0c-0.1,0.1-0.2,0.1-0.3,0.1l0,0
		C5.9,48.7,5.7,48.7,5.6,48.5z M4.5,46.7c-0.1-0.2-0.1-0.5,0.2-0.7l0,0c0.2-0.2,0.6-0.1,0.7,0.2l0,0c0.1,0.2,0.1,0.5-0.2,0.7l0,0
		C5.1,47,5,47,4.9,47l0,0C4.7,47,4.6,46.9,4.5,46.7z M3.4,44.9c-0.1-0.2,0-0.6,0.2-0.7l0,0c0.3-0.1,0.6,0,0.7,0.2l0,0l0,0l0,0
		c0.1,0.2,0,0.6-0.2,0.7l0,0c-0.1,0-0.1,0.1-0.2,0.1l0,0C3.7,45.2,3.5,45.1,3.4,44.9z M2.5,43c-0.1-0.3,0-0.6,0.3-0.7l0,0
		c0.3-0.1,0.6,0,0.7,0.3l0,0c0.1,0.3,0,0.6-0.3,0.7l0,0c-0.1,0-0.1,0-0.2,0l0,0C2.8,43.3,2.6,43.2,2.5,43z M1.8,41L1.8,41
		c-0.1-0.3,0-0.6,0.3-0.7l0,0c0.3-0.1,0.6,0,0.7,0.3l0,0c0.1,0.3-0.1,0.5-0.3,0.6l0,0c-0.1,0-0.1,0-0.2,0l0,0
		C2,41.4,1.8,41.3,1.8,41z M1.1,39c-0.1-0.3,0.1-0.6,0.4-0.6l0,0c0.3-0.1,0.6,0.1,0.6,0.3l0,0C2.2,39,2,39.3,1.8,39.4l0,0
		c0,0-0.1,0-0.1,0l0,0C1.4,39.4,1.2,39.3,1.1,39z M0.6,37c-0.1-0.3,0.1-0.5,0.4-0.6l0,0c0.3-0.1,0.5,0.1,0.6,0.4l0,0
		c0,0.3-0.1,0.5-0.4,0.6l0,0c0,0-0.1,0-0.1,0l0,0C0.9,37.4,0.7,37.2,0.6,37z M0.3,34.9c0-0.3,0.2-0.5,0.4-0.6l0,0
		c0.3,0,0.5,0.2,0.6,0.4l0,0c0,0.3-0.2,0.5-0.4,0.6l0,0c0,0,0,0-0.1,0l0,0C0.5,35.4,0.3,35.2,0.3,34.9z M0.1,32.8L0.1,32.8
		c0-0.3,0.2-0.5,0.5-0.5l0,0c0.3,0,0.5,0.2,0.5,0.5l0,0l0,0l0,0c0,0.3-0.2,0.5-0.5,0.5l0,0c0,0,0,0,0,0l0,0
		C0.3,33.3,0.1,33.1,0.1,32.8z"/>
</g>
<line class="st7" x1="30.8" y1="61.1" x2="30.8" y2="61.1"/>
<line class="st7" x1="0.5" y1="30.8" x2="0.5" y2="30.8"/>
<line class="st7" x1="30.8" y1="0.5" x2="30.8" y2="0.5"/>
<line class="st7" x1="61.1" y1="30.8" x2="61.1" y2="30.8"/>
</svg>
