<svg xmlns="http://www.w3.org/2000/svg" width="160.57" height="99.94" viewBox="0 0 160.57 99.94"><defs><style>.cls-1{fill:#28a5de;}</style></defs><title>eiffel</title><g id="Layer_2" data-name="Layer 2"><g id="Layer_1-2" data-name="Layer 1"><path class="cls-1" d="M134.8,68.08l2.71,0h.09l2.71,0s1.44,8.14,2.3,10.66a2,2,0,0,1,.08.22L137.48,79h-.08l-5.14,0,.06-.22c.37-1.36,2.33-8.57,2.48-10.61m16.77,15.49-.09-.19,0-4.39-2.08,0s0-.07,0-.11a73,73,0,0,1-5.15-15.61h.37a.26.26,0,0,0,.18-.06c.41-.29.73-1.45.73-1.45a.84.84,0,0,0-.89-.8h-.76s0-.08,0-.12c-.89-6-4.11-29.1-3.81-46.49h.12a.11.11,0,0,0,.08,0c.46-.33.84-3.15.84-3.15a.79.79,0,0,0-.59-.75.65.65,0,0,0,.1-.36V9.48a.86.86,0,0,0-.89-.8h-.29a.5.5,0,0,0,.08-.27.61.61,0,0,0-.64-.57h-.26l0-3.62a.34.34,0,0,0-.23-.33l0-3.89h-.33l0,3.89a.35.35,0,0,0-.24.32l0,3.62h-.27a.59.59,0,0,0-.64.55.5.5,0,0,0,.07.27h-.29a.85.85,0,0,0-.9.78V10a.83.83,0,0,0,.09.36.83.83,0,0,0-.61.75s.33,2.82.78,3.16l.09,0h.12c-.06,17.39-3.76,40.44-4.77,46.4a.5.5,0,0,1,0,.12h-.69a.84.84,0,0,0-.9.78s.29,1.17.7,1.46a.34.34,0,0,0,.18.07h.3a73.82,73.82,0,0,1-5.48,15.5,1,1,0,0,0,0,.1l-2.14,0-.05,4.52,0,0A181.75,181.75,0,0,1,114,99.46l9.33.1h.45c.23-6.8,6.23-12.21,13.57-12.17h.09c7.36.07,13.29,5.62,13.38,12.45h.69l9.1.09a179.48,179.48,0,0,1-9-16.37"/><path class="cls-1" d="M95,84h2.82s.74,4.07,1.18,5.33a.76.76,0,0,1,0,.11l-2.66,0h0l-2.63,0,0-.11A53.34,53.34,0,0,0,95,84m8.59,7.75a1,1,0,0,0,0-.1l0-2.19-1.07,0,0,0a36.09,36.09,0,0,1-2.64-7.8H100a.16.16,0,0,0,.09,0,1.87,1.87,0,0,0,.38-.73.43.43,0,0,0-.46-.4h-.39a.13.13,0,0,0,0-.06c-.45-3-2.1-14.55-2-23.25h.1c.24-.17.44-1.58.44-1.58a.4.4,0,0,0-.31-.37A.31.31,0,0,0,98,55v-.28a.43.43,0,0,0-.46-.4h-.14a.31.31,0,0,0,0-.13.3.3,0,0,0-.32-.29H97l0-1.81a.18.18,0,0,0-.12-.16l0-2H96.7l0,2a.17.17,0,0,0-.12.16l0,1.81H96.4a.31.31,0,0,0-.33.28.23.23,0,0,0,0,.14H96a.42.42,0,0,0-.46.39V55a.35.35,0,0,0,.05.18.41.41,0,0,0-.31.37s.17,1.42.4,1.58l0,0h.06c0,8.7-1.92,20.22-2.44,23.2,0,0,0,0,0,.06h-.35a.44.44,0,0,0-.47.39s.15.58.36.73a.18.18,0,0,0,.1,0h.15a36.47,36.47,0,0,1-2.81,7.75l0,0h-1.1l0,2.26,0,0a89.77,89.77,0,0,1-4.78,8.09l4.78,0h.23c.12-3.4,3.2-6.1,7-6.09h0c3.77,0,6.81,2.82,6.86,6.23h.35l4.66,0a88.19,88.19,0,0,1-4.61-8.18"/><path class="cls-1" d="M64.2,84H67s.73,4.07,1.17,5.33a1.17,1.17,0,0,0,0,.11l-2.67,0h0l-2.63,0,0-.11A50.7,50.7,0,0,0,64.2,84m8.59,7.75a1,1,0,0,0,0-.1l0-2.19-1.07,0,0,0A36.64,36.64,0,0,1,69,81.6h.19a.19.19,0,0,0,.1,0,1.81,1.81,0,0,0,.37-.73.43.43,0,0,0-.46-.4h-.38a.13.13,0,0,1,0-.06c-.46-3-2.11-14.55-2-23.25H67c.23-.17.43-1.58.43-1.58a.4.4,0,0,0-.31-.37.32.32,0,0,0,.06-.18v-.28a.43.43,0,0,0-.46-.4h-.14a.33.33,0,0,0,0-.13.31.31,0,0,0-.33-.29h-.14l0-1.81a.17.17,0,0,0-.12-.16l0-2H65.9l0,2a.17.17,0,0,0-.12.16l0,1.81H65.6a.31.31,0,0,0-.33.28.33.33,0,0,0,0,.14h-.15a.42.42,0,0,0-.46.39V55a.27.27,0,0,0,0,.18.41.41,0,0,0-.31.37s.17,1.42.4,1.58l0,0h.06c0,8.7-1.92,20.22-2.44,23.2a.13.13,0,0,1,0,.06h-.35a.43.43,0,0,0-.46.39,1.84,1.84,0,0,0,.35.73.21.21,0,0,0,.1,0h.15a36.47,36.47,0,0,1-2.81,7.75l0,0h-1.1l0,2.26s0,0,0,0a91.17,91.17,0,0,1-4.79,8.09l4.79,0h.22c.13-3.4,3.2-6.1,7-6.09h0c3.78,0,6.81,2.82,6.86,6.23h.35l4.66,0a88.19,88.19,0,0,1-4.61-8.18"/><path class="cls-1" d="M36.39,84h2.83s.73,4.07,1.18,5.33a.36.36,0,0,0,0,.11l-2.67,0h-.05l-2.63,0,0-.11A48.3,48.3,0,0,0,36.39,84M45,91.76a1,1,0,0,0,0-.1l0-2.19-1.06,0,0,0a36.64,36.64,0,0,1-2.64-7.8h.19a.17.17,0,0,0,.1,0,1.81,1.81,0,0,0,.37-.73.43.43,0,0,0-.46-.4h-.38a.13.13,0,0,1,0-.06c-.46-3-2.11-14.55-2-23.25h.11c.23-.17.43-1.58.43-1.58a.4.4,0,0,0-.31-.37.32.32,0,0,0,.06-.18v-.28a.43.43,0,0,0-.45-.4h-.15a.33.33,0,0,0,0-.13.31.31,0,0,0-.33-.29h-.13V52.08a.17.17,0,0,0-.11-.16l0-2h-.18l0,2a.17.17,0,0,0-.12.16l0,1.81h-.14a.31.31,0,0,0-.33.28.33.33,0,0,0,0,.14h-.15a.42.42,0,0,0-.46.39V55a.34.34,0,0,0,0,.18.41.41,0,0,0-.31.37s.17,1.42.4,1.58l0,0h0c0,8.7-1.92,20.22-2.44,23.2a.13.13,0,0,1,0,.06h-.35a.43.43,0,0,0-.46.39s.15.58.36.73a.18.18,0,0,0,.09,0h.15a36.41,36.41,0,0,1-2.8,7.75l0,0H30.54l0,2.26s0,0,0,0a91.17,91.17,0,0,1-4.79,8.09l4.79,0h.23c.12-3.4,3.19-6.1,7-6.09h0c3.78,0,6.81,2.82,6.86,6.23h.35l4.66,0S47.24,96.31,45,91.76"/><path class="cls-1" d="M10.68,84H13.5s.74,4.07,1.18,5.33a.76.76,0,0,1,0,.11l-2.66,0H12l-2.63,0,0-.11A53.34,53.34,0,0,0,10.68,84m8.59,7.75a.31.31,0,0,0-.05-.1l0-2.19-1.07,0s0,0,0,0a36.09,36.09,0,0,1-2.64-7.8h.19a.16.16,0,0,0,.09,0,1.87,1.87,0,0,0,.38-.73.43.43,0,0,0-.46-.4h-.39a.13.13,0,0,0,0-.06c-.45-3-2.1-14.55-2-23.25h.1c.24-.17.43-1.58.43-1.58a.38.38,0,0,0-.3-.37.31.31,0,0,0,.05-.18v-.28a.44.44,0,0,0-.46-.4h-.15a.22.22,0,0,0,0-.13.3.3,0,0,0-.32-.29h-.14l0-1.81a.18.18,0,0,0-.12-.16l0-2h-.17l0,2a.17.17,0,0,0-.12.16l0,1.81h-.14a.31.31,0,0,0-.33.28.23.23,0,0,0,0,.14h-.15a.42.42,0,0,0-.46.39V55a.35.35,0,0,0,.05.18.41.41,0,0,0-.31.37s.16,1.42.4,1.58l0,0h.06c0,8.7-1.92,20.22-2.44,23.2,0,0,0,0,0,.06H8.61a.43.43,0,0,0-.47.39s.15.58.36.73a.18.18,0,0,0,.09,0h.16a36.47,36.47,0,0,1-2.81,7.75l0,0H4.82l0,2.26,0,0A89.77,89.77,0,0,1,0,99.7l4.78,0H5c.12-3.4,3.2-6.1,7-6.09h0c3.77,0,6.81,2.82,6.86,6.23h.35l4.66,0a88.19,88.19,0,0,1-4.61-8.18"/></g></g></svg>