<svg xmlns="http://www.w3.org/2000/svg" width="223.78" height="43.34" viewBox="0 0 223.78 43.34"><defs><style>.cls-1{fill:#fff;}</style></defs><title>elephants</title><g id="Layer_2" data-name="Layer 2"><g id="Layer_1-2" data-name="Layer 1"><path class="cls-1" d="M210.56,39.44c0,1.09-.23,1.16-.23,1.16a30.2,30.2,0,0,0-.41-3.64c-.2-1.3-.3-4.24-.3-4.24.5.36.93,4.14.93,4.14a9,9,0,0,0,0,2.58m12.11-3.68c-1.11-.49-1.24-3.07-1.24-3.07a22.37,22.37,0,0,0-.31-2.51A36.31,36.31,0,0,0,219,22.8c-.43-1.17,0-4.6,0-4.6.3-4.34-3.92-11.3-3.92-11.3-1-1.8-4-3.5-4-3.5l-6-2.55c-5.37-2.4-10.53,1.06-10.53,1.06a7.83,7.83,0,0,1-4.59,1,5.46,5.46,0,0,0-3.23,0,17.14,17.14,0,0,1-3.23.26s-7.05-1.6-8.25,1a4.6,4.6,0,0,0-.41,1.06s-1,.35-1.17,2.61c0,0,.23.63-1.5,1.52,0,0-1.36.81-1,3.56a8.55,8.55,0,0,1-.44,3.22s-.71,2.06-.31,2.62c0,0-.41.13-.19,1.34,0,0-.25.7-.06.95a4.52,4.52,0,0,0-.07.95,2.89,2.89,0,0,0,.19,1.24,31,31,0,0,0,.3,5.44s.54,5.41.07,6.33c0,0-1.51,3.75-.41,5.44,0,0,.8,2.16.8,1.34,0,0,0-.7.51-.35,0,0,1-.53,0-1.28a1.55,1.55,0,0,1-.17-1.59,23,23,0,0,0,1.58-3.93s.4-3.61.4-6.22a11.77,11.77,0,0,1,.47-3.28,20.39,20.39,0,0,0,.61-3.86l.59.5A3.61,3.61,0,0,0,176,20a1.71,1.71,0,0,0,1-.1,1.35,1.35,0,0,1,1.24,0s1.58-.27,1.74-1.08l.83,0a1,1,0,0,0,.71,1s.47-.64.8-.64a4.58,4.58,0,0,1-.34,4.2s-1.24,2.9-.7,5.16a24,24,0,0,1-.07,4.66s-.66,2.93-.2,3.78c0,0,0,2.3-.44,2.69a5.83,5.83,0,0,1-1.4,1.33s-.67.49-.47.89a10.57,10.57,0,0,0,5.93,0,1.5,1.5,0,0,0-.3-.66,2.61,2.61,0,0,1-.24-1.74s1.81-6.19,1.84-6.75c0,0,2.05-6.88,2.58-7a36.29,36.29,0,0,0,.87,6.05s.71,3.11.88,3.92c0,0,.36,2.41,1.44,3.25,0,0,1.14,1.39.9,1.84a6.73,6.73,0,0,0-.66,1.26,11.67,11.67,0,0,0,4.94,0,2.56,2.56,0,0,0-.62-1.3,2.92,2.92,0,0,1-.56-.66l-.88-2a24.21,24.21,0,0,1-.3-4v-3.5a8.43,8.43,0,0,1,.67-2.75s.87-1.1.37-1.94a22.29,22.29,0,0,0,8.64.57s-.54.92,1,3.39a12,12,0,0,1,.94,6.71,13.92,13.92,0,0,0-.17,3.53,2.8,2.8,0,0,1-.87,1.48s-.67.5-.5.75c0,0,.7.63,5,.32l.07.36c5.15.7,6.17-.27,6.17-.27a20.69,20.69,0,0,1-.94-2.28,6.25,6.25,0,0,0-.27-2.4L213.75,34a6.67,6.67,0,0,1-.17-2.08c.37-1.31,1.38-7.67,1.38-7.67.16-.18,1-2.12,1-2.12a14.25,14.25,0,0,0,1.48-2.9A16,16,0,0,0,219,25.59c1.37,2.2,1.87,7.18,1.87,7.18a18.85,18.85,0,0,0,.84,3.39A1.66,1.66,0,0,0,223,37.4l.24.25a2.16,2.16,0,0,1,.37.81,2.35,2.35,0,0,0-1-2.7"/><path class="cls-1" d="M154.43,39.44c0,1.09-.24,1.16-.24,1.16a30.2,30.2,0,0,0-.41-3.64c-.2-1.3-.3-4.24-.3-4.24.5.36.94,4.14.94,4.14a9,9,0,0,0,0,2.58m12.1-3.68c-1.1-.49-1.24-3.07-1.24-3.07a23.74,23.74,0,0,0-.3-2.51,36,36,0,0,0-2.17-7.38c-.42-1.17,0-4.6,0-4.6.31-4.34-3.92-11.3-3.92-11.3-1-1.8-4-3.5-4-3.5l-6-2.55c-5.37-2.4-10.53,1.06-10.53,1.06a7.83,7.83,0,0,1-4.59,1,5.47,5.47,0,0,0-3.23,0,17.14,17.14,0,0,1-3.23.26s-7-1.6-8.25,1a4.6,4.6,0,0,0-.41,1.06s-1,.35-1.17,2.61c0,0,.23.63-1.5,1.52,0,0-1.35.81-1,3.56a8.55,8.55,0,0,1-.44,3.22s-.7,2.06-.3,2.62c0,0-.42.13-.19,1.34,0,0-.26.7-.07.95a4.52,4.52,0,0,0-.07.95,2.89,2.89,0,0,0,.19,1.24,30.39,30.39,0,0,0,.31,5.44s.54,5.41.06,6.33c0,0-1.51,3.75-.41,5.44,0,0,.81,2.16.81,1.34,0,0,0-.7.5-.35,0,0,1-.53,0-1.28a1.55,1.55,0,0,1-.17-1.59,22.2,22.2,0,0,0,1.58-3.93s.41-3.61.41-6.22a11.77,11.77,0,0,1,.47-3.28,19.73,19.73,0,0,0,.6-3.86l.6.5a3.7,3.7,0,0,0,1-1.84,1.71,1.71,0,0,0,1-.1,1.35,1.35,0,0,1,1.24,0s1.58-.27,1.74-1.08l.82,0a1,1,0,0,0,.71,1s.47-.64.8-.64a4.56,4.56,0,0,1-.33,4.2s-1.24,2.9-.71,5.16a24.59,24.59,0,0,1-.06,4.66s-.67,2.93-.2,3.78c0,0,0,2.3-.44,2.69A5.77,5.77,0,0,1,123,41s-.67.49-.47.89a10.58,10.58,0,0,0,5.93,0,1.38,1.38,0,0,0-.3-.66,2.68,2.68,0,0,1-.24-1.74s1.81-6.19,1.84-6.75c0,0,2.05-6.88,2.59-7a36.29,36.29,0,0,0,.87,6.05s.7,3.11.87,3.92c0,0,.37,2.41,1.44,3.25,0,0,1.15,1.39.91,1.84a7.31,7.31,0,0,0-.67,1.26,11.71,11.71,0,0,0,5,0,2.65,2.65,0,0,0-.62-1.3,2.86,2.86,0,0,1-.57-.66l-.87-2a23,23,0,0,1-.3-4v-3.5a8.63,8.63,0,0,1,.66-2.75s.87-1.1.37-1.94a22.36,22.36,0,0,0,8.65.57s-.55.92,1,3.39a12,12,0,0,1,.93,6.71,14.42,14.42,0,0,0-.17,3.53,2.8,2.8,0,0,1-.87,1.48s-.66.5-.5.75c0,0,.7.63,5,.32l.07.36c5.16.7,6.17-.27,6.17-.27a23.18,23.18,0,0,1-.94-2.28,6,6,0,0,0-.27-2.4L157.61,34a6.67,6.67,0,0,1-.17-2.08c.37-1.31,1.38-7.67,1.38-7.67a22.62,22.62,0,0,0,1-2.12,14.8,14.8,0,0,0,1.48-2.9,15.91,15.91,0,0,0,1.57,6.36c1.38,2.2,1.88,7.18,1.88,7.18a18.24,18.24,0,0,0,.83,3.39,1.66,1.66,0,0,0,1.35,1.24l.24.25a2.26,2.26,0,0,1,.36.81,2.35,2.35,0,0,0-1-2.7"/><path class="cls-1" d="M97.37,39.44c0,1.09-.24,1.16-.24,1.16a30.93,30.93,0,0,0-.4-3.64c-.2-1.3-.3-4.24-.3-4.24.5.36.93,4.14.93,4.14a9,9,0,0,0,0,2.58m12.1-3.68c-1.1-.49-1.24-3.07-1.24-3.07a21.06,21.06,0,0,0-.3-2.51,36,36,0,0,0-2.17-7.38c-.42-1.17,0-4.6,0-4.6.3-4.34-3.93-11.3-3.93-11.3-1-1.8-4-3.5-4-3.5l-6-2.55c-5.37-2.4-10.53,1.06-10.53,1.06a7.84,7.84,0,0,1-4.59,1,5.49,5.49,0,0,0-3.24,0,17,17,0,0,1-3.22.26s-7-1.6-8.26,1a4.64,4.64,0,0,0-.4,1.06s-1,.35-1.18,2.61c0,0,.24.63-1.5,1.52,0,0-1.35.81-1.05,3.56a8.46,8.46,0,0,1-.43,3.22s-.71,2.06-.31,2.62c0,0-.41.13-.19,1.34,0,0-.25.7-.06.95a3.93,3.93,0,0,0-.07.95A2.74,2.74,0,0,0,57,23.32a30,30,0,0,0,.3,5.44s.54,5.41.06,6.33c0,0-1.51,3.75-.4,5.44,0,0,.8,2.16.8,1.34,0,0,0-.7.5-.35,0,0,1-.53,0-1.28a1.52,1.52,0,0,1-.17-1.59,22.44,22.44,0,0,0,1.57-3.93s.41-3.61.41-6.22a11.77,11.77,0,0,1,.47-3.28,20.39,20.39,0,0,0,.61-3.86l.59.5a3.7,3.7,0,0,0,1-1.84,1.71,1.71,0,0,0,1-.1,1.35,1.35,0,0,1,1.24,0s1.58-.27,1.74-1.08l.83,0a1,1,0,0,0,.7,1s.48-.64.81-.64a4.58,4.58,0,0,1-.34,4.2s-1.24,2.9-.7,5.16A24.79,24.79,0,0,1,68,33.24s-.66,2.93-.2,3.78c0,0,0,2.3-.44,2.69A5.77,5.77,0,0,1,66,41s-.66.49-.47.89a10.61,10.61,0,0,0,5.94,0,1.44,1.44,0,0,0-.31-.66,2.63,2.63,0,0,1-.23-1.74s1.8-6.19,1.84-6.75c0,0,2-6.88,2.58-7a36.29,36.29,0,0,0,.87,6.05s.71,3.11.87,3.92c0,0,.37,2.41,1.45,3.25,0,0,1.14,1.39.9,1.84a6.73,6.73,0,0,0-.66,1.26,11.67,11.67,0,0,0,4.94,0,2.56,2.56,0,0,0-.62-1.3,3.14,3.14,0,0,1-.57-.66l-.87-2a23,23,0,0,1-.3-4v-3.5A8.43,8.43,0,0,1,82,27.92s.87-1.1.36-1.94a22.36,22.36,0,0,0,8.65.57s-.54.92,1,3.39A12,12,0,0,1,93,36.65a13.92,13.92,0,0,0-.17,3.53,2.89,2.89,0,0,1-.87,1.48s-.67.5-.51.75c0,0,.71.63,5,.32l.06.36c5.16.7,6.18-.27,6.18-.27a20.69,20.69,0,0,1-.94-2.28,6.25,6.25,0,0,0-.27-2.4L100.56,34a6.67,6.67,0,0,1-.17-2.08c.37-1.31,1.37-7.67,1.37-7.67a22.62,22.62,0,0,0,1-2.12,14.8,14.8,0,0,0,1.48-2.9,16,16,0,0,0,1.58,6.36c1.37,2.2,1.87,7.18,1.87,7.18a18,18,0,0,0,.84,3.39,1.66,1.66,0,0,0,1.34,1.24l.24.25a2.16,2.16,0,0,1,.37.81,2.36,2.36,0,0,0-1-2.7"/><path class="cls-1" d="M40.78,39.44c0,1.09-.24,1.16-.24,1.16A30.2,30.2,0,0,0,40.13,37c-.2-1.3-.3-4.24-.3-4.24.5.36.94,4.14.94,4.14a8.58,8.58,0,0,0,0,2.58m12.1-3.68c-1.11-.49-1.24-3.07-1.24-3.07a23.74,23.74,0,0,0-.3-2.51,36,36,0,0,0-2.17-7.38c-.42-1.17,0-4.6,0-4.6.31-4.34-3.92-11.3-3.92-11.3-1-1.8-4-3.5-4-3.5l-6-2.55c-5.37-2.4-10.53,1.06-10.53,1.06a7.83,7.83,0,0,1-4.59,1,5.47,5.47,0,0,0-3.23,0,17.14,17.14,0,0,1-3.23.26s-7-1.6-8.25,1A4.6,4.6,0,0,0,5,5.31S4,5.66,3.87,7.92c0,0,.23.63-1.5,1.52,0,0-1.35.81-1,3.56a8.55,8.55,0,0,1-.44,3.22s-.7,2.06-.3,2.62c0,0-.42.13-.19,1.34,0,0-.26.7-.07.95a4.52,4.52,0,0,0-.07.95,2.89,2.89,0,0,0,.19,1.24,31,31,0,0,0,.3,5.44s.55,5.41.07,6.33c0,0-1.51,3.75-.41,5.44,0,0,.81,2.16.81,1.34,0,0,0-.7.5-.35,0,0,1-.53,0-1.28a1.55,1.55,0,0,1-.17-1.59,23,23,0,0,0,1.58-3.93s.41-3.61.41-6.22A11.77,11.77,0,0,1,4,25.22a19.73,19.73,0,0,0,.6-3.86l.6.5a3.65,3.65,0,0,0,1-1.84,1.71,1.71,0,0,0,1-.1,1.35,1.35,0,0,1,1.24,0s1.58-.27,1.75-1.08l.82,0a1,1,0,0,0,.71,1s.47-.64.8-.64a4.56,4.56,0,0,1-.33,4.2s-1.24,2.9-.71,5.16a24.59,24.59,0,0,1-.06,4.66s-.67,2.93-.2,3.78c0,0,0,2.3-.44,2.69A6,6,0,0,1,9.37,41s-.67.49-.47.89a10.58,10.58,0,0,0,5.93,0,1.38,1.38,0,0,0-.3-.66,2.68,2.68,0,0,1-.24-1.74s1.81-6.19,1.84-6.75c0,0,2.05-6.88,2.58-7a36.79,36.79,0,0,0,.88,6.05s.7,3.11.87,3.92c0,0,.37,2.41,1.44,3.25,0,0,1.15,1.39.91,1.84a6.67,6.67,0,0,0-.67,1.26,11.71,11.71,0,0,0,4.95,0,2.65,2.65,0,0,0-.62-1.3,2.86,2.86,0,0,1-.57-.66l-.87-2a23.68,23.68,0,0,1-.31-4v-3.5a8.7,8.7,0,0,1,.67-2.75s.87-1.1.37-1.94a22.36,22.36,0,0,0,8.65.57s-.55.92,1,3.39a12,12,0,0,1,.94,6.71,14.42,14.42,0,0,0-.17,3.53,2.8,2.8,0,0,1-.87,1.48s-.66.5-.5.75c0,0,.7.63,5,.32l.07.36c5.16.7,6.17-.27,6.17-.27a23.18,23.18,0,0,1-.94-2.28,6,6,0,0,0-.27-2.4L44,34a6.67,6.67,0,0,1-.17-2.08c.37-1.31,1.38-7.67,1.38-7.67a22.62,22.62,0,0,0,1-2.12,14.8,14.8,0,0,0,1.48-2.9,15.91,15.91,0,0,0,1.57,6.36c1.38,2.2,1.87,7.18,1.87,7.18a18.85,18.85,0,0,0,.84,3.39,1.66,1.66,0,0,0,1.35,1.24l.23.25a2.16,2.16,0,0,1,.37.81,2.35,2.35,0,0,0-1-2.7"/></g></g></svg>