<svg xmlns="http://www.w3.org/2000/svg" width="53.99" height="43.34" viewBox="0 0 53.99 43.34"><defs><style>.cls-1{fill:#fff;}</style></defs><title>elephant</title><g id="Layer_2" data-name="Layer 2"><g id="Layer_1-2" data-name="Layer 1"><path class="cls-1" d="M40.78,39.44c0,1.09-.24,1.16-.24,1.16A30.2,30.2,0,0,0,40.13,37c-.2-1.3-.3-4.24-.3-4.24.5.36.94,4.14.94,4.14a8.58,8.58,0,0,0,0,2.58m12.1-3.68c-1.11-.49-1.24-3.07-1.24-3.07a23.74,23.74,0,0,0-.3-2.51,36,36,0,0,0-2.17-7.38c-.42-1.17,0-4.6,0-4.6.31-4.34-3.92-11.3-3.92-11.3-1-1.8-4-3.5-4-3.5l-6-2.55c-5.37-2.4-10.53,1.06-10.53,1.06a7.83,7.83,0,0,1-4.59,1,5.47,5.47,0,0,0-3.23,0,17.14,17.14,0,0,1-3.23.26s-7-1.6-8.25,1A4.6,4.6,0,0,0,5,5.31S4,5.66,3.87,7.92c0,0,.23.63-1.5,1.52,0,0-1.35.81-1,3.56a8.55,8.55,0,0,1-.44,3.22s-.7,2.06-.3,2.62c0,0-.42.13-.19,1.34,0,0-.26.7-.07.95a4.52,4.52,0,0,0-.07.95,2.89,2.89,0,0,0,.19,1.24,31,31,0,0,0,.3,5.44s.55,5.41.07,6.33c0,0-1.51,3.75-.41,5.44,0,0,.81,2.16.81,1.34,0,0,0-.7.5-.35,0,0,1-.53,0-1.28a1.55,1.55,0,0,1-.17-1.59,23,23,0,0,0,1.58-3.93s.4-3.61.4-6.22A11.91,11.91,0,0,1,4,25.22a19.73,19.73,0,0,0,.6-3.86l.6.5a3.65,3.65,0,0,0,1-1.84,1.71,1.71,0,0,0,1-.1,1.35,1.35,0,0,1,1.24,0s1.58-.27,1.75-1.08l.82,0a1,1,0,0,0,.71,1s.47-.64.8-.64a4.56,4.56,0,0,1-.33,4.2s-1.24,2.9-.71,5.16a24.59,24.59,0,0,1-.06,4.66s-.67,2.93-.2,3.78c0,0,0,2.3-.44,2.69A6,6,0,0,1,9.37,41s-.67.49-.47.89a10.58,10.58,0,0,0,5.93,0,1.38,1.38,0,0,0-.3-.66,2.68,2.68,0,0,1-.24-1.74s1.81-6.19,1.84-6.75c0,0,2.05-6.88,2.58-7a36.79,36.79,0,0,0,.88,6.05s.7,3.11.87,3.92c0,0,.37,2.41,1.44,3.25,0,0,1.15,1.39.91,1.84a6.67,6.67,0,0,0-.67,1.26,11.71,11.71,0,0,0,4.95,0,2.65,2.65,0,0,0-.62-1.3,2.86,2.86,0,0,1-.57-.66l-.87-2a23.68,23.68,0,0,1-.31-4v-3.5a8.7,8.7,0,0,1,.67-2.75s.87-1.1.37-1.94a22.36,22.36,0,0,0,8.65.57s-.55.92,1,3.39a12,12,0,0,1,.94,6.71,14.42,14.42,0,0,0-.17,3.53,2.8,2.8,0,0,1-.87,1.48s-.66.5-.5.75c0,0,.7.63,5,.32l.07.36c5.16.7,6.17-.27,6.17-.27a23.18,23.18,0,0,1-.94-2.28,6,6,0,0,0-.27-2.4L44,34a6.67,6.67,0,0,1-.17-2.08c.37-1.31,1.38-7.67,1.38-7.67a22.62,22.62,0,0,0,1-2.12,14.8,14.8,0,0,0,1.48-2.9,15.91,15.91,0,0,0,1.57,6.36c1.38,2.2,1.87,7.18,1.87,7.18a18.85,18.85,0,0,0,.84,3.39,1.66,1.66,0,0,0,1.35,1.24l.23.25a2.16,2.16,0,0,1,.37.81,2.35,2.35,0,0,0-1-2.7"/></g></g></svg>