<svg xmlns="http://www.w3.org/2000/svg" width="211.03" height="65.77" viewBox="0 0 211.03 65.77"><defs><style>.cls-1{fill:#28a5de;}</style></defs><title>everest</title><g id="Layer_2" data-name="Layer 2"><g id="Layer_1-2" data-name="Layer 1"><path class="cls-1" d="M149.91,37.27l-3.81-4.63c-.1,1.21-.81,1.87-1,2.73-.06.24-.18.61-.57.64s-.44-.39-.55-.61c-1.28-2.59-2.52-5.21-3.69-7.86,1.42,1.12,2.61,2.41,4,3.52.43.33.57.22.9,0,.67-.41,1.36-.81,2.12-1.25,1,2.51,1.9,4.94,2.83,7.36l-.24.08M131.63,22.52a24.34,24.34,0,0,1-4-3.64c-.34-.46.09-1.12-.2-1.69-.1-.18.41-.22.56-.08,1.63,1.41,3.67,2.39,5.54,3.83-2.25,0-2.31.09-1.94,1.58m-.36,22.59a10.55,10.55,0,0,0-1.87-1.19c-1.33-.48-1.17-1.28-.92-2.19a8.71,8.71,0,0,0,.67-3l.36-.08c.69,2.14,1.37,4.28,2.06,6.42l-.3,0M99.36,30.62a22.08,22.08,0,0,0,2.54,2c.68.44.54.81.28,1.25a9.89,9.89,0,0,0-.88,2.73c-.23.92.71,1.44,1.23,2,4.69,5.39,9.47,10.73,14.16,16.13A6.69,6.69,0,0,1,118.25,57L95,38.13a2.57,2.57,0,0,1,1.44-.74c.77-.19.71-.26.22-.76-1.39-1.38-2.54-2.91-4-4.24a5.11,5.11,0,0,1-.61-.94c1.15.16,2,.84,3.21.58l-7.81-11a.75.75,0,0,1,.73.3c3.61,3.19,7.61,6,11.2,9.25M20,54.15a4.26,4.26,0,0,1,2.87,0c.74.22,1.77-.36,2.17.33.31.53,0,1.28.08,1.94a4.12,4.12,0,0,0,1.11,2.17,8,8,0,0,1,1.5,2.6,26.21,26.21,0,0,1-7.73-7m-1,.26c.56,1.41,1.65,2.65,1.72,4.18-.41-1.45-2.31-2.45-1.72-4.18M14.5,61.3c-.82-1.61-1.56-3.25-2.48-4.81-.31-.51.07-.81.06-1.2s.36-.33.54-.34c.39,0,.16.28.22.44.43,1.2.86,2.4,1.27,3.6.25.74.46,1.49.68,2.24l-.29.07m-6.45,0c-.7-.43.07-.78.19-1.16s.53-.81.8-.66a1.54,1.54,0,0,1,.7,1.13c0,.69.47,1.18.86,2-1-.52-1.82-.88-2.55-1.34m203,4c-.76-1.3-1.37-2.76-3.18-3.24a11.75,11.75,0,0,1-7.06-5c-.1-.16-.24-.3-.35-.45a2,2,0,0,0-1.42-.86,3.55,3.55,0,0,1-2.55-1.61,8.33,8.33,0,0,0-2.6-2.51c-2.56-1.3-5.24-2.4-7.8-3.71a2.57,2.57,0,0,0-1.7-.27,3.87,3.87,0,0,1-2.68-.46c-2.94-1.6-5.94-3.11-8.92-4.66a2.63,2.63,0,0,1-1.37-1.49c-.5-1.3-.84-2.67-2.09-3.68a83,83,0,0,1-6.6-5.92,6.42,6.42,0,0,0-5.76-2.05,3.89,3.89,0,0,1-2.62-.63c-2.71-1.63-5.37-3.33-8-5a5,5,0,0,0-3.36-1.11,2.73,2.73,0,0,1-3-1.39,5,5,0,0,0-3-2.44c-2.58-.72-5.08-1.65-7.67-2.35a3.48,3.48,0,0,1-2.71-2.2,5.23,5.23,0,0,0-4.06-3.4,4.44,4.44,0,0,1-2.44-1.32c-1.73-2-3.52-4-5.34-6A20.77,20.77,0,0,0,111.29,0h-.51a3.49,3.49,0,0,0-1.29,1C107.37,3.72,105.17,6.35,103,9c-.93,1.1-1.58,2.43-3.11,3.11-4.37,1.94-8.71,4-13.16,5.76-2.49,1-4.37,2.27-5.25,4.53a1.56,1.56,0,0,1-1.67.94c-4.41,0-8.82.08-13.23.14-2.32,0-3.6.62-4.4,2.46a7.57,7.57,0,0,1-2.38,3.44c-1.6,1.13-3.31,2.16-4.93,3.27a2.82,2.82,0,0,1-1.51.51c-1.45,0-2.87.29-4.3.41a3.78,3.78,0,0,0-2.23.93C45,36,43.1,37.38,41.34,38.9c-1.46,1.26-3.31,2.19-4.42,3.75-.94,1.34-2,2.61-2.92,4a4.07,4.07,0,0,1-1.92,1.55c-4,1.52-8,3.1-11.93,4.67a4.31,4.31,0,0,1-1.71.38c-1.74,0-3.46.35-5.21.24a2,2,0,0,0-1.87.91c-.64.9-1.34,1.77-2,2.68a3.83,3.83,0,0,1-2,1.59,10.15,10.15,0,0,0-4.86,3.55c-.6.75-1.28,1.45-2,2.15-.33.34-.75.7-.46,1.23v-.07a6.32,6.32,0,0,0,3.12-.44c1.17-.36,2.08-.31,2.73.69H25.34c-.38-1.19-1.67-2-2.13-3.35l6.21,3.35h4.84a.44.44,0,0,0,.14-.51c-.58-1.38-.63-2.85-1.14-4.25a2.43,2.43,0,0,0-1.63-1.68A1.93,1.93,0,0,1,30.36,58,5.74,5.74,0,0,1,30,56a5.27,5.27,0,0,0-.76-2.84C28.53,52,28.51,52,30,51.43c.31-.11.63-.21.94-.34.48-.22,1.1-.37,1.19-.9s.47-.77,1.09-.84a2.53,2.53,0,0,0,2.09-1.42c.68-1.25,1.45-2.47,2.16-3.71A4.47,4.47,0,0,1,39,42.65c2.64-1.72,5.32-3.38,7.91-5.15.07,0,.09-.08.07-.09s.13,0,0,.07c-2.31,1.56-4.07,3.61-6.24,5.29a3.68,3.68,0,0,0-1.58,2.62,36.63,36.63,0,0,0-.63,5.31c0,.24-.1.55.26.67s.56-.09.77-.27a2.89,2.89,0,0,0,.49-.5,1,1,0,0,1,1.59-.12,11.36,11.36,0,0,0,1.38,1c.64.36,1.19.36,1.57-.3,1.83-3.16,4-6.18,5.58-9.38v0c-.75,3.39-1.36,6.8-2,10.2-.11.53.2.9.64,1.23a21.28,21.28,0,0,0,3.18,2.18,6.1,6.1,0,0,1,3.42,4.36c.09.38.12.86.79.8s.59-.54.64-.92A5.17,5.17,0,0,1,57,57.52a2.54,2.54,0,0,1,1,.85c1.86,2,3.41,4.17,5.28,6.15.27.28.54.68,1,.51s.2-.58.17-.88c-.24-2.87-1-5.69-1.27-8.54a7.29,7.29,0,0,0-2.44-4.88,2,2,0,0,1-.64-2.41,16.35,16.35,0,0,0,.7-3.65c0-.28,0-.65-.38-.73s-.44.28-.58.48a14.41,14.41,0,0,0-1.06,2.38,4.76,4.76,0,0,0,.32-1.16c.37-1.68.61-3.38,1-5a2.28,2.28,0,0,0-.79-2.76,1.65,1.65,0,0,1-.51-2.17,25.51,25.51,0,0,0,1-3.16,3.39,3.39,0,0,1,1.59-2.14c1.45-1,3.39-1.7,3-4a11.13,11.13,0,0,1,.87,1.49c.83,1.12.43,2-.51,2.93-1.45,1.42-2.78,2.93-4.17,4.4-.3.31-.67.67-.43,1.08s.82.17,1.26.14c.21,0,.41-.07.62-.09,1.85-.21,2-.06,1.46,1.51-.46,1.25-.74,2.54-1.1,3.81-.3,1.06-.66,2.11-.9,3.18-.19.84.13,1,1,.87-.06.79-.3,1.57-.34,2.37-.05,1.07.29,1.25,1.38.76.34-.15.7-.43,1,0,1,1.64,2.59,3.07,2.49,5.15s0,3.93,0,5.89c0,.39-.08.87.43,1.07s.85-.2,1.22-.42c1.08-.65,1.94-1.52,3-2.24-.58,1-1,2-1.54,3.07a.63.63,0,0,0,0,.82c.28.27.62.12.94,0s.72-.4,1.22-.18c-.35.9-.86,1.7-1.23,2.55-.15.36-.5.7-.15,1.12H85c.44-.49.07-.91-.18-1.31-.67-1.09-1.25-2.21-2-3.32.65.34,1.2.68,1.79,1,.29.14.61.36.92.09s.15-.55,0-.82-.42-.79-.6-1.2c-2.21-5-4.43-10.1-6.63-15.2,1.16.92,2.35,1.74,3.49,2.61.28.21.63.53,1,.3s.12-.68-.08-1c-.69-1-1.52-1.84-2.25-2.78-4.26-5.48-8.49-11-13-16.53A3,3,0,0,0,68,28c4.19,3.08,8.49,6,12.68,9.12a1.54,1.54,0,0,0,2.29-.11c.88,2.08,1.52,4,2.29,6a25,25,0,0,0,1.25,3.31c.19.35.44.86,1,.7.89-.26,1,.23,1.23.7.62,1.35,1,2.77,1.74,4.09.23.42.43.82,1.13.5.55-.26.53.12.54.41a34.68,34.68,0,0,0,.76,5c.05.32,0,.82.43.83,1.15,0,1,.78,1.2,1.39a15.34,15.34,0,0,1,.74,2.54.57.57,0,0,0,.89.46c1-.75,1,.13,1.22.49s.42.91,1,.81.48-.64.48-1c0-2.47.76-4.88.83-7.47a8.66,8.66,0,0,1,1.63,1.17c2.23,1.9,4.38,3.87,6.69,5.69,1.39,1.09,2.53,2.45,4.32,3.16h26.52c.13-.6-.43-.83-.85-1.11-1.3-.87-2.64-1.7-4-2.56a3.51,3.51,0,0,1-1.29-1.18c-.57-1.14-1.36-2.19-1.83-3.36a5,5,0,0,0-4.28-3.6c-.49-.07-.92-.37-1.42-.47a1.37,1.37,0,0,1-1.15-1c-1.58-4.83-2.88-9.72-4.51-14.54-.16-.47-.11-1.18-.8-1.24s-.58.68-.79,1.08-.47.69-.88.19c-1.33-1.65-2.69-3.27-4-4.89-.29-.34-.28-.55.32-.66,1.25-.25,1.3-.4.56-1.32-.29-.36-.61-.7-.91-1.05-2.06-2.4-4.24-4.73-6.31-7.13-.21-.25-.78-.54-.06-.85,1.06-.45.66-1,.06-1.42a7.13,7.13,0,0,1-2.6-3.91c-.26-.8-.6-1.59-.92-2.38-.12-.3-.22-.69-.64-.76a1,1,0,0,0-1,.56c-1.17,1.95-1.78,2-4.58,2,5-2.73,8.54-6.64,12.61-10.27-.15.86-.42,1.52-.54,2.21-.24,1.3-.34,2.56,1.36,3.28.25.11.62.33.43.59-.8,1.06.18,1.6.92,2a3.1,3.1,0,0,1,1.81,3.43,4,4,0,0,0,0,1c0,.37,0,.81.45,1,1.17.47,1,1.25.86,2.12-.16.71-.22,1.45-.42,2.15s.11,1.38,1,1.8a4.63,4.63,0,0,1,2.37,1.74c.31.6.54,1.23.79,1.84.76,1.89,1.84,3.68,2.23,5.68a23.89,23.89,0,0,1,.13,4.14A3.9,3.9,0,0,0,122.41,42c2.85,2.4,5.8,4.7,8.65,7.1a7,7,0,0,1,2.36,4,33.3,33.3,0,0,0,1.27,5c.17.41.1,1.08.79,1.1s.68-.58.93-1a12.58,12.58,0,0,1,1.27-1.9c.27,1.19.77,2.29,1,3.43.47,2.61,2.57,4.25,4.52,6h34.68c-.06-1.12-1.17-1.71-1.77-2.56A2.9,2.9,0,0,0,173.21,62a1.72,1.72,0,0,1-1.86-1c-.59-1.12-1.21-2.24-1.9-3.33a1.49,1.49,0,0,0-1.22-.84c-2.24-.17-4.43-.7-6.7-.69A6.37,6.37,0,0,1,156,53.4c1.09-.1,2.11,0,3.12-.06.53,0,1-.1,1.19-.63s-.31-1.47.38-1.68,1.12.64,1.72,1,1,.16,1.25-.39a5.08,5.08,0,0,0,.29-2c0-2.65-.35-2.57,2.94-2.55.17,0,0,0,.13,0,1,0,1.43-.31,1.56-1.19.25-1.61.73-3.18,1-4.85,1.11,2.18,3.45,3.31,5.28,4.83s3.79,3,5.9,4.52c-.9-.11-1.65-.41-2.3,0a1.33,1.33,0,0,1-1.49-.1c-1.15-.62-2.23-1.32-3.35-2a.84.84,0,0,0-.83-.15c-.34.2-.25.53-.11.79,1,1.81,1.78,3.7,2.94,5.44a1.9,1.9,0,0,0,1.5.92,1.94,1.94,0,0,1,2,1.67,16.07,16.07,0,0,0,.92,2.6c.43.84.81.94,1.61.34a7.81,7.81,0,0,0,1.81-1.67c-.31.49-.82,1-.76,1.54.09.84,1.2.42,1.74.8a24.7,24.7,0,0,1-1.76,1.78c-.75.72-.66,1.23.4,1.4,1.42.22,2.42.6,2.19,2h7.14c.29-.29.08-.56-.06-.81-1.82-3.18-3.63-6.36-5.56-9.29.33.46.76,1,1.15,1.49,1.62,2.18,3.33,4.3,5,6.45.53.7,1,.66,1.4,0,.79-1.29.79-1.29,2.23-.44.38.23.73.5,1.11.73a15.35,15.35,0,0,0,3.4,1.88h9.18c.33,0,.92.24.77-.43"/></g></g></svg>