<svg xmlns="http://www.w3.org/2000/svg" width="70.93" height="69.57" viewBox="0 0 70.93 69.57"><defs><style>.cls-1{fill:#28a5de;}</style></defs><title>foodBags</title><g id="Layer_2" data-name="Layer 2"><g id="Layer_1-2" data-name="Layer 1"><path class="cls-1" d="M49.43,33.61a.43.43,0,0,1-.43-.43.43.43,0,0,1,.86,0,.43.43,0,0,1-.43.43m-.73-1.92a.43.43,0,0,1,.85,0,.43.43,0,1,1-.85,0M47.54,33.6a.43.43,0,0,1-.42-.43.43.43,0,1,1,.85,0,.43.43,0,0,1-.43.43m-1.38,1.28a.43.43,0,0,1-.43-.43.43.43,0,0,1,.86,0,.43.43,0,0,1-.43.43m4.68-3.59a.43.43,0,0,1,0,.85.43.43,0,1,1,0-.85m.42-1.72a.43.43,0,1,1,0,.85.43.43,0,0,1,0-.85m2.45,1.24a.43.43,0,1,1-.43.43.43.43,0,0,1,.43-.43m8.59,6.47c-4.07-4-10-9-11.13-8.78S44.44,34.48,41,38a70.42,70.42,0,0,0,8.77.56A56.78,56.78,0,0,0,62.3,37.28"/><path class="cls-1" d="M60,55.62c-.2.61-4.12,3.66-5.78,2-.75-.74-.14-2.59,2.46-1.61,2.31.88,3.32-.39,3.32-.39m-1-4.47s-1.9,5.6-3.67,3.85,3.09-3.72,3.67-3.85m-4.53-1.08s-1.26,1-.39,3.31c1,2.59-.87,3.2-1.61,2.46-1.66-1.66,1.4-5.57,2-5.77m-2.39,2.39s-1.27,1-.39,3.31c1,2.59-.87,3.2-1.62,2.46-1.66-1.66,1.41-5.57,2-5.77m-2.46,2.46s-1.27,1-.4,3.31c1,2.6-.87,3.21-1.61,2.46-1.67-1.66,1.4-5.57,2-5.77m-2.55,6.89c.19-.2.28.24.6.56s.76.4.56.6l-2.32,2c-.47.47-1-.48-.82-.7Zm4.79-1c2.31.87,3.32-.39,3.32-.39-.2.6-4.12,3.66-5.78,2-.75-.75-.14-2.6,2.46-1.62m0-.85c-.75-.74-.13-2.59,2.46-1.62,2.32.88,3.32-.38,3.32-.38-.2.6-4.12,3.66-5.78,2m18.41,6.75-1.92-1.34c1-3.29,1.56-11.7-1.92-18.48-4,1.11-11.86,1.58-15.55,1.58H46.79a39.32,39.32,0,0,1-8.91-.65c-1,4.34-3,14-1.2,18l-.68.47a1.54,1.54,0,1,0,1.77,2.53L39,68c4.44,2.16,10.54,1.31,13.81,1.31,2.92,0,10.12.39,13.57-1.51l2.09,1.46a1.54,1.54,0,0,0,1.76-2.53"/><path class="cls-1" d="M68,45.41c-.66,1.15-10,2.35-17.16,2.35s-15,.35-15.41-2.6a7.42,7.42,0,0,1,.09-2.43l.12-.59.44-1.4.18-.58a17.73,17.73,0,0,1,.88-2s14.56,3.17,28.28-1c2.49,2.65,3.23,7,2.58,8.18"/><path class="cls-1" d="M11.84,18.83a.36.36,0,1,1,.36-.36.36.36,0,0,1-.36.36m-.62-1.61a.36.36,0,1,1,.36.36.36.36,0,0,1-.36-.36m-1,1.6a.36.36,0,1,1,.36-.36.36.36,0,0,1-.36.36M9.09,19.89a.36.36,0,1,1,.36-.35.36.36,0,0,1-.36.35m3.93-3a.36.36,0,1,1-.36.36.36.36,0,0,1,.36-.36m.36-1.44a.36.36,0,1,1-.36.35.36.36,0,0,1,.36-.35m2,1a.36.36,0,1,1-.36.36.36.36,0,0,1,.36-.36m7.22,5.43c-3.42-3.38-8.38-7.59-9.35-7.37s-5.65,5-8.54,8a58.35,58.35,0,0,0,7.37.47,47.16,47.16,0,0,0,10.52-1.11"/><path class="cls-1" d="M20.75,37.33c-.17.51-3.46,3.08-4.86,1.68-.62-.62-.12-2.18,2.07-1.36,1.94.74,2.79-.32,2.79-.32m-.87-3.76s-1.6,4.71-3.08,3.23,2.59-3.12,3.08-3.23m-3.81-.91s-1.06.84-.32,2.79c.82,2.18-.73,2.69-1.36,2.06-1.39-1.39,1.18-4.68,1.68-4.85m-2,2s-1.06.84-.33,2.78c.83,2.18-.73,2.7-1.35,2.07-1.4-1.4,1.18-4.68,1.68-4.85M12,36.74s-1.06.84-.33,2.79c.83,2.17-.73,2.69-1.36,2.06C8.91,40.2,11.48,36.91,12,36.74M9.85,42.53c.17-.17.24.2.51.47s.63.34.47.51L8.88,45.15c-.39.39-.87-.41-.69-.6Zm4-.8c1.94.74,2.79-.32,2.79-.32-.17.5-3.46,3.07-4.86,1.68-.63-.63-.12-2.18,2.07-1.36m0-.71c-.63-.62-.11-2.18,2.07-1.36,1.95.74,2.79-.32,2.79-.32-.17.5-3.46,3.07-4.86,1.68m15.47,5.67-1.62-1.13A24,24,0,0,0,26.12,30c-3.32.93-10,1.32-13.07,1.32H9.61a32.68,32.68,0,0,1-7.47-.55C1.26,34.47-.42,42.6,1.13,46l-.58.4A1.3,1.3,0,1,0,2,48.5l1.07-.74c3.72,1.81,8.85,1.1,11.6,1.1,2.45,0,8.5.33,11.4-1.27l1.75,1.22a1.3,1.3,0,1,0,1.49-2.12"/><path class="cls-1" d="M27.47,28.75c-.55,1-8.36,2-14.42,2S.49,31,.1,28.54a6.13,6.13,0,0,1,.08-2L.29,26l.36-1.18.15-.48a14.69,14.69,0,0,1,.74-1.66s12.24,2.66,23.77-.8c2.09,2.22,2.71,5.9,2.16,6.87"/><path class="cls-1" d="M43.83,3.12a.27.27,0,0,1-.27-.26.27.27,0,0,1,.53,0,.26.26,0,0,1-.26.26M43.37,2a.27.27,0,0,1,.27-.26.26.26,0,0,1,0,.52A.27.27,0,0,1,43.37,2m-.71,1.16a.26.26,0,1,1,0-.52.26.26,0,1,1,0,.52m-.86.78a.26.26,0,1,1,.27-.26.26.26,0,0,1-.27.26M44.7,1.7A.26.26,0,0,1,45,2a.27.27,0,0,1-.53,0,.27.27,0,0,1,.27-.26m.26-1a.26.26,0,0,1,.27.26.27.27,0,0,1-.53,0A.26.26,0,0,1,45,.66m1.52.75a.26.26,0,0,1,.26.26.27.27,0,0,1-.53,0,.27.27,0,0,1,.27-.26m5.31,3.94C49.27,2.9,45.62-.15,44.9,0s-4.16,3.64-6.28,5.81A44.39,44.39,0,0,0,44,6.16a35.59,35.59,0,0,0,7.75-.81"/><path class="cls-1" d="M50.4,16.53c-.13.36-2.56,2.23-3.58,1.22-.47-.46-.09-1.59,1.52-1,1.43.54,2.06-.23,2.06-.23m-.65-2.73s-1.18,3.42-2.27,2.35,1.91-2.27,2.27-2.35M47,13.15s-.78.6-.24,2c.61,1.58-.54,1.95-1,1.5-1-1,.87-3.39,1.24-3.51M45.47,14.6s-.78.61-.24,2c.61,1.58-.54,1.95-1,1.5-1-1,.87-3.4,1.24-3.52m-1.53,1.5s-.78.61-.24,2c.61,1.58-.54,1.95-1,1.49-1-1,.87-3.39,1.24-3.51m-1.58,4.2c.13-.13.18.14.38.34s.47.24.34.36l-1.43,1.19c-.29.29-.64-.29-.51-.43Zm3-.58c1.43.53,2.06-.24,2.06-.24-.13.37-2.55,2.23-3.58,1.22-.47-.45-.09-1.58,1.52-1m0-.52c-.46-.45-.08-1.58,1.53-1,1.43.53,2-.24,2-.24-.12.37-2.55,2.23-3.58,1.22m11.4,4.11-1.19-.81a17.14,17.14,0,0,0-1.19-11.26,47.36,47.36,0,0,1-9.63,1H42.19a24.85,24.85,0,0,1-5.51-.4c-.64,2.64-1.88,8.54-.74,11l-.42.29a.92.92,0,0,0-.24,1.3,1,1,0,0,0,1.33.24l.79-.54c2.74,1.31,6.52.79,8.55.79,1.8,0,6.26.24,8.39-.92l1.29.89A1,1,0,0,0,57,24.62a.94.94,0,0,0-.24-1.31"/><path class="cls-1" d="M55.35,10.31c-.41.7-6.16,1.43-10.63,1.43s-9.25.21-9.54-1.58a4.64,4.64,0,0,1,.06-1.48l.08-.36.27-.86.11-.35a10.41,10.41,0,0,1,.54-1.2s9,1.93,17.51-.58c1.54,1.61,2,4.27,1.6,5"/></g></g></svg>