<?xml version="1.0" encoding="utf-8"?>
<!-- Generator: Adobe Illustrator 23.0.2, SVG Export Plug-In . SVG Version: 6.00 Build 0)  -->
<svg version="1.1" id="Layer_1" xmlns="http://www.w3.org/2000/svg" xmlns:xlink="http://www.w3.org/1999/xlink" x="0px" y="0px"
	 viewBox="0 0 80 80" style="enable-background:new 0 0 80 80;" xml:space="preserve">
<style type="text/css">
	.st0{clip-path:url(#SVGID_2_);}
	.st1{fill:#007BBB;}
</style>
<g>
	<g>
		<defs>
			<rect id="SVGID_1_" x="1.2" y="9.8" width="77.5" height="60.5"/>
		</defs>
		<clipPath id="SVGID_2_">
			<use xlink:href="#SVGID_1_"  style="overflow:visible;"/>
		</clipPath>
		<g id="Layer_1-2" class="st0">
			<path class="st1" d="M30.2,32.7c0,3.3-2.7,6-6,6H24V36c0-3.3,2.7-6,6-6c0,0,0,0,0.1,0h0.2V32.7z M30.2,42.8c0,3.3-2.7,6-6,6H24
				v-2.7c0-3.3,2.7-6,6.1-6h0.2V42.8z M30.2,52.9c0,3.3-2.7,6-6,6H24v-2.7c0-3.3,2.7-6,6.1-6l0,0h0.2V52.9z M23.9,63.9
				c-0.2,1.4-1.4,2.4-2.8,2.2c-1.1-0.1-2-1-2.2-2.2v-1.9c0-0.3,0.3-0.6,0.6-0.6l0,0h3.8c0.3,0,0.6,0.3,0.6,0.6c0,0,0,0,0,0
				L23.9,63.9z M12.6,52.9v-2.8h0.2c3.3,0,6,2.7,6,6v2.8h-0.2C15.3,58.9,12.6,56.2,12.6,52.9 M12.6,40.1h0.2c3.3,0,6,2.7,6.1,6v2.8
				h-0.2c-3.3,0-6-2.7-6.1-6V40.1z M12.6,30h0.2c3.3,0,6,2.6,6,5.9c0,0,0,0,0,0.1v2.8h-0.2c-3.3,0-6-2.7-6.1-6V30z M18.9,24.9
				c0-1.4,1.1-2.5,2.5-2.5c1.4,0,2.5,1.1,2.5,2.5v3.7c0.2,1.4-0.8,2.6-2.2,2.8c-1.4,0.2-2.6-0.8-2.8-2.2c0-0.2,0-0.4,0-0.6
				L18.9,24.9z M36.5,18.6H6.2c-2.7,0-5,2.3-5,5v41.6c0,2.7,2.3,5,5,5h30.3c2.7,0,5-2.3,5-5V23.6C41.5,20.9,39.3,18.6,36.5,18.6
				 M6.9,16.1h29c1.7,0,3.2-1.4,3.2-3.1s-1.4-3.2-3.1-3.2c0,0,0,0,0,0h-29c-1.7,0-3.1,1.4-3.1,3.2C3.8,14.6,5.2,16.1,6.9,16.1"/>
			<path class="st1" d="M77.8,56.4H32.4c-0.6,0-1,0.4-1,1c0,7.1,5.7,12.8,12.8,12.8h21.7c7.1,0,12.8-5.7,12.8-12.8c0,0,0,0,0,0
				C78.8,56.9,78.3,56.4,77.8,56.4 M52,45.8l-2.5-0.7c-2.6-0.7-5.3,0.9-6,3.5l-0.2,0.7l2.5,0.7c2.6,0.7,5.3-0.9,6-3.5L52,45.8z
				 M51.5,51.5l2.5,0.7c2.6,0.7,5.3-0.9,6-3.5l0.2-0.6l-2.5-0.7c-2.6-0.7-5.3,0.9-6,3.5L51.5,51.5z M59.6,53.7l2.5,0.7
				c2.6,0.7,5.3-0.9,6-3.5l0.2-0.7l-2.4-0.7c-2.6-0.7-5.3,0.9-6,3.5L59.6,53.7z M50.3,42.5l2.5,0.7l0.2-0.7c0.7-2.6-0.9-5.3-3.5-6
				L47,35.8l-0.2,0.7C46.1,39,47.7,41.7,50.3,42.5 M58.4,44.6l2.5,0.7l0.2-0.7c0.7-2.6-0.9-5.3-3.5-6L55.1,38l-0.2,0.6
				C54.3,41.3,55.8,43.9,58.4,44.6 M66.5,46.8l2.4,0.7l0.2-0.6c0.7-2.6-0.9-5.3-3.5-6l-2.4-0.7l-0.2,0.7
				C62.4,43.4,63.9,46.1,66.5,46.8 M76.7,51c0.2-0.7-0.3-1.5-1-1.7c0,0,0,0,0,0l-5-1.3L70,50.7l5,1.3C75.8,52.2,76.5,51.7,76.7,51
				C76.7,51,76.7,51,76.7,51 M37.3,44.8c-0.7-0.2-1.5,0.2-1.7,1s0.2,1.5,1,1.7l3.6,1c0.7,0.2,1.5-0.2,1.8-0.9s-0.2-1.5-0.9-1.8
				c0,0-0.1,0-0.1,0L37.3,44.8z M39.5,36.7l3.6,1c0.7,0.2,1.5-0.2,1.8-0.9S44.7,35.2,44,35c0,0-0.1,0-0.1,0l-3.6-1
				c-0.7-0.2-1.5,0.2-1.7,1C38.3,35.7,38.8,36.5,39.5,36.7 M34.5,41.1l9.9,2.6c0.7,0.2,1.5-0.2,1.7-1s-0.2-1.5-1-1.7l-9.9-2.6
				c-0.7-0.2-1.5,0.2-1.8,0.9S33.6,40.8,34.5,41.1C34.4,41.1,34.5,41.1,34.5,41.1"/>
		</g>
	</g>
</g>
</svg>
