<svg xmlns="http://www.w3.org/2000/svg" width="59.73" height="76.52" viewBox="0 0 59.73 76.52"><defs><style>.cls-1{opacity:0.5;}.cls-2{fill:#fff;}</style></defs><title>foodTwo</title><g id="Layer_2" data-name="Layer 2"><g id="Layer_1-2" data-name="Layer 1"><g class="cls-1"><path class="cls-2" d="M14.19,60.7a2.55,2.55,0,0,1-2.55,2.55h-.11V62.08a2.55,2.55,0,0,1,2.55-2.55h.11Zm0,4.25a2.55,2.55,0,0,1-2.55,2.54h-.11V66.33a2.55,2.55,0,0,1,2.55-2.55h.11Zm0,4.24a2.55,2.55,0,0,1-2.55,2.55h-.11V70.57A2.56,2.56,0,0,1,14.08,68h.11Zm-2.66,4.67a1.06,1.06,0,0,1-2.12,0v-.79a.27.27,0,0,1,.27-.27h1.59a.26.26,0,0,1,.26.27ZM6.76,69.19V68h.1a2.55,2.55,0,0,1,2.55,2.55v1.17H9.3a2.55,2.55,0,0,1-2.54-2.55m0-5.41h.1a2.55,2.55,0,0,1,2.55,2.55v1.16H9.3A2.54,2.54,0,0,1,6.76,65Zm0-4.25h.1a2.55,2.55,0,0,1,2.55,2.55v1.17H9.3A2.55,2.55,0,0,1,6.76,60.7Zm2.65-2.12a1.06,1.06,0,0,1,1.81-.75,1,1,0,0,1,.31.75V59a1.06,1.06,0,1,1-2.12,0Zm7.43-2.65H4.1A2.13,2.13,0,0,0,2,56.88V74.39A2.14,2.14,0,0,0,4.1,76.52H16.84A2.13,2.13,0,0,0,19,74.39V56.88a2.12,2.12,0,0,0-2.12-2.12"/><path class="cls-2" d="M4.37,53.69H16.58a1.33,1.33,0,0,0,0-2.65H4.37a1.33,1.33,0,1,0,0,2.65"/></g><g class="cls-1"><path class="cls-2" d="M53,60.7a2.55,2.55,0,0,1-2.55,2.55h-.1V62.08a2.55,2.55,0,0,1,2.54-2.55H53ZM53,65a2.55,2.55,0,0,1-2.55,2.54h-.1V66.33a2.55,2.55,0,0,1,2.54-2.55H53Zm0,4.24a2.55,2.55,0,0,1-2.55,2.55h-.1V70.57A2.55,2.55,0,0,1,52.86,68H53Zm-2.65,4.67a1.07,1.07,0,0,1-2.13,0v-.79a.27.27,0,0,1,.27-.27h1.59a.27.27,0,0,1,.27.27Zm-4.78-4.67V68h.11a2.55,2.55,0,0,1,2.54,2.55v1.17h-.1a2.55,2.55,0,0,1-2.55-2.55m0-5.41h.11a2.55,2.55,0,0,1,2.54,2.55v1.16h-.1A2.55,2.55,0,0,1,45.54,65Zm0-4.25h.11a2.55,2.55,0,0,1,2.54,2.55v1.17h-.1a2.55,2.55,0,0,1-2.55-2.55Zm2.65-2.12a1.07,1.07,0,0,1,1.06-1.06,1,1,0,0,1,.75.31,1,1,0,0,1,.32.75V59a1.07,1.07,0,0,1-2.13,0Zm7.43-2.65H42.89a2.13,2.13,0,0,0-2.13,2.12V74.39a2.14,2.14,0,0,0,2.13,2.13H55.62a2.14,2.14,0,0,0,2.13-2.13V56.88a2.13,2.13,0,0,0-2.13-2.12"/><path class="cls-2" d="M43.15,53.69H55.36a1.33,1.33,0,1,0,0-2.65H43.15a1.33,1.33,0,1,0,0,2.65"/></g><path class="cls-2" d="M33.4,60.7a2.55,2.55,0,0,1-2.55,2.55h-.11V62.08a2.55,2.55,0,0,1,2.55-2.55h.11Zm0,4.25a2.55,2.55,0,0,1-2.55,2.54h-.11V66.33a2.55,2.55,0,0,1,2.55-2.55h.11Zm0,4.24a2.55,2.55,0,0,1-2.55,2.55h-.11V70.57A2.55,2.55,0,0,1,33.29,68h.11Zm-2.66,4.67a1.06,1.06,0,0,1-2.12,0v-.79a.27.27,0,0,1,.26-.27h1.6a.26.26,0,0,1,.26.27ZM26,69.19V68h.1a2.55,2.55,0,0,1,2.55,2.55v1.17h-.11A2.55,2.55,0,0,1,26,69.19m0-5.41h.1a2.55,2.55,0,0,1,2.55,2.55v1.16h-.11A2.54,2.54,0,0,1,26,65Zm0-4.25h.1a2.55,2.55,0,0,1,2.55,2.55v1.17h-.11A2.55,2.55,0,0,1,26,60.7Zm2.65-2.12a1.06,1.06,0,0,1,1.81-.75,1,1,0,0,1,.31.75V59a1.06,1.06,0,0,1-2.12,0Zm7.43-2.65H23.31a2.12,2.12,0,0,0-2.12,2.12V74.39a2.13,2.13,0,0,0,2.12,2.13H36.05a2.13,2.13,0,0,0,2.12-2.13V56.88a2.12,2.12,0,0,0-2.12-2.12"/><path class="cls-2" d="M23.58,53.69h12.2a1.33,1.33,0,1,0,0-2.65H23.58a1.33,1.33,0,1,0,0,2.65"/><path class="cls-2" d="M58.48,28.44H1.24A1.25,1.25,0,0,0,0,29.68,16.17,16.17,0,0,0,16.18,45.86H43.55A16.17,16.17,0,0,0,59.73,29.68a1.25,1.25,0,0,0-1.25-1.24"/><path class="cls-2" d="M26,15,22.9,14.2a6.22,6.22,0,0,0-7.62,4.4l-.22.82,3.09.83a6.22,6.22,0,0,0,7.62-4.4Z"/><path class="cls-2" d="M25.3,22.16l3.1.83A6.23,6.23,0,0,0,36,18.59l.22-.82L33.14,17a6.22,6.22,0,0,0-7.62,4.39Z"/><path class="cls-2" d="M35.54,24.91l3.1.83a6.22,6.22,0,0,0,7.62-4.4l.22-.82-3.1-.83a6.22,6.22,0,0,0-7.62,4.4Z"/><path class="cls-2" d="M23.81,10.79l3.1.83.22-.82a6.22,6.22,0,0,0-4.4-7.62l-3.1-.83-.22.82a6.22,6.22,0,0,0,4.4,7.62"/><path class="cls-2" d="M34.05,13.53l3.1.83.22-.82A6.22,6.22,0,0,0,33,5.92l-3.1-.83-.21.82a6.22,6.22,0,0,0,4.39,7.62"/><path class="cls-2" d="M44.3,16.28l3.09.82.22-.81a6.22,6.22,0,0,0-4.4-7.62l-3.09-.83-.22.82a6.23,6.23,0,0,0,4.4,7.62"/><path class="cls-2" d="M57.18,21.56a1.77,1.77,0,0,0-1.25-2.17l-6.26-1.68-.92,3.42L55,22.81a1.77,1.77,0,0,0,2.17-1.25"/><path class="cls-2" d="M7.44,13.72a1.77,1.77,0,1,0-.92,3.41l4.55,1.22A1.77,1.77,0,1,0,12,14.94Z"/><path class="cls-2" d="M10.18,3.47l4.55,1.22a1.77,1.77,0,1,0,.92-3.41L11.1.06a1.77,1.77,0,1,0-.92,3.41"/><path class="cls-2" d="M3.8,9.08l12.52,3.36A1.77,1.77,0,0,0,17.23,9L4.71,5.67A1.76,1.76,0,1,0,3.8,9.08"/></g></g></svg>