<svg xmlns="http://www.w3.org/2000/svg" viewBox="0 0 63.76 58.68"><defs><style>.cls-1{fill:#007bbb;}</style></defs><title>forklift</title><g id="Layer_2" data-name="Layer 2"><g id="Layer_1-2" data-name="Layer 1"><path class="cls-1" d="M62.35,15.37H50.85l-4.47.07L28.68,35.06l3.77,1a.41.41,0,0,0,.51-.2L48.43,18.32H62.29a1.56,1.56,0,0,0,1.47-1.51,1.44,1.44,0,0,0-1.41-1.44"/><path class="cls-1" d="M5.56,47.36a5.66,5.66,0,0,0,0,11.32,5.66,5.66,0,0,0,0-11.32"/><path class="cls-1" d="M20.19,38.6,18.14,34H12.27V19.63h6.19l4.67,19Zm11.75,3.2a.63.63,0,0,0,.58-.52l.25-2.36a.53.53,0,0,0-.44-.65L27,36.83,21.27,16.94a1.88,1.88,0,0,0-1.66-1.17h-14c-1-.07-1.6.91-1.6,2V34H1.34c-.83,0-1.21.91-1.21,1.76v12a7.28,7.28,0,0,1,5.49-2.48,7.46,7.46,0,0,1,7.54,7.78H23.32a7.77,7.77,0,0,1-.13-1.7,9.4,9.4,0,0,1,8.75-9.55"/><path class="cls-1" d="M32.45,43.89a7.4,7.4,0,1,0,7.22,7.4,7.34,7.34,0,0,0-7.22-7.4"/><path class="cls-1" d="M63.37,1.9A1.88,1.88,0,0,0,61.52,0H48.62a1.88,1.88,0,0,0-1.86,1.9v9.35a1.88,1.88,0,0,0,1.86,1.9h13a1.88,1.88,0,0,0,1.85-1.9V1.9Z"/></g></g></svg>