<svg xmlns="http://www.w3.org/2000/svg" viewBox="0 0 66.37 65.22"><title>globe</title><g id="Layer_2" data-name="Layer 2"><g id="Layer_1-2" data-name="Layer 1"><path d="M33.18,65.22C14.87,65.22,0,50.61,0,32.61S14.87,0,33.18,0,66.37,14.61,66.37,32.61,51.5,65.22,33.18,65.22m24-38.58c.16.08.24.48.49.64a2.47,2.47,0,0,1,.66.81.28.28,0,0,0,.08.16,1.33,1.33,0,0,1,.57.65h0a.57.57,0,0,1,0,.72c-.08.08-.24.33-.33.41a1.75,1.75,0,0,1-.41.56l-.08.08c-.66-.24-1.56-1.93-1.64-1.85s.57,1,.49,1.21l-.08.08c-.08.16-.08.56-.41.56s-1.07-1.53-1.07-1.77c.08-.65.49-.65.33-1.29a2,2,0,0,1,0-1.38,3.46,3.46,0,0,0,.08-.4c.08-.4.66-.32.91-.16a.32.32,0,0,1,.16.32h-.08a1.54,1.54,0,0,0,.33.65M24.72,42.7c1-.08,1,.08,1.07.32a1.88,1.88,0,0,0,.58.49l.08.08a5.42,5.42,0,0,0,.74.64.6.6,0,0,1,.32.49c.09.08.09.24.66.32s.49.73.82,1a.31.31,0,0,1,.17.32c0,.08-.08.16-.08.24s-.17.09-.25.17c-.58.24-.74-.17-1.23-.25s-.91-1.61-1.65-2.26c-.08-.08-.08-.16-.16-.24s-.08-.32-.74-.56l-.33-.33Zm4.6,3.87c.33-.24.58.09.82.17a2.08,2.08,0,0,1,.91.32.61.61,0,0,0,.33.32c.24.24.16.16-.17.57,0,0,.66.4.66.72-.08.65-1.81-.32-1.89-.48,0,0-.74-.32-.9-.65-.33-.56-.33-.56,0-.8.08,0,.16-.08.24-.17m12.9-13.31c.16-.17.24-.41.49-.25s0,.81.25.89c.49.16.41,1.29.9,1.62a3.4,3.4,0,0,1-.16.88c-.25-.08-1.73-.4-1.65-.88s-.49-1.94.17-2.26m.08-11.14v.32a2.75,2.75,0,0,0,.9,1.37c.25.24.09,1.21-.08,1.45s-.16.17-.33.17a1.5,1.5,0,0,0-.41.16c-.24.24-.24.48-.41.56a1.16,1.16,0,0,1-1.23-.32c-.25-.4-2-1.78-1.89-1.94s0-.08.08-.16h.17a3.74,3.74,0,0,1,.9-.08,2.9,2.9,0,0,1,.66-.81,1.32,1.32,0,0,0-.5-1.29c-.24-.08-.32-.4-.41-.48-.49-.24-.9-1.54-.9-1.94s1.15-.81,1.48-.4a19.24,19.24,0,0,1,1.56,2c.08.33.82.89.41,1.38m-.58-7c.42-.24,2.22.17,2,1.13,0,.08.41.17.49.17a2,2,0,0,1,2.38.08c.33.24.9.24,1.07.8,0,.25,1.23,1.21,1.39,2a4.39,4.39,0,0,1,.83.89c.82.24,1.06,2.91.49,3.55a.44.44,0,0,1-.33.16c-1.4-.08-1.64.81-1.81,1.54-.16.48-.24,1-.74,1.13a.17.17,0,0,0-.16.16c-.25.24-.08,1,.25,1.21.65.56.9.89.74,1.05s-.58,0-1.15-.16a3.86,3.86,0,0,0-1.4-.41c-.82.08-1.48-1.13-1.64-2.18-.09-.08.41-.4.33-.4-.33-.24-.5-.08-.5-.89a2.32,2.32,0,0,1,.33-.64c.82-.81-.33-3.31-1.07-4.2a2.25,2.25,0,0,1-.41-2.34c0-.16,0-.16-.08-.08a.32.32,0,0,0-.25.08c-.32.16-.9.89-1.31,1-.08,0-.25-.08-.41-.49,0-.56-.9-1-.41-1.53.74-.24,1.39-1.62,1.39-1.62m10.52,8.56c.41,0,.74,0,.82.65.08.16.33.24.41.4.33.48-.57,1-.9,1.21-.09.08-.25.16-.33.24-.58.41-1.15.65-1.81-.16-.33-.48,0-.89,0-1.29-.08-.81.41-.81.9-.81a3.83,3.83,0,0,0,.91-.24m7.47,28.09h0c-.9.24-1.72,1.13-2.46.65a.44.44,0,0,0-.33-.17c-1.15-.16-.82-3.55-.9-4.76-.09-.72,1.15-2.58,1.23-3.23,0-1.21,2.13-2.42,2-3.47,0-.89.58-1.53.66-2.26a1.72,1.72,0,0,1,1.07-1c0-.16.16-.4.16-.48-.25.08-1,1.13-1.48,1.13-1-.16-2.22-.81-1.48-1.78.09-.16.09-.24,0-.32-.41-.65,0-1,.25-1.53.08-.16.16-.25.25-.25s.08-.08.16-.08.25-.08.49-.16c.41-.16.41-.24.41-.64,0-.16-.16-.08-.24-.16-.25-.33-.66-.41-1.23-.89-.74-1,1.06-1.94,1.06-2,0-.49-.16-.89-.16-1.37s-.58-1.46-.49-1.62c.24-.4.41-1.37.65-1.61s.09-.41.09-.73c.24-.56-.41-1.21.16-2.34.08-.08.16-.16-.08-.4a11.36,11.36,0,0,1-1.07-1.62c-.25-.72-.25,0-.25.08.17.25.09.33-.08.41s-.33.08-.57.08c-.41,0-.25-.08,0,.08,1.06.89.9,1.37,1.23,2.5.16.4.41.49.57.73s.09.24-.08.32c-.49.32-1.31-.24-1.72.24-.09.16-.17.24-.33.16-.74-.32-.49-.64-.91-1.05-.65-.72-.65-.72-.57-1.37a2.35,2.35,0,0,0-.58-1.93,20.09,20.09,0,0,1-1.39-2.1,2.16,2.16,0,0,1-.08-1.46.44.44,0,0,1,.65-.32c.41.16,1.48.24,1.56.32.25.25.41.33.5.33.08-.16-.25-1.05-.33-.89s-.17.4-.74.16c-.66-.4-.82-.65-.66-.81s.41-.16.25-.32c-.41-.57,0-1.94-1.07-2.91-.49-.48-.74-1.61-1.31-1.37-1.32.57-1.15,0-1.89-.72a4.63,4.63,0,0,0-1-.73,3.43,3.43,0,0,0-1.15-.16c-1.39,0-1.72-.33-2-.73a.58.58,0,0,0-.41-.32V8.72c-1.23-.65-1.32-1.05-1.15-1.29.24-.41.82-1-.49-.81a2.53,2.53,0,0,1-1.89-.32c-2.14-1.13-1.24-.08-1.89.08-.25.08-.58-.08-1-.25-2.22-1-1,1-2.13.81-.25,0-.5-.24-.83-.48s-.73-.57-.9-.41c-.41.33-.41.49-.41.57-.08.56-1.56.48-2.3,1a1.75,1.75,0,0,1-1.56.24c-.41-.16-1.31,0-1.48-.32s.58-.89.82-1,.09-.08.09-.32-.41-.49-.66-.65-.25-.16-.25-.24,0-.16.08-.16c.66-1.78,1.73-1.54,2.47-1.3.16,0,.33.09.41,0,1.07-.64.57-1.93,2.46-1.53.74.16,1,0,1.07-.32a9.77,9.77,0,0,0,0-1.53C35.4.4,34.33.32,33.18.32,15,.32.33,14.77.33,32.61a32.29,32.29,0,0,0,20.78,30,1.46,1.46,0,0,1,.74-1.21c.65-.41.24-1,0-1.38-.91-1.37-.33-1.85-1.23-3,0-.73-1.32-1.37-1.07-2.67,0-.4,1-1.69,1.31-1.69a15.43,15.43,0,0,1,1.73-.16c.41-.65.9-.49,1.06-1.29.09-.17.25-.17.33-.25s0-.08-.16-.24a9,9,0,0,0-2-.89,1.06,1.06,0,0,0-.5-.72c-.41-.24-.9-.57-.82-1.94a6.42,6.42,0,0,0-1.72-4.12,2.07,2.07,0,0,1-1.07-1c-.16-.4-1.4-1.53-1.4-1.69.09-1-.82-1.53-.9-2.26s-.49-.73-.66-1c-.24-1,.09-1.21.41-1.37.83-.57.66-3.07.66-3.8,0-.88.58-1.77.58-2.26h-.09a4.19,4.19,0,0,0-.57,1.22c-.41.88,0,2.34-.25,2.58s-.65-.16-.82-.41c-.9-1.77.74-7.66,2.14-9s3-3.87,5-4c.08,0,2.38-3.88,3.37-4.52C26,15,27.51,12.83,26.94,12a3.72,3.72,0,0,1-1.15-1.3c-.66-1-1.89-1.21-.57-2.34a2.23,2.23,0,0,0,.9,1.21,4.33,4.33,0,0,1,1.15-1,1.22,1.22,0,0,1,1.39,0c.25.16.5.48.74.64s.33,0,.5-.24c.33-.73,1.48-.4,1.64.24,1.64-.08,1.07.32,1.89.81.16.16.25.16-.08.64s.24.81-.66,1.46c-.08,0-.08.16-.08.32a18.74,18.74,0,0,0,2,5.41c0-.08.17-.32.25-.32.24-.17-.5-.65-.5-1.13a.8.8,0,0,1,.25-.65c.17-.16-.41-.57-.41-.81.33-.56,2.46-.64,2.22.65-.08.72.24.56.41,1a2.4,2.4,0,0,1-.33,1.85c-.16.17-.41.33-.41.57s.66,0,.74.08.57-.89.74-.89c1.39-.4.08,1.86.08,1.86.08.32.49.4.82.48s.74.25.74.57c0,.08.08.72.08.72-.08.33-1.56.41-1.89.57-.82.4-3.77.08-3.69,1.21,0,.4-.17,2.66.57,2.42.58.57.91.81.58,1.54-.08.24-.41,1.29.08,1.85a1.76,1.76,0,0,0,.41-.64c.08-.17.08-.25.66-.65.08-.08.33-.4.57-.65a.58.58,0,0,0,.25-.24c0-.72-.58-.72.08-1.53,1-1.29,1.4-1.45,1.64-1.21l.25.24a.77.77,0,0,0,.33.4,2.22,2.22,0,0,1,.49.41c.08.16.25.32.25.48l.24.49c.17.24.33.4.25.72,0,.16.25.33.49.49a2.12,2.12,0,0,1,.66.56c0,.08.08.16.16.24a1.61,1.61,0,0,1,.5,1.05c.08.33.24.57.33.89a1.75,1.75,0,0,1-.17,2.1,1.49,1.49,0,0,1-2.13.32,7.49,7.49,0,0,0-1.89-.08.68.68,0,0,0-.5.33c.25.08,1.48-.49,2.06.4,0,.08-.33.73-.25.73.08.16.49.16.66.16.33,0,.57.56.49.88,0,.49-.41.49-.74.33-.08-.08-.82.24-1.15.08s-.49.16-.74.24-.41,0-.49-.48-.9-.08-1.07.16a2.63,2.63,0,0,1-1.15.64c-.24.08-.16.08-.49,0-.08,0-.74.41-1,.49a4.94,4.94,0,0,0-1.39,1.53c-.25.73-1.64.49-2.22.89-.49,0-1.31.08-1.56.56s-.33.17-.58.89v.24c0,.65,0,1.46-.9,1.46-.57,0-.74-.65-.57-1.13a2.56,2.56,0,0,0-1.24-2.59,1.35,1.35,0,0,0-.73-.16A1.22,1.22,0,0,1,23.74,38a2.33,2.33,0,0,0-2.06-1.21c-.33,0-1.64.56-1.72.89a3.66,3.66,0,0,0-1,1.93c.17.33.41,1,.66,1.46a2,2,0,0,1,.82.4.52.52,0,0,0,.58.08,1.15,1.15,0,0,1,1.23-.16c.49.24.9.48.82,1.13a5.36,5.36,0,0,0-.58.64,1.62,1.62,0,0,1-.65.65c-.25.08-.58.32-.08.48a3.35,3.35,0,0,1,1.15,1c.24.25.82,1,.65,1.38l-.41.4a1.75,1.75,0,0,0-.49,1.21A1.43,1.43,0,0,0,23,49.4a1.71,1.71,0,0,0,.49.32c.74.08,1,.81,1.23.73,1.23-.4,3-.4,3.86.89.08.16,2.55.32,3.12,1a1,1,0,0,0,.91.48,1.12,1.12,0,0,1,1.15.81,7.54,7.54,0,0,0,3,2.58c2.63,1.13.58,4,5.84,4,1.39,0,1.23.72,1.39,1.29.17.4-3.61,1.37-4,2.82A32.9,32.9,0,0,0,59.71,51.74m4.93-20.1c-.08-.56,0-.72.25-.72h.16c.66.24.33-.89.82-1.05H66c-.08-.89-.24-1.86-.41-2.75a3,3,0,0,1-.74,1.05c-.49.4.83,1.7.25,2.1-.25.24-1.23.4-1.48.08-.16-.16-.08-.24-.33-.24-.08-.08-.24-.08-.24,0s.65.72.74.89c.33.32-.41,1.13-.74.72s-.5-.16-.74-.32c-.33.56-.33,1.13-.58,1.45a23,23,0,0,0-.41,2.67s.25.64.33.64l1.48-2.5c.08-.16.16-.24.49-.24s.5.48.74.56a2.05,2.05,0,0,0,.33-.56.74.74,0,0,0,.08-.41c-.08-.4,0-1-.08-1.37"/></g></g></svg>