<svg xmlns="http://www.w3.org/2000/svg" viewBox="0 0 32.23 33.93"><defs><style>.cls-1{fill:#fff;}</style></defs><title>management</title><g id="Layer_2" data-name="Layer 2"><g id="Layer_1-2" data-name="Layer 1"><path class="cls-1" d="M16.11,21.21a4.14,4.14,0,0,1-4-4.25,4.14,4.14,0,0,1,4-4.24,4.14,4.14,0,0,1,4,4.24,4.15,4.15,0,0,1-4,4.25M27.26,18a2.12,2.12,0,0,0,0-2.07A12.78,12.78,0,0,0,16.11,9.19,12.77,12.77,0,0,0,5,15.93,2.12,2.12,0,0,0,5,18a12.77,12.77,0,0,0,11.14,6.74A12.78,12.78,0,0,0,27.26,18"/><path class="cls-1" d="M24.51,9.19h6.71a1.06,1.06,0,0,0,0-2.12H26.94l5-5.24a1.11,1.11,0,0,0,0-1.5,1,1,0,0,0-1.43,0l-5,5.24V1.06a1,1,0,1,0-2,0V8.13a1,1,0,0,0,1,1.06"/><path class="cls-1" d="M0,8.13A1,1,0,0,0,1,9.19H7.72a1,1,0,0,0,1-1.06V1.06a1,1,0,1,0-2,0V5.57L1.74.33A1,1,0,0,0,.31.33a1.11,1.11,0,0,0,0,1.5l5,5.24H1A1,1,0,0,0,0,8.13"/><path class="cls-1" d="M32.23,25.8a1,1,0,0,0-1-1.06H24.51a1,1,0,0,0-1,1.06v7.07a1,1,0,1,0,2,0V28.36l5,5.24a1,1,0,0,0,1.43,0,1.11,1.11,0,0,0,0-1.5l-5-5.24h4.28a1,1,0,0,0,1-1.06"/><path class="cls-1" d="M7.72,24.74H1a1.06,1.06,0,0,0,0,2.12H5.29l-5,5.24a1.11,1.11,0,0,0,0,1.5,1,1,0,0,0,1.43,0l5-5.24v4.51a1,1,0,1,0,2,0V25.8a1,1,0,0,0-1-1.06"/></g></g></svg>