<svg xmlns="http://www.w3.org/2000/svg" viewBox="0 0 43.28 59.73"><defs><style>.cls-1{fill:#007bbb;}</style></defs><title>money</title><g id="Layer_2" data-name="Layer 2"><g id="Layer_1-2" data-name="Layer 1"><path class="cls-1" d="M22.84,47.29v1.86a1.8,1.8,0,1,1-3.6,0V47.29h-.61a1.87,1.87,0,0,1,0-3.74h3.55a1.87,1.87,0,1,0,0-3.73H21.11a5.54,5.54,0,0,1-5.48-5.59A5.61,5.61,0,0,1,19.24,29V26.75a1.8,1.8,0,1,1,3.6,0v1.87h1.81a1.87,1.87,0,0,1,0,3.73H21.11a1.87,1.87,0,1,0,0,3.74h1.07a5.52,5.52,0,0,1,5.47,5.56,5.62,5.62,0,0,1-4.81,5.64M41.9,35.45,32.46,16.18H10.82L1.38,35.45a17.83,17.83,0,0,0,3.4,19,16.35,16.35,0,0,0,12,5.26h9.62A16.35,16.35,0,0,0,38.5,54.47a17.83,17.83,0,0,0,3.4-19"/><path class="cls-1" d="M10.81,13.69h9.62l-2-9.25A2.42,2.42,0,0,0,16.1,2.49H9.61A1.23,1.23,0,0,0,8.44,4Z"/><path class="cls-1" d="M27.65,13.69h4.81L34.84,1.47A1.24,1.24,0,0,0,33.65,0H30.06a2.48,2.48,0,0,0-2.41,2.49A2.47,2.47,0,0,0,25.25,0h-3.6a1.23,1.23,0,0,0-1.19,1.47l2.38,12.22Z"/></g></g></svg>