<svg xmlns="http://www.w3.org/2000/svg" viewBox="0 0 49.62 42.77"><defs><style>.cls-1{fill:#007bbb;}</style></defs><title>partners</title><g id="Layer_2" data-name="Layer 2"><g id="Layer_1-2" data-name="Layer 1"><path class="cls-1" d="M10.39,28.46l1.95-1.89a2,2,0,0,0,.57-1.1,2.11,2.11,0,0,0-.63-1.87A2.34,2.34,0,0,0,11.2,23a1.86,1.86,0,0,0-.52-.07,2.14,2.14,0,0,0-1.48.59l-3,2.88-2.39,2.3a2.06,2.06,0,0,0,.07,3,2.32,2.32,0,0,0,1.59.64A2.17,2.17,0,0,0,7,31.76Z"/><path class="cls-1" d="M25.43,11.61l-.3.3-4.13,4-.15.15-1.6,1.54a4.39,4.39,0,0,1-3.06,1.21l-.38,0h-.14a4.38,4.38,0,0,1-2.53-1.18,4.08,4.08,0,0,1,0-5.9l9.18-8.87c.23-.22.46-.44.7-.64A15.49,15.49,0,0,0,4.42,4.28a14.29,14.29,0,0,0,0,20.66l.13.12,3.12-3a4.27,4.27,0,0,1,3-1.19,4.52,4.52,0,0,1,3.14,1.25A4.24,4.24,0,0,1,15,24.06a4.74,4.74,0,0,1,.15,1A3.52,3.52,0,0,1,15,26.22a3.81,3.81,0,0,1,1.11-.15,4.53,4.53,0,0,1,3.14,1.25,4.24,4.24,0,0,1,1.3,2.95,3.46,3.46,0,0,1-.15,1.16,4.07,4.07,0,0,1,1.11-.14,4.54,4.54,0,0,1,3.14,1.25,4.21,4.21,0,0,1,1.29,2.94,3.52,3.52,0,0,1-.15,1.17,4.13,4.13,0,0,1,1.11-.15A4.49,4.49,0,0,1,30,37.76a4.25,4.25,0,0,1,1.3,2.94,3.94,3.94,0,0,1-.39,1.83,3.34,3.34,0,0,0,1.24.24,3.28,3.28,0,0,0,2.28-.91A3.05,3.05,0,0,0,35,38.12a3.35,3.35,0,0,0,1.71.48A3.25,3.25,0,0,0,39,37.68a3.05,3.05,0,0,0,.46-3.87,3.23,3.23,0,0,0,1.57.41,3.29,3.29,0,0,0,2.29-.92,3.06,3.06,0,0,0,0-4.42Z"/><path class="cls-1" d="M18.31,30.68a2.11,2.11,0,0,0-.64-1.86,2.29,2.29,0,0,0-1.6-.65,1.93,1.93,0,0,0-.33,0,2.11,2.11,0,0,0-1.14.55L9.24,33.94a2.06,2.06,0,0,0,.06,3,2.31,2.31,0,0,0,1.6.65A2.11,2.11,0,0,0,12.37,37l5.37-5.18a2,2,0,0,0,.57-1.11"/><path class="cls-1" d="M23.7,35.9A2.12,2.12,0,0,0,23.06,34a2.27,2.27,0,0,0-1.59-.64,2,2,0,0,0-.34,0A2.11,2.11,0,0,0,20,34l-5.36,5.18a2.07,2.07,0,0,0,.06,3,2.31,2.31,0,0,0,1.6.64,2.13,2.13,0,0,0,1.48-.58L23.13,37a2,2,0,0,0,.57-1.11"/><path class="cls-1" d="M45.2,4.28a15.47,15.47,0,0,0-16.36-3.2,15,15,0,0,0-4,2.34c-.33.28-.66.56-1,.86l-9.17,8.87a2,2,0,0,0,0,3,2.15,2.15,0,0,0,1.52.6,2.2,2.2,0,0,0,1.54-.6l8-7.69,2.74,2.65L43.9,26a12.49,12.49,0,0,0,1.3-1.11,14.26,14.26,0,0,0,0-20.65"/></g></g></svg>