<svg xmlns="http://www.w3.org/2000/svg" xmlns:xlink="http://www.w3.org/1999/xlink" width="42.53" height="48.87" viewBox="0 0 42.53 48.87"><defs><style>.cls-1{fill:none;}.cls-2{clip-path:url(#clip-path);}.cls-3{fill:#28a5de;}</style><clipPath id="clip-path" transform="translate(0 0)"><rect class="cls-1" width="42.53" height="48.87"/></clipPath></defs><title>personnel</title><g id="Layer_2" data-name="Layer 2"><g id="Layer_1-2" data-name="Layer 1"><g class="cls-2"><path class="cls-3" d="M3,6.73H2.61A2.46,2.46,0,0,0,0,8.83v8.82a1.05,1.05,0,0,0,1.07,1,1.05,1.05,0,0,0,1.08-1h0V10.3h0a.23.23,0,0,1,.23-.22.22.22,0,0,1,.23.22h0v5.21H4.24Z" transform="translate(0 0)"/></g><polygon class="cls-3" points="6.94 15.52 8.2 6.73 3.67 6.73 4.92 15.52 6.94 15.52"/><g class="cls-2"><path class="cls-3" d="M2.61,30.49h0A1.51,1.51,0,0,0,4.16,32,1.51,1.51,0,0,0,5.7,30.49h0V18.85h0a.23.23,0,0,1,.46,0h0V30.48h0a1.55,1.55,0,0,0,3.09,0h0V16.43H2.61Z" transform="translate(0 0)"/><path class="cls-3" d="M9.23,6.73H8.87L7.62,15.52H9.25V10.3h0a.23.23,0,0,1,.23-.22.23.23,0,0,1,.24.23h0v7.33h0a1.08,1.08,0,0,0,2.15,0h0V9A2.51,2.51,0,0,0,9.23,6.73" transform="translate(0 0)"/><path class="cls-3" d="M3,3.52h.45A2.42,2.42,0,0,0,5.91,5.76,2.42,2.42,0,0,0,8.36,3.52h.46a.35.35,0,0,0,.33-.36.35.35,0,0,0-.33-.37H8.65A2.81,2.81,0,0,0,7.31.39l-.18,1,0,.14a.26.26,0,0,1-.3.2.23.23,0,0,1-.2-.28l0-.27.18-1A2.59,2.59,0,0,0,5.92,0,2.91,2.91,0,0,0,5,.15l.18,1,0,.28a.24.24,0,0,1-.2.28.26.26,0,0,1-.3-.2l0-.17-.17-1A2.8,2.8,0,0,0,3.18,2.79H3a.35.35,0,0,0-.33.37A.35.35,0,0,0,3,3.52" transform="translate(0 0)"/><path class="cls-3" d="M17,13.64h-.52c-1.83,0-3.65,1.26-3.65,2.92V28.88a1.5,1.5,0,0,0,3,0h0V18.62h0a.32.32,0,0,1,.33-.3.31.31,0,0,1,.32.3h0v7.29h2.28Z" transform="translate(0 0)"/></g><polygon class="cls-3" points="22.52 25.91 24.27 13.64 17.95 13.64 19.7 25.91 22.52 25.91"/><g class="cls-2"><path class="cls-3" d="M16.48,46.8h0a2.16,2.16,0,0,0,4.31,0h0V30.55h0a.32.32,0,0,1,.32-.32.32.32,0,0,1,.33.32h0V46.8h0a2.15,2.15,0,0,0,4.3,0h0V27.18H16.48Z" transform="translate(0 0)"/><path class="cls-3" d="M25.72,13.64h-.5L23.47,25.91h2.27V18.62h0a.31.31,0,0,1,.32-.3.32.32,0,0,1,.33.31h0V28.88h0a1.5,1.5,0,0,0,3,0h0V16.77c0-1.76-1.78-3.13-3.67-3.13" transform="translate(0 0)"/><path class="cls-3" d="M17,9.16h.63a3.44,3.44,0,0,0,6.84,0h.65a.52.52,0,0,0,0-1h-.23A3.93,3.93,0,0,0,23,4.79l-.25,1.34,0,.21a.36.36,0,0,1-.41.27.33.33,0,0,1-.29-.39l.06-.37.26-1.38a3.65,3.65,0,0,0-1.29-.23,3.83,3.83,0,0,0-1.23.21l.25,1.38.07.39a.33.33,0,0,1-.29.39.36.36,0,0,1-.41-.27l0-.24-.25-1.34a3.93,3.93,0,0,0-1.92,3.37H17a.52.52,0,0,0,0,1" transform="translate(0 0)"/><path class="cls-3" d="M33.66,6.73h-.38a2.46,2.46,0,0,0-2.61,2.1v8.82a1.08,1.08,0,0,0,2.15,0h0V10.3h0a.23.23,0,0,1,.23-.22.22.22,0,0,1,.23.22h0v5.21h1.63Z" transform="translate(0 0)"/></g><polygon class="cls-3" points="37.61 15.52 38.87 6.73 34.34 6.73 35.59 15.52 37.61 15.52"/><path class="cls-3" d="M33.28,30.49h0a1.55,1.55,0,0,0,3.09,0h0V18.85h0a.23.23,0,1,1,.46,0h0V30.48h0a1.55,1.55,0,0,0,3.09,0h0V16.43H33.28Z" transform="translate(0 0)"/><path class="cls-3" d="M39.9,6.73h-.36l-1.25,8.79h1.63V10.3h0a.23.23,0,0,1,.23-.22.23.23,0,0,1,.24.23h0v7.33h0a1.08,1.08,0,0,0,2.15,0h0V9A2.51,2.51,0,0,0,39.9,6.73" transform="translate(0 0)"/><path class="cls-3" d="M33.68,3.52h.45a2.46,2.46,0,0,0,4.9,0h.46a.35.35,0,0,0,.33-.36.35.35,0,0,0-.33-.37h-.17A2.81,2.81,0,0,0,38,.39l-.18,1,0,.14a.26.26,0,0,1-.3.2.23.23,0,0,1-.2-.28l0-.27.19-1A2.59,2.59,0,0,0,36.59,0a2.91,2.91,0,0,0-.89.15l.18,1,0,.28a.24.24,0,0,1-.2.28.26.26,0,0,1-.3-.2l0-.17-.17-1a2.8,2.8,0,0,0-1.38,2.42h-.17a.35.35,0,0,0-.33.37.35.35,0,0,0,.33.36" transform="translate(0 0)"/></g></g></svg>