<svg xmlns="http://www.w3.org/2000/svg" width="60.38" height="67.17" viewBox="0 0 60.38 67.17"><defs><style>.cls-1,.cls-2{fill:#fff;}.cls-1{opacity:0.5;}</style></defs><title>planes</title><g id="Layer_2" data-name="Layer 2"><g id="Layer_1-2" data-name="Layer 1"><path class="cls-1" d="M26.3,28a1.72,1.72,0,0,1-.6-.1l-9.33-2.63v8.21l3.54,2.36a1,1,0,0,1,.31.27,1,1,0,0,1,.24.65,1.15,1.15,0,0,1-1.17,1.1,1.16,1.16,0,0,1-.42-.08L14,36.28,8.94,37.85l-.17,0a1.14,1.14,0,0,1-1.17-1.1,1,1,0,0,1,.29-.71.89.89,0,0,1,.26-.21l3.54-2.36V25.28l-9.4,2.65a1.61,1.61,0,0,1-.54.08A1.69,1.69,0,0,1,0,26.37,1.59,1.59,0,0,1,.75,25l10.94-5.78V13.78A2.27,2.27,0,0,1,14,11.59a2.27,2.27,0,0,1,2.34,2.19v5.48l10.75,5.66a1.62,1.62,0,0,1,.93,1.45A1.69,1.69,0,0,1,26.3,28"/><path class="cls-2" d="M58.05,54.07a2.32,2.32,0,0,1-.8-.14l-12.42-3.5V61.35l4.71,3.13a1.48,1.48,0,0,1,.42.36,1.38,1.38,0,0,1,.31.87,1.5,1.5,0,0,1-1.55,1.46,1.74,1.74,0,0,1-.56-.1l-6.43-2L35,67.15l-.23,0a1.51,1.51,0,0,1-1.55-1.46,1.35,1.35,0,0,1,.38-.94,1.42,1.42,0,0,1,.35-.29l4.71-3.13V50.43L26.12,54a2.46,2.46,0,0,1-.72.11,2.26,2.26,0,0,1-2.33-2.18,2.1,2.1,0,0,1,1-1.77l14.55-7.7V35.15a3.11,3.11,0,0,1,6.21,0v7.27L59.13,50a2.16,2.16,0,0,1,1.25,1.93,2.26,2.26,0,0,1-2.33,2.18"/><path class="cls-1" d="M53.46,13a1.23,1.23,0,0,1-.47-.09l-7.38-2.08V17.3l2.8,1.87a.61.61,0,0,1,.24.21.81.81,0,0,1,.19.52.89.89,0,0,1-.92.86.88.88,0,0,1-.33-.06l-3.83-1.19-4,1.24H39.6a.9.9,0,0,1-.92-.86.77.77,0,0,1,.23-.56.79.79,0,0,1,.2-.17l2.8-1.87V10.81l-7.42,2.1a1.25,1.25,0,0,1-.43.07,1.34,1.34,0,0,1-1.38-1.3,1.24,1.24,0,0,1,.59-1l8.64-4.57V1.73a1.85,1.85,0,0,1,3.7,0V6.06l8.5,4.47a1.29,1.29,0,0,1,.74,1.15A1.34,1.34,0,0,1,53.46,13"/></g></g></svg>