<svg xmlns="http://www.w3.org/2000/svg" width="37.31" height="34.93" viewBox="0 0 37.31 34.93"><defs><style>.cls-1{fill:#fff;}</style></defs><title>plane</title><g id="Layer_2" data-name="Layer 2"><g id="Layer_1-2" data-name="Layer 1"><path class="cls-1" d="M35,21.83a2.63,2.63,0,0,1-.8-.13L21.76,18.19V29.11l4.71,3.14a1.29,1.29,0,0,1,.41.36,1.35,1.35,0,0,1,.32.87,1.51,1.51,0,0,1-1.55,1.45,1.47,1.47,0,0,1-.56-.1l-6.44-2-6.76,2.08a.9.9,0,0,1-.23,0,1.51,1.51,0,0,1-1.56-1.45,1.37,1.37,0,0,1,.38-.95,1.54,1.54,0,0,1,.35-.28l4.71-3.14V18.19L3.05,21.72a2.17,2.17,0,0,1-.72.11A2.25,2.25,0,0,1,0,19.65a2.14,2.14,0,0,1,1-1.77l14.55-7.69V2.91A3,3,0,0,1,18.65,0a3,3,0,0,1,3.11,2.91v7.28l14.3,7.53a2.17,2.17,0,0,1,1.25,1.93A2.26,2.26,0,0,1,35,21.83"/></g></g></svg>