<svg xmlns="http://www.w3.org/2000/svg" xmlns:xlink="http://www.w3.org/1999/xlink" width="38.25" height="42.96" viewBox="0 0 38.25 42.96"><defs><style>.cls-1{fill:none;}.cls-2{clip-path:url(#clip-path);}.cls-3{fill:#28a5de;}</style><clipPath id="clip-path"><rect class="cls-1" width="38.24" height="42.96"/></clipPath></defs><title>prefab</title><g id="Layer_2" data-name="Layer 2"><g id="Layer_1-2" data-name="Layer 1"><g class="cls-2"><path class="cls-3" d="M15.29,26.64H12.12a.58.58,0,0,0-.39.17.51.51,0,0,0-.15.37v3.16a.54.54,0,0,0,.15.38.56.56,0,0,0,.39.15h3.17a.56.56,0,0,0,.39-.15.58.58,0,0,0,.15-.38V27.18a.56.56,0,0,0-.15-.37.58.58,0,0,0-.39-.17m18.73,0H30.85a.56.56,0,0,0-.39.17.51.51,0,0,0-.15.37v3.16a.54.54,0,0,0,.15.38.54.54,0,0,0,.39.15H34a.51.51,0,0,0,.53-.53V27.18a.51.51,0,0,0-.15-.37.56.56,0,0,0-.38-.17m-9.37-.15H21.73a.54.54,0,0,0-.38.15.56.56,0,0,0-.15.39v2.89a.51.51,0,0,0,.53.53h2.92A.56.56,0,0,0,25,30.3a.54.54,0,0,0,.15-.38V27a.51.51,0,0,0-.54-.54m-9.36-9.13H12.12a.61.61,0,0,0-.39.15.56.56,0,0,0-.15.39v3.16a.48.48,0,0,0,.15.36.58.58,0,0,0,.39.17h3.17a.58.58,0,0,0,.39-.17.51.51,0,0,0,.15-.36V17.9a.51.51,0,0,0-.54-.54m18.73,0H30.85a.59.59,0,0,0-.39.15.56.56,0,0,0-.15.39v3.16a.48.48,0,0,0,.15.36.56.56,0,0,0,.39.17H34a.56.56,0,0,0,.38-.17.48.48,0,0,0,.15-.36V17.9a.56.56,0,0,0-.15-.39.58.58,0,0,0-.38-.15m-9.37-.16H21.82a.57.57,0,0,0-.39.16.51.51,0,0,0-.15.37v2.82a.51.51,0,0,0,.54.54h2.83a.51.51,0,0,0,.54-.54V17.73a.51.51,0,0,0-.15-.37.57.57,0,0,0-.39-.16m13.6-8.95V43H29.94V40.2a3.72,3.72,0,0,0-3.71-3.69H19.9a3.73,3.73,0,0,0-3.72,3.69V43H7.89V8.4A.43.43,0,0,0,8,8.25Z"/></g><polygon class="cls-3" points="0.74 0 7.63 7.19 37.52 7.19 30.66 0 0.74 0"/><polygon class="cls-3" points="0 35.02 6.82 42.16 6.82 7.89 0 0.78 0 35.02"/><path class="cls-3" d="M26.23,37.59H19.9a2.62,2.62,0,0,0-2.64,2.61V43H28.87V40.2a2.62,2.62,0,0,0-2.64-2.61"/></g></g></svg>