<?xml version="1.0" encoding="utf-8"?>
<!-- Generator: Adobe Illustrator 23.0.2, SVG Export Plug-In . SVG Version: 6.00 Build 0)  -->
<svg version="1.1" id="Layer_1" xmlns="http://www.w3.org/2000/svg" xmlns:xlink="http://www.w3.org/1999/xlink" x="0px" y="0px"
	 viewBox="0 0 80 80" style="enable-background:new 0 0 80 80;" xml:space="preserve">
<style type="text/css">
	.st0{clip-path:url(#SVGID_2_);}
	.st1{fill:#007BBB;}
</style>
<g>
	<g>
		<defs>
			<rect id="SVGID_1_" y="13.7" width="80" height="52.6"/>
		</defs>
		<clipPath id="SVGID_2_">
			<use xlink:href="#SVGID_1_"  style="overflow:visible;"/>
		</clipPath>
		<g id="Layer_1-2" class="st0">
			<path class="st1" d="M19.8,56v1.5C19.7,58.4,19,59,18.1,59c-0.8-0.1-1.4-0.7-1.4-1.4V56h-0.5c-0.9,0-1.5-0.7-1.5-1.5
				c0-0.9,0.7-1.5,1.5-1.5h3.1c0.9,0,1.5-0.7,1.5-1.5c0-0.9-0.7-1.5-1.5-1.5h-0.9c-2.6,0.1-4.7-1.9-4.8-4.5c-0.1-2,1.2-3.9,3.1-4.5
				V39c0.1-0.9,0.8-1.5,1.7-1.4c0.8,0.1,1.4,0.7,1.4,1.4v1.5h1.6c0.9,0,1.5,0.7,1.5,1.5c0,0.9-0.7,1.5-1.5,1.5c0,0,0,0,0,0h-3.1
				c-0.9,0-1.5,0.7-1.5,1.5c0,0.9,0.7,1.5,1.5,1.5h0.9c2.6,0,4.7,2,4.7,4.6C24,53.7,22.1,55.7,19.8,56 M36.2,46.2l-8.1-16H9.4
				l-8.2,16c-2.3,5.4-1.2,11.6,3,15.8c2.7,2.8,6.5,4.4,10.4,4.4h8.3c8,0,14.5-6.4,14.5-14.4C37.4,49.9,37.1,48,36.2,46.2 M9.4,28.1
				h8.3L16,20.5c-0.2-0.9-1.1-1.6-2-1.6H8.3c-0.6,0-1,0.4-1,1c0,0.1,0,0.2,0,0.2L9.4,28.1z M23.9,28.1h4.2L30.2,18
				c0.1-0.6-0.3-1.1-0.9-1.2c-0.1,0-0.1,0-0.2,0H26c-1.1,0-2.1,0.9-2.1,2.1c0-1.1-0.9-2.1-2.1-2.1h-3.1c-0.6,0-1,0.5-1,1
				c0,0.1,0,0.1,0,0.2l2.1,10.1H23.9z"/>
			<path class="st1" d="M57.7,55.6H28.2c-0.4,0-0.6,0.3-0.6,0.6l0,0c0,4.6,3.7,8.3,8.3,8.3c0,0,0,0,0,0H50c4.6,0,8.3-3.7,8.3-8.3
				C58.3,55.9,58,55.6,57.7,55.6L57.7,55.6 M40.9,48.8l-1.6-0.4c-1.7-0.5-3.5,0.6-3.9,2.3L35.3,51l1.6,0.4c1.7,0.5,3.5-0.5,3.9-2.2
				L40.9,48.8z M40.6,52.4l1.6,0.4c1.7,0.5,3.5-0.5,3.9-2.3l0.1-0.4l-1.6-0.4c-1.7-0.5-3.5,0.5-4,2.2c0,0,0,0,0,0L40.6,52.4z
				 M45.8,53.8l1.6,0.4c1.7,0.5,3.5-0.5,3.9-2.3l0.1-0.4l-1.6-0.4c-1.7-0.5-3.5,0.5-3.9,2.2L45.8,53.8z M39.8,46.6l1.6,0.4l0.1-0.4
				c0.5-1.7-0.6-3.4-2.3-3.9c0,0,0,0,0,0l-1.6-0.4l-0.1,0.4C37,44.4,38,46.1,39.8,46.6C39.8,46.6,39.8,46.6,39.8,46.6 M45.1,48
				l1.6,0.4l0.1-0.4c0.5-1.7-0.6-3.4-2.3-3.9c0,0,0,0,0,0l-1.6-0.4l-0.1,0.4C42.3,45.8,43.3,47.5,45.1,48C45,48,45,48,45.1,48
				 M50.4,49.4l1.6,0.4l0.1-0.4c0.5-1.7-0.5-3.4-2.2-3.9c0,0,0,0,0,0l-1.6-0.4l-0.1,0.4C47.6,47.2,48.6,48.9,50.4,49.4
				C50.3,49.4,50.3,49.4,50.4,49.4 M57,52.1c0.1-0.5-0.1-1-0.6-1.1c0,0,0,0,0,0l-3.2-0.9l-0.5,1.8l3.2,0.9
				C56.4,52.9,56.8,52.6,57,52.1C57,52.2,57,52.1,57,52.1 M31.3,48.1c-0.5-0.1-1,0.1-1.1,0.6c0,0,0,0,0,0.1c-0.1,0.5,0.1,1,0.6,1.1
				c0,0,0,0,0.1,0l2.4,0.6c0.5,0.1,1-0.1,1.1-0.6c0,0,0,0,0,0c0.1-0.5-0.1-1-0.6-1.1c0,0,0,0,0,0L31.3,48.1z M32.8,42.9l2.4,0.6
				c0.5,0.1,1-0.1,1.1-0.6c0,0,0,0,0,0c0.1-0.5-0.1-1-0.6-1.1c0,0,0,0,0,0l-2.4-0.7c-0.5-0.1-1,0.2-1.1,0.6
				C32,42.2,32.3,42.7,32.8,42.9 M29.5,45.7l6.5,1.7c0.5,0.1,1-0.1,1.1-0.6c0,0,0,0,0-0.1c0.1-0.5-0.1-1-0.6-1.1c0,0,0,0,0,0
				L29.9,44c-0.5-0.1-1,0.2-1.1,0.6S29,45.6,29.5,45.7 M41.2,33.8c-2.8,0-5-2.3-5-5.1s2.3-5,5.1-5c2.8,0,5,2.3,5,5
				C46.3,31.6,44,33.8,41.2,33.8C41.2,33.8,41.2,33.8,41.2,33.8 M48.9,27.7h-0.5c-0.2-1.2-0.6-2.3-1.3-3.2l0.3-0.3
				c0.4-0.4,0.4-1.1,0-1.5c0,0,0,0,0,0c-0.4-0.4-1.1-0.4-1.5,0L45.6,23c-0.9-0.7-2.1-1.2-3.2-1.3v-0.4c-0.1-0.6-0.6-1-1.2-1
				c-0.5,0-0.9,0.5-1,1v0.4c-1.2,0.2-2.3,0.6-3.2,1.3l-0.3-0.3c-0.4-0.4-1.1-0.4-1.5,0c-0.4,0.4-0.4,1.1,0,1.5c0,0,0,0,0,0l0.3,0.3
				c-0.7,0.9-1.2,2-1.3,3.2h-0.5c-0.6,0-1.1,0.5-1.1,1.1c0,0.6,0.5,1.1,1.1,1.1c0,0,0,0,0,0H34c0.2,1.2,0.6,2.3,1.3,3.2L35,33.4
				c-0.4,0.4-0.4,1.1,0,1.5c0,0,0,0,0,0c0.2,0.2,0.5,0.3,0.8,0.3c0.3,0,0.6-0.1,0.8-0.3l0.3-0.3c0.9,0.7,2.1,1.2,3.2,1.3v0.5
				c0.1,0.6,0.6,1,1.2,1c0.5,0,0.9-0.5,1-1v-0.5c1.2-0.2,2.3-0.6,3.2-1.3l0.3,0.3c0.2,0.2,0.5,0.3,0.8,0.3c0.3,0,0.6-0.1,0.8-0.3
				c0.4-0.4,0.4-1.1,0-1.5c0,0,0,0,0,0L47.1,33c0.7-0.9,1.2-2,1.3-3.2h0.5c0.6,0,1.1-0.5,1.1-1.1C49.9,28.2,49.5,27.7,48.9,27.7
				 M71.3,29.7c-2.8,0-5-2.3-5-5.1c0-2.8,2.3-5,5.1-5c2.8,0,5,2.3,5,5.1C76.3,27.4,74.1,29.7,71.3,29.7 M78.9,23.6h-0.5
				c-0.2-1.2-0.6-2.3-1.3-3.2l0.3-0.3c0.4-0.4,0.4-1.1,0-1.5c0,0,0,0,0,0c-0.4-0.4-1.1-0.4-1.5,0l-0.3,0.3c-1-0.7-2.1-1.1-3.2-1.3
				v-0.5c-0.1-0.6-0.6-1-1.2-1c-0.5,0-0.9,0.5-1,1v0.5c-1.2,0.2-2.3,0.6-3.2,1.3l-0.3-0.3c-0.4-0.5-1.1-0.5-1.5-0.1
				c-0.5,0.4-0.5,1.1-0.1,1.5c0,0,0.1,0.1,0.1,0.1l0.3,0.3c-0.7,0.9-1.2,2-1.3,3.2h-0.5c-0.6-0.1-1.1,0.4-1.2,1
				c-0.1,0.6,0.4,1.1,1,1.2c0.1,0,0.1,0,0.2,0h0.5c0.2,1.2,0.6,2.2,1.3,3.2l-0.3,0.3c-0.4,0.4-0.4,1.1,0,1.5c0,0,0,0,0,0
				c0.2,0.2,0.5,0.3,0.8,0.3c0.3,0,0.6-0.1,0.8-0.3l0.3-0.3c0.9,0.7,2.1,1.1,3.2,1.3v0.5c0.1,0.6,0.6,1,1.2,1c0.5,0,0.9-0.5,1-1
				v-0.5c1.2-0.2,2.3-0.6,3.2-1.3l0.3,0.3c0.2,0.2,0.5,0.3,0.8,0.3c0.3,0,0.6-0.1,0.8-0.3c0.4-0.4,0.4-1.1,0-1.5c0,0,0,0,0,0
				L77.1,29c0.7-0.9,1.2-2,1.3-3.2h0.5c0.6,0.1,1.1-0.4,1.2-1c0.1-0.6-0.4-1.1-1-1.2C79,23.6,79,23.6,78.9,23.6 M57.4,37.2
				c-2.1,0-3.8-1.7-3.8-3.8c0-2.1,1.7-3.8,3.8-3.8c2.1,0,3.8,1.7,3.8,3.8C61.2,35.5,59.5,37.2,57.4,37.2 M63.2,32.6h-0.3
				c-0.1-0.9-0.5-1.7-1-2.4l0.2-0.2c0.3-0.3,0.3-0.8,0-1.1c-0.3-0.3-0.8-0.3-1.2,0l-0.2,0.2c-0.7-0.5-1.5-0.9-2.4-1v-0.3
				c0-0.5-0.4-0.8-0.8-0.8c-0.5,0-0.8,0.4-0.8,0.8v0.3c-0.9,0.1-1.7,0.5-2.4,1L54,28.8c-0.3-0.3-0.8-0.3-1.2,0
				c-0.3,0.3-0.3,0.8,0,1.1l0.2,0.2c-0.5,0.7-0.9,1.5-1,2.4h-0.3c-0.4,0-0.8,0.4-0.8,0.8c0,0.4,0.4,0.8,0.8,0.8l0,0h0.3
				c0.1,0.9,0.4,1.7,0.9,2.4l-0.2,0.2c-0.3,0.3-0.3,0.8,0,1.1c0,0,0,0,0,0c0.3,0.3,0.8,0.3,1.2,0l0.2-0.2c0.7,0.5,1.5,0.9,2.4,1v0.3
				c0,0.5,0.4,0.8,0.8,0.8c0.5,0,0.8-0.4,0.8-0.8v-0.3c0.9-0.1,1.7-0.5,2.4-1l0.2,0.2c0.2,0.2,0.4,0.2,0.6,0.2
				c0.2,0,0.4-0.1,0.6-0.2c0.3-0.3,0.3-0.8,0-1.1c0,0,0,0,0,0l-0.2-0.2c0.5-0.7,0.9-1.5,1-2.4h0.3c0.4,0,0.8-0.4,0.8-0.8
				S63.6,32.6,63.2,32.6 M54.9,24c-2.1,0-3.8-1.7-3.8-3.8c0-2.1,1.7-3.8,3.8-3.8c2.1,0,3.8,1.7,3.8,3.8C58.7,22.3,57,24,54.9,24
				C54.9,24,54.9,24,54.9,24 M60.6,19.4h-0.3c-0.1-0.9-0.5-1.7-1-2.4l0.2-0.2c0.3-0.3,0.3-0.8,0-1.1c-0.3-0.3-0.8-0.3-1.2,0
				l-0.2,0.2c-0.7-0.5-1.5-0.9-2.4-1v-0.3c0-0.5-0.4-0.8-0.8-0.8s-0.8,0.4-0.8,0.8v0.3c-0.9,0.1-1.7,0.5-2.4,1l-0.2-0.2
				c-0.3-0.3-0.8-0.3-1.2,0c-0.3,0.3-0.3,0.8,0,1.1l0.2,0.2c-0.5,0.7-0.9,1.5-1,2.4h-0.3c-0.4,0-0.8,0.4-0.8,0.8
				c0,0.4,0.4,0.8,0.8,0.8c0,0,0,0,0,0h0.3c0.1,0.9,0.5,1.7,1,2.4l-0.2,0.2c-0.3,0.3-0.3,0.8,0,1.1c0.2,0.2,0.4,0.2,0.6,0.2
				c0.2,0,0.4-0.1,0.6-0.2l0.2-0.2c0.7,0.5,1.5,0.9,2.4,1v0.3c0,0.5,0.4,0.8,0.8,0.8s0.8-0.4,0.8-0.8v-0.4c0.9-0.1,1.7-0.5,2.4-1
				l0.2,0.2c0.2,0.2,0.4,0.2,0.6,0.2c0.2,0,0.4-0.1,0.6-0.2c0.3-0.3,0.3-0.8,0-1.1l-0.2-0.2c0.5-0.7,0.9-1.5,1-2.4h0.3
				c0.4,0,0.8-0.4,0.8-0.8C61.5,19.8,61.1,19.4,60.6,19.4"/>
		</g>
	</g>
</g>
</svg>
