<svg xmlns="http://www.w3.org/2000/svg" width="36.57" height="45.68" viewBox="0 0 36.57 45.68"><defs><style>.cls-1{fill:#0f6386;}</style></defs><title>renault</title><g id="Layer_2" data-name="Layer 2"><g id="Layer_1-2" data-name="Layer 1"><path class="cls-1" d="M23,1.1l-.09-.05c-.09.12-.2.22-.28.35-.34.55-.7,1.08-1,1.64-2.34,4.36-4.69,8.72-7,13.1-1,1.95-1.94,4-2.91,5.94a1.59,1.59,0,0,0,0,1.54c.18.35.32.71.49,1.06q2.64,5.2,5.29,10.42a.94.94,0,0,1,.05.86q-1.8,4.31-4,8.43a1.57,1.57,0,0,0-.09.23l.09.06a5.34,5.34,0,0,0,.41-.56c.88-1.57,1.78-3.14,2.63-4.73q2.73-5.1,5.41-10.21c1-1.85,1.84-3.74,2.76-5.6a1.55,1.55,0,0,0,0-1.45c-.18-.35-.32-.71-.5-1.05Q21.64,15.82,19,10.56a.79.79,0,0,1,0-.76q1.78-4.28,3.95-8.38c.05-.1.09-.21.14-.32M18.28,45.68c-1.58,0-3.16,0-4.74,0a1.87,1.87,0,0,1-1.78-1C9.63,41,7.43,37.45,5.37,33.8,3.64,30.72,2.08,27.54.42,24.43a3.11,3.11,0,0,1,0-3.16C2.38,17.66,4.22,14,6.22,10.44,8,7.23,10,4.12,11.83,1a1.67,1.67,0,0,1,1.51-.9C15.73.05,18.12,0,20.51,0c.91,0,1.81.07,2.71.07a1.63,1.63,0,0,1,1.47.9c1.14,1.89,2.3,3.77,3.43,5.67q4.1,6.87,7.66,14c.18.36.35.72.52,1.08a2.54,2.54,0,0,1,0,2.35c-1,1.89-1.88,3.82-2.91,5.68-2.24,4-4.55,8-6.84,12-.57,1-1.21,2-1.8,2.95a1.71,1.71,0,0,1-1.56.94c-1.62,0-3.25,0-4.87,0Z"/></g></g></svg>