<svg xmlns="http://www.w3.org/2000/svg" xmlns:xlink="http://www.w3.org/1999/xlink" width="38.61" height="39.98" viewBox="0 0 38.61 39.98"><defs><style>.cls-1{fill:none;}.cls-2{clip-path:url(#clip-path);}.cls-3{fill:#0f6386;}</style><clipPath id="clip-path"><rect class="cls-1" width="38.61" height="39.98"/></clipPath></defs><title>renTruck</title><g id="Layer_2" data-name="Layer 2"><g id="Layer_1-2" data-name="Layer 1"><g class="cls-2"><path class="cls-3" d="M32.07,0H6.86A22.56,22.56,0,0,1,4.73,4.36H34A41.13,41.13,0,0,1,32.07,0"/><path class="cls-3" d="M4.2,26.83A124.73,124.73,0,0,0,19.77,28c5.08,0,11-.51,14.56-.87V20.77H4.13Z"/><path class="cls-3" d="M32.27,33.53h-4.6l1.79-3.42h2.81ZM6.34,30.11H9.15l1.79,3.42H6.34Zm6,2.76H26.54l-.27.66H12.63ZM26.89,32l-.21.51H12.19L12,32ZM11.8,31.64l-.22-.52H27.25l-.19.52Zm15.87-1.53-.27.65h-16l-.28-.65Zm-7.9-1.05A128.35,128.35,0,0,1,4.21,27.93l.07,6.42A2.2,2.2,0,0,0,6.5,36.51a1.65,1.65,0,0,0-.16.68v1.22A1.61,1.61,0,0,0,8,40h3.76a1.6,1.6,0,0,0,1.64-1.57V37.19a1.51,1.51,0,0,0-.16-.68H25.39a1.65,1.65,0,0,0-.16.68v1.22A1.6,1.6,0,0,0,26.87,40h3.76a1.6,1.6,0,0,0,1.64-1.57V37.19a1.45,1.45,0,0,0-.16-.68,2.21,2.21,0,0,0,2.22-2.16V28.19c-3.58.36-9.49.87-14.56.87"/></g><polygon class="cls-3" points="11.43 30.76 11.58 31.12 27.25 31.12 27.4 30.76 11.43 30.76"/><polygon class="cls-3" points="11.8 31.64 11.95 32 26.89 32 27.04 31.64 11.8 31.64"/><polygon class="cls-3" points="12.17 32.51 12.32 32.87 26.54 32.87 26.68 32.51 12.17 32.51"/><path class="cls-3" d="M34.32,16.76V7.25l1,1.68a1.39,1.39,0,0,0-.28,1l.43,4.39a1.47,1.47,0,0,0,.32.77ZM21.5,18.13H6.72L8.65,8.94H30l1.92,9.19ZM4.06,15.77v.77L2.75,15.08a1.47,1.47,0,0,0,.32-.77l.44-4.39a1.44,1.44,0,0,0-.29-1l1-1.61ZM38.17,9.64A1.52,1.52,0,0,0,36.49,8.3a.45.45,0,0,0-.16,0l-2-3.16H4.27l-2,3.16-.16,0A1.53,1.53,0,0,0,.45,9.63L0,14a1.47,1.47,0,0,0,1.36,1.61,1.48,1.48,0,0,0,.42,0l2.3,2.59V20H34.33V18.42l2.49-2.79a1.52,1.52,0,0,0,1.76-1.2,1.35,1.35,0,0,0,0-.4Z"/><path class="cls-3" d="M19.32,22.15h0a.08.08,0,0,0,0,0,1.74,1.74,0,0,0-.11.18l-.82,1.46c-.12.22-.23.45-.34.67a.17.17,0,0,0,0,.17l.06.12L18.67,26a.12.12,0,0,1,0,.1c-.14.32-.3.63-.46.94l0,0h0l0-.06.31-.53.63-1.14c.11-.2.21-.42.32-.62a.17.17,0,0,0,0-.17l-.06-.11c-.2-.4-.41-.79-.62-1.18,0,0,0-.05,0-.08.14-.32.29-.63.46-.94l0,0m-.56,5h-.55A.22.22,0,0,1,18,27c-.25-.41-.5-.8-.74-1.21s-.38-.7-.58-1a.34.34,0,0,1,0-.35c.23-.41.44-.81.68-1.21s.43-.71.65-1.06a.21.21,0,0,1,.18-.1h1.15a.19.19,0,0,1,.17.1l.4.63c.32.51.61,1,.89,1.57l.06.12a.3.3,0,0,1,0,.26c-.12.21-.22.43-.34.64-.26.45-.53.89-.8,1.34l-.21.33a.19.19,0,0,1-.18.1Z"/></g></g></svg>