<svg xmlns="http://www.w3.org/2000/svg" viewBox="0 0 32.41 42.52"><defs><style>.cls-1{fill:#96ca4f;}</style></defs><title>safety</title><g id="Layer_2" data-name="Layer 2"><g id="Layer_1-2" data-name="Layer 1"><path class="cls-1" d="M23,21.54l-.71.7-5.69,6a.52.52,0,0,1-.73,0l-5.69-6-.71-.7a4.38,4.38,0,0,1-.06-6.24,4.3,4.3,0,0,1,5.95.09l.87.8.88-.8a4.3,4.3,0,0,1,6-.09A4.38,4.38,0,0,1,23,21.54M31.59,3,16.4,0A.86.86,0,0,0,16,0L.82,3A1,1,0,0,0,0,4V24.44c0,10,7.39,18.08,16.2,18.08s16.21-8.09,16.21-18.08V4a1,1,0,0,0-.82-1"/></g></g></svg>