<svg xmlns="http://www.w3.org/2000/svg" viewBox="0 0 44.61 43.74"><defs><style>.cls-1{fill:#007bbb;}</style></defs><title>sea</title><g id="Layer_2" data-name="Layer 2"><g id="Layer_1-2" data-name="Layer 1"><path class="cls-1" d="M13.94,7.29h5.58a.92.92,0,0,0,.92-.91V.91A.92.92,0,0,0,19.52,0H13.94A.92.92,0,0,0,13,.91V6.38a.92.92,0,0,0,.93.91"/><path class="cls-1" d="M23.23,7.29h5.58a.92.92,0,0,0,.93-.91V.91A.92.92,0,0,0,28.81,0H23.23a.92.92,0,0,0-.93.91V6.38a.92.92,0,0,0,.93.91"/><path class="cls-1" d="M8.67,29.16a4.41,4.41,0,0,0,2.52-.69,8.13,8.13,0,0,1,4.29-1.13,8.21,8.21,0,0,1,4.31,1.13,4.35,4.35,0,0,0,2.51.69,4.35,4.35,0,0,0,2.51-.69,8.18,8.18,0,0,1,4.31-1.13,8.13,8.13,0,0,1,4.29,1.13,4.31,4.31,0,0,0,2.26.68A18.17,18.17,0,0,0,40,19.29a1.83,1.83,0,0,0-1.86-2H4.66a1.83,1.83,0,0,0-1.86,2,18.19,18.19,0,0,0,4,9.5,4.19,4.19,0,0,0,1.89.37"/><path class="cls-1" d="M42.75,38.27a8,8,0,0,0-4.3,1.14,4.95,4.95,0,0,1-5,0,8,8,0,0,0-4.3-1.14,8,8,0,0,0-4.29,1.14,4.48,4.48,0,0,1-2.52.69,4.48,4.48,0,0,1-2.52-.69,8,8,0,0,0-4.3-1.14,8,8,0,0,0-4.29,1.14,4.48,4.48,0,0,1-2.52.69,4.48,4.48,0,0,1-2.52-.69,8,8,0,0,0-4.29-1.14,1.83,1.83,0,1,0,0,3.65,4.35,4.35,0,0,1,2.51.69,8.17,8.17,0,0,0,4.3,1.13A8.17,8.17,0,0,0,13,42.61a4.35,4.35,0,0,1,2.51-.69,4.38,4.38,0,0,1,2.52.69,8.17,8.17,0,0,0,4.3,1.13,8.17,8.17,0,0,0,4.3-1.13,4.35,4.35,0,0,1,2.51-.69,4.38,4.38,0,0,1,2.52.69,8.75,8.75,0,0,0,8.6,0,4.38,4.38,0,0,1,2.52-.69,1.83,1.83,0,1,0,0-3.65"/><path class="cls-1" d="M1.86,34.63a4.35,4.35,0,0,1,2.51.69,8.17,8.17,0,0,0,4.3,1.13A8.17,8.17,0,0,0,13,35.32a4.35,4.35,0,0,1,2.51-.69,4.38,4.38,0,0,1,2.52.69,8.14,8.14,0,0,0,4.3,1.13,8.1,8.1,0,0,0,4.29-1.13,4.41,4.41,0,0,1,2.52-.69,4.38,4.38,0,0,1,2.52.69,8.75,8.75,0,0,0,8.6,0,4.38,4.38,0,0,1,2.52-.69,1.83,1.83,0,1,0,0-3.65,8,8,0,0,0-4.3,1.14,5,5,0,0,1-5,0A8,8,0,0,0,29.11,31a8.06,8.06,0,0,0-4.3,1.14,4.43,4.43,0,0,1-2.51.68,4.48,4.48,0,0,1-2.52-.68A8,8,0,0,0,15.48,31a8,8,0,0,0-4.29,1.14,4.48,4.48,0,0,1-2.52.68,4.48,4.48,0,0,1-2.52-.68A8,8,0,0,0,1.86,31a1.83,1.83,0,1,0,0,3.65"/><path class="cls-1" d="M8.36,14.58h26a.92.92,0,0,0,.93-.91V10.94a.92.92,0,0,0-.93-.92h-26a.93.93,0,0,0-.93.92v2.73a.92.92,0,0,0,.93.91"/></g></g></svg>