<svg xmlns="http://www.w3.org/2000/svg" viewBox="0 0 33.06 34.51"><defs><style>.cls-1{fill:#fff;}</style></defs><title>solutions</title><g id="Layer_2" data-name="Layer 2"><g id="Layer_1-2" data-name="Layer 1"><path class="cls-1" d="M5.77,24.3.83,29.46a3.05,3.05,0,0,0,0,4.19,2.75,2.75,0,0,0,4,0l4.95-5.16a17,17,0,0,1-4-4.19"/><path class="cls-1" d="M15.15,14.38H12.4a.7.7,0,0,0-.69.72v3.55a8.87,8.87,0,0,0,4.13,4V15.1a.7.7,0,0,0-.69-.72"/><path class="cls-1" d="M26.17,10.07H23.42a.7.7,0,0,0-.69.71V22.62a8.87,8.87,0,0,0,4.13-4V10.78a.7.7,0,0,0-.69-.71"/><path class="cls-1" d="M20.66,12.22H17.91a.71.71,0,0,0-.69.72V23.11a8.33,8.33,0,0,0,4.13,0V12.94a.71.71,0,0,0-.69-.72"/><path class="cls-1" d="M26.86,21.7a10.24,10.24,0,0,1-4.13,2.85,10.44,10.44,0,0,1-1.38.4,9.8,9.8,0,0,1-4.13,0,10.44,10.44,0,0,1-1.38-.4,10.24,10.24,0,0,1-4.13-2.85A10.92,10.92,0,0,1,9,14.38,10.57,10.57,0,0,1,19.28,3.6,10.57,10.57,0,0,1,29.62,14.38a10.92,10.92,0,0,1-2.76,7.32M19.28,0C11.67,0,5.51,6.44,5.51,14.38s6.16,14.38,13.77,14.38,13.78-6.43,13.78-14.38S26.9,0,19.28,0"/></g></g></svg>