<svg xmlns="http://www.w3.org/2000/svg" width="82.14" height="36.15" viewBox="0 0 82.14 36.15"><defs><style>.cls-1{fill:#0f6386;}</style></defs><title>staff</title><g id="Layer_2" data-name="Layer 2"><g id="Layer_1-2" data-name="Layer 1"><path class="cls-1" d="M15.94,19.16C7.14,19.16,0,26,0,34.34a9.33,9.33,0,0,0,.11,1.4c0,.38.4.36.76.36H31c.36,0,.71,0,.76-.36a11.07,11.07,0,0,0,.11-1.63c0-8.32-7.11-15-16-15ZM9.64,8a7.84,7.84,0,0,1,7.69-8A7.84,7.84,0,0,1,25,8a7.84,7.84,0,0,1-7.69,8A7.84,7.84,0,0,1,9.69,8Zm32.11,8a7.83,7.83,0,0,0,7.68-8A7.69,7.69,0,1,0,34.06,8a7.83,7.83,0,0,0,7.68,8h0ZM35.44,36.09a10.74,10.74,0,0,0,0-1.39A17.42,17.42,0,0,0,31,23.15a16.33,16.33,0,0,1,10.79-4,16.54,16.54,0,0,1,9.85,3.27,16.82,16.82,0,0,0-5,11.9v1.83H35.33ZM66.21,19.16c-8.81,0-15.94,6.79-15.94,15.18a8.18,8.18,0,0,0,.11,1.4c0,.38.39.36.75.36H81.27c.36,0,.71,0,.76-.36a12.63,12.63,0,0,0,.11-1.63c0-8.32-7.11-15-15.85-15ZM57.09,8A7.69,7.69,0,1,1,72.46,8,7.69,7.69,0,1,1,57.09,8"/></g></g></svg>