<svg xmlns="http://www.w3.org/2000/svg" width="32.79" height="43.37" viewBox="0 0 32.79 43.37"><defs><style>.cls-1{fill:#28a5de;}</style></defs><title>toilet</title><g id="Layer_2" data-name="Layer 2"><g id="Layer_1-2" data-name="Layer 1"><path class="cls-1" d="M32.75,25.67c-.41,5.28-4.43,9.85-10.21,11.62v6.08H2.05V25.67h30.7Zm-2-5.31a1.92,1.92,0,0,1,2.05,1.77,1.92,1.92,0,0,1-2.05,1.77H4.1a1.92,1.92,0,0,1-2-1.77A1.92,1.92,0,0,1,4.1,20.36ZM2.05,0A1.93,1.93,0,0,1,4.1,1.77V17.7a1.93,1.93,0,0,1-2,1.77A1.92,1.92,0,0,1,0,17.7V1.77A1.92,1.92,0,0,1,2.05,0"/></g></g></svg>