<svg xmlns="http://www.w3.org/2000/svg" viewBox="0 0 32.19 33.93"><defs><style>.cls-1{fill:#fff;}</style></defs><title>tools</title><g id="Layer_2" data-name="Layer 2"><g id="Layer_1-2" data-name="Layer 1"><path class="cls-1" d="M10.64,18a1,1,0,0,0-1.42,0l-8,8.48a4.43,4.43,0,0,0,0,6l.25.26a3.89,3.89,0,0,0,5.69,0l8.05-8.48a1.11,1.11,0,0,0,0-1.5Z"/><path class="cls-1" d="M20.43,14.89l5.32-5.61,3.66-.53a1.23,1.23,0,0,0,.91-.69L32,4.51A1.32,1.32,0,0,0,31.82,3L29.32.39A1.17,1.17,0,0,0,27.91.16L24.54,2a1.27,1.27,0,0,0-.65,1l-.51,3.85-5.32,5.61Z"/><path class="cls-1" d="M24.08,21.59,11.7,8.54a6.59,6.59,0,0,0-1.41-6.68A5.85,5.85,0,0,0,5.18.06.73.73,0,0,0,4.8,1.27L7.39,4a2.66,2.66,0,0,1,0,3.64l-.15.16a2.34,2.34,0,0,1-3.45,0L1.2,5.08a.66.66,0,0,0-1.14.39,6.61,6.61,0,0,0,1.7,5.38,5.82,5.82,0,0,0,6.33,1.48L20.48,25.39a6.58,6.58,0,0,0,1.41,6.67A5.81,5.81,0,0,0,27,33.86a.72.72,0,0,0,.37-1.2l-2.29-2.41a2.6,2.6,0,0,1,0-3.53l.25-.27a2.29,2.29,0,0,1,3.35,0L31,28.87a.67.67,0,0,0,1.15-.4,6.56,6.56,0,0,0-1.71-5.4,5.81,5.81,0,0,0-6.34-1.48"/></g></g></svg>