<svg xmlns="http://www.w3.org/2000/svg" width="42.44" height="42.39" viewBox="0 0 42.44 42.39"><defs><style>.cls-1{fill:#0f6386;}</style></defs><title>training</title><g id="Layer_2" data-name="Layer 2"><g id="Layer_1-2" data-name="Layer 1"><path class="cls-1" d="M7.68.05A3.24,3.24,0,1,1,4.45,3.29,3.23,3.23,0,0,1,7.68.05"/><path class="cls-1" d="M40.53.9H31.21a.93.93,0,0,0-.9-.9H26.07a.89.89,0,0,0-.9.9H15.74a1.9,1.9,0,0,0-1.91,1.91V6.15l1.85.31V2.81c0-.06.06-.06.11-.06h24.8s0,0,0,.06V20.29c0,.06,0,.06,0,.06H15.74c-.06,0-.11,0-.11-.06V12.4l-1.8-.32v8.21a1.9,1.9,0,0,0,1.91,1.91H40.53a1.9,1.9,0,0,0,1.91-1.91V2.81A1.9,1.9,0,0,0,40.53.9"/><path class="cls-1" d="M24.32,16a1,1,0,0,0-.37.1l-1.8-1.21v-.38a1.2,1.2,0,0,0-1.17-1h-.21A1.2,1.2,0,0,0,21,15.84h.21c.11,0,.16-.05.27-.05l1.91,1.32v.27a1.19,1.19,0,0,0,1.16,1h.21a1.21,1.21,0,0,0,1-1.38c0-.05-.06-.11-.06-.16l3-4.24a.6.6,0,0,0,.42,0,.65.65,0,0,0,.32-.11L31.53,14v.21a1.18,1.18,0,0,0,1.16,1h.21a1.21,1.21,0,0,0,1-1.38c0-.1-.06-.16-.06-.26l4.14-5.88h.31A1.21,1.21,0,0,0,38,5.35h-.21a1.19,1.19,0,0,0-.95,1.38.79.79,0,0,0,.1.32L32.9,12.88h-.37a.72.72,0,0,0-.42.15L30,11.55v-.32a1.19,1.19,0,0,0-1.17-1h-.21a1.19,1.19,0,0,0-.95,1.37c0,.06.05.11.05.16l-3,4.24a1.05,1.05,0,0,0-.42-.05"/><path class="cls-1" d="M28.88,34.17H24.37A2.8,2.8,0,0,0,21.56,37v2.86a1.28,1.28,0,0,0,1.12,1.28,1.24,1.24,0,0,0,.74-.16v1.43h6.36V41a1.15,1.15,0,0,0,.74.16,1.28,1.28,0,0,0,1.11-1.28V37a2.79,2.79,0,0,0-2.75-2.81"/><path class="cls-1" d="M26.65,28.08a2.71,2.71,0,1,1-2.7,2.7,2.7,2.7,0,0,1,2.7-2.7"/><path class="cls-1" d="M39.63,34.17h-4.5A2.75,2.75,0,0,0,32.37,37v2.86a1.28,1.28,0,0,0,1.12,1.28,1.24,1.24,0,0,0,.74-.16v1.43h6.36V41a1.15,1.15,0,0,0,.74.16,1.28,1.28,0,0,0,1.11-1.28V37a2.8,2.8,0,0,0-2.81-2.81"/><path class="cls-1" d="M37.41,28.08a2.71,2.71,0,1,1-2.71,2.7,2.7,2.7,0,0,1,2.71-2.7"/><path class="cls-1" d="M18.12,34.17h-4.5A2.75,2.75,0,0,0,10.86,37v2.86A1.24,1.24,0,0,0,12.72,41v1.43h6.35V41a1.2,1.2,0,0,0,.75.16,1.28,1.28,0,0,0,1.11-1.28V37a2.87,2.87,0,0,0-2.81-2.81"/><path class="cls-1" d="M15.84,28.08a2.71,2.71,0,1,1-2.7,2.7,2.7,2.7,0,0,1,2.7-2.7"/><path class="cls-1" d="M7.31,34.17H2.81A2.79,2.79,0,0,0,0,37v2.86a1.28,1.28,0,0,0,1.11,1.28A1.28,1.28,0,0,0,1.86,41v1.43H8.21V41a1.17,1.17,0,0,0,.74.16,1.28,1.28,0,0,0,1.12-1.28V37a2.76,2.76,0,0,0-2.76-2.81"/><path class="cls-1" d="M1.17,20.4h0a1.76,1.76,0,0,0,2.17-1l.9-2.49V27.13A4,4,0,0,1,5.09,27a3.73,3.73,0,0,1,2.54,1V21A.45.45,0,0,1,8,20.61a.36.36,0,0,1,.37.32v7.89a3.79,3.79,0,0,1,.53,1.91,4.1,4.1,0,0,1-.11.9,1.74,1.74,0,0,0,1.33.58,1.67,1.67,0,0,0,1.69-1.69v-20L20.24,12a1.72,1.72,0,0,0,2-1.37,1.75,1.75,0,0,0-1.38-2l-8.1-1.43a11.28,11.28,0,0,0-1.91-.16H9.06L7.68,8.42,6.3,7.05H5.51a1.85,1.85,0,0,0-1.7,1.16l-3.65,10a1.71,1.71,0,0,0,1,2.17"/><path class="cls-1" d="M5.09,28.08a2.71,2.71,0,1,1-2.71,2.7,2.7,2.7,0,0,1,2.71-2.7"/></g></g></svg>