<svg xmlns="http://www.w3.org/2000/svg" viewBox="0 0 62.77 97.63"><defs><style>.cls-1{fill:#007bbb;}</style></defs><title>truckpartners</title><g id="Layer_2" data-name="Layer 2"><g id="Layer_1-2" data-name="Layer 1"><path class="cls-1" d="M40.75,34.75a2.37,2.37,0,1,1,2.34-2.37,2.35,2.35,0,0,1-2.34,2.37M22,34.75a2.37,2.37,0,1,1,2.34-2.37A2.34,2.34,0,0,1,22,34.75m-.78-14.21a3.19,3.19,0,0,1,1.87-2.9h0a3,3,0,0,1,1.24-.26h14a3.15,3.15,0,0,1,3,2.4,3,3,0,0,1,.09.76v4.73H21.26Zm25,4.73V20.54a7.84,7.84,0,0,0-7.8-7.9h-14a7.59,7.59,0,0,0-4.68,1.58,2.86,2.86,0,0,0-.47.39,7.84,7.84,0,0,0-2.65,5.93v4.73A1.58,1.58,0,0,0,15,26.85V39.49a1.57,1.57,0,0,0,1.56,1.58h1.56v2.37a2.34,2.34,0,1,0,4.68,0V41.07H40v2.37a2.34,2.34,0,1,0,4.68,0V41.07h1.54a1.57,1.57,0,0,0,1.56-1.58V26.85a1.58,1.58,0,0,0-1.54-1.58"/><path class="cls-1" d="M20,10.39a10.55,10.55,0,0,1,3.23-.85h0a8.08,8.08,0,0,1,1.11-.06h14a10.81,10.81,0,0,1,7.8,3.33V3.16A3.13,3.13,0,0,0,43.09,0H19.7a3.12,3.12,0,0,0-3.12,3.16v9.65a10.57,10.57,0,0,1,3.12-2.26l.32-.16"/><path class="cls-1" d="M56.24,72.13H52.35a6.34,6.34,0,0,0-4.15,1.58.49.49,0,0,1-.13.06,16.33,16.33,0,0,0-3.4,3.57c-2.38,3-5.07,6.52-12.62,7.38a3.21,3.21,0,0,0-2.74,3.56,3.15,3.15,0,0,0,3.09,2.87l.35,0c6.39-.73,10.35-3.08,13.07-5.58V97.63h17V78.88a6.66,6.66,0,0,0-6.53-6.75M27.41,88.5a5.24,5.24,0,0,1,1.42-4.11c-6.08-1.2-8.57-4.27-10.74-7a16.05,16.05,0,0,0-3.39-3.57s-.09,0-.12-.06a6.39,6.39,0,0,0-4.16-1.58H6.54A6.66,6.66,0,0,0,0,78.88V97.63H17V85.51a21.76,21.76,0,0,0,11.35,5.3,5.21,5.21,0,0,1-.9-2.31M47.11,63a7.19,7.19,0,1,0,7.17-7.43A7.31,7.31,0,0,0,47.11,63M15.66,63a7.31,7.31,0,0,1-7.18,7.43,7.43,7.43,0,0,1,0-14.86A7.31,7.31,0,0,1,15.66,63"/></g></g></svg>