<svg xmlns="http://www.w3.org/2000/svg" width="53.53" height="34.33" viewBox="0 0 53.53 34.33"><defs><style>.cls-1{fill:#fff;}</style></defs><title>truckSide</title><g id="Layer_2" data-name="Layer 2"><g id="Layer_1-2" data-name="Layer 1"><path class="cls-1" d="M42.89,25a4.69,4.69,0,1,1-4.56,4.68A4.62,4.62,0,0,1,42.89,25"/><path class="cls-1" d="M39.85,3.12V22.51a7.79,7.79,0,0,0-4.56,7.13H23.17a7.75,7.75,0,0,0-7.65-7.85,7.76,7.76,0,0,0-7.66,7.85v.26H3a3.08,3.08,0,0,1-3-3.12V3.12A3.08,3.08,0,0,1,3,0H36.81a3.08,3.08,0,0,1,3,3.12"/><path class="cls-1" d="M51.37,17.16h-7V10.92h3a2.68,2.68,0,0,1,2.2,1.4l1.72,3.53Zm.48-5a5.37,5.37,0,0,0-4.4-2.79H41.37V22a7.61,7.61,0,0,1,1.52-.16,7.71,7.71,0,0,1,7.6,7.81,3.08,3.08,0,0,0,3-3.13V15.6Z"/><path class="cls-1" d="M15.52,25A4.69,4.69,0,1,1,11,29.64,4.62,4.62,0,0,1,15.52,25"/></g></g></svg>