<svg xmlns="http://www.w3.org/2000/svg" width="59.73" height="60.37" viewBox="0 0 59.73 60.37"><defs><style>.cls-1{fill:#fff;}.cls-2{opacity:0.5;}</style></defs><title>trucksFront</title><g id="Layer_2" data-name="Layer 2"><g id="Layer_1-2" data-name="Layer 1"><path class="cls-1" d="M37.68,51.26a2,2,0,1,1,1.92-1.95,1.93,1.93,0,0,1-1.92,1.95m-15.37,0a2,2,0,1,1,1.92-1.95,1.93,1.93,0,0,1-1.92,1.95m-.64-11.7a2.62,2.62,0,0,1,1.54-2.38h0a2.44,2.44,0,0,1,1-.22H35.76a2.61,2.61,0,0,1,2.49,2,2.45,2.45,0,0,1,.07.62v3.9H21.67Zm20.5,3.9v-3.9a6.46,6.46,0,0,0-6.41-6.5H24.23a6.26,6.26,0,0,0-3.84,1.3,2.3,2.3,0,0,0-.38.32,7,7,0,0,0-1.21,1.44,6.6,6.6,0,0,0-1,3.44v3.9a1.3,1.3,0,0,0-1.28,1.3v10.4a1.29,1.29,0,0,0,1.28,1.3h1.28v1.95a1.92,1.92,0,1,0,3.84,0V56.46H37v1.95a1.92,1.92,0,1,0,3.84,0V56.46h1.27a1.29,1.29,0,0,0,1.28-1.3V44.76a1.29,1.29,0,0,0-1.26-1.3"/><path class="cls-1" d="M20.66,31.21a8.71,8.71,0,0,1,2.65-.7h0a6.66,6.66,0,0,1,.91-.05H35.76a8.88,8.88,0,0,1,6.41,2.74V25.26a2.57,2.57,0,0,0-2.56-2.6H20.39a2.57,2.57,0,0,0-2.56,2.6V33.2a8.9,8.9,0,0,1,2.56-1.86l.27-.13"/><g class="cls-2"><path class="cls-1" d="M12.43,28.63a1.2,1.2,0,1,1,1.13-1.2,1.16,1.16,0,0,1-1.13,1.2m-9,0a1.2,1.2,0,0,1,0-2.39,1.2,1.2,0,0,1,0,2.39M3,21.46A1.6,1.6,0,0,1,3.92,20h0a1.31,1.31,0,0,1,.59-.14H11.3a1.53,1.53,0,0,1,1.46,1.21,1.58,1.58,0,0,1,.05.38v2.39H3Zm12.06,2.39V21.46a3.89,3.89,0,0,0-3.77-4H4.52a3.62,3.62,0,0,0-2.26.8,2.05,2.05,0,0,0-.23.2,3.77,3.77,0,0,0-.7.88,4.13,4.13,0,0,0-.58,2.1v2.39a.78.78,0,0,0-.75.8V31a.77.77,0,0,0,.75.79h.76V33A1.16,1.16,0,0,0,2.64,34.2,1.16,1.16,0,0,0,3.77,33v-1.2h8.29V33a1.13,1.13,0,1,0,2.26,0v-1.2h.74a.77.77,0,0,0,.75-.79V24.65a.78.78,0,0,0-.74-.8"/><path class="cls-1" d="M2.42,16.35A4.8,4.8,0,0,1,4,15.93H4a3.08,3.08,0,0,1,.53,0H11.3a5.14,5.14,0,0,1,3.77,1.68V12.71a1.54,1.54,0,0,0-1.51-1.59H2.26A1.54,1.54,0,0,0,.75,12.71v4.86a5.1,5.1,0,0,1,1.51-1.14l.16-.08"/></g><g class="cls-2"><path class="cls-1" d="M56.35,28.63a1.2,1.2,0,1,1,1.13-1.2,1.16,1.16,0,0,1-1.13,1.2m-9.05,0a1.2,1.2,0,1,1,1.13-1.2,1.16,1.16,0,0,1-1.13,1.2m-.37-7.17a1.59,1.59,0,0,1,.9-1.45h0a1.31,1.31,0,0,1,.59-.14h6.79a1.54,1.54,0,0,1,1.46,1.21,1.58,1.58,0,0,1,0,.38v2.39H46.93Zm12,2.39V21.46a3.88,3.88,0,0,0-3.76-4H48.43a3.62,3.62,0,0,0-2.26.8,1.37,1.37,0,0,0-.22.2,4,4,0,0,0-1.28,3v2.39a.78.78,0,0,0-.76.8V31a.77.77,0,0,0,.76.79h.75V33a1.13,1.13,0,1,0,2.26,0v-1.2H56V33a1.13,1.13,0,1,0,2.26,0v-1.2H59a.77.77,0,0,0,.76-.79V24.65a.78.78,0,0,0-.75-.8"/><path class="cls-1" d="M46.33,16.35a4.8,4.8,0,0,1,1.56-.42h0a3.12,3.12,0,0,1,.54,0h6.78A5.12,5.12,0,0,1,59,17.57V12.71a1.54,1.54,0,0,0-1.5-1.59H46.17a1.54,1.54,0,0,0-1.5,1.59v4.86a5.19,5.19,0,0,1,1.5-1.14l.16-.08"/></g><g class="cls-2"><path class="cls-1" d="M33.63,14.41a1,1,0,1,1,.93-1,1,1,0,0,1-.93,1m-7.44,0a1,1,0,1,1,.93-1,1,1,0,0,1-.93,1m-.31-5.9a1.34,1.34,0,0,1,.74-1.2h0a1.14,1.14,0,0,1,.49-.11H32.7a1.27,1.27,0,0,1,1.2,1,1.55,1.55,0,0,1,0,.31v2H25.88Zm9.92,2v-2a3.19,3.19,0,0,0-3.1-3.27H27.12a3,3,0,0,0-1.86.65l-.19.16a3.45,3.45,0,0,0-.58.73A3.37,3.37,0,0,0,24,8.51v2a.64.64,0,0,0-.62.65v5.24A.65.65,0,0,0,24,17h.62v1a.93.93,0,1,0,1.86,0V17h6.82v1a.93.93,0,1,0,1.86,0V17h.61a.65.65,0,0,0,.62-.66V11.13a.63.63,0,0,0-.61-.65"/><path class="cls-1" d="M25.39,4.31A4,4,0,0,1,26.67,4h0a3.15,3.15,0,0,1,.44,0H32.7a4.23,4.23,0,0,1,3.1,1.38v-4A1.27,1.27,0,0,0,34.56,0h-9.3A1.27,1.27,0,0,0,24,1.31v4a4.07,4.07,0,0,1,1.24-.94l.13-.06"/></g></g></g></svg>