<svg xmlns="http://www.w3.org/2000/svg" xmlns:xlink="http://www.w3.org/1999/xlink" width="41.46" height="39.98" viewBox="0 0 41.46 39.98"><defs><style>.cls-1{fill:none;}.cls-2{clip-path:url(#clip-path);}.cls-3{fill:#0f6386;}</style><clipPath id="clip-path" transform="translate(0)"><rect class="cls-1" width="41.46" height="39.98"/></clipPath></defs><title>truckDonated</title><g id="Layer_2" data-name="Layer 2"><g id="Layer_1-2" data-name="Layer 1"><g class="cls-2"><path class="cls-3" d="M32.14,0H18.69a13.37,13.37,0,0,1-1.14,2.42h15.6a22.42,22.42,0,0,1-1-2.42" transform="translate(0)"/><path class="cls-3" d="M17.27,14.92a64,64,0,0,0,8.3.63,76.94,76.94,0,0,0,7.77-.49V11.55H17.23Z" transform="translate(0)"/><path class="cls-3" d="M32.24,18.65H29.79l.95-1.91h1.5ZM18.41,16.74h1.5l.95,1.91H18.41Zm3.19,1.54h7.58l-.14.37H21.76Zm7.77-.48-.11.28H21.53l-.12-.28Zm-8-.2-.12-.29h8.36l-.1.29Zm8.47-.86-.15.37H21.12L21,16.74Zm-4.22-.58a64,64,0,0,1-8.3-.63l0,3.57a1.21,1.21,0,0,0,1.19,1.21.78.78,0,0,0-.09.37v.68a.88.88,0,0,0,.88.88h2a.88.88,0,0,0,.87-.88v-.68a.78.78,0,0,0-.09-.37h6.49a1.12,1.12,0,0,0-.09.37v.68a.89.89,0,0,0,.88.88h2a.88.88,0,0,0,.87-.88v-.68a.78.78,0,0,0-.09-.37,1.21,1.21,0,0,0,1.19-1.21V15.68c-1.91.2-5.06.48-7.77.48" transform="translate(0)"/></g><polygon class="cls-3" points="21.12 17.11 21.2 17.31 29.57 17.31 29.64 17.11 21.12 17.11"/><polygon class="cls-3" points="21.32 17.59 21.4 17.8 29.37 17.8 29.45 17.59 21.32 17.59"/><polygon class="cls-3" points="21.52 18.08 21.6 18.28 29.18 18.28 29.26 18.08 21.52 18.08"/><path class="cls-3" d="M33.33,9.32V4l.56.93a.87.87,0,0,0-.15.56L34,8a.74.74,0,0,0,.17.42Zm-6.83.76H18.61l1-5.11H31l1,5.11ZM17.2,8.77V9.2l-.7-.81A1,1,0,0,0,16.67,8l.23-2.45A.84.84,0,0,0,16.75,5l.53-.9ZM35.39,5.36a.83.83,0,0,0-.9-.75l-.08,0L33.35,2.88h-16L16.25,4.63l-.09,0a.82.82,0,0,0-.89.75L15,7.8a.83.83,0,0,0,.73.9.55.55,0,0,0,.22,0l1.23,1.44v1H33.34v-.86l1.33-1.55A.81.81,0,0,0,35.61,8a1.77,1.77,0,0,0,0-.23Z" transform="translate(0)"/><path class="cls-3" d="M10.1,19.56c-1.48-1.41-7.41-1.86-9.18-2a.92.92,0,0,0-.65.24.87.87,0,0,0-.27.63V35.73a.87.87,0,0,0,.86.87H6.05a.87.87,0,0,0,.82-.6C7,35.61,10,24.75,10.36,20.26a.84.84,0,0,0-.26-.7" transform="translate(0)"/><path class="cls-3" d="M36.28,28.83l-6.05,2.59c-1.67.08-5.15,0-6,0S18.82,30,19.52,29.69a3.7,3.7,0,0,1,1.21,0C24.68,30,31.1,30.8,31.1,27.94s-7-3.45-8.64-3.45S18,23,15.55,22.76c-1-.08-2.28-.21-3.61-.3A92.06,92.06,0,0,1,9,34.19l9.16,4.14c3.43,1.3,5.76,3,13,0,0,0,10.36-4.4,10.36-6.91,0-2.07-2.38-3.56-5.18-2.59" transform="translate(0)"/></g></g></svg>