<svg xmlns="http://www.w3.org/2000/svg" viewBox="0 0 48.44 72.32"><defs><style>.cls-1{fill:#db8d7f;}</style></defs><title>warehouses</title><g id="Layer_2" data-name="Layer 2"><g id="Layer_1-2" data-name="Layer 1"><path class="cls-1" d="M31.79,21.09a1.52,1.52,0,0,1-3,0V16.57a1.52,1.52,0,0,1,3,0Zm0,6.23a5.84,5.84,0,0,1-5.86,5.83h-.2V31.44a5.84,5.84,0,0,1,5.86-5.83h.2Zm0,9a5.84,5.84,0,0,1-5.86,5.83h-.2V40.48a5.84,5.84,0,0,1,5.86-5.83h.2ZM24.25,25.61h-.06a1.47,1.47,0,0,1-1.48-1.47V13.53a1.48,1.48,0,0,1,1.48-1.48h.06a1.48,1.48,0,0,1,1.48,1.48V24.14a1.47,1.47,0,0,1-1.48,1.47m-1.54,7.54h-.2a5.84,5.84,0,0,1-5.86-5.83V25.61h.2a5.84,5.84,0,0,1,5.86,5.83Zm0,9h-.2a5.84,5.84,0,0,1-5.86-5.83V34.65h.2a5.84,5.84,0,0,1,5.86,5.83ZM16.65,16.57a1.52,1.52,0,0,1,3,0v4.52a1.52,1.52,0,0,1-3,0ZM45.41,9H3a3,3,0,0,0-3,3V45.2H48.44V12.05a3,3,0,0,0-3-3"/><path class="cls-1" d="M9.08,6H39.36a3,3,0,1,0,0-6H9.08a3,3,0,1,0,0,6"/><path class="cls-1" d="M0,72.32H18.17V57.25a3,3,0,0,1,3-3h6.06a3,3,0,0,1,3,3V72.32H48.44V48.21H0Z"/></g></g></svg>