<svg xmlns="http://www.w3.org/2000/svg" viewBox="0 0 52.73 52.73"><defs><style>.cls-1{fill:#db8d7f;}</style></defs><title>wfp</title><g id="Layer_2" data-name="Layer 2"><g id="Layer_1-2" data-name="Layer 1"><path class="cls-1" d="M33.26,3.44h.51a1.69,1.69,0,0,0,1.07-.29,1,1,0,0,0,.36-.82,1,1,0,0,0-.3-.8A1.41,1.41,0,0,0,34,1.27h-.71Zm3.5-1.16A2.23,2.23,0,0,1,36,4.08a3.12,3.12,0,0,1-2.09.63h-.67V7.3H31.71V0h2.34a3.12,3.12,0,0,1,2,.57,2.09,2.09,0,0,1,.69,1.71m-8.87,5H26.37V0h4.18V1.27H27.89V3.15h2.48V4.42H27.89Zm-4.21,0H21.92l-1-3.83c0-.14-.1-.42-.19-.85a7.77,7.77,0,0,1-.15-.86q0,.27-.15.87c-.08.39-.14.68-.19.85l-1,3.82H17.51L15.65,0h1.52l.94,4c.16.73.28,1.37.35,1.91,0-.19.07-.48.14-.88s.14-.71.2-.93L19.86,0h1.47l1.06,4.09q.08.27.18.84c.07.38.12.7.16,1,0-.26.08-.58.16-1s.14-.7.2-.94L24,0h1.52ZM19.89,32.71a13.67,13.67,0,0,0-5.15.88s-.06,0,0-.05a9.94,9.94,0,0,1,7.64-3.06H32.73a1.13,1.13,0,0,1,0,2.23Zm2.34,2.87c-3.06,0-3.95-1.74-8.58-.59a0,0,0,0,1,0-.06,10.77,10.77,0,0,1,6.52-1.61H32.73a1.13,1.13,0,0,1,0,2.23l-10.5,0m.22,2.82c-3.14,0-3.39-2.31-8-2.84a0,0,0,0,1,0-.06c3.82-1,5.25.67,7.48.67H32.73a1.13,1.13,0,0,1,0,2.23Zm-.68-8.54a11,11,0,0,0-5.11,1.38s-.06,0,0,0a8.11,8.11,0,0,1,6.43-3.57h9.68a1.13,1.13,0,0,1,0,2.23ZM35.66,23.7a.66.66,0,0,0-.41-.19.64.64,0,0,0-.34,0,.76.76,0,0,0,.1-.31.83.83,0,0,0-.08-.48c-.31-.68.58-2.05.47-2.11s-.61,1.45-1.11,2.06a.87.87,0,0,0-.18.45.8.8,0,0,0,.08.48.37.37,0,0,0,.29.22h.1s0,0,0,.06a.42.42,0,0,0,.13.36.68.68,0,0,0,.41.19.78.78,0,0,0,.46-.08c.67-.37,2-.73,2-.86s-1.38.67-1.93.18m1-1a.66.66,0,0,0-.38-.19.69.69,0,0,0-.25,0,.42.42,0,0,0,0-.12A.69.69,0,0,0,36,22c-.34-.63.55-1.82.43-1.88s-.6,1.28-1.09,1.8a.68.68,0,0,0-.19.4.74.74,0,0,0,.1.43.4.4,0,0,0,.31.21.32.32,0,0,0,.17,0v0a.5.5,0,0,0,.13.37.57.57,0,0,0,.38.18.56.56,0,0,0,.4-.11c.57-.41,1.89-.66,1.86-.79s-1.3.56-1.8.08m.89-.92a.44.44,0,0,0-.36-.1.37.37,0,0,0-.18.05s0-.05,0-.08a.6.6,0,0,0,0-.4c-.21-.62.74-1.53.65-1.61s-.71,1-1.22,1.43a.61.61,0,0,0-.22.33.68.68,0,0,0,0,.4.49.49,0,0,0,.25.24.36.36,0,0,0,.25,0,.41.41,0,0,0,0,.16.44.44,0,0,0,.17.31.56.56,0,0,0,.36.1.55.55,0,0,0,.34-.17c.46-.46,1.6-.89,1.55-1s-1.07.71-1.6.37m1.77-2c-.1-.14-.9.73-1.48.82a.63.63,0,0,0-.34.16.61.61,0,0,0-.2.34.35.35,0,0,0,.05.3.3.3,0,0,0,.28.1.61.61,0,0,0,.34-.17.72.72,0,0,0,.2-.33c.17-.6,1.22-1.13,1.15-1.22M22.89,21c0,.09-.2.76-.2.76s-.25,0-.3,0a.62.62,0,0,1-.6-.79c.13-.33.38-.37.7-.38a1,1,0,0,1,.49.11s-.05.15-.09.32m-.45,2a1.85,1.85,0,0,0,0,.23.67.67,0,0,1-.27-.78.51.51,0,0,1,.48-.27c-.06.27-.12.54-.17.82m-.35,2.51c0,.17-.27.19-.43.24-.46.14-.9.08-1-.47s.3-.84.77-1a.63.63,0,0,1,.69.21.44.44,0,0,1,.1.15s-.07.66-.09.82m-1.46-2.9c.36-.09.73-.22,1,.13a.7.7,0,0,1-.27,1.11.91.91,0,0,1-.93-.05c-.35-.33-.32-1.07.2-1.19m-.35-1.92c.38-.09.77-.23,1.06.14A.74.74,0,0,1,21.05,22a.93.93,0,0,1-1-.06c-.36-.34-.34-1.12.21-1.25m-.35,4.14c-.09.34-.38.39-.67.47a10.38,10.38,0,0,1-.73-.92s0-.05,0-.09a.42.42,0,0,1,.17-.18,1.34,1.34,0,0,1,.76-.16.71.71,0,0,1,.46.88m-1.86-1.77c-.27-.95,1.33-1.37,1.57-.43s-1.35,1.37-1.57.43m-.23-1.9c-.28-.95,1.33-1.36,1.57-.43s-1.36,1.37-1.57.43m-.23-1.87c-.26-.88,1.25-1.27,1.48-.4s-1.27,1.28-1.48.4m-.15,3.6c-.08,0-.1.06-.13.06l-.72-.77a1.46,1.46,0,0,1,.31-.23c.59-.33,1.08.62.54.94M16.1,21.13c-.36-.78.93-1.63,1.32-.78s-.93,1.64-1.32.78m1.08-2.47c.41.72-.82,1.53-1.17.75s.78-1.45,1.17-.75m-1-1.69a.51.51,0,1,1,.66.75.77.77,0,0,1-.54.16.53.53,0,0,1-.12-.91m.05-1.55a.57.57,0,0,1,.51-.12.44.44,0,0,1,.05.76.65.65,0,0,1-.46.14.45.45,0,0,1-.1-.78M17,13.21a.51.51,0,0,1,.62,0,.43.43,0,0,1-.12.68.51.51,0,0,1-.62,0,.44.44,0,0,1,.12-.68m-.14,1.68c-.15-.56.78-.82.93-.25s-.79.81-.93.25m1.5,1c.22.6-.8.94-1,.35s.81-.94,1-.35m.13-2.91a.63.63,0,0,1,.65,0,.48.48,0,0,1-.09.79.59.59,0,0,1-.65,0,.48.48,0,0,1,.09-.79m-.18,5c-.28.06-.56.17-.79-.07a.58.58,0,0,1,.19-1,.71.71,0,0,1,.78.06.59.59,0,0,1-.18,1m0-3.06c-.17-.59.79-.9,1-.32s-.81.9-1,.32M20,16c.23.68-.92,1-1.13.37s.94-1,1.13-.37M20,14.16a.57.57,0,0,1,.57.13.44.44,0,0,1-.19.75.72.72,0,0,1-.54-.09.47.47,0,0,1,.16-.79m1,1.42c.37,0,.55.55.34.82a.67.67,0,0,1-.6.14.52.52,0,0,1-.34-.81c.15-.19.39-.15.6-.15m-1.77,2.23c-.23-.77,1.1-1.12,1.3-.35s-1.13,1.13-1.3.35m.81,1c.36,0,.74-.12,1,.26a.7.7,0,0,1-.41,1.05.89.89,0,0,1-.9-.18c-.29-.36-.18-1.08.35-1.13m1.84-1.73a.62.62,0,0,1,.28,1,.85.85,0,0,1-.68.08c-.42-.08-.69-.7-.33-1a.79.79,0,0,1,.73-.08m.7,1.87c.28.35.17,1-.32,1a.9.9,0,0,1-.76-.22c-.28-.34-.17-1,.32-1a.94.94,0,0,1,.76.22m1.89-6.19a.1.1,0,0,0-.12,0,.11.11,0,0,0-.08.14c1.13,3-.31,4.49-.9,6.6-.72-1.71,1.66-3.32.43-6.45,0,0-.05-.07-.09-.07a.1.1,0,0,0-.13.09A4.3,4.3,0,0,1,22,16a2.83,2.83,0,0,0-.65-1A2.08,2.08,0,0,0,20,13.42a1.76,1.76,0,0,0-.82-1,1.66,1.66,0,0,0-1.5.06,1.72,1.72,0,0,0-1.4.78,1.64,1.64,0,0,0-.11,1.19,2.63,2.63,0,0,0-.58,1.86,3.56,3.56,0,0,0,0,2.17A3.46,3.46,0,0,0,15.72,21a2.53,2.53,0,0,0,0,.28,29.43,29.43,0,0,0-5.51-3.94.15.15,0,0,0-.17,0,.14.14,0,0,0,0,.21c2.57,2.51,4.87,5.61,7.07,12A8.24,8.24,0,0,1,23.05,27h3.31c-2.1-7.84,1-10.65-1.9-14.24m15.66,4c-.6-.16-4.47-.84-8.8,7.13a34.93,34.93,0,0,1,3.08-7.61h0a.15.15,0,0,0,0-.18.13.13,0,0,0-.18,0C31.32,21,30.32,23.7,29.72,27h1.8c.3-3.18,4.31-10.65,8.58-10.1h0s0,0,0,0a0,0,0,0,0,0-.06M31.51,43.07l-1-4H28.89A14.14,14.14,0,0,0,30,42a.15.15,0,0,0,.15.07.14.14,0,0,0,.12-.17c-.11-.86-.24-1.69-.37-2.51a17.59,17.59,0,0,0,1.45,3.73.07.07,0,0,0,.09,0,.08.08,0,0,0,.06-.1m1.67-1.84c-.17-.68-.35-1.51-.5-2.21h-.63c.25.75.58,1.58.87,2.3a.14.14,0,0,0,.16.09.16.16,0,0,0,.1-.18m.21,2.38h0c-.2-.57-.48-1.07-.7-1.62s-.47-1.07-.66-1.63-.33-.9-.46-1.33H31c.17.5.39,1,.6,1.54a16.56,16.56,0,0,0,1.65,3.15.11.11,0,0,0,.12,0,.11.11,0,0,0,.06-.14m.9-19.44a.15.15,0,0,0-.21,0,12.39,12.39,0,0,0-2,2.86h.66a11,11,0,0,1,1.54-2.62h0a.17.17,0,0,0,0-.21m-5-5.62a24.77,24.77,0,0,1,2.27-2.68.09.09,0,0,0,0-.11.07.07,0,0,0-.11,0,6.75,6.75,0,0,1-.54.53c-.08,0-.28,0-.49.21a1,1,0,0,0-.32.37c-.11,0-.31.1-.48.33a.89.89,0,0,0-.23.51c-.12,0-.28.16-.42.38a1.28,1.28,0,0,0-.17.42,1.23,1.23,0,0,0-.29.33,1,1,0,0,0-.16.54l-.09.15,0-.12a26.29,26.29,0,0,1,.83-4.15,11.69,11.69,0,0,1,1.68-3.77h0a.14.14,0,0,0,0-.19.13.13,0,0,0-.19,0,6.23,6.23,0,0,0-.73,1c-.09-.05-.29.13-.44.42a.85.85,0,0,0-.13.59h0c-.1,0-.28.17-.39.46s-.12.53,0,.61v0c-.11,0-.29.21-.4.56a.94.94,0,0,0,0,.66s0,0,0,0-.28.21-.38.57-.09.63,0,.69c-.11,0-.26.25-.34.6a1,1,0,0,0,0,.66c-.1,0-.22.28-.28.61a.94.94,0,0,0,.05.67.91.91,0,0,0-.24.63,1,1,0,0,0,.09.67,1.27,1.27,0,0,0-.2.58,1.36,1.36,0,0,0,0,.6,1,1,0,0,0-.16.64,1.28,1.28,0,0,0,.09.58,1.37,1.37,0,0,0-.08.5,1.2,1.2,0,0,0,.1.6c0,.91,0,1.88,0,2.8h2c0-.71.06-1.49.13-2.19a9.07,9.07,0,0,1,1-3.61h0a.09.09,0,0,0,0-.11.07.07,0,0,0-.12,0,7.32,7.32,0,0,0-1.45,3.62c0,.25-.07.51-.1.76a17,17,0,0,1,.39-3,4.5,4.5,0,0,1,1.84-3,.1.1,0,0,0,0-.1.09.09,0,0,0-.1-.07,1.11,1.11,0,0,0-.19.09c-.07-.09-.32,0-.58.14s-.41.36-.4.47,0,0,0,0,0,0,0,0-.34.09-.55.39-.3.6-.21.68,0,0,0,0-.29.2-.41.55a1.26,1.26,0,0,0-.07.6h0c-.09.28-.16.56-.23.85,0-.4.06-.81.12-1.22a8.45,8.45,0,0,1,1.15-3.28m6.2-3.25a.68.68,0,0,0-.45,0,.72.72,0,0,0-.3.16.88.88,0,0,0,0-.32.76.76,0,0,0-.24-.42c-.53-.53-.16-2.13-.29-2.15s-.07,1.58-.33,2.32a.84.84,0,0,0,0,.5.83.83,0,0,0,.24.42.36.36,0,0,0,.35.09.18.18,0,0,0,.09,0v.06a.42.42,0,0,0,.25.29.68.68,0,0,0,.45,0,.73.73,0,0,0,.4-.24c.5-.59,1.68-1.41,1.61-1.52s-1.07,1.11-1.75.85m2.28-2c-.08-.11-1,1-1.66.72a.61.61,0,0,0-.42,0,.52.52,0,0,0-.22.12s0-.08,0-.12a.65.65,0,0,0-.24-.37c-.54-.47-.12-1.9-.24-1.91s-.13,1.4-.41,2.07a.63.63,0,0,0,0,.43.71.71,0,0,0,.24.38.42.42,0,0,0,.36.08.35.35,0,0,0,.15-.07v0a.52.52,0,0,0,.25.31.66.66,0,0,0,.42,0,.61.61,0,0,0,.34-.24c.39-.6,1.54-1.29,1.47-1.41M38,11.91c-.09-.09-.76,1-1.37.9a.57.57,0,0,0-.38,0,.58.58,0,0,0-.15.11s0-.05,0-.08a.7.7,0,0,0-.16-.37c-.42-.5.16-1.7.05-1.73s-.31,1.22-.65,1.77a.58.58,0,0,0-.09.38.62.62,0,0,0,.16.37.37.37,0,0,0,.31.13.36.36,0,0,0,.23-.11.4.4,0,0,0,0,.15.39.39,0,0,0,.27.23.48.48,0,0,0,.37,0,.52.52,0,0,0,.26-.27c.27-.6,1.19-1.41,1.11-1.49m-.41-1.58c-.14-.1-.58,1-1.1,1.29a.65.65,0,0,0-.26.28.59.59,0,0,0-.07.38.32.32,0,0,0,.15.27.3.3,0,0,0,.29,0,.62.62,0,0,0,.26-.27.7.7,0,0,0,.08-.39c0-.62.75-1.48.65-1.55M28,39H22.45a5.41,5.41,0,0,1-1-.09h0A9.41,9.41,0,0,0,25.2,42a12.38,12.38,0,0,0,.6,2.46A3.9,3.9,0,0,0,27.36,44c0-.13-.58-2.24-.58-2.24A11.27,11.27,0,0,0,28,39m13.91,9.45a8,8,0,0,1-4.71.21c-3.4-1.06-7.18-3.07-10.81-1.4-3.63-1.67-7.41.34-10.82,1.4a7.92,7.92,0,0,1-4.7-.21,0,0,0,0,0,0,.07,7.9,7.9,0,0,0,7.36,1.35c2.43-.76,4.49-3.34,7.37-2.24a20,20,0,0,0-6.06,4.1l1.2,1a19.82,19.82,0,0,1,5.09-4.54,1.2,1.2,0,0,1,.6-.23,1.17,1.17,0,0,1,.59.23,19.66,19.66,0,0,1,5.09,4.54l1.2-1a20,20,0,0,0-6.06-4.1c2.88-1.1,4.94,1.48,7.37,2.24a7.89,7.89,0,0,0,7.36-1.35s0-.08,0-.07M19.44,46.13c-3.56-.87-4.53-4.2-7.5-5.65a0,0,0,0,0,0,.05c.94,1.54,1.44,3.9,4.15,5.36a0,0,0,0,1,0,0c-3.87-.75-5.5.29-9.56-1.55,0,0-.08,0,0,.06,1.33,1.94,4.5,3.26,8.84,2.89a27.29,27.29,0,0,0,4.19-1.14s0-.06,0-.06M12,44.08c-1.35-1.77-1-5.56-4-9a0,0,0,0,0-.06,0c.58,2.55.41,5.45,2,7.57,0,0,0,.05,0,0-3.15-2.48-6.39-3.22-7.83-5.23,0,0-.07,0-.06,0,.35,2.6,5.34,6.65,10,6.65,0,0,0,0,0-.05M7.26,39.37c-1.45-2.69.28-6.79-1.36-10.78,0,0-.08,0-.08,0-.05,2.18-1.4,5.43-.58,7.89,0,0,0,0,0,0C3.12,33.46,1.47,32.82.09,30c0,0-.08,0-.08,0A8.09,8.09,0,0,0,1.7,34.92a16.2,16.2,0,0,0,5.51,4.5s.07,0,0-.05M6.28,23a0,0,0,0,0-.09,0C5.09,25,3.12,26.69,3.06,29.42c0,0,0,0,0,0C2.66,27.32.87,25,.79,21.9c0,0-.06-.06-.08,0-1.47,4,.64,7.73,2.9,10.84,0,0,.07,0,.07,0C3.59,29.41,6.44,27,6.28,23m1.4-5.13c-1,1.45-3.39,2.47-4.25,4.57a0,0,0,0,1-.05,0c.35-2.35-.56-5.07.29-8.19a0,0,0,0,0-.07,0,8.75,8.75,0,0,0-1.79,5.43c-.09,2.46.78,4.25,1.2,5.91a0,0,0,0,0,.07,0c.62-2.18,3.71-3.5,4.67-7.64,0,0,0-.07-.07,0M10.52,13c-1.72,1.35-4.35,2.64-4.91,3.58,0,0,0,0,0,0l.63-3.06a11.57,11.57,0,0,1,1.25-3.7,0,0,0,0,0,0,0c-3.27,2.59-2.79,6.33-2.93,9.4a0,0,0,0,0,0,0c1.93-2.09,5.07-3.31,6-6.15a0,0,0,0,0-.05,0M13,8.28c-2.89.1-5,2.53-5.92,5.63,0,0,0,0,0,0C11,11,10.82,9.76,13,8.37a.05.05,0,0,0,0-.09m33.32,36.1c-4.05,1.84-5.68.8-9.56,1.55a0,0,0,0,1,0,0c2.71-1.46,3.21-3.82,4.15-5.36a0,0,0,0,0-.05-.05c-3,1.45-3.94,4.78-7.5,5.65,0,0,0,0,0,.06,1.5.35,2.63,1,4.19,1.14,4.34.37,7.51-.95,8.84-2.89,0,0,0-.07,0-.06m4.4-6.92c-1.44,2-4.68,2.75-7.82,5.23a0,0,0,0,1,0,0c1.59-2.12,1.42-5,2-7.57a0,0,0,0,0-.06,0c-3,3.46-2.67,7.25-4,9a0,0,0,0,0,0,.05c4.62,0,9.61-4.05,10-6.65,0,0,0,0-.06,0m2-7.41s-.06-.05-.08,0c-1.38,2.78-3,3.42-5.11,6.46,0,0,0,0,0,0,.81-2.46-.54-5.71-.59-7.89,0,0-.06-.05-.08,0-1.64,4,.09,8.09-1.36,10.78,0,0,0,.06.05.05A16.2,16.2,0,0,0,51,34.92a8.09,8.09,0,0,0,1.69-4.87M52,21.89c0-.05-.08,0-.08,0-.08,3.05-1.87,5.42-2.23,7.52,0,0,0,0,0,0-.07-2.73-2-4.38-3.14-6.45a0,0,0,0,0-.08,0c-.17,4,2.68,6.42,2.59,9.71a0,0,0,0,0,.08,0c2.25-3.11,4.36-6.87,2.89-10.84m-1.1-2.27a8.75,8.75,0,0,0-1.79-5.43,0,0,0,0,0-.07,0c.85,3.12-.06,5.84.29,8.19a0,0,0,0,1-.05,0c-.86-2.1-3.21-3.12-4.25-4.57a0,0,0,0,0-.07,0c1,4.14,4.05,5.46,4.67,7.64a0,0,0,0,0,.07,0c.42-1.66,1.29-3.45,1.2-5.91m-5.6-9.88a0,0,0,0,0,0,0,11.57,11.57,0,0,1,1.25,3.7l.63,3.06s0,0,0,0c-.56-.94-3.19-2.23-4.91-3.58,0,0-.06,0-.05,0,1,2.84,4.11,4.06,6,6.15a0,0,0,0,0,0,0c-.14-3.07.34-6.81-2.93-9.4M39.78,8.28a0,0,0,0,0,0,.09c2.15,1.39,1.93,2.64,5.91,5.56,0,0,0,0,0,0-.91-3.1-3-5.53-5.92-5.63"/></g></g></svg>