<svg xmlns="http://www.w3.org/2000/svg" xmlns:xlink="http://www.w3.org/1999/xlink" viewBox="0 0 524.55 117.79"><defs><style>.cls-1{fill:none;}.cls-2{opacity:0.5;}.cls-3{clip-path:url(#clip-path);}.cls-4{fill:#fff;}.cls-5{clip-path:url(#clip-path-2);}.cls-6{clip-path:url(#clip-path-3);}.cls-7{clip-path:url(#clip-path-4);}.cls-8{clip-path:url(#clip-path-5);}.cls-9{clip-path:url(#clip-path-6);}.cls-10{clip-path:url(#clip-path-7);}.cls-11{clip-path:url(#clip-path-8);}</style><clipPath id="clip-path" transform="translate(-5.2 -7)"><rect class="cls-1" x="160.14" width="54.3" height="44.3"/></clipPath><clipPath id="clip-path-2" transform="translate(-5.2 -7)"><rect class="cls-1" x="11.7" y="3.91" width="64.18" height="30.98"/></clipPath><clipPath id="clip-path-3" transform="translate(-5.2 -7)"><rect class="cls-1" x="48.5" y="21.14" width="112.36" height="103.66"/></clipPath><clipPath id="clip-path-4" transform="translate(-5.2 -7)"><rect class="cls-1" x="116.91" y="45.06" width="113.64" height="79.73"/></clipPath><clipPath id="clip-path-5" transform="translate(-5.2 -7)"><rect class="cls-1" x="218" y="56.92" width="87" height="67.87"/></clipPath><clipPath id="clip-path-6" transform="translate(-5.2 -7)"><rect class="cls-1" x="372" y="76.44" width="64.5" height="48.35"/></clipPath><clipPath id="clip-path-7" transform="translate(-5.2 -7)"><rect class="cls-1" y="81.46" width="66" height="43.63"/></clipPath><clipPath id="clip-path-8" transform="translate(-5.2 -7)"><rect class="cls-1" x="461.5" y="62.79" width="82" height="62"/></clipPath></defs><title>cbt1</title><g id="Layer_2" data-name="Layer 2"><g id="Layer_1-2" data-name="Layer 1"><g class="cls-2"><g class="cls-3"><path class="cls-4" d="M187.29,43.3a18.15,18.15,0,1,0-18.15-18.15A18.15,18.15,0,0,0,187.29,43.3" transform="translate(-5.2 -7)"/></g></g><g class="cls-2"><g class="cls-5"><path class="cls-4" d="M27.92,25.27h7.21a8.64,8.64,0,0,0,8.66,8.62H58.23a8.62,8.62,0,1,0,0-17.23H49.42a7.21,7.21,0,0,0-7.07-5.75H27.92a7.18,7.18,0,1,0,0,14.36" transform="translate(-5.2 -7)"/></g></g><g class="cls-2"><g class="cls-6"><path class="cls-4" d="M136.21,37.08a18,18,0,0,0-31.06,0L57.87,119.45a2.93,2.93,0,0,0,2.6,4.34H118l1.91-3.38,32-56.07Z" transform="translate(-5.2 -7)"/></g></g><g class="cls-2"><g class="cls-7"><path class="cls-4" d="M221.1,118.57,187.18,59.24a14,14,0,0,0-24.45,0l-6.83,12-30,52.57H218a3.5,3.5,0,0,0,3.07-5.22" transform="translate(-5.2 -7)"/></g></g><g class="cls-2"><g class="cls-8"><path class="cls-4" d="M292.13,95.86h0l-.23.06-.11,0-.22,0-.14,0-.29,0-.24,0h-.15l-.24,0h-1l-.28,0-.21,0-.17,0-.22,0h0a8.26,8.26,0,0,1-5.26-3.28l-.07-.11-.11-.15c-.05-.08-.11-.16-.16-.25l-.07-.12-.06-.09a.41.41,0,0,1-.05.09l-.08.13-.15.24-.11.15a.44.44,0,0,1-.08.11A8.21,8.21,0,0,1,277.13,96h0l-.23,0-.16,0-.22,0-.27,0h-1l-.27,0-.22,0-.16,0-.23,0h0a8.21,8.21,0,0,1-5.25-3.28l-.08-.1a.91.91,0,0,0-.11-.16l-.15-.24-.08-.13a.41.41,0,0,1-.05-.09l-.06.09-.07.12a2.13,2.13,0,0,1-.16.25l-.1.15-.08.11-.13.17h0a8.26,8.26,0,0,1-5.13,3.1h0l-.22,0-.17,0-.21,0-.28,0h-1l-.28,0-.21,0-.17,0-.22,0h0a8.21,8.21,0,0,1-5.26-3.28l-.07-.1-.11-.16-.16-.24-.08-.13a.41.41,0,0,0-.05-.09l0,.09-.08.12a2.13,2.13,0,0,1-.16.25l-.1.15a1,1,0,0,1-.08.11,1.09,1.09,0,0,1-.13.17h0a8.24,8.24,0,0,1-5.12,3.1h0l-.23,0-.17,0-.21,0-.28,0h-1l-.27,0-.22,0-.17,0-.22,0h0a8.26,8.26,0,0,1-5.26-3.28l-.07-.1-.11-.16-.15-.24-.08-.13a.41.41,0,0,1,0-.09l-.06.09-.07.12c-.05.09-.11.17-.16.25l-.1.15-.08.11-.13.17h0a8.29,8.29,0,0,1-5.13,3.1h0l-.22,0-.17,0-.21,0-.28,0h-1l-.24,0h-.15l-.31,0-.2,0-.15,0-.2,0-.13,0-.38-.1-.11,0v28h6.91V101.51a1.08,1.08,0,0,1,1.08-1.09h14.24a1.09,1.09,0,0,1,1.09,1.09v22.28h38.4v-28l-.25.07m-5.8,20.69a1.09,1.09,0,0,1-1.09,1.09H261.5a1.09,1.09,0,0,1-1.09-1.09v-15a1.09,1.09,0,0,1,1.09-1.09h23.74a1.09,1.09,0,0,1,1.09,1.09ZM296,88a6,6,0,0,1-3.11,5.26l-.27.14,0,0-.33.14-.06,0-.29.1-.06,0a5.42,5.42,0,0,1-.72.19h0c-.11,0-.23,0-.34.06h-.08l-.28,0h-1l-.15,0h-.09a6,6,0,0,1-4.13-2.5.21.21,0,0,1,0-.06l-.09-.13-.06-.09-.08-.13-.06-.11a.75.75,0,0,1-.07-.12l-.07-.13-.05-.11a8299508672074.12,8299508672074.12,0,0,0-.16-.36.76.76,0,0,1,0-.11l-.06-.16,0-.09a1.54,1.54,0,0,1-.05-.17,6,6,0,0,1-.25-1.69V84H296Zm-56.26,35.83H251.8V102.6H239.74Zm-9.32-30.41-.28-.14A6,6,0,0,1,227,88V84h12.06v4a6,6,0,0,1-.25,1.69,1.54,1.54,0,0,1-.05.17l0,.09-.06.16s0,.07,0,.11,0,.11-.07.17l-.09.19-.05.11-.07.13a.75.75,0,0,1-.07.12l-.06.11-.08.12-.06.1-.09.13a.21.21,0,0,1,0,.06,6.05,6.05,0,0,1-4.13,2.5h-.09l-.16,0h-1l-.28,0h-.09l-.3,0h0a4.35,4.35,0,0,1-.71-.18l-.06,0-.26-.1-.1,0-.24-.11-.09,0M253.29,84v4a6,6,0,0,1-.24,1.69.84.84,0,0,0-.05.17l0,.09a1.42,1.42,0,0,1-.05.16,1.17,1.17,0,0,0,0,.11,1.22,1.22,0,0,1-.07.17,1.54,1.54,0,0,1-.08.19l-.06.11a.54.54,0,0,1-.07.13l-.06.12-.07.11-.07.12-.06.1-.09.13,0,.06a6.07,6.07,0,0,1-4.13,2.5H248l-.16,0h-1.09l-.16,0h-.09a6.05,6.05,0,0,1-4.13-2.5.21.21,0,0,1,0-.06l-.09-.13-.06-.09-.08-.13L242,90.9l-.07-.12-.06-.12-.06-.12-.07-.15-.09-.22,0-.1-.06-.16,0-.09c0-.06,0-.12-.05-.18a5.83,5.83,0,0,1-.24-1.68V84Zm14.24,0v4a6,6,0,0,1-.25,1.69,1.54,1.54,0,0,1,0,.17l0,.09-.06.16a.76.76,0,0,1,0,.11c0,.06-.05.11-.07.17l-.09.19a1.17,1.17,0,0,1-.05.11s-.05.09-.07.13l-.06.12-.07.11-.07.12a.86.86,0,0,1-.07.1l-.08.13-.05.06a6.05,6.05,0,0,1-4.13,2.5h-.09l-.15,0H261l-.15,0h-.1a6.07,6.07,0,0,1-4.13-2.5.21.21,0,0,0,0-.06l-.09-.13-.06-.09s-.05-.09-.07-.13l-.06-.11a.75.75,0,0,1-.07-.12l-.06-.12-.06-.12a1,1,0,0,1-.07-.15,1,1,0,0,1-.09-.22.42.42,0,0,1,0-.1l-.06-.16,0-.09-.06-.18a6.2,6.2,0,0,1-.24-1.68V84Zm14.23,0v4a6,6,0,0,1-.24,1.69s0,.11,0,.17l0,.09-.06.16s0,.07,0,.11a1.22,1.22,0,0,0-.07.17l-.09.19-.06.11-.06.13a.75.75,0,0,0-.07.12l-.06.11-.08.12-.06.1-.09.13,0,.06a6.07,6.07,0,0,1-4.13,2.5h-.09l-.16,0h-1.09l-.16,0h-.09a6.05,6.05,0,0,1-4.13-2.5l0-.06-.09-.13-.06-.09-.08-.13-.06-.11a.75.75,0,0,0-.07-.12l-.06-.12-.06-.12a1,1,0,0,0-.07-.15l-.09-.22,0-.1-.06-.16,0-.09a1.21,1.21,0,0,0-.05-.18,5.83,5.83,0,0,1-.24-1.68V84ZM233.81,71.26h55.24l6.15,10.55H227.78Zm.45-2.3h54.62v-5H234.26Z" transform="translate(-5.2 -7)"/></g></g><g class="cls-2"><path class="cls-4" d="M357.89,105h0l-.15,0-.08,0-.14,0-.1,0-.2,0-.15,0h-1.11l-.15,0h-.11l-.15,0h0a5.52,5.52,0,0,1-3.54-2.21l-.06-.07a.61.61,0,0,0-.07-.1l-.1-.17a.35.35,0,0,1-.05-.08l0-.06a.21.21,0,0,1,0,.06.35.35,0,0,1-.05.08l-.1.17a.61.61,0,0,0-.07.1l-.06.07a5.52,5.52,0,0,1-3.54,2.21h0l-.15,0h-.11l-.15,0h-1l-.14,0h-.11l-.15,0h0a5.52,5.52,0,0,1-3.55-2.21l-.05-.07-.07-.1-.11-.17a.22.22,0,0,0-.05-.08l0-.06a.21.21,0,0,0,0,.06l-.05.08a1.63,1.63,0,0,1-.11.17.61.61,0,0,1-.07.1l0,.08-.09.11h0a5.54,5.54,0,0,1-3.45,2.09h0l-.15,0h-.12l-.14,0h-1l-.14,0h-.12l-.15,0h0a5.52,5.52,0,0,1-3.54-2.21l0-.07a.61.61,0,0,1-.07-.1,1.63,1.63,0,0,1-.11-.17l-.05-.08,0-.06,0,.06a.35.35,0,0,0-.05.08l-.11.17-.07.1a.22.22,0,0,0-.05.08l-.09.11h0a5.54,5.54,0,0,1-3.46,2.09h0l-.15,0h-.11l-.14,0h-1l-.15,0h-.11l-.15,0h0a5.57,5.57,0,0,1-3.55-2.21l-.05-.07a.61.61,0,0,0-.07-.1l-.1-.17-.06-.08,0-.06,0,.06a.35.35,0,0,1-.05.08l-.1.17a.61.61,0,0,0-.07.1l-.06.08a1,1,0,0,0-.08.11h0a5.59,5.59,0,0,1-3.46,2.09h0l-.15,0h-.11l-.15,0h-1.1l-.22,0-.13,0-.1,0-.14,0h-.08l-.26-.07-.07,0v18.86h4.65v-15a.74.74,0,0,1,.73-.74h9.6a.74.74,0,0,1,.73.74v15h25.88V104.92l-.17,0M354,118.91a.74.74,0,0,1-.73.74h-16a.73.73,0,0,1-.73-.74V108.78a.73.73,0,0,1,.73-.74h16a.74.74,0,0,1,.73.74Zm6.52-19.27a4.08,4.08,0,0,1-2.09,3.55l-.19.09,0,0-.22.09,0,0-.2.07h0a3,3,0,0,1-.49.13h0l-.23,0H355.9a4.06,4.06,0,0,1-2.78-1.68l0,0-.06-.09a.43.43,0,0,1,0-.07.56.56,0,0,1-.05-.08.2.2,0,0,1,0-.08l0-.07,0-.09a.3.3,0,0,1,0-.08l-.06-.12a.61.61,0,0,0,0-.12l0-.08,0-.1,0-.06,0-.12a3.88,3.88,0,0,1-.17-1.14V97h8.13Zm-37.91,24.15h8.12V109.51h-8.12Zm-6.28-20.49-.19-.1A4.07,4.07,0,0,1,314,99.64V97h8.13v2.67a3.88,3.88,0,0,1-.17,1.14l0,.12,0,.06,0,.1,0,.08a1.17,1.17,0,0,1,0,.11l-.06.13a.3.3,0,0,1,0,.08l0,.09,0,.07a.2.2,0,0,1,0,.08.56.56,0,0,1-.05.08.43.43,0,0,1,0,.07l-.06.09,0,0a4.08,4.08,0,0,1-2.78,1.68h-1.08l-.21,0h0a4.21,4.21,0,0,1-.48-.12l0,0-.18-.06-.06,0-.16-.06-.06,0M331.72,97v2.67a3.88,3.88,0,0,1-.17,1.14l0,.12,0,.06,0,.1,0,.08a1.17,1.17,0,0,1-.05.11l-.06.13,0,.08-.05.09,0,.07-.05.08a.22.22,0,0,1,0,.08l0,.07-.06.09,0,0a4.06,4.06,0,0,1-2.78,1.68h-1.07a4,4,0,0,1-2.78-1.69l0,0-.06-.09a.43.43,0,0,1,0-.07.22.22,0,0,1,0-.08.25.25,0,0,1,0-.07l-.05-.08,0-.09a.2.2,0,0,1,0-.08l-.05-.1-.06-.15,0-.07a.42.42,0,0,0,0-.1l0-.06,0-.12a3.88,3.88,0,0,1-.17-1.14V97Zm9.59,0v2.67a4.24,4.24,0,0,1-.16,1.14s0,.08,0,.12l0,.06a.42.42,0,0,1,0,.1l0,.08s0,.08,0,.11l-.06.13s0,.05,0,.08l0,.09,0,.07,0,.08-.05.08,0,.07-.06.09,0,0a4.1,4.1,0,0,1-2.78,1.68h-1.08a4.06,4.06,0,0,1-2.78-1.69l0,0-.06-.09,0-.07-.05-.08,0-.07a.56.56,0,0,0,0-.08l0-.09a.59.59,0,0,1,0-.08.47.47,0,0,0-.05-.1l-.06-.15,0-.07a.42.42,0,0,1,0-.1.14.14,0,0,1,0-.06.56.56,0,0,1,0-.12,3.88,3.88,0,0,1-.16-1.14V97Zm9.6,0v2.67a3.88,3.88,0,0,1-.17,1.14l0,.12,0,.06,0,.1,0,.08a1.17,1.17,0,0,1-.05.11l-.06.13a.3.3,0,0,1,0,.08l0,.09a.25.25,0,0,0,0,.07,184635340726.28,184635340726.28,0,0,0-.1.16.43.43,0,0,1,0,.07l-.06.09,0,0a4.06,4.06,0,0,1-2.78,1.68h-1.07a4.08,4.08,0,0,1-2.79-1.69l0,0-.06-.09a.16.16,0,0,1,0-.07.22.22,0,0,1,0-.08l-.05-.07a.59.59,0,0,0,0-.08l-.05-.09,0-.08a.47.47,0,0,1-.05-.1l-.06-.15,0-.07,0-.1s0,0,0-.06a.56.56,0,0,0,0-.12,4.24,4.24,0,0,1-.16-1.14V97Zm-32.32-8.58h37.23L360,95.5H314.53Zm.3-1.55H355.7v-3.4H318.89Z" transform="translate(-5.2 -7)"/></g><rect class="cls-1" x="299.8" y="69.44" width="64.5" height="48.35"/><g class="cls-2"><g class="cls-9"><path class="cls-4" d="M424.89,105h0l-.15,0-.08,0-.14,0-.1,0-.2,0-.15,0h-1.11l-.15,0h-.11l-.15,0h0a5.52,5.52,0,0,1-3.54-2.21l-.06-.07a.61.61,0,0,0-.07-.1l-.1-.17a.35.35,0,0,1-.05-.08l0-.06a.21.21,0,0,1,0,.06.35.35,0,0,1-.05.08l-.1.17a.61.61,0,0,0-.07.1l-.06.07a5.52,5.52,0,0,1-3.54,2.21h0l-.15,0h-.11l-.15,0h-1l-.14,0h-.11l-.15,0h0a5.52,5.52,0,0,1-3.55-2.21l-.05-.07-.07-.1-.11-.17a.22.22,0,0,0-.05-.08l0-.06a.21.21,0,0,0,0,.06l-.05.08a1.63,1.63,0,0,1-.11.17.61.61,0,0,1-.07.1l0,.08-.09.11h0a5.54,5.54,0,0,1-3.45,2.09h0l-.15,0h-.12l-.14,0h-1l-.14,0h-.12l-.15,0h0a5.52,5.52,0,0,1-3.54-2.21l0-.07a.61.61,0,0,1-.07-.1,1.63,1.63,0,0,1-.11-.17l-.05-.08,0-.06,0,.06a.35.35,0,0,0-.05.08l-.11.17-.07.1a.22.22,0,0,0-.05.08l-.09.11h0a5.54,5.54,0,0,1-3.46,2.09h0l-.15,0h-.11l-.14,0h-1l-.15,0h-.11l-.15,0h0a5.57,5.57,0,0,1-3.55-2.21l-.05-.07a.61.61,0,0,0-.07-.1l-.1-.17-.06-.08,0-.06,0,.06a.35.35,0,0,1-.05.08l-.1.17a.61.61,0,0,0-.07.1l-.06.08a1,1,0,0,0-.08.11h0a5.59,5.59,0,0,1-3.46,2.09h0l-.15,0h-.11l-.15,0h-1.1l-.22,0-.13,0-.1,0-.14,0h-.08l-.26-.07-.07,0v18.86h4.65v-15a.74.74,0,0,1,.73-.74h9.6a.74.74,0,0,1,.73.74v15h25.88V104.92l-.17,0M421,118.91a.74.74,0,0,1-.73.74h-16a.73.73,0,0,1-.73-.74V108.78a.73.73,0,0,1,.73-.74h16a.74.74,0,0,1,.73.74Zm6.52-19.27a4.08,4.08,0,0,1-2.09,3.55l-.19.09,0,0-.22.09,0,0-.2.07h0a3,3,0,0,1-.49.13h0l-.23,0H422.9a4.06,4.06,0,0,1-2.78-1.68l0,0-.06-.09a.43.43,0,0,1,0-.07.56.56,0,0,1-.05-.08.2.2,0,0,1,0-.08l0-.07,0-.09a.3.3,0,0,1,0-.08l-.06-.12a.61.61,0,0,0,0-.12l0-.08,0-.1,0-.06,0-.12a3.88,3.88,0,0,1-.17-1.14V97h8.13Zm-37.91,24.15h8.12V109.51h-8.12Zm-6.28-20.49-.19-.1A4.07,4.07,0,0,1,381,99.64V97h8.12v2.67a3.88,3.88,0,0,1-.16,1.14l0,.12,0,.06,0,.1,0,.08a1.17,1.17,0,0,1,0,.11l-.06.13a.3.3,0,0,1,0,.08l0,.09,0,.07a.2.2,0,0,1,0,.08.56.56,0,0,1-.05.08.43.43,0,0,1,0,.07l-.06.09,0,0a4.08,4.08,0,0,1-2.78,1.68h-1.08l-.21,0h0a3.74,3.74,0,0,1-.48-.12l0,0-.18-.06-.06,0-.16-.06-.06,0M398.72,97v2.67a3.88,3.88,0,0,1-.17,1.14l0,.12,0,.06,0,.1,0,.08a1.17,1.17,0,0,1-.05.11l-.06.13,0,.08-.05.09,0,.07-.05.08a.22.22,0,0,1,0,.08l0,.07-.06.09,0,0a4.06,4.06,0,0,1-2.78,1.68h-1.07a4,4,0,0,1-2.78-1.69l0,0-.06-.09a.43.43,0,0,1,0-.07.22.22,0,0,1,0-.08.25.25,0,0,1,0-.07l-.05-.08,0-.09a.2.2,0,0,1,0-.08l-.05-.1-.06-.15,0-.07a.42.42,0,0,0,0-.1l0-.06,0-.12a3.88,3.88,0,0,1-.17-1.14V97Zm9.59,0v2.67a4.24,4.24,0,0,1-.16,1.14s0,.08,0,.12l0,.06a.42.42,0,0,1,0,.1l0,.08s0,.08,0,.11l-.06.13s0,.05,0,.08l0,.09,0,.07,0,.08-.05.08,0,.07-.06.09,0,0a4.1,4.1,0,0,1-2.78,1.68h-1.08a4.06,4.06,0,0,1-2.78-1.69l0,0-.06-.09,0-.07-.05-.08,0-.07a.56.56,0,0,0,0-.08l0-.09a.59.59,0,0,1,0-.08.47.47,0,0,0-.05-.1l-.06-.15,0-.07a.42.42,0,0,1,0-.1.14.14,0,0,1,0-.06.56.56,0,0,1,0-.12,3.88,3.88,0,0,1-.16-1.14V97Zm9.6,0v2.67a3.88,3.88,0,0,1-.17,1.14l0,.12,0,.06,0,.1,0,.08a1.17,1.17,0,0,1-.05.11l-.06.13a.3.3,0,0,1,0,.08l0,.09a.25.25,0,0,0,0,.07,184635340726.33,184635340726.33,0,0,0-.1.16.43.43,0,0,1,0,.07l-.06.09,0,0a4.06,4.06,0,0,1-2.78,1.68h-1.07a4.08,4.08,0,0,1-2.79-1.69l0,0-.06-.09a.16.16,0,0,1,0-.07.22.22,0,0,1,0-.08l-.05-.07a.59.59,0,0,0,0-.08l-.05-.09,0-.08a.47.47,0,0,1-.05-.1l-.06-.15,0-.07,0-.1s0,0,0-.06a.56.56,0,0,0,0-.12,4.24,4.24,0,0,1-.16-1.14V97Zm-32.32-8.58h37.23L427,95.5H381.53Zm.3-1.55H422.7v-3.4H385.89Z" transform="translate(-5.2 -7)"/></g></g><g class="cls-2"><g class="cls-10"><path class="cls-4" d="M55.71,99.12l-6.25-4.86L50.77,93a2.63,2.63,0,0,0-3.72-3.72l-2.12,2.12L44.56,91a2.63,2.63,0,0,0-3.72,3.72l.36.37-1,1H14.5a5.51,5.51,0,0,0-5.5,5.5v9.13a2,2,0,0,0,4,0v-9.13a1.5,1.5,0,0,1,1.5-1.5H15v21a3,3,0,0,0,6,0v-6h1.79a11.48,11.48,0,0,0,17.42,0H42v6a3,3,0,0,0,6,0v-16h5.66a3.34,3.34,0,0,0,2.05-6" transform="translate(-5.2 -7)"/></g></g><path class="cls-4" d="M90.5,95.59h1v-3a5,5,0,0,0-5-5h-1v3a5,5,0,0,0,5,5" transform="translate(-5.2 -7)"/><path class="cls-4" d="M90.5,104.59h1v-3a5,5,0,0,0-5-5h-1v3a5,5,0,0,0,5,5" transform="translate(-5.2 -7)"/><path class="cls-4" d="M91.5,110.59a5,5,0,0,0-5-5h-1v3a5,5,0,0,0,5,5h1Z" transform="translate(-5.2 -7)"/><path class="cls-4" d="M94.5,92.59v3h1a5,5,0,0,0,5-5v-3h-1a5,5,0,0,0-5,5" transform="translate(-5.2 -7)"/><path class="cls-4" d="M94.5,101.59v3h1a5,5,0,0,0,5-5v-3h-1a5,5,0,0,0-5,5" transform="translate(-5.2 -7)"/><path class="cls-4" d="M94.5,110.59v3h1a5,5,0,0,0,5-5v-3h-1a5,5,0,0,0-5,5" transform="translate(-5.2 -7)"/><path class="cls-4" d="M91.5,121.09a1.5,1.5,0,0,0,3,0v-5.5h-3Z" transform="translate(-5.2 -7)"/><path class="cls-4" d="M87,85.59a1.5,1.5,0,0,0,1.5-1.5v-4a1.5,1.5,0,0,0-3,0v4a1.5,1.5,0,0,0,1.5,1.5" transform="translate(-5.2 -7)"/><path class="cls-4" d="M99,78.59a1.5,1.5,0,0,0-1.5,1.5v4a1.5,1.5,0,0,0,3,0v-4a1.5,1.5,0,0,0-1.5-1.5" transform="translate(-5.2 -7)"/><path class="cls-4" d="M93,88.59a1.5,1.5,0,0,0,1.5-1.5v-11a1.5,1.5,0,0,0-3,0v11a1.5,1.5,0,0,0,1.5,1.5" transform="translate(-5.2 -7)"/><path class="cls-4" d="M113.78,95.81l1,.26.78-2.9A5,5,0,0,0,112,87.05l-1-.26-.78,2.9a5,5,0,0,0,3.54,6.12" transform="translate(-5.2 -7)"/><path class="cls-4" d="M111.45,104.51l1,.25.78-2.89a5,5,0,0,0-3.53-6.13l-1-.26-.78,2.9a5,5,0,0,0,3.54,6.13" transform="translate(-5.2 -7)"/><path class="cls-4" d="M110.08,113.46l.78-2.9a5,5,0,0,0-3.53-6.12l-1-.26-.78,2.89a5,5,0,0,0,3.54,6.13Z" transform="translate(-5.2 -7)"/><path class="cls-4" d="M118.42,94l-.78,2.9,1,.26a5,5,0,0,0,6.12-3.54l.78-2.9-1-.26A5,5,0,0,0,118.42,94" transform="translate(-5.2 -7)"/><path class="cls-4" d="M116.09,102.64l-.78,2.9,1,.26a5,5,0,0,0,6.12-3.54l.78-2.89-1-.26a5,5,0,0,0-6.12,3.53" transform="translate(-5.2 -7)"/><path class="cls-4" d="M113.76,111.34l-.78,2.89,1,.26a5,5,0,0,0,6.12-3.53l.78-2.9-1-.26a5,5,0,0,0-6.12,3.54" transform="translate(-5.2 -7)"/><path class="cls-4" d="M108.14,120.7a1.5,1.5,0,0,0,2.9.78l1.42-5.31-2.89-.78Z" transform="translate(-5.2 -7)"/><path class="cls-4" d="M113,85.25a1.5,1.5,0,0,0,1.84-1.06l1-3.87a1.5,1.5,0,1,0-2.9-.77l-1,3.86A1.51,1.51,0,0,0,113,85.25" transform="translate(-5.2 -7)"/><path class="cls-4" d="M126.39,81.59a1.5,1.5,0,0,0-1.84,1.06l-1,3.86a1.5,1.5,0,1,0,2.89.78l1-3.86a1.51,1.51,0,0,0-1.06-1.84" transform="translate(-5.2 -7)"/><path class="cls-4" d="M118,89.7a1.5,1.5,0,0,0,1.84-1.06L122.69,78a1.5,1.5,0,1,0-2.9-.77l-2.85,10.62A1.51,1.51,0,0,0,118,89.7" transform="translate(-5.2 -7)"/><path class="cls-4" d="M187,86.09c-7.53,0-13,5-13,12a2,2,0,1,0,4,0,7.86,7.86,0,0,1,4-7v31a2,2,0,1,0,4,0v-15h2v15a2,2,0,1,0,4,0v-31a7.85,7.85,0,0,1,4,7,2,2,0,1,0,4,0c0-7-5.47-12-13-12" transform="translate(-5.2 -7)"/><path class="cls-4" d="M187,84.09a4,4,0,1,0-4-4,4,4,0,0,0,4,4" transform="translate(-5.2 -7)"/><path class="cls-4" d="M238.51,49.52a8.35,8.35,0,1,1,8.35-8.35,8.36,8.36,0,0,1-8.35,8.35M251,39.38h-.74a11.94,11.94,0,0,0-2.19-5.27l.53-.53a1.79,1.79,0,1,0-2.53-2.53l-.53.53a12,12,0,0,0-5.27-2.19v-.74a1.79,1.79,0,0,0-3.58,0v.74a12,12,0,0,0-5.28,2.19l-.53-.53a1.79,1.79,0,1,0-2.53,2.53l.53.53a11.81,11.81,0,0,0-2.18,5.27H226A1.79,1.79,0,1,0,226,43h.75a11.85,11.85,0,0,0,2.18,5.28l-.53.53a1.79,1.79,0,0,0,1.27,3,1.76,1.76,0,0,0,1.26-.52l.53-.53A11.85,11.85,0,0,0,236.72,53v.75a1.79,1.79,0,0,0,3.58,0V53a11.86,11.86,0,0,0,5.27-2.18l.53.53a1.79,1.79,0,1,0,2.53-2.53l-.53-.53A12,12,0,0,0,250.29,43H251a1.79,1.79,0,0,0,0-3.58" transform="translate(-5.2 -7)"/><path class="cls-4" d="M287.72,42.69a8.35,8.35,0,1,1,8.35-8.35,8.36,8.36,0,0,1-8.35,8.35m12.52-10.14h-.74a11.83,11.83,0,0,0-2.19-5.27l.53-.53a1.79,1.79,0,0,0-2.53-2.53l-.53.53a11.72,11.72,0,0,0-5.27-2.19v-.75a1.79,1.79,0,1,0-3.58,0v.75a11.72,11.72,0,0,0-5.27,2.19l-.53-.53a1.79,1.79,0,0,0-2.54,2.53l.54.53a11.72,11.72,0,0,0-2.19,5.27h-.75a1.79,1.79,0,0,0,0,3.58h.75a11.72,11.72,0,0,0,2.19,5.27l-.54.53a1.79,1.79,0,1,0,2.54,2.53l.53-.53a11.83,11.83,0,0,0,5.27,2.19v.74a1.79,1.79,0,1,0,3.58,0v-.74a11.83,11.83,0,0,0,5.27-2.19l.53.53a1.79,1.79,0,1,0,2.53-2.53l-.53-.53a11.83,11.83,0,0,0,2.19-5.27h.74a1.79,1.79,0,0,0,0-3.58" transform="translate(-5.2 -7)"/><path class="cls-4" d="M265,55.11a6.27,6.27,0,1,1,6.27-6.27A6.28,6.28,0,0,1,265,55.11m9.41-7.61h-.56a8.9,8.9,0,0,0-1.65-4l.4-.4a1.33,1.33,0,0,0,0-1.9,1.35,1.35,0,0,0-1.9,0l-.4.4A8.9,8.9,0,0,0,266.36,40v-.56a1.35,1.35,0,0,0-2.69,0V40a8.89,8.89,0,0,0-4,1.64l-.4-.4a1.34,1.34,0,1,0-1.9,1.9l.4.4a8.89,8.89,0,0,0-1.64,4h-.56a1.35,1.35,0,1,0,0,2.69h.56a8.9,8.9,0,0,0,1.64,4l-.4.4a1.34,1.34,0,1,0,1.9,1.9l.4-.4a8.79,8.79,0,0,0,4,1.65v.56a1.35,1.35,0,0,0,2.69,0v-.56A8.8,8.8,0,0,0,270.31,56l.4.4a1.32,1.32,0,0,0,1,.4,1.35,1.35,0,0,0,.95-2.3l-.4-.4a8.91,8.91,0,0,0,1.65-4h.56a1.35,1.35,0,0,0,0-2.69" transform="translate(-5.2 -7)"/><path class="cls-4" d="M260.91,33.24A6.27,6.27,0,1,1,267.18,27a6.27,6.27,0,0,1-6.27,6.27m9.41-7.61h-.56a8.9,8.9,0,0,0-1.65-4l.4-.4a1.33,1.33,0,0,0,0-1.9,1.35,1.35,0,0,0-1.9,0l-.4.4a8.78,8.78,0,0,0-4-1.64v-.56a1.34,1.34,0,1,0-2.68,0v.56a8.78,8.78,0,0,0-4,1.64l-.4-.4a1.34,1.34,0,1,0-1.9,1.9l.4.4a8.78,8.78,0,0,0-1.64,4h-.56a1.34,1.34,0,1,0,0,2.68h.56a8.78,8.78,0,0,0,1.64,4l-.4.4a1.34,1.34,0,0,0,1.9,1.9l.4-.4a8.78,8.78,0,0,0,4,1.64v.56a1.34,1.34,0,1,0,2.68,0v-.56a8.78,8.78,0,0,0,4-1.64l.4.4a1.35,1.35,0,0,0,1.9,0,1.33,1.33,0,0,0,0-1.9l-.4-.4a8.9,8.9,0,0,0,1.65-4h.56a1.34,1.34,0,1,0,0-2.68" transform="translate(-5.2 -7)"/><path class="cls-4" d="M452.14,60.63l7.49,7.5a1.23,1.23,0,0,0,.91.36,1.12,1.12,0,0,0,.84-.33l11.3-11.3v5.35a1.26,1.26,0,0,0,2.52,0V53.82a1.27,1.27,0,0,0-1.26-1.26h-8.39a1.26,1.26,0,1,0,0,2.52h5.35L460.52,65.46,453.08,58a1.27,1.27,0,0,0-.94-.36,1.24,1.24,0,0,0-.94.36L435.31,73.89a1.26,1.26,0,0,0,0,1.78,1.24,1.24,0,0,0,1.78,0Z" transform="translate(-5.2 -7)"/><path class="cls-4" d="M444.62,80.54h-6.68a1.53,1.53,0,0,0-1.69,1.29V93.39a1.53,1.53,0,0,0,1.69,1.29h6.68a1.53,1.53,0,0,0,1.69-1.29V81.83a1.53,1.53,0,0,0-1.69-1.29" transform="translate(-5.2 -7)"/><path class="cls-4" d="M459.72,73.47h-6.6a1.53,1.53,0,0,0-1.69,1.29V93.39a1.53,1.53,0,0,0,1.69,1.29h6.6a1.54,1.54,0,0,0,1.69-1.29V74.76a1.54,1.54,0,0,0-1.69-1.29" transform="translate(-5.2 -7)"/><path class="cls-4" d="M474.81,66.4h-6.69a1.52,1.52,0,0,0-1.68,1.29v25.7a1.52,1.52,0,0,0,1.68,1.29h6.69a1.54,1.54,0,0,0,1.69-1.29V67.69a1.54,1.54,0,0,0-1.69-1.29" transform="translate(-5.2 -7)"/><path class="cls-4" d="M389.5,55.59a3,3,0,1,1,3-3,3,3,0,0,1-3,3m-16,4a7,7,0,1,1,7-7,7,7,0,0,1-7,7m-16-4a3,3,0,1,1,3-3,3,3,0,0,1-3,3m38-13H351.47a1,1,0,0,0-1,1V61.62a1,1,0,0,0,1,1h44.06a1,1,0,0,0,1-1V43.56a1,1,0,0,0-1-1" transform="translate(-5.2 -7)"/><path class="cls-4" d="M394,69.64H354.62l1.4-1.4a1.5,1.5,0,0,0-2.13-2.12l-3.95,3.95a1.56,1.56,0,0,0-.33.5v0a1.41,1.41,0,0,0,0,1.09v0a1.63,1.63,0,0,0,.33.49l3.95,4a1.51,1.51,0,0,0,2.13,0A1.51,1.51,0,0,0,356,74l-1.4-1.39H394a1.5,1.5,0,0,0,0-3" transform="translate(-5.2 -7)"/><path class="cls-4" d="M397.39,33.5v0a1.56,1.56,0,0,0-.33-.5L393.11,29A1.51,1.51,0,0,0,391,29a1.51,1.51,0,0,0,0,2.12l1.4,1.4H353a1.5,1.5,0,0,0,0,3h39.38L391,36.94a1.5,1.5,0,0,0,2.13,2.12l3.95-4a1.63,1.63,0,0,0,.33-.49v0a1.41,1.41,0,0,0,0-1.09" transform="translate(-5.2 -7)"/><g class="cls-2"><g class="cls-11"><path class="cls-4" d="M486.88,109.59l-7.18,7.18a4.12,4.12,0,0,0,5.82,5.82l7.18-7.18a24,24,0,0,1-5.82-5.82" transform="translate(-5.2 -7)"/><path class="cls-4" d="M517.5,106a15,15,0,0,1-26-10.18,15,15,0,1,1,26,10.18m-11-30.18a20,20,0,1,0,20,20,20,20,0,0,0-20-20" transform="translate(-5.2 -7)"/><path class="cls-4" d="M517.91,94.38l-6-6a2,2,0,1,0-2.82,2.83l2.58,2.58H496.5a2,2,0,0,0,0,4h15.17l-2.58,2.59a2,2,0,0,0,0,2.83,2,2,0,0,0,2.82,0l6-6a2,2,0,0,0,0-2.83" transform="translate(-5.2 -7)"/></g></g><rect class="cls-4" y="115.42" width="524.55" height="2"/></g></g></svg>