<svg xmlns="http://www.w3.org/2000/svg" xmlns:xlink="http://www.w3.org/1999/xlink" viewBox="0 0 524.55 89.74"><defs><style>.cls-1,.cls-8{fill:none;}.cls-2{clip-path:url(#clip-path);}.cls-3{opacity:0.5;}.cls-4{clip-path:url(#clip-path-3);}.cls-5{fill:#fff;}.cls-6{clip-path:url(#clip-path-4);}.cls-7{clip-path:url(#clip-path-5);}.cls-8{stroke:#fff;stroke-width:2px;}</style><clipPath id="clip-path" transform="translate(-12.38 -11.21)"><rect class="cls-1" x="12.38" y="11.21" width="524.55" height="89.74"/></clipPath><clipPath id="clip-path-3" transform="translate(-12.38 -11.21)"><rect class="cls-1" x="131" y="32.58" width="87" height="67.87"/></clipPath><clipPath id="clip-path-4" transform="translate(-12.38 -11.21)"><rect class="cls-1" x="329" y="32.58" width="87" height="67.87"/></clipPath><clipPath id="clip-path-5" transform="translate(-12.38 -11.21)"><rect class="cls-1" width="91.63" height="100.45"/></clipPath></defs><title>cbt2</title><g id="Layer_2" data-name="Layer 2"><g id="Layer_1-2" data-name="Layer 1"><g class="cls-2"><g class="cls-2"><g class="cls-3"><g class="cls-4"><path class="cls-5" d="M205.13,71.52h0l-.23,0-.11,0-.22,0-.14,0-.29,0-.24,0h-.15l-.24,0h-1l-.28,0-.21,0-.17,0-.22,0h0a8.26,8.26,0,0,1-5.26-3.28l-.07-.11-.11-.15c0-.08-.11-.16-.16-.25l-.07-.12-.06-.09a.41.41,0,0,1,0,.09l-.07.12-.16.25-.11.15a.76.76,0,0,1-.08.11,8.21,8.21,0,0,1-5.25,3.28h0l-.22,0-.17,0-.22,0-.27,0h-1l-.28,0-.21,0-.17,0-.23,0h0a8.21,8.21,0,0,1-5.25-3.28L182,68.3l-.11-.15-.15-.25-.08-.13a.22.22,0,0,1,0-.08l-.06.09a.75.75,0,0,1-.07.12c-.05.08-.1.17-.16.25l-.1.15a.76.76,0,0,0-.08.11l-.13.17h0a8.23,8.23,0,0,1-5.13,3.11h0l-.22,0-.17,0-.21,0-.28,0h-1l-.28,0-.21,0-.17,0-.22,0h0a8.21,8.21,0,0,1-5.26-3.28l-.07-.11-.11-.15a2.13,2.13,0,0,1-.16-.25l-.08-.13-.05-.08,0,.09-.08.12-.15.25-.11.15a.76.76,0,0,1-.08.11l-.12.17h0a8.21,8.21,0,0,1-5.12,3.11h0l-.23,0-.16,0-.22,0-.27,0h-1l-.27,0-.22,0-.16,0-.23,0h0a8.26,8.26,0,0,1-5.26-3.28l-.07-.11-.11-.15-.15-.25a.57.57,0,0,1-.08-.13.22.22,0,0,1,0-.08l-.06.09-.07.12-.16.25-.1.15a.76.76,0,0,0-.08.11l-.13.17h0a8.26,8.26,0,0,1-5.13,3.11h0l-.22,0-.17,0-.21,0-.28,0h-1l-.24,0h-.14l-.32,0-.2,0-.14,0-.21,0-.13,0-.37-.1-.12,0v28h6.91V77.17a1.09,1.09,0,0,1,1.09-1.09h14.23A1.09,1.09,0,0,1,167,77.17V99.45h38.41v-28l-.26.08m-5.8,20.69a1.09,1.09,0,0,1-1.09,1.09H174.5a1.09,1.09,0,0,1-1.09-1.09v-15a1.09,1.09,0,0,1,1.09-1.09h23.74a1.09,1.09,0,0,1,1.09,1.09ZM209,63.61a6,6,0,0,1-3.11,5.27l-.27.14h0l-.33.15-.06,0-.29.11-.06,0a5.42,5.42,0,0,1-.72.19h0l-.34.06h-.08l-.28,0h-1l-.16,0h-.09a6.09,6.09,0,0,1-4.13-2.5l0-.06-.09-.13-.06-.1-.08-.12-.06-.11a.75.75,0,0,1-.07-.12l-.06-.13-.06-.11a1.42,1.42,0,0,1-.08-.18,1.08,1.08,0,0,1-.08-.19s0-.07,0-.11l-.06-.15,0-.09a1.21,1.21,0,0,1-.05-.18,5.85,5.85,0,0,1-.25-1.69v-4H209ZM152.74,99.45H164.8V78.26H152.74ZM143.42,69c-.09-.05-.19-.09-.28-.15A6,6,0,0,1,140,63.61v-4h12.06v4a5.85,5.85,0,0,1-.25,1.69.84.84,0,0,1-.05.17l0,.1-.06.15s0,.08,0,.12,0,.11-.07.17l-.09.19a.54.54,0,0,0-.05.11.83.83,0,0,0-.07.13.75.75,0,0,1-.07.12l-.06.11-.08.12-.06.1L151,67a.21.21,0,0,1,0,.06,6.09,6.09,0,0,1-4.13,2.5h-.09l-.16,0h-1l-.28,0h-.09l-.3,0h0c-.24,0-.48-.11-.71-.18l-.06,0-.26-.1-.1,0-.24-.1-.09,0m22.87-9.39v4a5.85,5.85,0,0,1-.24,1.69,1.54,1.54,0,0,0-.05.17.3.3,0,0,1,0,.1.88.88,0,0,1-.05.15.61.61,0,0,1,0,.12l-.06.17-.09.19-.06.11a.83.83,0,0,1-.07.13l-.06.12-.07.11a.75.75,0,0,1-.07.12l-.06.1-.09.13,0,.06a6.11,6.11,0,0,1-4.13,2.5H161l-.16,0h-1.09l-.16,0h-.09a6.06,6.06,0,0,1-4.13-2.51.1.1,0,0,1,0,0l-.09-.13-.06-.1-.08-.12-.06-.11-.07-.12-.06-.12-.06-.12s0-.1-.07-.16l-.09-.21a1,1,0,0,0,0-.1l-.06-.17,0-.08c0-.06,0-.12-.05-.18a5.85,5.85,0,0,1-.24-1.69v-4Zm14.24,0v4a5.85,5.85,0,0,1-.25,1.69.84.84,0,0,1-.05.17l0,.1a.88.88,0,0,0,0,.15l-.05.12s0,.11-.07.17l-.09.19-.05.11-.07.13-.06.12a.41.41,0,0,0-.07.11l-.07.12-.07.1-.08.13-.05.06a6.07,6.07,0,0,1-4.12,2.5h-.1l-.15,0H174l-.15,0h-.1a6.08,6.08,0,0,1-4.13-2.51l0,0a1.13,1.13,0,0,1-.1-.13s0-.07-.05-.1l-.08-.12-.06-.11a.75.75,0,0,1-.07-.12l-.06-.12-.06-.12A.77.77,0,0,1,169,66l-.09-.21a.69.69,0,0,1,0-.1l-.06-.17,0-.08-.06-.18a6.22,6.22,0,0,1-.24-1.69v-4Zm14.23,0v4a5.85,5.85,0,0,1-.24,1.69c0,.06,0,.12-.05.17l0,.1-.06.15,0,.12a.87.87,0,0,0-.07.17l-.09.19-.06.11-.06.13-.07.12-.06.11-.08.12-.06.1-.09.13,0,.06a6.09,6.09,0,0,1-4.13,2.5h-.09l-.16,0h-1.09l-.16,0h-.09a6.06,6.06,0,0,1-4.13-2.51l0,0-.09-.13-.06-.1-.07-.12-.07-.11a.75.75,0,0,0-.07-.12l-.06-.12-.06-.12-.07-.16-.09-.21a1,1,0,0,0,0-.1l-.06-.17,0-.08a1.21,1.21,0,0,0-.05-.18,5.85,5.85,0,0,1-.24-1.69v-4ZM146.81,46.91h55.24l6.15,10.56H140.78Zm.45-2.29h54.62v-5H147.26Z" transform="translate(-12.38 -11.21)"/></g></g><g class="cls-3"><g class="cls-6"><path class="cls-5" d="M403.13,71.52h0l-.23,0-.11,0-.22,0-.14,0-.29,0-.24,0h-.15l-.24,0h-1l-.28,0-.21,0-.17,0-.22,0h0a8.26,8.26,0,0,1-5.26-3.28l-.07-.11-.11-.15c-.05-.08-.11-.16-.16-.25l-.07-.12-.06-.09a.41.41,0,0,1-.05.09l-.07.12-.16.25-.11.15a.76.76,0,0,1-.08.11,8.21,8.21,0,0,1-5.25,3.28h0l-.22,0-.17,0-.22,0-.27,0h-1l-.28,0-.21,0-.17,0-.23,0h0a8.21,8.21,0,0,1-5.25-3.28L380,68.3l-.11-.15-.15-.25-.08-.13-.05-.08-.06.09a.75.75,0,0,1-.07.12c-.05.08-.1.17-.16.25l-.1.15a.76.76,0,0,0-.08.11l-.13.17h0a8.23,8.23,0,0,1-5.13,3.11h0l-.22,0-.17,0-.21,0-.28,0h-1l-.28,0-.21,0-.17,0-.22,0h0a8.21,8.21,0,0,1-5.26-3.28l-.07-.11-.11-.15a2.13,2.13,0,0,1-.16-.25l-.08-.13-.05-.08-.05.09-.08.12-.15.25-.11.15a.76.76,0,0,1-.08.11l-.12.17h0a8.21,8.21,0,0,1-5.12,3.11h0l-.23,0-.16,0-.22,0-.27,0h-1l-.27,0-.22,0-.16,0-.23,0h0a8.26,8.26,0,0,1-5.26-3.28l-.07-.11-.11-.15-.15-.25a.57.57,0,0,1-.08-.13.22.22,0,0,1-.05-.08l-.06.09-.07.12-.16.25-.1.15a.76.76,0,0,0-.08.11l-.13.17h0a8.26,8.26,0,0,1-5.13,3.11h0l-.22,0-.17,0-.21,0-.28,0h-1l-.24,0h-.14l-.32,0-.2,0-.14,0-.21,0-.13,0-.37-.1-.12,0v28h6.91V77.17a1.09,1.09,0,0,1,1.09-1.09h14.23A1.09,1.09,0,0,1,365,77.17V99.45h38.41v-28l-.26.08m-5.8,20.69a1.09,1.09,0,0,1-1.09,1.09H372.5a1.09,1.09,0,0,1-1.09-1.09v-15a1.09,1.09,0,0,1,1.09-1.09h23.74a1.09,1.09,0,0,1,1.09,1.09ZM407,63.61a6,6,0,0,1-3.11,5.27l-.27.14h0c-.11.06-.22.1-.33.15l-.06,0-.29.11-.06,0a5.42,5.42,0,0,1-.72.19h0l-.34.06h-.08l-.28,0h-1l-.16,0h-.09a6.09,6.09,0,0,1-4.13-2.5l0-.06-.09-.13-.06-.1-.08-.12-.06-.11a.75.75,0,0,1-.07-.12l-.06-.13-.06-.11a1.42,1.42,0,0,1-.08-.18,1.08,1.08,0,0,1-.08-.19s0-.07,0-.11l-.06-.15,0-.09a1.21,1.21,0,0,1-.05-.18,5.85,5.85,0,0,1-.25-1.69v-4H407ZM350.74,99.45H362.8V78.26H350.74ZM341.42,69c-.09-.05-.19-.09-.28-.15A6,6,0,0,1,338,63.61v-4h12.06v4a5.85,5.85,0,0,1-.25,1.69.84.84,0,0,1-.05.17l0,.1-.06.15s0,.08,0,.12-.05.11-.07.17l-.09.19a.54.54,0,0,0-.05.11.83.83,0,0,0-.07.13.75.75,0,0,1-.07.12l-.06.11-.08.12-.06.1L349,67a.21.21,0,0,1,0,.06,6.09,6.09,0,0,1-4.13,2.5h-.09l-.16,0h-1l-.28,0h-.09l-.3,0h0c-.24,0-.48-.11-.71-.18l-.06,0-.26-.1-.1,0-.24-.1-.09,0m22.87-9.39v4a5.85,5.85,0,0,1-.24,1.69,1.54,1.54,0,0,0-.05.17.3.3,0,0,1,0,.1.88.88,0,0,1,0,.15.61.61,0,0,1-.05.12l-.06.17-.09.19-.06.11a.83.83,0,0,1-.07.13l-.06.12-.07.11a.75.75,0,0,1-.07.12l-.06.1-.09.13,0,.06a6.11,6.11,0,0,1-4.13,2.5H359l-.16,0h-1.09l-.16,0h-.09a6.06,6.06,0,0,1-4.13-2.51.1.1,0,0,1,0,0l-.09-.13-.06-.1-.08-.12-.06-.11-.07-.12-.06-.12-.06-.12s-.05-.1-.07-.16l-.09-.21a1,1,0,0,0,0-.1l-.06-.17,0-.08c0-.06,0-.12,0-.18a5.85,5.85,0,0,1-.24-1.69v-4Zm14.24,0v4a5.85,5.85,0,0,1-.25,1.69.84.84,0,0,1,0,.17l0,.1a.88.88,0,0,0-.05.15l0,.12s0,.11-.07.17l-.09.19-.05.11-.07.13-.06.12a.41.41,0,0,0-.07.11l-.07.12-.07.1-.08.13-.05.06a6.07,6.07,0,0,1-4.12,2.5h-.1l-.15,0H372l-.15,0h-.1a6.08,6.08,0,0,1-4.13-2.51l0,0a1.13,1.13,0,0,1-.1-.13s0-.07-.05-.1a.83.83,0,0,1-.08-.12l-.06-.11a.75.75,0,0,1-.07-.12l-.06-.12-.06-.12A.77.77,0,0,1,367,66l-.09-.21a.69.69,0,0,1,0-.1l-.06-.17,0-.08-.06-.18a6.22,6.22,0,0,1-.24-1.69v-4Zm14.23,0v4a5.85,5.85,0,0,1-.24,1.69c0,.06,0,.12,0,.17l0,.1-.06.15,0,.12a.87.87,0,0,0-.07.17l-.09.19-.06.11-.06.13-.07.12-.06.11-.08.12-.06.1-.09.13,0,.06a6.09,6.09,0,0,1-4.13,2.5h-.09l-.16,0h-1.09l-.16,0h-.09a6.06,6.06,0,0,1-4.13-2.51l0,0-.09-.13-.06-.1-.07-.12-.07-.11a.75.75,0,0,0-.07-.12l-.06-.12-.06-.12-.07-.16-.09-.21a1,1,0,0,0,0-.1l-.06-.17,0-.08a1.21,1.21,0,0,0-.05-.18,5.85,5.85,0,0,1-.24-1.69v-4ZM344.81,46.91h55.24l6.15,10.56H338.78Zm.45-2.29h54.62v-5H345.26Z" transform="translate(-12.38 -11.21)"/></g></g><path class="cls-5" d="M240.53,88.91v1.58a1.59,1.59,0,0,1-3.17,0V88.91h-.52a1.59,1.59,0,0,1,0-3.17H240a1.58,1.58,0,0,0,1.63-1.55A1.59,1.59,0,0,0,240,82.58H239a4.74,4.74,0,0,1-1.65-9.2V71.51a1.59,1.59,0,0,1,3.17,0v1.58h1.58a1.59,1.59,0,0,1,0,3.17H239a1.58,1.58,0,1,0,0,3.16H240a4.76,4.76,0,0,1,4.79,4.71,4.81,4.81,0,0,1-4.21,4.78m16.71-10L249,62.55H230l-8.27,16.33a14.75,14.75,0,0,0,13.55,20.57h8.43A14.55,14.55,0,0,0,254.25,95a14.72,14.72,0,0,0,3-16.11" transform="translate(-12.38 -11.21)"/><path class="cls-5" d="M230,60.44h8.43l-1.73-7.83A2.12,2.12,0,0,0,234.62,51h-5.69a1.06,1.06,0,0,0-1,1.29Z" transform="translate(-12.38 -11.21)"/><path class="cls-5" d="M244.74,60.44H249l2.09-10.35A1.06,1.06,0,0,0,250,48.85h-3.15a2.13,2.13,0,0,0-2.11,2.1,2.12,2.12,0,0,0-2.1-2.1h-3.16a1,1,0,0,0-1,1.24l2.08,10.35Z" transform="translate(-12.38 -11.21)"/><path class="cls-5" d="M279.55,91.39V92.6a1.21,1.21,0,0,1-2.42,0V91.39h-.4a1.21,1.21,0,1,1,0-2.41h2.37a1.21,1.21,0,1,0,0-2.42h-.71a3.62,3.62,0,0,1-1.26-7V78.1a1.21,1.21,0,1,1,2.42,0v1.21h1.2a1.21,1.21,0,0,1,0,2.42h-2.36a1.21,1.21,0,1,0,0,2.41h.71a3.64,3.64,0,0,1,.45,7.25m12.76-7.66L286,71.26h-14.5l-6.32,12.47A11.24,11.24,0,0,0,267.45,96a11.11,11.11,0,0,0,8.07,3.41H282A11.11,11.11,0,0,0,290,96a11.24,11.24,0,0,0,2.28-12.31" transform="translate(-12.38 -11.21)"/><path class="cls-5" d="M271.49,69.64h6.44l-1.33-6A1.61,1.61,0,0,0,275,62.39h-4.35a.81.81,0,0,0-.78,1Z" transform="translate(-12.38 -11.21)"/><path class="cls-5" d="M282.77,69.64H286l1.59-7.91a.81.81,0,0,0-.79-.95h-2.41a1.65,1.65,0,0,0-1.62,1.61,1.63,1.63,0,0,0-1.6-1.61h-2.42a.81.81,0,0,0-.79.95l1.59,7.91Z" transform="translate(-12.38 -11.21)"/><path class="cls-5" d="M312.06,93.89v.84a.83.83,0,0,1-.83.83.84.84,0,0,1-.84-.83v-.84h-.27a.83.83,0,1,1,0-1.66h1.63a.84.84,0,1,0,0-1.67h-.49a2.5,2.5,0,0,1-.87-4.85v-1a.84.84,0,0,1,.84-.83.83.83,0,0,1,.83.83v.83h.83a.84.84,0,1,1,0,1.67h-1.63a.86.86,0,0,0-.87.84.85.85,0,0,0,.87.82h.49a2.51,2.51,0,0,1,.31,5m8.8-5.28L316.5,80h-10l-4.36,8.6a7.76,7.76,0,0,0,1.58,8.49,7.66,7.66,0,0,0,5.56,2.35h4.45a7.77,7.77,0,0,0,7.13-10.84" transform="translate(-12.38 -11.21)"/><path class="cls-5" d="M306.5,78.9H311L310,74.77A1.1,1.1,0,0,0,309,73.9h-3a.56.56,0,0,0-.55.67Z" transform="translate(-12.38 -11.21)"/><path class="cls-5" d="M314.28,78.9h2.22l1.1-5.46a.55.55,0,0,0-.55-.65h-1.66a1.11,1.11,0,1,1-2.22,0h-1.66a.55.55,0,0,0-.55.65l1.1,5.46Z" transform="translate(-12.38 -11.21)"/><path class="cls-5" d="M317.82,46.59l-.3,0a1.88,1.88,0,0,0-1,.51l-4.75,4.75a1.94,1.94,0,0,0,.05,2.73,2,2,0,0,0,1.42.59,1.84,1.84,0,0,0,1.31-.54l4.75-4.75a1.85,1.85,0,0,0,.51-1,2,2,0,0,0-.57-1.72,2,2,0,0,0-1.41-.59" transform="translate(-12.38 -11.21)"/><path class="cls-5" d="M303.22,37.3,305,35.57a1.86,1.86,0,0,0,.5-1,2,2,0,0,0-.56-1.71,2.06,2.06,0,0,0-1-.54,2.31,2.31,0,0,0-.46,0,1.91,1.91,0,0,0-1.31.53l-2.63,2.64-2.12,2.11a1.94,1.94,0,0,0,.06,2.73,2,2,0,0,0,1.41.59,1.87,1.87,0,0,0,1.31-.53Z" transform="translate(-12.38 -11.21)"/><path class="cls-5" d="M316.55,21.85l-.27.27-3.65,3.65-.14.14-1.42,1.41a3.81,3.81,0,0,1-2.71,1.11l-.34,0h-.13a3.81,3.81,0,0,1-2.24-6.49l8.14-8.13c.2-.2.41-.4.62-.58a13.38,13.38,0,0,0-16.48,20.86l.11.12,2.77-2.77a3.74,3.74,0,0,1,2.66-1.09,4,4,0,0,1,2.79,1.15,4,4,0,0,1,1.15,2.7,3.46,3.46,0,0,1-.14,1.07,3.29,3.29,0,0,1,1-.13A3.91,3.91,0,0,1,312.19,39a3.18,3.18,0,0,1-.14,1.07,3.64,3.64,0,0,1,1-.13A3.91,3.91,0,0,1,317,43.73a3.18,3.18,0,0,1-.14,1.07,3.64,3.64,0,0,1,1-.13,3.93,3.93,0,0,1,3.93,3.84,3.85,3.85,0,0,1-.34,1.69,3,3,0,0,0,1.1.22,2.88,2.88,0,0,0,2.5-4.27,2.85,2.85,0,0,0,1.51.44,2.9,2.9,0,0,0,2-.84,2.85,2.85,0,0,0,.4-3.55,2.79,2.79,0,0,0,1.4.37,2.83,2.83,0,0,0,2-.84,2.86,2.86,0,0,0,0-4Z" transform="translate(-12.38 -11.21)"/><path class="cls-5" d="M310.24,39.33a2,2,0,0,0-2-2.3l-.3,0a1.83,1.83,0,0,0-1,.5l-4.76,4.76a1.94,1.94,0,0,0,.06,2.72,2,2,0,0,0,1.42.59A1.91,1.91,0,0,0,305,45.1l4.75-4.75a1.84,1.84,0,0,0,.51-1" transform="translate(-12.38 -11.21)"/><path class="cls-5" d="M315,44.11a2,2,0,0,0-2-2.3,1.53,1.53,0,0,0-.3,0,1.85,1.85,0,0,0-1,.51L307,47.1a1.93,1.93,0,0,0,0,2.72,2,2,0,0,0,1.42.6,1.9,1.9,0,0,0,1.31-.54l4.75-4.75a1.84,1.84,0,0,0,.51-1" transform="translate(-12.38 -11.21)"/><path class="cls-5" d="M334.08,15.13a13.42,13.42,0,0,0-14.51-2.94A13.64,13.64,0,0,0,316,14.34c-.29.25-.58.51-.86.79L307,23.26a1.92,1.92,0,0,0,0,2.7,1.92,1.92,0,0,0,2.71,0l7-7,2.43,2.42,13.73,13.74a13.75,13.75,0,0,0,1.15-1,13.38,13.38,0,0,0,0-18.93" transform="translate(-12.38 -11.21)"/><g class="cls-3"><g class="cls-7"><path class="cls-5" d="M54.82,38.21a1.8,1.8,0,1,1-3.6,0v-5.4a1.8,1.8,0,1,1,3.6,0Zm0,7.44a7,7,0,0,1-7,7h-.23v-2a7,7,0,0,1,7-7h.23Zm0,10.81a7,7,0,0,1-7,7h-.23v-2a7,7,0,0,1,7-7h.23Zm-9-12.84h-.07A1.76,1.76,0,0,1,44,41.85V29.17a1.76,1.76,0,0,1,1.76-1.76h.07a1.77,1.77,0,0,1,1.77,1.76V41.85a1.77,1.77,0,0,1-1.77,1.77m-1.83,9h-.24a7,7,0,0,1-7-7v-2h.24a7,7,0,0,1,7,7Zm0,10.81h-.24a7,7,0,0,1-7-7v-2h.24a7,7,0,0,1,7,7ZM36.81,32.81a1.8,1.8,0,1,1,3.6,0v5.4a1.8,1.8,0,1,1-3.6,0Zm34.22-9H20.6a3.61,3.61,0,0,0-3.6,3.6V67H74.63V27.41a3.61,3.61,0,0,0-3.6-3.6" transform="translate(-12.38 -11.21)"/><path class="cls-5" d="M27.81,20.2h36a3.6,3.6,0,1,0,0-7.2h-36a3.6,3.6,0,1,0,0,7.2" transform="translate(-12.38 -11.21)"/><path class="cls-5" d="M17,99.45H38.61v-18a3.61,3.61,0,0,1,3.6-3.6h7.21a3.61,3.61,0,0,1,3.6,3.6v18H74.63V70.63H17Z" transform="translate(-12.38 -11.21)"/></g></g><path class="cls-5" d="M103.61,56.69a3.5,3.5,0,1,1-3.5,3.5,3.5,3.5,0,0,1,3.5-3.5" transform="translate(-12.38 -11.21)"/><path class="cls-5" d="M113,94.33a1.74,1.74,0,1,1,1.73-1.74A1.73,1.73,0,0,1,113,94.33m13.06-2a.87.87,0,0,0-1.19-.33l-3.7,2.09-9.45-16.49a5.34,5.34,0,0,0-1.51-1.67,3.54,3.54,0,0,0-2.73-.42l-1.88.66L100.53,73l2-3.62s1.41-2.61,0-4.39a3.69,3.69,0,0,0-2.38-1.59,3.86,3.86,0,0,0-3.7,1.7l-4.08,7.62a9.12,9.12,0,0,0-.69,1.46,7.22,7.22,0,0,0-.48,1.63l-1.49,8.56L83.44,87c-2.1.92-1.32,4.7,2,3.73l6.83-2.91a1.92,1.92,0,0,0,.62-.43.27.27,0,0,0,.08-.07,1.87,1.87,0,0,0,.39-.61l0-.06,1.43-4.54,3.94,4.23-1.33,9c-.08,3,3.73,2.85,4.09,0l1.3-8.74a4.1,4.1,0,0,0-.58-2.36l-.43-.75L97.85,78,99,75.78,104,78.84a1.58,1.58,0,0,0,2.45-1.15l1.56-.55a2,2,0,0,1,1.28.2,4,4,0,0,1,1,1.09l6.09,10.63a4.84,4.84,0,1,0,1.55,3.54,4.48,4.48,0,0,0-.12-1l2.36,4.11a.87.87,0,0,0,.75.44.82.82,0,0,0,.43-.12l4.46-2.51a.88.88,0,0,0,.33-1.19" transform="translate(-12.38 -11.21)"/></g><rect class="cls-5" x="117.51" y="77.78" width="10.46" height="13.37" transform="translate(-38.13 61.01) rotate(-29.82)"/><g class="cls-2"><path class="cls-5" d="M432.5,61.45c-7.53,0-13,5-13,12a2,2,0,0,0,4,0,7.86,7.86,0,0,1,4-7v31a2,2,0,1,0,4,0v-15h2v15a2,2,0,1,0,4,0v-31a7.85,7.85,0,0,1,4,7,2,2,0,1,0,4,0c0-7-5.47-12-13-12" transform="translate(-12.38 -11.21)"/><path class="cls-5" d="M432.5,59.45a4,4,0,1,0-4-4,4,4,0,0,0,4,4" transform="translate(-12.38 -11.21)"/><path class="cls-5" d="M496.5,72.47c-5.7,0-10,4-10,9.48a1.5,1.5,0,1,0,3,0,6.23,6.23,0,0,1,3-5.38V98a1.5,1.5,0,1,0,3,0V87.45h2V98a1.5,1.5,0,1,0,3,0V76.58a6.23,6.23,0,0,1,3,5.37,1.5,1.5,0,1,0,3,0c0-5.43-4.3-9.48-10-9.48" transform="translate(-12.38 -11.21)"/><path class="cls-5" d="M496.5,70.45a4,4,0,1,0-4-4,4,4,0,0,0,4,4" transform="translate(-12.38 -11.21)"/><path class="cls-5" d="M524.5,72.47c-5.69,0-10,4-10,9.48a1.5,1.5,0,1,0,3,0A6.27,6.27,0,0,1,521,76.32l-2.31,12a1,1,0,0,0,1,1.12h.87V98a1.5,1.5,0,1,0,3,0v-8.5h2V98a1.5,1.5,0,1,0,3,0v-8.5h.87a1,1,0,0,0,1-1.12l-2.31-12A6.26,6.26,0,0,1,531.5,82a1.5,1.5,0,1,0,3,0c0-5.43-4.3-9.48-10-9.48" transform="translate(-12.38 -11.21)"/><path class="cls-5" d="M524.5,70.45a4,4,0,1,0-4-4,4,4,0,0,0,4,4" transform="translate(-12.38 -11.21)"/><path class="cls-5" d="M465.5,61.45c-7.53,0-13,5-13,12a2,2,0,1,0,4,0,7.4,7.4,0,0,1,5-7l-4,19a.92.92,0,0,0,1,1h2v11a2,2,0,1,0,4,0v-11h2v11a2,2,0,1,0,4,0v-11h2a.92.92,0,0,0,1-1l-4-19a7.53,7.53,0,0,1,5,7,2,2,0,1,0,4,0c0-7-5.47-12-13-12" transform="translate(-12.38 -11.21)"/><path class="cls-5" d="M465.5,59.45a4,4,0,1,0-4-4,4,4,0,0,0,4,4" transform="translate(-12.38 -11.21)"/><line class="cls-8" y1="88.74" x2="524.55" y2="88.74"/></g></g></g></g></svg>