<svg xmlns="http://www.w3.org/2000/svg" xmlns:xlink="http://www.w3.org/1999/xlink" viewBox="0 0 76.32 76.32"><defs><style>.cls-1{fill:none;}.cls-2{clip-path:url(#clip-path);}.cls-3{fill:#009edd;}.cls-4{fill:#fff;}</style><clipPath id="clip-path" transform="translate(0 0)"><rect class="cls-1" width="76.32" height="76.32"/></clipPath></defs><title>delivery</title><g id="Layer_2" data-name="Layer 2"><g id="Layer_1-2" data-name="Layer 1"><g class="cls-2"><path class="cls-3" d="M38.16,76.32A38.16,38.16,0,1,0,0,38.16,38.17,38.17,0,0,0,38.16,76.32" transform="translate(0 0)"/><path class="cls-4" d="M18.58,35.68a1.78,1.78,0,1,1-1.87,1.78,1.83,1.83,0,0,1,1.87-1.78" transform="translate(0 0)"/><path class="cls-4" d="M23.6,54.75a.88.88,0,1,1,0-1.76.88.88,0,1,1,0,1.76m7-1a.48.48,0,0,0-.64-.16L28,54.6l-5-8.35a3.08,3.08,0,0,0-.81-.84,2,2,0,0,0-1.46-.22l-1,.34-2.72-1.6,1-1.83s.76-1.33,0-2.23a2,2,0,0,0-1.27-.8,2.1,2.1,0,0,0-2,.86l-2.18,3.86a4.26,4.26,0,0,0-.36.74,3.24,3.24,0,0,0-.26.82l-.8,4.34L7.8,51c-1.12.47-.71,2.38,1,1.89l3.65-1.47a1,1,0,0,0,.33-.22l.05,0a.92.92,0,0,0,.2-.31s0,0,0,0l.77-2.3L16,50.67l-.72,4.54c0,1.52,2,1.45,2.19,0l.7-4.42a2.06,2.06,0,0,0-.31-1.2l-.23-.38L15.5,46.47l.63-1.12,2.64,1.55a.85.85,0,0,0,1.31-.58l.83-.28a1.05,1.05,0,0,1,.68.1,1.84,1.84,0,0,1,.52.56l3.25,5.38a2.65,2.65,0,0,0-1.76-.67,2.46,2.46,0,1,0,2.59,2.46,2.24,2.24,0,0,0-.06-.52l1.26,2.08a.47.47,0,0,0,.63.16l2.38-1.27a.45.45,0,0,0,.18-.61" transform="translate(0 0)"/></g><polygon class="cls-4" points="24.6 48.13 29.45 45.5 33 51.37 28.15 54 24.6 48.13"/><path class="cls-4" d="M70.25,54.14H35.55a1.1,1.1,0,1,0,0,2.19h34.7a1.1,1.1,0,1,0,0-2.19" transform="translate(0 0)"/><path class="cls-4" d="M56,36.6a3.09,3.09,0,1,1-3.08-2.93A3,3,0,0,1,56,36.6M44.42,41a.76.76,0,0,1-.77.73H42.1a.76.76,0,0,1-.77-.73V37.33a.76.76,0,0,1,.77-.73h1.55a.76.76,0,0,1,.77.73Zm0,8a.76.76,0,0,1-.77.73H42.1a.76.76,0,0,1-.77-.73V45.37a.75.75,0,0,1,.77-.73h1.55a.75.75,0,0,1,.77.73Zm17-3.65a.75.75,0,0,1,.77-.73h1.54a.74.74,0,0,1,.77.73V49a.75.75,0,0,1-.77.73H62.15a.76.76,0,0,1-.77-.73Zm0-8a.76.76,0,0,1,.77-.73h1.54a.75.75,0,0,1,.77.73V41a.75.75,0,0,1-.77.73H62.15a.76.76,0,0,1-.77-.73Zm-11.57,8a1.52,1.52,0,0,1,1.55-1.47h3.08A1.51,1.51,0,0,1,56,45.37v7.3H68.32V34.41a.76.76,0,0,0-.77-.74H59.84l-5.4-3.83V27.1h6.94V22.71H54.44a1.54,1.54,0,0,0-3.08,0v7.13L46,33.67H38.25a.76.76,0,0,0-.77.74V52.67H49.81Z" transform="translate(0 0)"/><path class="cls-4" d="M9.1,24.36A6.77,6.77,0,0,0,16,30.94H27.8A7.13,7.13,0,0,0,32.71,29a6.37,6.37,0,0,0,2-4.65Z" transform="translate(0 0)"/><path class="cls-4" d="M17.13,22.84H34.21a3.66,3.66,0,0,0-3.75-3.55h0a3.4,3.4,0,0,0-3.46-3,3.63,3.63,0,0,0-1.55.35,3.81,3.81,0,0,0-7.06,0,3.59,3.59,0,0,0-1.54-.35,3.4,3.4,0,0,0-3.46,3h0a3.66,3.66,0,0,0-3.75,3.55h7.5Z" transform="translate(0 0)"/></g></g></svg>