<svg xmlns="http://www.w3.org/2000/svg" viewBox="0 0 103.2 136.75"><defs><style>.cls-1{fill:#009edd;}.cls-2{fill:#fff;}</style></defs><title>distributing</title><g id="Layer_2" data-name="Layer 2"><g id="Layer_1-2" data-name="Layer 1"><path class="cls-1" d="M103.2,51.6a51.6,51.6,0,1,0-51.6,51.6,51.6,51.6,0,0,0,51.6-51.6"/><path class="cls-1" d="M103.2,51.6a51.6,51.6,0,1,0-51.6,51.6,51.6,51.6,0,0,0,51.6-51.6"/><path class="cls-2" d="M69.36,35.48a4.79,4.79,0,1,1-4.79,4.79,4.78,4.78,0,0,1,4.79-4.79"/><path class="cls-2" d="M35.83,35.48A4.79,4.79,0,1,1,31,40.27a4.79,4.79,0,0,1,4.79-4.79"/><path class="cls-2" d="M46,60.63a1.8,1.8,0,0,1-1.8-1.8,7.47,7.47,0,0,0-3.58-6.43V78A1.8,1.8,0,0,1,37,78V65.42H34.63V78A1.8,1.8,0,0,1,31,78V52.39a7.47,7.47,0,0,0-3.59,6.44,1.8,1.8,0,1,1-3.59,0c0-6.5,5.15-11.35,12-11.35s12,4.85,12,11.35A1.79,1.79,0,0,1,46,60.63"/><path class="cls-2" d="M79.54,60.63a1.8,1.8,0,0,1-1.8-1.8,7.49,7.49,0,0,0-4.13-6.74l2.77,14.38a1.2,1.2,0,0,1-1.19,1.34h-1V78a1.8,1.8,0,0,1-3.59,0V67.81h-2.4V78a1.8,1.8,0,0,1-3.59,0V67.81h-1a1.2,1.2,0,0,1-1.19-1.34L65.1,52.09A7.5,7.5,0,0,0,61,58.83a1.8,1.8,0,1,1-3.59,0c0-6.5,5.15-11.35,12-11.35s12,4.85,12,11.35a1.8,1.8,0,0,1-1.8,1.8"/><path class="cls-2" d="M56.64,27.07a1.25,1.25,0,1,1,2.49,0V30.4a1.25,1.25,0,1,1-2.49,0Z"/><path class="cls-2" d="M58.3,33.31h.83v2.5A4.16,4.16,0,0,1,55,40h-.83V37.48a4.17,4.17,0,0,1,4.16-4.17"/><path class="cls-2" d="M55,47.46h-.83V45A4.17,4.17,0,0,1,58.3,40.8h.83v2.5A4.16,4.16,0,0,1,55,47.46"/><path class="cls-2" d="M51.64,23.74a1.25,1.25,0,1,1,2.5,0V32.9a1.25,1.25,0,0,1-2.5,0Z"/><path class="cls-2" d="M46.65,27.07a1.25,1.25,0,0,1,2.5,0V30.4a1.25,1.25,0,0,1-2.5,0Z"/><path class="cls-2" d="M46.65,33.31h.83a4.17,4.17,0,0,1,4.16,4.17V40h-.83a4.16,4.16,0,0,1-4.16-4.16Z"/><path class="cls-2" d="M46.65,40.8h.83A4.17,4.17,0,0,1,51.64,45v2.49h-.83a4.16,4.16,0,0,1-4.16-4.16Z"/><polyline class="cls-1" points="50.24 96.94 50.24 133.66 52.24 133.66 52.24 96.94"/><path class="cls-1" d="M54.33,133.66a3.09,3.09,0,1,0-3.09,3.09,3.08,3.08,0,0,0,3.09-3.09"/></g></g></svg>