<svg xmlns="http://www.w3.org/2000/svg" viewBox="0 0 652.02 672.49"><defs><style>.cls-1{fill:#fff;}.cls-10,.cls-11,.cls-12,.cls-2,.cls-3,.cls-4,.cls-5,.cls-6,.cls-7,.cls-8,.cls-9{fill:none;stroke-linecap:round;stroke-miterlimit:10;stroke-width:2px;}.cls-2,.cls-3,.cls-4,.cls-5,.cls-6{stroke:#fff;}.cls-2{stroke-dasharray:2.11 5.1;}.cls-4{stroke-dasharray:1.81 4.81;}.cls-5{stroke-dasharray:1.83 4.83;}.cls-6{stroke-dasharray:1.8 4.79;}.cls-7,.cls-8{stroke:#c22033;}.cls-7{stroke-dasharray:1.96 4.96;}.cls-10,.cls-9{stroke:#007bbb;}.cls-9{stroke-dasharray:1.98 4.97;}.cls-11,.cls-12{stroke:#96ca4f;}.cls-11{stroke-dasharray:2.07 5.07;}.cls-13{fill:#c22033;}.cls-14{fill:#009edd;}.cls-15{fill:#96ca4f;}</style></defs><title>elements</title><g id="Layer_2" data-name="Layer 2"><g id="Layer_1-2" data-name="Layer 1"><path class="cls-1" d="M360.6,353.23h0a11.5,11.5,0,0,1-15.77,0l-6.34-6.08a.68.68,0,0,1,0-1,.74.74,0,0,1,.71-.18,15.05,15.05,0,0,0,4.58.49,1.75,1.75,0,0,1,1.29.48l3.15,3a6.5,6.5,0,0,0,8.92,0,5.89,5.89,0,0,0,0-8.56h0l-6.88-6.62a6.49,6.49,0,0,0-8.91,0h0a.52.52,0,0,1-.68,0l-2.74-2.63a.47.47,0,0,1,0-.66,11.5,11.5,0,0,1,15.77,0l6.9,6.62a10.4,10.4,0,0,1,0,15.13"/><path class="cls-1" d="M331.65,321.84a6.48,6.48,0,0,1,8.92,0l3.16,3a1.75,1.75,0,0,0,1.29.49,15,15,0,0,1,4.58.48.75.75,0,0,0,.91-.5.72.72,0,0,0-.19-.68L344,318.57a11.5,11.5,0,0,0-15.77,0,10.4,10.4,0,0,0,0,15.13l6.89,6.61a11.5,11.5,0,0,0,15.77,0,.47.47,0,0,0,0-.66L348.15,337a.53.53,0,0,0-.69,0,6.49,6.49,0,0,1-8.91,0h0l-6.9-6.63a5.88,5.88,0,0,1,0-8.55h0"/><path class="cls-1" d="M359.78,326.31l3.07-2.34a1.3,1.3,0,0,0,.11-1.9,1.44,1.44,0,0,0-1.85-.2L358,324.22a1.3,1.3,0,0,0-.11,1.89,1.43,1.43,0,0,0,1.85.2"/><path class="cls-1" d="M364.14,327.88l-3.87.7A1.35,1.35,0,0,0,359,330a1.37,1.37,0,0,0,1.49,1.24,1.55,1.55,0,0,0,.31-.06l3.87-.69a1.34,1.34,0,1,0-.19-2.68,1.65,1.65,0,0,0-.32.06"/><path class="cls-1" d="M356.72,318h0a1.43,1.43,0,0,0-1.84.69l-1.57,3.46a1.32,1.32,0,0,0,.79,1.73,1.42,1.42,0,0,0,1.77-.66l1.57-3.45a1.33,1.33,0,0,0-.72-1.77"/><path class="cls-1" d="M324.75,344.9l3.87-.7a1.35,1.35,0,0,0,1.29-1.43,1.38,1.38,0,0,0-1.49-1.25,1.7,1.7,0,0,0-.31.06l-3.87.7a1.34,1.34,0,0,0-1.11,1.56,1.4,1.4,0,0,0,1.62,1.06"/><path class="cls-1" d="M332.17,354.74h0a1.41,1.41,0,0,0,1.84-.69l1.57-3.45a1.33,1.33,0,0,0-.79-1.74,1.43,1.43,0,0,0-1.77.67L331.45,353a1.32,1.32,0,0,0,.72,1.76"/><path class="cls-1" d="M329.18,346.38l-3.06,2.36a1.3,1.3,0,0,0-.17,1.89,1.44,1.44,0,0,0,1.9.21l3.07-2.35a1.31,1.31,0,0,0,.23-1.89,1.45,1.45,0,0,0-2-.22"/><path class="cls-2" d="M298.67,325.41a46.65,46.65,0,0,0,1.25,25.91"/><path class="cls-3" d="M300.82,353.71c.13.32.27.64.41,1m-.37-36.07c-.13.31-.25.62-.37.93s-.25.66-.37,1m2.13-5c-.15.3-.29.6-.43.9"/><path class="cls-4" d="M359.1,293.87a51.14,51.14,0,0,0-23.8-1.55"/><path class="cls-3" d="M327.31,294.4l-.93.35m6.56-2-1,.23-1,.25m33.53,2.66-.92-.4"/><path class="cls-5" d="M388.14,351.25a46.69,46.69,0,0,0-.11-30.33"/><path class="cls-3" d="M387.18,318.66l-.39-.92s0-.07-.05-.1m-.83,39c.15-.3.29-.6.43-.9"/><path class="cls-6" d="M325.14,377.46a53.26,53.26,0,0,0,40.28-1"/><path class="cls-1" d="M308.87,293.92l2.1-2h0a.74.74,0,0,1,.21-.13h0a.54.54,0,0,1,.22,0h0a.54.54,0,0,1,.22,0h0a.86.86,0,0,1,.2.13h0l2.1,2a.59.59,0,0,1,0,.86.64.64,0,0,1-.89,0l-1-1,0,3.29a.63.63,0,0,1-1.26,0l0-3.29-1,1a.64.64,0,0,1-.89,0,.59.59,0,0,1,0-.86"/><path class="cls-1" d="M307.34,301.25a2.91,2.91,0,0,1,1.22.27,3,3,0,0,1,5.55,0,2.91,2.91,0,0,1,1.22-.27,2.7,2.7,0,0,1,2.72,2.42h0a2.9,2.9,0,0,1,2.95,2.84H301.67a2.9,2.9,0,0,1,2.95-2.84h0a2.69,2.69,0,0,1,2.72-2.42"/><path class="cls-1" d="M319.82,311.45A5.55,5.55,0,0,1,316,313h-9.25a5.37,5.37,0,0,1-5.47-5.27h20.18a5.17,5.17,0,0,1-1.6,3.73"/><path class="cls-1" d="M322.72,296v2.86a.63.63,0,0,1-1.26,0v-1.39l-2.45,2.3a.64.64,0,0,1-.89,0,.6.6,0,0,1,0-.86l2.44-2.3h-1.44a.62.62,0,0,1-.63-.61.62.62,0,0,1,.63-.61h3a.69.69,0,0,1,.24,0h0a.76.76,0,0,1,.19.12h0a.66.66,0,0,1,.12.17v0a.59.59,0,0,1,.05.22Z"/><path class="cls-1" d="M298.72,296h0a.59.59,0,0,1,0-.22v0a.48.48,0,0,1,.12-.17h0a.71.71,0,0,1,.18-.12h0a.64.64,0,0,1,.24,0h3a.62.62,0,0,1,.63.61.62.62,0,0,1-.63.61h-1.45l2.45,2.3a.6.6,0,0,1,0,.86.65.65,0,0,1-.9,0l-2.44-2.3v1.39a.63.63,0,0,1-1.26,0Z"/><path class="cls-1" d="M385,309.79H369.62V298.68l7.69-3.69,7.69,3.69Zm1.16-12.17-8.11-3.91a1.33,1.33,0,0,0-1.48,0l-7.94,3.8-.17.11a1.14,1.14,0,0,0-.41.86v12.76h18.52V298.48a1.14,1.14,0,0,0-.41-.86"/><path class="cls-1" d="M371.07,299.44V308a.5.5,0,0,0,.52.48H383a.5.5,0,0,0,.52-.48v-8.52A.5.5,0,0,0,383,299H371.59a.5.5,0,0,0-.52.49"/><path class="cls-1" d="M311.5,373.72a5.34,5.34,0,1,1,5.43-5.34,5.38,5.38,0,0,1-5.43,5.34m10.19-7-1.16-.31a.64.64,0,0,1-.45-.44,8.85,8.85,0,0,0-.74-1.76.65.65,0,0,1,0-.62l.62-1.05a.62.62,0,0,0-.1-.77l-1.53-1.51a.67.67,0,0,0-.78-.1l-1,.59a.66.66,0,0,1-.64,0A9.31,9.31,0,0,0,314,360a.64.64,0,0,1-.45-.45l-.31-1.17a.65.65,0,0,0-.63-.47h-2.16a.65.65,0,0,0-.63.48l-.32,1.17a.68.68,0,0,1-.45.45,8.51,8.51,0,0,0-1.77.71.67.67,0,0,1-.63,0l-1.09-.63a.68.68,0,0,0-.79.1l-1.53,1.51a.64.64,0,0,0-.11.77l.62,1.05a.6.6,0,0,1,0,.63,8.74,8.74,0,0,0-.77,1.83.68.68,0,0,1-.46.44l-1.21.31a.65.65,0,0,0-.49.62v2.13a.63.63,0,0,0,.48.61l1.21.32a.64.64,0,0,1,.46.45,9.39,9.39,0,0,0,.71,1.7.67.67,0,0,1,0,.63l-.64,1.08a.62.62,0,0,0,.1.77l1.53,1.51a.65.65,0,0,0,.78.1l1.06-.6a.61.61,0,0,1,.64,0,9,9,0,0,0,1.89.78.64.64,0,0,1,.45.45l.32,1.17a.65.65,0,0,0,.62.48h2.17a.64.64,0,0,0,.62-.48l.32-1.17a.64.64,0,0,1,.45-.44,8.91,8.91,0,0,0,1.75-.71.67.67,0,0,1,.63,0l1.07.62a.68.68,0,0,0,.79-.1l1.53-1.51a.62.62,0,0,0,.1-.77l-.59-1a.6.6,0,0,1,0-.63,9.49,9.49,0,0,0,.8-1.88.66.66,0,0,1,.46-.44l1.16-.3a.64.64,0,0,0,.48-.62v-2.13a.63.63,0,0,0-.49-.61"/><path class="cls-1" d="M374.19,362.57h7.41a5.69,5.69,0,0,1,4.63,2.27v-4.38a.89.89,0,0,0-.93-.84H370.48a.88.88,0,0,0-.92.84v4.38a5.69,5.69,0,0,1,4.63-2.27"/><path class="cls-1" d="M384.61,374a1.06,1.06,0,1,1,1.15-1.05,1.11,1.11,0,0,1-1.15,1.05M383,369.74H372.8v-2.11a1.33,1.33,0,0,1,1.39-1.27h7.41a1.34,1.34,0,0,1,1.39,1.27Zm-.93,4.63a.89.89,0,0,1-.93.85.89.89,0,0,1-.92-.85v-2.1a.86.86,0,0,1,0-.16.91.91,0,0,1,.91-.69,1,1,0,0,1,.66.25.87.87,0,0,1,.26.44c0,.05,0,.11,0,.16Zm-3.24,0a.93.93,0,0,1-1.86,0v-2.1a.88.88,0,0,1,0-.16.91.91,0,0,1,.91-.69,1,1,0,0,1,.65.25.75.75,0,0,1,.26.44.88.88,0,0,1,0,.16Zm-3.24,0a.93.93,0,0,1-1.86,0v-2.1a.88.88,0,0,1,0-.16.91.91,0,0,1,.91-.69,1,1,0,0,1,.65.25.8.8,0,0,1,.26.44.88.88,0,0,1,0,.16Zm-4.4-.42a1.06,1.06,0,1,1,1.15-1.05,1.11,1.11,0,0,1-1.15,1.05m15.28-4a1.15,1.15,0,0,0-.23-.1,1.45,1.45,0,0,0-.47-.07v-2.11a4,4,0,0,0-4.16-3.79h-7.41a4,4,0,0,0-4.17,3.79v2.11a1.39,1.39,0,0,0-.46.07,1,1,0,0,0-.24.1,1.23,1.23,0,0,0-.69,1.09v5.06a1.33,1.33,0,0,0,1.39,1.26v1.3a1.3,1.3,0,0,0,1.36,1.23h.06a1.3,1.3,0,0,0,1.36-1.23v-1.3H383v1.3a1.31,1.31,0,0,0,1.36,1.23h.05a1.3,1.3,0,0,0,1.35-1.23v-1.3a1.33,1.33,0,0,0,1.39-1.26V371a1.22,1.22,0,0,0-.69-1.09"/><path class="cls-7" d="M538.36,329.72c-2.07-158-86.17-285.49-190.3-288.28"/><path class="cls-7" d="M338.62,41.53C235.1,46.28,152,174.29,150.78,332.2"/><path class="cls-7" d="M150.8,341.64c2.07,158,86.17,285.5,190.3,288.28"/><path class="cls-7" d="M350.54,629.83c103.52-4.74,186.64-132.76,187.84-290.67"/><path class="cls-8" d="M538.39,336.68v-2M343.58,630h2M150.76,334.68v2M345.58,41.4h-2"/><path class="cls-9" d="M350.55,521.32c154.11-2,278.42-82.09,281.27-181.26"/><path class="cls-9" d="M631.72,330.6C626.86,232.05,502,153,348.06,151.79"/><path class="cls-9" d="M338.61,151.82c-154.11,2-278.42,82.09-281.27,181.27"/><path class="cls-9" d="M57.44,342.54c4.86,98.55,129.69,177.63,283.65,178.81"/><path class="cls-10" d="M343.58,521.36h2M57.29,335.57v2M345.58,151.78h-2M631.86,337.57c0-.33,0-.67,0-1s0-.67,0-1"/><path class="cls-11" d="M455,330.46C453.52,207,406.55,107.31,348.15,103.39"/><path class="cls-11" d="M338.48,103.62C280.86,110.24,235,210.1,234.11,333"/><path class="cls-11" d="M234.14,342.68C235.64,466.2,282.61,565.83,341,569.75"/><path class="cls-11" d="M350.68,569.52C408.3,562.9,454.17,463,455,340.14"/><path class="cls-12" d="M455.06,337.61v-2.07M343.54,569.86h2.07M234.1,335.54v2.07M345.61,103.28h-2.07"/><path class="cls-13" d="M308.17,23.56A40.44,40.44,0,1,1,328,77.19a40.44,40.44,0,0,1-19.85-53.63"/><path class="cls-14" d="M21.88,372.5a40.44,40.44,0,1,1,54.49-17.37A40.44,40.44,0,0,1,21.88,372.5"/><path class="cls-14" d="M121.72,474.32a40.44,40.44,0,1,1,12.21-55.88,40.44,40.44,0,0,1-12.21,55.88"/><path class="cls-14" d="M140.29,236.88c1,23.12-16.2,42.74-38.51,43.82s-41.25-16.79-42.29-39.91S75.69,198.06,98,197s41.25,16.78,42.29,39.9"/><path class="cls-14" d="M630.13,380.82a40.44,40.44,0,1,1-54.49,17.36,40.44,40.44,0,0,1,54.49-17.36"/><path class="cls-14" d="M571.17,260.88a40.44,40.44,0,1,1,42.29,38.52,40.45,40.45,0,0,1-42.29-38.52"/><path class="cls-13" d="M494.74,83.09a40.44,40.44,0,1,1-44.88,35.46,40.45,40.45,0,0,1,44.88-35.46"/><path class="cls-13" d="M308.17,615.15A40.44,40.44,0,1,1,328,668.78a40.44,40.44,0,0,1-19.85-53.63"/><path class="cls-13" d="M175.1,150.17a40.45,40.45,0,1,1,57.16-2.31,40.46,40.46,0,0,1-57.16,2.31"/><path class="cls-13" d="M222.32,585.49a40.44,40.44,0,1,1,15.47-55.06,40.45,40.45,0,0,1-15.47,55.06"/><path class="cls-13" d="M529.68,542.29a40.44,40.44,0,1,1-47.58-31.72,40.43,40.43,0,0,1,47.58,31.72"/><path class="cls-15" d="M482.05,375a40.45,40.45,0,1,1,18.54-54.12A40.45,40.45,0,0,1,482.05,375"/><path class="cls-15" d="M211.94,234.29a40.58,40.58,0,1,1,16.86,54.86,40.57,40.57,0,0,1-16.86-54.86"/><path class="cls-15" d="M441,179.5a40.58,40.58,0,1,1-47,33,40.59,40.59,0,0,1,47-33"/><path class="cls-15" d="M474.21,448a40.58,40.58,0,1,1-45.89-34.47A40.58,40.58,0,0,1,474.21,448"/><path class="cls-15" d="M218.74,448a40.45,40.45,0,1,1,57.2.91,40.44,40.44,0,0,1-57.2-.91"/><path class="cls-1" d="M503.06,127.05a2.67,2.67,0,1,1,2.67-2.67,2.66,2.66,0,0,1-2.67,2.67m-14.25,3.56a6.23,6.23,0,1,1,6.24-6.23,6.23,6.23,0,0,1-6.24,6.23m-14.24-3.56a2.67,2.67,0,1,1,2.67-2.67,2.66,2.66,0,0,1-2.67,2.67m33.86-11.57H469.2a.85.85,0,0,0-.86.86v16.08a.85.85,0,0,0,.86.86h39.23a.85.85,0,0,0,.86-.86V116.34a.85.85,0,0,0-.86-.86"/><path class="cls-1" d="M507.07,139.55H472l1.24-1.24a1.34,1.34,0,0,0-1.89-1.89L467.84,140a1.26,1.26,0,0,0-.29.43s0,0,0,0a1.33,1.33,0,0,0-.09.49,1.37,1.37,0,0,0,.09.49s0,0,0,0a1.26,1.26,0,0,0,.29.43l3.52,3.53a1.36,1.36,0,0,0,.94.38,1.38,1.38,0,0,0,.95-.38,1.34,1.34,0,0,0,0-1.89L472,142.22h35.06a1.34,1.34,0,0,0,0-2.67"/><path class="cls-1" d="M510.09,107.38v0a1.4,1.4,0,0,0-.29-.44l-3.52-3.52a1.34,1.34,0,1,0-1.89,1.89l1.24,1.24H470.56a1.34,1.34,0,0,0,0,2.67h35.06l-1.24,1.25a1.33,1.33,0,0,0,1.89,1.88l3.52-3.52a1.21,1.21,0,0,0,.29-.44s0,0,0,0a1.28,1.28,0,0,0,.09-.48,1.3,1.3,0,0,0-.09-.49"/><path class="cls-1" d="M456,332.27H441.51a1,1,0,1,1,0-2.06H456a1,1,0,1,1,0,2.06m0,5.5H441.51a1,1,0,1,1,0-2.07H456a1,1,0,1,1,0,2.07m0,5.49H441.51a1,1,0,1,1,0-2.06H456a1,1,0,1,1,0,2.06M459.41,324H438.08a1.46,1.46,0,0,0-1.52,1.37v27.48a1.46,1.46,0,0,0,1.52,1.37h14.47v-4.81a2.91,2.91,0,0,1,3.05-2.74h5.33V325.4a1.45,1.45,0,0,0-1.52-1.37"/><path class="cls-1" d="M454.08,349.44v4.81l6.85-6.18H455.6a1.45,1.45,0,0,0-1.52,1.37"/><path class="cls-1" d="M475.9,333.52l5.06,4.57a.94.94,0,0,0,.62.22.82.82,0,0,0,.56-.2l7.63-6.88v3.25a.85.85,0,0,0,1.7,0v-5.1a.81.81,0,0,0-.85-.77H485a.77.77,0,1,0,0,1.53h3.61l-7,6.32-5-4.53a.9.9,0,0,0-.64-.22.86.86,0,0,0-.63.22l-10.72,9.67a.71.71,0,0,0,0,1.08.91.91,0,0,0,1.2,0Z"/><path class="cls-1" d="M470.83,345.64h-4.51c-.63,0-1.14.36-1.14.79v7c0,.44.51.79,1.14.79h4.51c.63,0,1.14-.35,1.14-.79v-7c0-.43-.51-.79-1.14-.79"/><path class="cls-1" d="M481,341.34h-4.45c-.63,0-1.14.35-1.14.79v11.34c0,.43.51.78,1.14.78H481c.63,0,1.14-.35,1.14-.78V342.13c0-.44-.51-.79-1.14-.79"/><path class="cls-1" d="M491.21,337H486.7c-.63,0-1.14.36-1.14.79v15.64c0,.44.51.79,1.14.79h4.51c.63,0,1.14-.35,1.14-.79V337.82c0-.43-.51-.79-1.14-.79"/><path class="cls-1" d="M370.92,53.06H348.78a.49.49,0,0,0-.48.49,6.32,6.32,0,0,0,6.26,6.38h10.58a6.32,6.32,0,0,0,6.26-6.38.48.48,0,0,0-.48-.49"/><path class="cls-1" d="M358.35,47.77l-1.19-.32a2.4,2.4,0,0,0-3,1.73l-.09.32,1.2.33a2.41,2.41,0,0,0,2.95-1.73Z"/><path class="cls-1" d="M358.09,50.59l1.19.32a2.4,2.4,0,0,0,3-1.73l.09-.32-1.2-.33a2.4,2.4,0,0,0-2.95,1.73Z"/><path class="cls-1" d="M362.05,51.67l1.19.32a2.4,2.4,0,0,0,2.95-1.73l.09-.32-1.2-.33a2.41,2.41,0,0,0-2.95,1.73Z"/><path class="cls-1" d="M357.51,46.1l1.2.33.08-.32a2.46,2.46,0,0,0-1.7-3l-1.2-.32-.08.32a2.45,2.45,0,0,0,1.7,3"/><path class="cls-1" d="M361.47,47.18l1.2.33.08-.32a2.45,2.45,0,0,0-1.7-3l-1.19-.32-.09.32a2.46,2.46,0,0,0,1.7,3"/><path class="cls-1" d="M365.43,48.26l1.2.33.09-.32a2.47,2.47,0,0,0-1.71-3l-1.19-.32-.09.32a2.46,2.46,0,0,0,1.7,3"/><path class="cls-1" d="M370.41,50.35a.69.69,0,0,0-.48-.86l-2.42-.66-.35,1.35,2.42.66a.67.67,0,0,0,.83-.49"/><path class="cls-1" d="M351.18,47.26a.68.68,0,0,0-.84.49.7.7,0,0,0,.48.85l1.76.48a.68.68,0,0,0,.84-.49.7.7,0,0,0-.48-.85Z"/><path class="cls-1" d="M352.24,43.22l1.76.48a.69.69,0,0,0,.84-.49.71.71,0,0,0-.49-.86l-1.76-.48a.67.67,0,0,0-.83.5.69.69,0,0,0,.48.85"/><path class="cls-1" d="M349.77,45.43l4.84,1.32a.68.68,0,0,0,.84-.49.7.7,0,0,0-.48-.85l-4.85-1.33a.67.67,0,0,0-.83.5.7.7,0,0,0,.48.85"/><path class="cls-1" d="M331.77,26.35l-1.47-6.76a1.78,1.78,0,0,0-1.74-1.42h-4.81a.9.9,0,0,0-.87,1.11l1.76,7.07Z"/><path class="cls-1" d="M337.13,26.35h3.56l1.77-8.93a.91.91,0,0,0-.88-1.07h-2.67a1.83,1.83,0,0,0-1.78,1.82,1.83,1.83,0,0,0-1.78-1.82h-2.67a.91.91,0,0,0-.89,1.07l1.77,8.93Z"/><path class="cls-1" d="M345.45,45.33a3.56,3.56,0,0,1-2.52.83h-.68v3h-2.42V40.06h3.1a3.75,3.75,0,0,1,2.55.75,2.72,2.72,0,0,1,.85,2.15,3.11,3.11,0,0,1-.88,2.37M339,42h-2.91v1.74h2.68v2h-2.68v3.43H333.7V40.06H339Zm-8.56,7.15h-2.86l-.86-4c0-.16-.1-.5-.2-1s-.15-.91-.19-1.24c0,.26-.08.6-.16,1s-.14.77-.21,1.11-.37,1.7-.9,4.1h-2.86L320,40.06h2.34l1,4.57c.22,1,.37,1.83.46,2.43.05-.43.14-1,.28-1.74s.27-1.33.38-1.81l.79-3.45h2.25l.76,3.45c.14.56.27,1.19.4,1.92s.22,1.26.27,1.63c.06-.47.2-1.27.44-2.41l1-4.59h2.33Zm17.27-6.94-7-14.08H324.64l-7,14.08a12.87,12.87,0,0,0,2.53,13.89A12.23,12.23,0,0,0,329.1,60h7.14a12.23,12.23,0,0,0,8.93-3.85,12.87,12.87,0,0,0,2.53-13.89"/><path class="cls-1" d="M342.88,42.05h-.63v2.1h.44a1.23,1.23,0,0,0,.87-.31,1.18,1.18,0,0,0,.32-.87c0-.61-.33-.92-1-.92"/><path class="cls-1" d="M196.81,137.59v1.32a1.31,1.31,0,1,1-2.62,0v-1.32h-.44a1.33,1.33,0,0,1,0-2.65h2.58a1.33,1.33,0,1,0,0-2.65h-.78a4,4,0,0,1-1.36-7.72V123a1.31,1.31,0,1,1,2.62,0v1.32h1.32a1.33,1.33,0,0,1,0,2.65h-2.58a1.33,1.33,0,1,0,0,2.65h.78a4,4,0,0,1,4,4,4,4,0,0,1-3.51,4m13.88-8.41-6.87-13.68H188.06l-6.87,13.68a12.44,12.44,0,0,0,2.48,13.51,12.07,12.07,0,0,0,8.77,3.73h7a12.07,12.07,0,0,0,8.77-3.73,12.46,12.46,0,0,0,2.48-13.51"/><path class="cls-1" d="M188.06,113.73h7l-1.44-6.57a1.75,1.75,0,0,0-1.71-1.38h-4.72a.88.88,0,0,0-.86,1.07Z"/><path class="cls-1" d="M200.32,113.73h3.49l1.74-8.68a.88.88,0,0,0-.87-1h-2.61a1.79,1.79,0,0,0-1.76,1.77,1.77,1.77,0,0,0-1.74-1.77h-2.63a.88.88,0,0,0-.86,1l1.73,8.68Z"/><path class="cls-1" d="M210.89,101.39a4.28,4.28,0,1,1,4.28,4.33,4.31,4.31,0,0,1-4.28-4.33m5.2,6.49v-.39a6,6,0,0,0,2.7-1.13l.28.27a.89.89,0,0,0,1.29,0,.93.93,0,0,0,0-1.31l-.27-.27a6.12,6.12,0,0,0,1.12-2.73h.38a.93.93,0,0,0,0-1.85h-.38a6.12,6.12,0,0,0-1.12-2.73l.27-.28a.93.93,0,0,0,0-1.31.91.91,0,0,0-1.29,0l-.28.28a6,6,0,0,0-2.7-1.14v-.38a.92.92,0,1,0-1.84,0v.38a6,6,0,0,0-2.7,1.14l-.27-.28a.92.92,0,0,0-1.3,0,.93.93,0,0,0,0,1.31l.27.28a6.24,6.24,0,0,0-1.12,2.73h-.38a.93.93,0,0,0,0,1.85h.38a6.24,6.24,0,0,0,1.12,2.73l-.27.27a1,1,0,0,0-.27.66.92.92,0,0,0,1.57.65l.27-.27a6,6,0,0,0,2.7,1.13v.39a.92.92,0,1,0,1.84,0"/><path class="cls-1" d="M214.39,126.87a4.29,4.29,0,1,1,4.29,4.33,4.31,4.31,0,0,1-4.29-4.33m5.2,6.49V133a6,6,0,0,0,2.71-1.13l.27.27a.9.9,0,0,0,1.3,0,.93.93,0,0,0,0-1.31l-.27-.27a6.24,6.24,0,0,0,1.12-2.73h.38a.93.93,0,0,0,0-1.85h-.38a6.14,6.14,0,0,0-1.12-2.73l.27-.28a.93.93,0,0,0,0-1.31.92.92,0,0,0-1.3,0l-.27.28a6,6,0,0,0-2.71-1.14v-.38a.92.92,0,1,0-1.83,0v.38a6,6,0,0,0-2.7,1.14l-.28-.28a.91.91,0,0,0-1.29,0,.93.93,0,0,0,0,1.31l.27.28a6,6,0,0,0-1.12,2.73h-.39a.93.93,0,0,0,0,1.85h.39a6.12,6.12,0,0,0,1.12,2.73l-.27.27a.93.93,0,0,0-.27.66.91.91,0,0,0,.27.65.89.89,0,0,0,1.29,0l.28-.27a6,6,0,0,0,2.7,1.13v.39a.92.92,0,1,0,1.83,0"/><path class="cls-1" d="M208,115.12a3.21,3.21,0,1,1,3.21,3.24,3.24,3.24,0,0,1-3.21-3.24m3.9,4.86v-.29a4.48,4.48,0,0,0,2-.85l.2.21a.69.69,0,0,0,1-1l-.21-.21a4.62,4.62,0,0,0,.85-2h.28a.7.7,0,0,0,0-1.39h-.28a4.62,4.62,0,0,0-.85-2l.21-.21a.69.69,0,0,0-1-1l-.2.21a4.48,4.48,0,0,0-2-.85v-.29a.69.69,0,1,0-1.38,0v.29a4.48,4.48,0,0,0-2,.85l-.2-.21a.69.69,0,0,0-1,0,.71.71,0,0,0-.2.49.7.7,0,0,0,.2.49l.21.21a4.6,4.6,0,0,0-.84,2h-.29a.7.7,0,0,0,0,1.39h.29a4.6,4.6,0,0,0,.84,2l-.21.21a.7.7,0,0,0-.2.49.71.71,0,0,0,.2.49.69.69,0,0,0,1,0l.2-.21a4.48,4.48,0,0,0,2,.85V120a.69.69,0,1,0,1.38,0"/><path class="cls-1" d="M219.24,113a3.22,3.22,0,1,1,3.21,3.25,3.23,3.23,0,0,1-3.21-3.25m3.9,4.87v-.29a4.39,4.39,0,0,0,2-.85l.21.21a.68.68,0,0,0,1,0,.71.71,0,0,0,0-1l-.2-.2a4.6,4.6,0,0,0,.84-2h.29a.7.7,0,0,0,0-1.39H227a4.6,4.6,0,0,0-.84-2l.2-.21a.69.69,0,0,0,0-1,.68.68,0,0,0-1,0l-.21.2a4.61,4.61,0,0,0-2-.85v-.29a.69.69,0,1,0-1.37,0v.29a4.61,4.61,0,0,0-2,.85l-.21-.2a.68.68,0,0,0-1,0,.7.7,0,0,0,0,1l.2.21a4.6,4.6,0,0,0-.84,2h-.29a.7.7,0,0,0,0,1.39h.29a4.6,4.6,0,0,0,.84,2l-.2.2a.71.71,0,0,0,0,1,.68.68,0,0,0,1,0l.21-.21a4.39,4.39,0,0,0,2,.85v.29a.69.69,0,1,0,1.37,0"/><path class="cls-1" d="M194.16,535.65h5.58a.92.92,0,0,0,.93-.91v-5.47a.92.92,0,0,0-.93-.91h-5.58a.92.92,0,0,0-.93.91v5.47a.92.92,0,0,0,.93.91"/><path class="cls-1" d="M203.45,535.65H209a.92.92,0,0,0,.93-.91v-5.47a.92.92,0,0,0-.93-.91h-5.58a.92.92,0,0,0-.93.91v5.47a.92.92,0,0,0,.93.91"/><path class="cls-1" d="M188.89,557.52a4.41,4.41,0,0,0,2.52-.69,8,8,0,0,1,4.29-1.13,8.12,8.12,0,0,1,4.31,1.13,4.91,4.91,0,0,0,5,0,8.75,8.75,0,0,1,8.6,0,4.41,4.41,0,0,0,2.26.68,18.21,18.21,0,0,0,4.28-9.86,1.83,1.83,0,0,0-1.86-2H184.88a1.83,1.83,0,0,0-1.86,2,18.09,18.09,0,0,0,4,9.49,4,4,0,0,0,1.88.38"/><path class="cls-1" d="M223,566.63a8,8,0,0,0-4.3,1.14,5,5,0,0,1-5,0,8.66,8.66,0,0,0-8.59,0,5,5,0,0,1-5,0,8.66,8.66,0,0,0-8.59,0,5,5,0,0,1-5,0,8,8,0,0,0-4.29-1.14,1.83,1.83,0,1,0,0,3.65,4.35,4.35,0,0,1,2.51.69,8.75,8.75,0,0,0,8.6,0,4.93,4.93,0,0,1,5,0,8.75,8.75,0,0,0,8.6,0,4.93,4.93,0,0,1,5,0,8.75,8.75,0,0,0,8.6,0,4.38,4.38,0,0,1,2.52-.69,1.83,1.83,0,1,0,0-3.65"/><path class="cls-1" d="M182.08,563a4.35,4.35,0,0,1,2.51.69,8.75,8.75,0,0,0,8.6,0,4.93,4.93,0,0,1,5,0,8.75,8.75,0,0,0,8.6,0,4.93,4.93,0,0,1,5,0,8.75,8.75,0,0,0,8.6,0A4.41,4.41,0,0,1,223,563a1.83,1.83,0,1,0,0-3.65,8,8,0,0,0-4.3,1.14,5,5,0,0,1-5,0,8.66,8.66,0,0,0-8.59,0,5,5,0,0,1-5,0,8.66,8.66,0,0,0-8.59,0,5,5,0,0,1-5,0,8,8,0,0,0-4.29-1.14,1.83,1.83,0,1,0,0,3.65"/><path class="cls-1" d="M188.58,542.94h26a.92.92,0,0,0,.92-.91v-2.74a.92.92,0,0,0-.92-.91h-26a.92.92,0,0,0-.92.91V542a.92.92,0,0,0,.92.91"/><path class="cls-1" d="M427.81,221.26a3.26,3.26,0,0,1-3.27,3.26h-.13V223a3.26,3.26,0,0,1,3.26-3.27h.14Zm0,5.44a3.27,3.27,0,0,1-3.27,3.27h-.13v-1.5a3.27,3.27,0,0,1,3.26-3.27h.14Zm0,5.44a3.26,3.26,0,0,1-3.27,3.27h-.13v-1.5a3.26,3.26,0,0,1,3.26-3.26h.14Zm-3.4,6a1.36,1.36,0,1,1-2.72,0v-1a.34.34,0,0,1,.34-.34h2a.34.34,0,0,1,.34.34Zm-6.13-6v-1.49h.14a3.27,3.27,0,0,1,3.27,3.26v1.5h-.14a3.27,3.27,0,0,1-3.27-3.27m0-6.94h.14a3.28,3.28,0,0,1,3.27,3.27V230h-.14a3.28,3.28,0,0,1-3.27-3.27Zm0-5.44h.14a3.27,3.27,0,0,1,3.27,3.27v1.49h-.14a3.27,3.27,0,0,1-3.27-3.26Zm3.41-2.72a1.36,1.36,0,0,1,2.72,0v2a1.36,1.36,0,1,1-2.72,0Zm9.52-3.4H414.88a2.73,2.73,0,0,0-2.72,2.72v22.45a2.73,2.73,0,0,0,2.72,2.72h16.33a2.72,2.72,0,0,0,2.72-2.72V216.36a2.72,2.72,0,0,0-2.72-2.72"/><path class="cls-1" d="M415.22,212.28h15.65a1.7,1.7,0,0,0,0-3.4H415.22a1.7,1.7,0,0,0,0,3.4"/><path class="cls-1" d="M461.4,234.08H436.92a.53.53,0,0,0-.53.53,6.91,6.91,0,0,0,6.92,6.92H455a6.92,6.92,0,0,0,6.92-6.92.53.53,0,0,0-.53-.53"/><path class="cls-1" d="M447.5,228.35l-1.32-.36a2.67,2.67,0,0,0-3.26,1.89l-.09.35,1.32.35a2.66,2.66,0,0,0,3.26-1.88Z"/><path class="cls-1" d="M447.21,231.4l1.32.35a2.66,2.66,0,0,0,3.26-1.88l.09-.35-1.32-.35a2.66,2.66,0,0,0-3.26,1.88Z"/><path class="cls-1" d="M451.59,232.57l1.32.36a2.66,2.66,0,0,0,3.26-1.88l.09-.35-1.32-.36a2.66,2.66,0,0,0-3.26,1.88Z"/><path class="cls-1" d="M446.57,226.53l1.32.36.1-.35a2.66,2.66,0,0,0-1.88-3.26l-1.33-.36-.09.36a2.65,2.65,0,0,0,1.88,3.25"/><path class="cls-1" d="M451,227.71l1.32.35.1-.35a2.66,2.66,0,0,0-1.88-3.26l-1.33-.35-.09.35a2.66,2.66,0,0,0,1.88,3.26"/><path class="cls-1" d="M455.33,228.88l1.33.36.09-.36a2.65,2.65,0,0,0-1.88-3.25l-1.33-.36-.09.35a2.66,2.66,0,0,0,1.88,3.26"/><path class="cls-1" d="M460.84,231.14a.76.76,0,0,0-.54-.93l-2.67-.71-.39,1.46,2.67.71a.76.76,0,0,0,.93-.53"/><path class="cls-1" d="M439.57,227.79a.76.76,0,1,0-.39,1.46l1.94.52a.76.76,0,0,0,.4-1.46Z"/><path class="cls-1" d="M440.74,223.41l1.95.52a.76.76,0,0,0,.39-1.46l-1.95-.52a.75.75,0,0,0-.92.53.76.76,0,0,0,.53.93"/><path class="cls-1" d="M438,225.81l5.36,1.43a.76.76,0,0,0,.39-1.46l-5.36-1.43a.75.75,0,0,0-.92.53.76.76,0,0,0,.53.93"/><path class="cls-1" d="M450.05,205.5l-.41.39-3.24,3.39a.3.3,0,0,1-.41,0l-3.24-3.39-.41-.39a2.51,2.51,0,0,1,0-3.56,2.47,2.47,0,0,1,3.39.05l.5.46.49-.46a2.47,2.47,0,0,1,3.39-.05,2.51,2.51,0,0,1,0,3.56M455,195l-8.64-1.7a.41.41,0,0,0-.22,0l-8.65,1.7a.57.57,0,0,0-.47.56v11.64c0,5.68,4.21,10.29,9.23,10.29s9.22-4.61,9.22-10.29V195.51A.57.57,0,0,0,455,195"/><path class="cls-1" d="M253,408.64h-2.66a.84.84,0,1,1,0-1.67H253a.84.84,0,1,1,0,1.67M251.41,412a.79.79,0,0,1-1.13,0l-1.43-1.44a.8.8,0,0,1,1.13-1.13l1.43,1.44a.79.79,0,0,1,0,1.13m-4.19-2.82a1.4,1.4,0,1,1,1.39-1.39,1.39,1.39,0,0,1-1.39,1.39m.83,4.47a.83.83,0,1,1-1.66,0v-2.8a.83.83,0,1,1,1.66,0Zm-2.45-3.09L243,413.15a.8.8,0,0,1-1.13-1.13l2.56-2.59a.8.8,0,0,1,1.13,0,.83.83,0,0,1,0,1.15m-.6-2.78h0a.83.83,0,0,1-.83.83h-1.66a.84.84,0,0,1-.84-.83h0a.84.84,0,0,1,.84-.83h1.66a.83.83,0,0,1,.83.83m-4.19-6.45a.84.84,0,0,1,1.19,0l3.59,3.61a.87.87,0,0,1,0,1.2.85.85,0,0,1-1.2,0l-3.58-3.61a.85.85,0,0,1,0-1.2m5.58.59a.83.83,0,0,1,1.66,0v2.79a.83.83,0,1,1-1.66,0Zm2.45,3.1.9-.91a.79.79,0,0,1,1.13,0,.81.81,0,0,1,0,1.14l-.92.9a.76.76,0,0,1-1.11,0,.8.8,0,0,1,0-1.13m26.27,10.6c-2-10.71-13.58-18-23.51-19.45a19.26,19.26,0,0,0-2.46-.21c-.18,0-.38,0-.56,0v-2.49a1.1,1.1,0,0,0-1.1-1.1,1.11,1.11,0,0,0-1.09,1.1V396a2.91,2.91,0,0,0-.52,0,19.58,19.58,0,0,0-2.5.21c-10,1.43-21.57,8.76-23.5,19.45l-.26,1.37,1.39-.07c5.84-.27,11.55,1.08,15.66,3.71l.46.29.5-.18a30.15,30.15,0,0,1,8.32-1.49h.45v20.61a3.43,3.43,0,1,1-6.86,0,1.09,1.09,0,1,0-2.18,0,5.64,5.64,0,1,0,11.27,0V419.26h.46a28.57,28.57,0,0,1,8.32,1.49l.5.18.45-.29A27.39,27.39,0,0,1,274,416.94l1.38.07Z"/><rect class="cls-1" x="29.92" y="351.83" width="4.46" height="4.5"/><rect class="cls-1" x="29.92" y="345.09" width="4.46" height="4.5"/><rect class="cls-1" x="29.92" y="338.34" width="4.46" height="4.5"/><rect class="cls-1" x="36.61" y="338.34" width="4.46" height="4.5"/><rect class="cls-1" x="36.61" y="351.83" width="4.46" height="4.5"/><rect class="cls-1" x="36.61" y="345.09" width="4.46" height="4.5"/><rect class="cls-1" x="43.3" y="351.83" width="4.46" height="4.5"/><rect class="cls-1" x="43.3" y="345.09" width="4.46" height="4.5"/><path class="cls-1" d="M52.21,325.92H51.6v3.58h.49c1.12,0,1.67-.6,1.67-1.81s-.51-1.77-1.55-1.77"/><path class="cls-1" d="M47.73,326.09a1.61,1.61,0,0,0-.83-.17h-.35v1.49h.38a1.47,1.47,0,0,0,.81-.19.66.66,0,0,0,.26-.58.59.59,0,0,0-.27-.55"/><path class="cls-1" d="M54.2,329.74a3.11,3.11,0,0,1-2.21.72H50.44V325h1.71a2.87,2.87,0,0,1,2.08.72,2.62,2.62,0,0,1,.74,2,2.72,2.72,0,0,1-.77,2.08m-5.73.72-1.3-2.11h-.62v2.11H45.4V325H47a2.69,2.69,0,0,1,1.64.41,1.66,1.66,0,0,1,.27,2.11,1.87,1.87,0,0,1-.75.59l1.6,2.39Zm-4.45,0H42.87v-2.37H40.71v2.37H39.55V325h1.16v2.16h2.16V325H44Zm-5.84,0H36.71l-2.38-4.16h0c.05.74.07,1.26.07,1.58v2.58h-1V325H34.8l2.37,4.12h0c0-.71,0-1.22,0-1.51V325h1ZM32,328.52a2,2,0,0,1-.27,1.07,1.72,1.72,0,0,1-.78.7,2.67,2.67,0,0,1-1.21.25,2.29,2.29,0,0,1-1.63-.54,2,2,0,0,1-.59-1.49V325h1.16v3.37a1.4,1.4,0,0,0,.25.93,1,1,0,0,0,.84.3,1,1,0,0,0,.82-.3,1.43,1.43,0,0,0,.26-.94V325H32Zm9.07-12.66L18.77,327.1v29.23h8.92V333.85H54.45v22.48h8.92V327.1Z"/><path class="cls-1" d="M91.74,440.43c0,.19.08.67.16,1.44l.77-.33-.79-.93c-.06-.08-.11-.13-.14-.18"/><path class="cls-1" d="M96,441.37a1.36,1.36,0,0,1-.7.56,1.92,1.92,0,0,1-.91.18l-.25-.58a2.63,2.63,0,0,0,.59,0,1.56,1.56,0,0,0,.4-.1.64.64,0,0,0,.28-.21.31.31,0,0,0,0-.28.31.31,0,0,0-.11-.14l-.2-.07-.47,0a1.74,1.74,0,0,1-.51-.07,1.06,1.06,0,0,1-.33-.18.81.81,0,0,1-.23-.33.83.83,0,0,1,0-.72,1.17,1.17,0,0,1,.64-.54,2,2,0,0,1,.46-.13,3.84,3.84,0,0,1,.5,0v.57a2.64,2.64,0,0,0-.45,0,1.68,1.68,0,0,0-.32.09.45.45,0,0,0-.24.2.28.28,0,0,0,0,.25.27.27,0,0,0,.1.13.54.54,0,0,0,.17.07,4.77,4.77,0,0,0,.48,0,1.64,1.64,0,0,1,.74.15.83.83,0,0,1,.36.42.85.85,0,0,1,0,.76m-2.42,1.24L93,442l-1.07.46.08.79-.67.29-.22-3.4.77-.33,2.3,2.52ZM90.38,444l-.54-1.27-1.16.49.54,1.28-.63.26-1.25-2.94.63-.27.49,1.15,1.16-.49L89.13,441l.63-.26L91,443.7Zm-3.32,1.41-2.23-1.68h0c.19.38.33.65.4.82l.59,1.39-.56.24L84,443.2l.78-.33L87,444.53h0c-.18-.37-.3-.64-.37-.8L86,442.33l.56-.24,1.25,3Zm-3.15,1.23a1.68,1.68,0,0,1-.6.41,1.32,1.32,0,0,1-1,.08,1.1,1.1,0,0,1-.66-.66l-.8-1.9.62-.26.77,1.8a.77.77,0,0,0,.34.44.63.63,0,0,0,.53,0,.59.59,0,0,0,.37-.35.84.84,0,0,0-.07-.56l-.77-1.8.62-.26.81,1.9a1.12,1.12,0,0,1,.1.64,1,1,0,0,1-.26.55m45-19.44a1.29,1.29,0,0,0-.16-.17,10.7,10.7,0,0,0-11.42-1.67L103,431.79a.27.27,0,0,1-.23,0L88.48,427a9.06,9.06,0,0,0-6.33,1,.54.54,0,0,0-.23.72.58.58,0,0,0,.18.2l10.83,6.89a.31.31,0,0,1,.09.44.28.28,0,0,1-.14.12L80.77,441.8a1.07,1.07,0,0,1-1-.07l-7.64-4.8a1.34,1.34,0,0,0-1.92,1.72l4.62,9.65a2.58,2.58,0,0,0,2.25,1.48A32.21,32.21,0,0,0,91.35,447l8.41-3.79a.33.33,0,0,1,.43.16.41.41,0,0,1,0,.19L97,462.08a.54.54,0,0,0,.44.62.47.47,0,0,0,.26,0,8.49,8.49,0,0,0,4.51-3.5l9.8-21.44a.31.31,0,0,1,.16-.16l8.16-3.66a37.06,37.06,0,0,0,8.43-5.13,1.16,1.16,0,0,0,.22-1.63"/><path class="cls-1" d="M90.86,226.1v0h0s.06,0,.09,0h0s.08,0,.11.06h0s.09,0,.11.07h0s0,0,.08.05h0s.08,0,.11.06h0s.09,0,.11.06h0s.09,0,.11.07h0s.05,0,.07,0h0s.08,0,.11.06h0s.09,0,.11.07h0s0,0,.07.05,0,0,0,0,.06,0,.08.05h0s.09,0,.11.06h0s.09,0,.12.07h0a.18.18,0,0,1,.07.05h0s.08,0,.11.06h0s.09,0,.12.07h0s.1,0,.12.07h0a.18.18,0,0,1,.07,0h0s.09,0,.11.06h0s.09,0,.12.07h0l.07.05s0,0,0,0a.16.16,0,0,1,.08.05h0s.11.08.11.14a1.15,1.15,0,0,0,0,.32V264.3a1.08,1.08,0,0,0,0,.31c0,.08-.09,0-.15.05a8.82,8.82,0,0,1-1.28-.7c-3.07-1.76-6.13-3.54-9.2-5.31a.91.91,0,0,1-.23-.17v-37.2a.07.07,0,0,1,.11,0h0s.09,0,.12.07h0s.05,0,.07,0h0s.09,0,.11.07h0s.09,0,.12.07h0s.1,0,.12.06h0s0,0,.07,0h0s.09,0,.12.07h0s.09,0,.12.06h0l.07,0s0,0,0,0a.1.1,0,0,1,.08,0h0s.08,0,.11.07h0s.1,0,.12.06h0s0,0,.07,0v0h0s.06,0,.09.05.08,0,.11.06h0s.1,0,.12.06h0s0,0,.08,0h0s.08,0,.11.06h0s.09,0,.11.06h0s.09,0,.11.07h0s0,0,.08.05h0s.08,0,.11.06h0s.09,0,.11.06h0l.06,0s0,0,0,0,.06,0,.09.05h0s.08,0,.11.06h0s.09,0,.11.07h0s0,0,.07,0v0h0a.11.11,0,0,1,.09,0h0s.09,0,.11.06h0s.09,0,.11.07h0a.18.18,0,0,1,.07.05h0s.08,0,.11.06h0s.09,0,.11.07h0s.1,0,.12.07h0a.18.18,0,0,1,.07,0h0s.09,0,.11.06h0s.09,0,.12.07h0s.1,0,.12.07h0s0,0,.07,0,.09,0,.12.06h0s.1,0,.12.07h0a.18.18,0,0,1,.07.05h0s.08,0,.11.06h0s.09,0,.12.07h0s.1,0,.12.07h0a.18.18,0,0,1,.07,0h0s.08,0,.11.06h0s.08,0,.11.07h0s.1,0,.12.07h0s0,0,.08,0h0s.08,0,.11.07h0s.09,0,.11.07h0a.18.18,0,0,1,.07,0v0h0a.26.26,0,0,1,.09.05s.08,0,.11.07h0s.09,0,.11.07h0s0,0,.07,0h0s.08,0,.11.07h0s.09,0,.11.07h0s.09,0,.11.06h0s0,0,.07,0h0s.08,0,.11.07h0s.09,0,.11.06h0s.1,0,.11.07h0s0,0,.07,0h0s.09,0,.11.06h0s.09,0,.12.06h0s0,0,.07,0v0h0a.1.1,0,0,1,.08.05h0s.09,0,.12.06h0s.1,0,.12.06h0s0,0,.07,0h0s.08,0,.11.06h0s.09,0,.12.06h0s.1,0,.12.07h0s.05,0,.07.05h0s.08,0,.11.06h0s.09,0,.12.06h0s.1,0,.12.07h0s0,0,.08.05.18,0,.22.12h0s0,0,.07,0"/><path class="cls-1" d="M101,218.92s0,0,0,0,.06,0,.09,0,.08,0,.11.06h0s.1,0,.12.07h0a.18.18,0,0,1,.07.05h0s.06,0,.09.05h0s.08,0,.11.07h0s.09,0,.11.07h0l.08,0h0s.08,0,.11.06h0s.09,0,.11.07h0s.09,0,.11.07h0a.1.1,0,0,1,.08,0h0s.08,0,.11.07h0s.09,0,.11.07h0s0,0,.06,0,0,0,0,0a.19.19,0,0,1,.09.05h0s.09,0,.11.07h0s.09,0,.11.07h0s0,0,.07,0v0h0l.08,0h0s.09,0,.11.07h0s.09,0,.12.06h0s0,0,.07,0h0s.09,0,.11.07h0s.09,0,.12.06h0s.1,0,.12.07h0s0,0,.07,0h0s.09,0,.12.06h0s.09,0,.12.06h0s.05,0,.07,0,0,0,0,0a.09.09,0,0,1,.08.05h0s.09,0,.12.06h0s.1,0,.12.06h0s0,0,.07,0h0s.08,0,.11.06h0s.08,0,.11.06h0s.1,0,.12.07h0s0,0,.08.05h0s.08,0,.11.06h0s.09,0,.11.06h0s.09,0,.11.07h0s.06,0,.08.05h0s.08,0,.11.06h0s.09,0,.11.07h0l.06,0v0h0a.11.11,0,0,1,.09,0h0s.09,0,.11.06h0s.09,0,.11.07h0s0,0,.07.05h0s.08,0,.11.06h0s.09,0,.11.06h0s.09,0,.11.07h0a.18.18,0,0,1,.07.05h0s.09,0,.11.06h0s.09,0,.12.07h0l.07,0s0,0,0,0,.06,0,.08,0,.09,0,.12.06h0s.09,0,.12.07h0a.18.18,0,0,1,.07.05h0s.06,0,.08.05h0s.09,0,.12.07h0s.1,0,.12.07h0a.18.18,0,0,1,.07,0h0s.08,0,.11.06h0s.09,0,.12.07h0s.1,0,.12.07h0s0,0,.08,0h0s.08,0,.11.07h0s.1,0,.12.07h0a.18.18,0,0,1,.07.05s0,0,0,0a.26.26,0,0,1,.09.05s.08,0,.11.07h0s.09,0,.11.07h0a.1.1,0,0,1,.07,0v0h0a.15.15,0,0,1,.09.06h0s.09,0,.11.07h0s.09,0,.11.06h0s0,0,.07,0h0s.08,0,.11.07h0s.09,0,.11.06h0l.06,0s0,0,0,0a.1.1,0,0,1,.08,0h0s0,.08,0,.1h0v0s0,0-.07,0h0s-.08,0-.12.06h0s-.09,0-.11.06h0s0,0-.08,0h0c0,.06-.08,0-.12.07h0s-.08,0-.12.06h0s-.09,0-.11.07h0s0,0-.07,0h0c0,.05-.08,0-.12.06h0s-.09,0-.11.07h0a.1.1,0,0,1-.07,0h0s-.08,0-.12.06h0s-.08,0-.12.07h0s-.09,0-.11.06h0a.1.1,0,0,1-.07,0h0c0,.05-.08,0-.12.07h0c0,.05-.09,0-.12.07s0,.05-.08.05h0a.18.18,0,0,1-.07.05h0c0,.05-.08,0-.12.07h0s-.09,0-.12.06h0a.18.18,0,0,1-.07,0h0c0,.05-.08,0-.12.07h0s-.09,0-.12.06h0a.09.09,0,0,1-.08.05h0a.18.18,0,0,1-.07.05h0c0,.05-.08,0-.12.07h0s-.09,0-.12.06h0s0,.05-.07.05h0c0,.06-.08,0-.12.07h0s-.09,0-.12.06h0s-.08,0-.11.06h0l-.07,0h0c0,.05-.08,0-.12.06h0s-.08,0-.11.06h0a.1.1,0,0,1-.08.05h0v0l-.07,0h0s-.09,0-.12.06h0s-.08,0-.11.07h0s0,0-.07,0h0c0,.05-.08,0-.12.06h0s-.08,0-.11.07l-.08.05h0v0s0,0-.07,0h0s-.08,0-.11.07h0s-.08,0-.11.07h0a.1.1,0,0,1-.07,0h0c0,.05-.07,0-.11.07h0c0,.05-.08,0-.11.07h0s-.05.05-.08.05h0s0,0-.07.05h0c0,.05-.08,0-.11.07h0s-.08,0-.11.06h0a.1.1,0,0,1-.07,0h0s-.08,0-.11.07h0s-.08,0-.11.07h0s-.08,0-.11.06h0s0,0-.07,0h0c0,.05-.08,0-.11.07h0s-.08,0-.11.06h0s0,.05-.08.05h0l0,0-.06,0h0s-.08,0-.11.07h0s-.08,0-.11.06h0s0,0-.07,0h0c0,.06-.08,0-.11.07h0s-.08,0-.11.06h0s0,.05-.08.05h0c0,.06-.08.05-.11.07h0s-.08,0-.11.06h0s-.08,0-.11.06h0s0,0-.08,0h0c0,.06-.08,0-.11.07h0s-.08,0-.11.06h0s-.08,0-.11.07h0s0,0-.08,0h0c0,.05-.08,0-.11.06h0s-.08,0-.11.07h0a.26.26,0,0,1-.09,0h0v0l-.07,0h0s-.08,0-.11.07h0s-.09,0-.11.07h0s0,0-.08,0h0c0,.05-.08,0-.11.07h0c0,.05-.08,0-.11.07h0s-.05.05-.09.05h0a.18.18,0,0,1-.07.05h0s-.08,0-.11.07h0s-.09,0-.11.06h0l-.08,0h0c0,.05-.08,0-.12.07h0c0,.05-.08,0-.11.07h0s-.05.05-.09.05h0a.18.18,0,0,1-.07.05h0c0,.05-.08,0-.12.07h0s-.09,0-.11.06h0s0,0-.08,0h0c0,.06-.08,0-.12.07h0s-.08,0-.12.06h0s-.09,0-.11.06h0s0,.05-.07.05h0c0,.06-.08,0-.12.07h0s-.09,0-.11.06h0a.09.09,0,0,1-.08.05h0v0l-.07,0h0s-.08,0-.12.06h0s-.09,0-.12.06h0s-.08,0-.11,0h0s-.1,0-.12-.07h0s0,0-.08-.05h0s-.08,0-.11-.06h0s-.09,0-.11-.07h0l-.07,0h0a.26.26,0,0,1-.09,0h0s-.08,0-.11-.06h0s-.09,0-.11-.07h0l-.08,0s0,0,0,0h0s-.06,0-.08,0-.09,0-.11-.07h0s-.09,0-.11-.07h0a.1.1,0,0,1-.07,0h0s-.08,0-.11-.06h0s-.09,0-.11-.07h0s-.09,0-.11-.06h0a.1.1,0,0,1-.07,0h0s-.09,0-.11-.07h0s-.09,0-.12-.07h0l-.08,0s0,0,0,0h0a.1.1,0,0,1-.07,0h0s-.09,0-.12-.07h0s-.09,0-.12-.06h0s0,0-.07,0v0h0a.12.12,0,0,1-.08-.06h0s-.09,0-.12-.06h0s-.1,0-.12-.06h0s0,0-.07,0h0s-.08,0-.11-.07h0s-.09,0-.12-.06h0l-.07,0s0,0,0-.05h0s0,0-.08,0h0s-.08,0-.11-.06h0s-.09,0-.11-.06h0s0,0-.07,0v0h0s-.06,0-.09-.05-.08,0-.11-.06h0s-.09,0-.11-.07h0s-.05,0-.08,0h0s-.08,0-.11-.06h0s-.09,0-.11-.06h0s-.09,0-.11-.07h0s0,0-.07,0h0s-.08,0-.11-.06h0s-.09,0-.11-.06h0s0,0-.08,0,0,0,0,0h0s0,0-.07-.05h0s-.09,0-.11-.06h0s-.09,0-.12-.07h0l-.07,0v0h0a.1.1,0,0,1-.08-.05h0s-.09,0-.12-.06h0s-.09,0-.12-.07h0a.18.18,0,0,1-.07,0h0s-.09,0-.11-.06h0s-.09,0-.12-.07h0s-.1,0-.12-.07h0a.18.18,0,0,1-.07-.05h0s-.08,0-.11-.06h0s-.09,0-.12-.07h0s-.1,0-.12-.07h0s0,0-.08,0h0s-.08,0-.11-.06h0s-.1,0-.12-.07h0a.18.18,0,0,1-.07-.05h0s-.06,0-.09-.05h0s-.08,0-.11-.07h0s-.09,0-.11-.07h0l-.08-.05h0s-.08,0-.11-.06h0s-.09,0-.11-.07h0s-.09,0-.11-.07h0a.1.1,0,0,1-.08,0h0s-.08,0-.11-.07h0s-.09,0-.11-.07h0s0,0-.06,0l0,0h0l-.08-.05h0s-.09,0-.11-.07h0s-.09,0-.11-.06h0s0,0-.07,0v0h0a.16.16,0,0,1-.08-.06h0s-.09,0-.11-.07h0s-.09,0-.12-.06h0s0,0-.07,0h0s-.09,0-.11-.07h0s-.09,0-.12-.06h0s-.1,0-.12-.07h0s-.05,0-.07,0h0s-.09,0-.12-.06h0s-.09,0-.12-.06h0s-.1,0-.12-.07h0s0,0-.07-.05h0s-.08,0-.11-.06h0s-.1,0-.12-.06h0s0,0-.07,0h0s-.08,0-.11-.06h0s-.08,0-.11-.06h0s-.1,0-.12-.07h0s0,0-.08,0h0s-.08,0-.11-.06h0s-.09,0-.11-.06h0s-.09,0-.11-.07h0s-.06,0-.08-.05h0s-.08,0-.11-.06h0s-.09,0-.11-.07h0s-.1,0-.11-.07h0s-.06,0-.08-.05-.09,0-.11-.06h0s-.09,0-.11-.07h0s0,0-.07-.05h0s-.08,0-.11-.06h0s-.09,0-.11-.07h0s-.09,0-.11-.07h0a.18.18,0,0,1-.07-.05h0s-.09,0-.11-.06h0s-.09,0-.12-.07h0l-.07,0h0s-.06,0-.08,0h0s-.09,0-.12-.06h0s-.09,0-.12-.07h0a.18.18,0,0,1-.07-.05h0s-.06,0-.08-.05h0s-.09,0-.12-.07h0s-.1,0-.12-.07h0a.1.1,0,0,1-.07,0h0s-.08,0-.11-.06h0s-.09,0-.12-.07h0s-.1,0-.12-.07h0s0,0-.08,0h0s-.08,0-.11-.07h0s-.09,0-.11-.07h0s-.1,0-.12-.07h0a.1.1,0,0,1-.08,0s-.08,0-.11-.07h0s-.09,0-.11-.06h0s0,0-.08,0h0s-.08,0-.11-.07h0s-.09,0-.11-.07h0s-.09,0-.11-.06h0s0,0-.07,0h0s-.08,0-.11-.07h0s-.09,0-.11-.06h0s-.09,0-.11-.07h0s0,0-.07,0h0s-.09,0-.11-.06h0s-.09,0-.11-.06h0s-.1,0-.11-.07h0s0,0-.07-.05-.09,0-.11-.06h0s-.09,0-.12-.07h0s0,0-.07,0h0s-.09,0-.11-.06h0s-.09,0-.12-.06h0s-.1,0-.12-.07h0s0,0-.07,0h0s-.08,0-.11-.06h0s-.09,0-.12-.06h0s-.1,0-.12-.07h0s0,0-.07-.05h0s-.08,0-.11-.06h0s-.1,0-.12-.07h0a.12.12,0,0,1-.05-.07s0-.06,0-.08a6.18,6.18,0,0,1,1.12-.7l8.88-5.16a5.49,5.49,0,0,1,.59-.31h.11l.06.05v0h0a.1.1,0,0,1,.08.05h0s.09,0,.11.06h0s.09,0,.12.07h0s0,0,.07,0h0s.09,0,.11.06h0s.09,0,.12.06h0s.1,0,.12.07h0s0,0,.07.05h0s.09,0,.12.06h0s.09,0,.12.07h0l.07,0s0,0,0,0,.06,0,.09,0,.08,0,.11.06h0s.1,0,.12.07h0a.18.18,0,0,1,.07.05h0s.08,0,.11.06h0s.08,0,.11.07h0s.1,0,.12.07h0l.08.05h0s.08,0,.11.06h0s.09,0,.11.07h0l.07,0s0,0,0,0,.06,0,.09,0h0s.08,0,.11.06h0s.09,0,.11.07h0l.06.05h0A.13.13,0,0,1,96,216s.09,0,.11.07h0s.09,0,.11.07h0a.18.18,0,0,1,.07,0h0s.08,0,.11.06h0s.09,0,.11.07h0s.09,0,.11.07h0a.1.1,0,0,1,.07,0h0s.09,0,.11.07h0s.09,0,.12.07h0l.07,0s0,0,0,0l.08.05h0s.09,0,.12.07h0s.09,0,.12.07h0s0,0,.07,0v0h0a.16.16,0,0,1,.08,0h0s.09,0,.12.07h0s.1,0,.12.06h0s0,0,.07,0h0s.08,0,.11.07h0s.09,0,.12.06h0s.1,0,.12.07h0s0,0,.08,0h0s.08,0,.11.06h0s.09,0,.11.06h0s.05,0,.07,0,0,0,0,0,.06,0,.09.05h0s.08,0,.11.06h0s.09,0,.11.06h0s0,0,.07,0v0h0a.11.11,0,0,1,.09.05h0s.09,0,.11.06h0s.09,0,.11.07h0s0,0,.07,0h0s.08,0,.11.06h0s.09,0,.11.06h0s.09,0,.11.07h0s0,0,.07.05h0s.09,0,.11.06h0s.09,0,.11.07h0l.07,0v0h0a.1.1,0,0,1,.08,0s.09,0,.11.06h0s.09,0,.12.07h0a.18.18,0,0,1,.07.05h0s.08,0,.1.06h0s.09,0,.12.06h0s.1,0,.12.07h0a.18.18,0,0,1,.07.05h0s.08,0,.11.06h0s.09,0,.12.07h0l.07,0"/><path class="cls-1" d="M93.91,264.63c-.06,0-.11,0-.16,0s0-.21,0-.31V252.56a.87.87,0,0,0,0-.32.22.22,0,0,1,.05-.08h0s0,0,.08,0h0c0-.05.08,0,.11-.07h0s.08,0,.11-.07h0s0,0,.08,0h0s0,0,0,0a.19.19,0,0,0,.08,0h0s.08,0,.11-.07h0s.09,0,.11-.06h0l.08-.05h0c0-.05.08,0,.11-.07h0c0-.05.08,0,.11-.07a.26.26,0,0,1,.09-.05s0,0,0,0l.07-.05h0s.08,0,.11-.07h0s.09,0,.11-.06h0l.08,0h0c0-.05.08,0,.12-.07h0s.08,0,.11-.06,0-.05.08-.05h0s0,0,0,0a.19.19,0,0,0,.08,0h0c0-.05.08,0,.11-.07h0s.09,0,.11-.06h0s0,0,.08,0h0c0-.06.08,0,.12-.07h0s.08,0,.11-.06h0s0-.05.09-.05h0v0s0,0,.07,0h0s.08,0,.12-.06h0s.09,0,.11-.06h0s0-.05.08-.05h0s0,0,0,0l.07,0h0s.08,0,.12-.06h0s.09,0,.11-.07h0s0,0,.07,0h0c0-.05.08,0,.12-.06h0s.09,0,.11-.07h0a.1.1,0,0,1,.07,0h0s0,0,0,0l.08,0h0s.08,0,.12-.07h0s.09,0,.11-.07h0a.1.1,0,0,1,.07,0h0c0-.05.08,0,.12-.07h0c0-.05.09,0,.12-.07h0s0-.05.07,0h0s0,0,0,0,0,0,.08,0h0s.08,0,.12-.07h0s.09,0,.12-.06h0a.18.18,0,0,1,.07,0h0c0-.05.08,0,.12-.07h0s.09,0,.12-.07h0s.08,0,.1-.06h0a.18.18,0,0,1,.07-.05h0c0-.05.08,0,.12-.07h0s.09,0,.12-.06h0s0-.05.08-.05,0,0,0,0l.07,0h0s.09,0,.12-.06h0s.08,0,.11-.06h0s0,0,.07,0h0c0-.06.08,0,.12-.07h0s.08,0,.11-.06h0a.1.1,0,0,1,.08-.05s0,0,0,0,0,0,.07,0h0s.09,0,.12-.06h0s.08,0,.11-.06h0s0,0,.07,0h0c0-.06.07-.05.11-.07h0s.08,0,.11-.06h0a.16.16,0,0,1,.08-.06h0v0s0,0,.07,0h0s.08,0,.11-.06h0s.08,0,.11-.07h0a.1.1,0,0,1,.07,0h0s0,0,0,0,0,0,.08,0h0c0-.05.08,0,.11-.07h0s.08,0,.11-.06h0a.1.1,0,0,1,.07,0h0c0-.05.08,0,.11-.07h0c0-.05.08,0,.11-.07a.13.13,0,0,1,.09,0s0,0,0,0l.06-.05h0s.08,0,.11-.07h0s.08,0,.11-.06h0a.18.18,0,0,1,.07-.05h0c0-.05.08,0,.11-.07h0s.08,0,.11-.06h0s0-.05.07-.05h0s0,0,0,0,0,0,.08,0h0s.08,0,.11-.07h0s.08,0,.11-.06h0s0,0,.08,0h0c0-.06.08,0,.11-.07h0s.08,0,.11-.06h0s.08,0,.11-.06h0s0,0,.07,0h0s.08,0,.11-.06h0s.08,0,.11-.06h0s0,0,.08,0h0a0,0,0,0,1,0,0l.08,0h0s.08,0,.11-.06h0s.08,0,.11-.07h0s0,0,.08,0h0c0-.05.08,0,.11-.06h0s.08,0,.11-.07a.1.1,0,0,1,.08,0h0s0,0,0,0l.08,0h0s.08,0,.11-.07h0s.09,0,.11-.07h0s0,0,.08,0h0c0-.05.08,0,.12-.07h0c0-.05.08,0,.11-.07h0a.1.1,0,0,1,.08,0h0s0,0,0,0a.19.19,0,0,0,.08,0h0s.08,0,.11-.07h0s.09,0,.11-.06h0s0,0,.08,0h0s0,0,0,0a.15.15,0,0,0,.07,0h0c0-.05.08,0,.11-.07h0s.09,0,.11-.06h0a.18.18,0,0,1,.07-.05h0c0-.05.08,0,.12-.07h0s.09,0,.11-.06h0s0,0,.09,0,0,0,0,0l.07,0h0s.08,0,.12-.07h0s.09,0,.11-.06h0s0-.05.07-.05h0c0-.06.08,0,.12-.07h0s.09,0,.12-.06,0-.05.07-.05h0a.05.05,0,0,1,0,0l.08,0h0s.08,0,.12-.06h0s.09,0,.11-.06h0s0,0,.07,0h0c0-.06.08-.05.12-.07h0s.09,0,.12-.06h0a.09.09,0,0,1,.08-.05h0v0s0,0,.07,0h0s.08,0,.12-.06h0s.09,0,.12-.07h0a.1.1,0,0,1,.07,0h0s0,0,0,0,0,0,.08,0h0c0-.05.09,0,.12-.07h0s.08,0,.11-.06h0a.1.1,0,0,1,.07,0h0s.08,0,.12-.07h0c0-.05.09,0,.12-.07h0s0,0,.08,0,0,0,0,0,0,0,.07,0h0s.09,0,.12-.07h0s.08,0,.11-.06h0a.18.18,0,0,1,.07-.05h0c0-.05.08,0,.12-.07h0s.08,0,.11-.06h0a.1.1,0,0,1,.08-.05h0s0,0,.07-.05h0s.09,0,.12-.07h0s.08,0,.11-.06h0s0,0,.07,0h0s0,0,0,0,0,0,.08,0h0s.08,0,.11-.06h0s.08,0,.11-.06h0a.18.18,0,0,1,.07-.05h0c0-.05.08,0,.11-.07h0s.08,0,.11-.06h0a.1.1,0,0,1,.08,0s0,0,0,0l.06,0h0s.08,0,.11-.06h0s.08,0,.11-.06h0s0,0,.07,0h0s.08,0,.11-.06h0s.08,0,.11-.07h0a.1.1,0,0,1,.07,0h0a0,0,0,0,1,0,0l.08,0h0c0-.05.08,0,.11-.07h0s.08,0,.11-.07h0a.1.1,0,0,1,.07,0h0c0-.05.08,0,.11-.07h0c0-.05.08,0,.11-.07h0a.13.13,0,0,1,.09,0h0s0,0,.06-.05h0s.08,0,.11-.07h0s.08,0,.11-.06h0a.1.1,0,0,1,.08,0h0s0,0,0,0a.19.19,0,0,0,.08,0h0c0-.05.08,0,.11-.07h0s.08,0,.11-.06h0s0,0,.08-.05h0s.08,0,.11-.07h0s.08,0,.11-.06,0,0,.09,0,0,0,0,0l.07,0h0c0-.05.08,0,.11-.07h0s.08,0,.11-.06h0s0-.05.08-.05h0c0-.06.08,0,.11-.07h0s.08,0,.11-.06,0,0,.09,0h0v0s0,0,.07,0h0s.08,0,.11-.06h0s.08,0,.11-.06h0s0,0,.08,0h0c0-.06.08-.05.12-.07h0s.08,0,.11-.06h0s.09,0,.11-.07h0s0,0,.07,0h0s.08,0,.12-.06h0s.08,0,.11-.07h0a.26.26,0,0,1,.09-.05s0,0,0,0l.07,0h0c0-.05.08,0,.12-.07h0s.09,0,.12-.07h0a0,0,0,0,1,0,0l0,0h0l.08.05h0s.09,0,.11.06h0s.09,0,.11.07h0l.08,0s0,0,0,0h0a.1.1,0,0,1,.07,0s.09,0,.11.07h0s.09,0,.12.07h0s.05,0,.07,0h0s.09,0,.11.06h0s.09,0,.12.07h0s.1,0,.12.06h0a.1.1,0,0,1,.07,0h0s.09,0,.12.07h0s.09,0,.12.07h0l.08,0s0,0,0,0h0a.1.1,0,0,1,.07,0h0s.08,0,.11.07h0s.1,0,.12.06h0s0,0,.07,0v0h0s.06,0,.09.05h0s.08,0,.11.06h0s.1,0,.12.06h0s0,0,.08,0h0s.08,0,.11.07h0s.09,0,.11.06h0l.08,0a0,0,0,0,1,0,0h0s.05,0,.08.05h0s.08,0,.11.06h0s.09,0,.11.06h0s0,0,.06,0,0,0,0,0a.11.11,0,0,1,.09.05h0s.09,0,.11.06h0s.09,0,.11.07h0s0,0,.07,0v0h0a.11.11,0,0,1,.09,0h0s.09,0,.11.06h0s.09,0,.12.07h0s0,0,.07.05h0s.09,0,.11.06h0s.09,0,.12.06h0s.1,0,.12.07h0s.05,0,.07.05h0s.09,0,.12.06h0s.09,0,.12.07h0s0,0,.08,0a0,0,0,0,1,0,0h0s0,0,.07,0,.09,0,.12.06h0s.1,0,.12.07h0a.18.18,0,0,1,.07.05h0s.08,0,.11.06h0s.09,0,.12.07h0s.1,0,.12.07h0l.08,0h0s.08,0,.11.06h0s.09,0,.11.07h0l.07.05s0,0,0,0a.26.26,0,0,1,.09.05h0s.08,0,.11.06h0s.09,0,.11.07h0l.08,0s0,0,0,0h0a.1.1,0,0,1,.08,0s.09,0,.11.07h0s.09,0,.11.07h0s0,0,.07,0h0s.08,0,.11.06h0s.09,0,.11.07h0s.09,0,.11.06h0a.1.1,0,0,1,.07,0h0s.09,0,.11.07h0s.09,0,.11.07h0l.08,0s0,0,0,0h0a.1.1,0,0,1,.07,0h0s.09,0,.11.07h0s.09,0,.12.06h0s.05,0,.07,0v0h0a.1.1,0,0,1,.08.05h0s.09,0,.12.07h0s.1,0,.12.06h0s0,0,.07,0h0s.08,0,.11.07h0s.09,0,.12.06h0l.08,0a.07.07,0,0,1,0,0h0s0,0,.07,0h0s.08,0,.11.06h0s.1,0,.12.06h0s0,0,.07,0,0,0,0,0,.06,0,.09.05h0s.08,0,.11.06h0s.09,0,.11.07h0s0,0,.07,0v0h0a.11.11,0,0,1,.09,0h0s.09,0,.11.06h0s.09,0,.11.07h0s0,0,.08.05h0s.08,0,.11.06h0s.09,0,.11.06h0s.09,0,.11.07h0s0,0,.07,0h0s.09,0,.11.06h0s.09,0,.11.07h0s0,0,.08,0,0,0,0,0h0s0,0,.07,0,.09,0,.11.06h0s.09,0,.12.07h0a.18.18,0,0,1,.07.05h0s.09,0,.11.06h0s.09,0,.12.07h0s.11,0,0,.11h0c0,.05-.08,0-.11.07h0a.18.18,0,0,1-.07.05h0c0,.06-.08,0-.12.07h0s-.09,0-.12.06h0s-.08,0-.11.06h0a.18.18,0,0,1-.07,0h0s-.09,0-.12.07h0s-.08,0-.11.06h0a.1.1,0,0,1-.08.05h0v0l-.07,0h0s-.08,0-.11.06h0s-.08,0-.11.06h0s0,.05-.07.05h0c0,.06-.08,0-.11.07h0s-.08,0-.11.06a.1.1,0,0,1-.08,0h0v0s0,0-.07,0h0c0,.05-.08,0-.11.06h0s-.08,0-.11.07h0s0,0-.07,0h0s-.08,0-.11.06h0s-.08,0-.11.07h0a.19.19,0,0,1-.09.05h0v0s0,0-.07,0h0c0,.05-.08,0-.11.07h0s-.08,0-.11.07h0a.1.1,0,0,1-.07,0h0s-.08,0-.11.07h0c0,.05-.08,0-.11.07h0s-.08,0-.11.06h0s0,0-.07,0h0c0,.05-.08,0-.11.07h0s-.08,0-.11.07a.13.13,0,0,1-.09.05h0l-.06.05h0c0,.05-.08,0-.11.07h0s-.08,0-.11.06h0s0,0-.08.05h0s-.08,0-.11.07h0s-.08,0-.11.06h0s0,0-.08,0h0c0,.06-.08.05-.11.07h0c0,.05-.08,0-.11.07h0s-.08,0-.11.06h0s0,.05-.08.05h0c0,.06-.08,0-.11.07h0s-.08,0-.11.06h0s-.09,0-.11.06h0s0,0-.08,0h0c0,.05-.08,0-.11.06h0s-.08,0-.11.06,0,.05-.09.05h0v0l-.07,0h0s-.08,0-.11.06h0s-.09,0-.11.07h0s0,0-.08,0h0c0,.05-.08,0-.11.06h0s-.08,0-.11.07a.26.26,0,0,1-.09.05h0v0a.1.1,0,0,1-.07,0h0c0,.05-.08,0-.11.07h0s-.09,0-.11.07h0s0,0-.08,0h0s-.08,0-.12.07h0s-.08,0-.11.07h0s-.05.05-.09.05h0a.18.18,0,0,1-.07,0h0c0,.05-.08,0-.12.07h0s-.09,0-.11.06h0a.18.18,0,0,1-.07.05h0s-.08,0-.12.07h0s-.08,0-.12.07h0s-.09,0-.11.06h0a.18.18,0,0,1-.07,0h0c0,.05-.08,0-.12.07h0s-.09,0-.12.06a.09.09,0,0,1-.08.05h0v0l-.07,0h0s-.08,0-.12.06h0s-.09,0-.11.06h0s0,.05-.07.05h0c0,.06-.08,0-.12.07h0s-.09,0-.12.06h0a.09.09,0,0,1-.08.05h0v0s0,0-.07,0h0c0,.05-.08,0-.12.06h0s-.09,0-.12.07h0s0,0-.07,0h0c0,.06-.08,0-.12.07h0s-.09,0-.12.07h0s-.08,0-.1.07h0s0,0-.07,0h0c0,.05-.08,0-.12.07h0s-.08,0-.11.07h0l-.08.05h0l-.07.05h0s-.09,0-.12.07h0s-.08,0-.11.06h0a.18.18,0,0,1-.07,0h0c0,.05-.08,0-.12.07h0c0,.05-.08,0-.11.07s0,.05-.08.05h0s0,0-.07.05h0c0,.05-.08,0-.11.07h0s-.08,0-.11.06h0a.18.18,0,0,1-.07,0h0s-.07,0-.11.07h0s-.08,0-.11.06h0a.11.11,0,0,1-.09.05h0v0l-.07,0h0c0,.05-.08,0-.11.07h0s-.08,0-.11.06h0s0,.05-.07.05h0c0,.06-.08,0-.11.07h0s-.08,0-.11.06h0s-.08,0-.11.06h0s0,0-.07,0h0c0,.05-.08,0-.11.06h0s-.08,0-.11.06h0a.11.11,0,0,1-.09.05h0v0s0,0-.06,0h0s-.08,0-.11.06h0s-.08,0-.11.07h0s0,0-.07,0h0c0,.05-.08,0-.11.06h0s-.08,0-.11.07h0a.19.19,0,0,1-.09.05h0v0s0,0-.06,0h0c0,.05-.08,0-.11.07h0s-.08,0-.11.07h0a.1.1,0,0,1-.08,0h0c0,.05-.08,0-.11.07h0s-.08,0-.11.07h0s-.08,0-.11.06h0s0,0-.08.05h0c0,.05-.08,0-.11.07h0s-.08,0-.11.06h0a.16.16,0,0,1-.08.05h0s-.08,0-.11.07h0s-.08,0-.11.07h0s-.09,0-.11.06h0l-.08,0h0c0,.05-.08,0-.11.07h0s-.08,0-.11.06,0,.05-.09.05h0v0l-.07,0h0s-.08,0-.11.06h0s-.09,0-.11.06h0s0,0-.08,0h0c0,.06-.08,0-.11.07h0s-.08,0-.11.06h0s0,.05-.09.05h0v0s0,0-.07,0h0s-.08,0-.12.06h0s-.09,0-.11.06h0s0,0-.08,0h0c0,.06-.08,0-.12.07h0s-.08,0-.12.06h0s-.09,0-.11.07h0s0,0-.07,0h0c0,.05-.08,0-.12.07h0s-.09,0-.11.07h0a.26.26,0,0,1-.09,0h0l-.07.05h0s-.08,0-.12.07h0s-.09,0-.11.06h0a.1.1,0,0,1-.07,0h0c0,.05-.08,0-.12.07h0c0,.05-.09,0-.12.07s0,.05-.08.05h0a.18.18,0,0,1-.07.05h0c0,.05-.08,0-.12.07h0s-.09,0-.11.06h0a.18.18,0,0,1-.07.05h0c0,.05-.08,0-.12.07h0s-.09,0-.12.06h0a.09.09,0,0,1-.08,0h0a.18.18,0,0,1-.07,0h0c0,.05-.08,0-.12.07h0s-.09,0-.12.06h0s0,.05-.07.05h0c0,.06-.08,0-.12.07h0s-.09,0-.12.06h0s-.08,0-.11.06h0s0,0-.07,0h0c0,.06-.08,0-.12.07h0s-.09,0-.12.06a.1.1,0,0,1-.08,0h0v0s0,0-.07,0h0s-.09,0-.12.06h0s-.08,0-.11.07h0s0,0-.07,0h0c0,.05-.08,0-.12.06h0s-.08,0-.11.07h0l-.08.05h0v0s0,0-.07,0h0c0,.05-.08,0-.11.07h0s-.08,0-.11.07h0a.1.1,0,0,1-.07,0h0s-.07,0-.11.07h0c0,.05-.08,0-.11.07h0s-.08,0-.11.06h0s0,0-.07,0h0c0,.05-.08,0-.11.07h0s-.08,0-.11.06-.05.05-.08.05h0l-.06.05h0c0,.05-.08,0-.11.07h0s-.08,0-.11.06h0a.18.18,0,0,1-.07.05h0s-.08,0-.11.07h0s-.08,0-.11.06h0s0,0-.07,0h0c0,.06-.07,0-.11.07h0c0,.05-.08,0-.11.07h0s-.08,0-.11.06h0s0,.05-.07.05h0c0,.06-.08,0-.11.07h0s-.08,0-.11.06h0a.11.11,0,0,1-.09.05h0v0s0,0-.06,0h0c0,.05-.08,0-.11.06h0s-.08,0-.11.06,0,.05-.08.05h0c0,.06-.08.05-.11.07h0s-.08,0-.11.06h0s-.08,0-.11.07h0s0,0-.08,0h0c0,.05-.08,0-.11.06h0s-.08,0-.11.07a.26.26,0,0,1-.09.05h0v0a.18.18,0,0,1-.07.05h0c0,.05-.08,0-.11.07h0s-.08,0-.11.07h0s0,0-.08,0h0s-.08,0-.11.07h0s-.08,0-.11.07h0s0,.05-.09.05h0a.18.18,0,0,1-.07,0h0c0,.05-.08,0-.11.07h0s-.09,0-.11.06h0s0,0-.08.05h0c0,.05-.08,0-.12.07h0s-.08,0-.11.06h0s-.09,0-.11.06h0a.18.18,0,0,1-.07.05h0c0,.05-.08,0-.12.07h0s-.09,0-.11.06h0s-.05.05-.09.05h0v0l-.07,0h0s-.08,0-.12.06h0s-.09,0-.11.06h0s0,.05-.07.05h0c0,.06-.08,0-.12.07h0s-.09,0-.11.06,0,.05-.09.05h0v0s0,0-.07,0h0s-.08,0-.12.06h0s-.09,0-.11.07h0s0,0-.07,0h0s-.08,0-.12.06h0s-.09,0-.12.07h0a.12.12,0,0,1-.08.06h0v0s0,0-.07,0h0c0,.05-.08,0-.12.07h0s-.09,0-.12.07h0a.1.1,0,0,1-.07,0h0c0,.05-.08,0-.12.07h0c0,.05-.09,0-.12.07h0s-.08,0-.1.06h0a.18.18,0,0,1-.07.05h0c0,.05-.08,0-.12.07h0c0,.05-.09,0-.12.07h0s0,.05-.08.05h0l-.07.05h0c0,.05-.09,0-.12.07h0s-.08,0-.11.06h0a.18.18,0,0,1-.07,0h0c0,.05-.08,0-.12.07h0s-.09,0-.12.06a.1.1,0,0,1-.08.05h0v0l-.07,0h0c0,.05-.09,0-.12.07h0s-.08,0-.11.06h0s0,.05-.07.05h0c0,.06-.08,0-.12.07h0s-.08,0-.11.06h0s-.08,0-.11.06h0s0,0-.07,0h0s-.08,0-.11.06h0s-.08,0-.11.06h0s0,.05-.07.05h0c0,.06-.07.05-.11.07h0s-.08,0-.11.06h0s-.08,0-.11.07h0s0,0-.07,0h0c0,.05-.08,0-.11.06h0s-.08,0-.11.07l-.08.05h0l0,0s0,0-.06,0h0c0,.05-.08,0-.11.07h0s-.08,0-.11.07h0a.1.1,0,0,1-.07,0h0c0,.05-.08,0-.11.07h0c0,.05-.08,0-.11.07a.13.13,0,0,1-.09.05h0s0,0-.06.05h0c0,.05-.08,0-.11.07h0s-.08,0-.11.06h0a.16.16,0,0,1-.08.05h0s-.08,0-.11.07h0s-.08,0-.11.07h0s-.08,0-.11.06h0s0,0-.07,0h0c0,.05-.08,0-.11.07h0s-.08,0-.11.06,0,.05-.09.05h0v0l-.06,0h0s-.08,0-.11.06Z"/><path class="cls-1" d="M632.42,262.65a12.65,12.65,0,0,1-1.27,1.16l-15.26-15.76-2.7-2.78-7.83,8.08a2.08,2.08,0,0,1-3,0,2.24,2.24,0,0,1,0-3.1l9-9.33c.31-.32.63-.62,1-.9a14.53,14.53,0,0,1,4-2.47,14.3,14.3,0,0,1,5.6-1.13,14.58,14.58,0,0,1,10.51,4.5,15.72,15.72,0,0,1,0,21.73m-1.89,8.8a3.11,3.11,0,0,1-2.25,1,3,3,0,0,1-1.55-.43,3.36,3.36,0,0,1-.45,4.07,3.1,3.1,0,0,1-3.93.46,3.37,3.37,0,0,1-.53,3.93,3.12,3.12,0,0,1-2.25,1,3,3,0,0,1-1.22-.26,4.47,4.47,0,0,0,.38-1.93,4.56,4.56,0,0,0-1.28-3.09,4.28,4.28,0,0,0-3.09-1.32,3.63,3.63,0,0,0-1.09.15,4.13,4.13,0,0,0,.15-1.22,4.57,4.57,0,0,0-1.28-3.1,4.28,4.28,0,0,0-3.09-1.32,3.71,3.71,0,0,0-1.1.16,3.92,3.92,0,0,0,.15-1.23,4.56,4.56,0,0,0-1.27-3.1,4.32,4.32,0,0,0-3.09-1.32,3.75,3.75,0,0,0-1.1.16,3.88,3.88,0,0,0,.15-1.23,4.42,4.42,0,0,0-.14-1,4.56,4.56,0,0,0-1.13-2.05,4.43,4.43,0,0,0-.95-.74,4.13,4.13,0,0,0-2.15-.58,4.06,4.06,0,0,0-3,1.25l-3.07,3.17-.13-.13a15.72,15.72,0,0,1,0-21.73,14.51,14.51,0,0,1,18.32-2.22c-.24.21-.47.44-.69.67l-9,9.33a4.49,4.49,0,0,0,0,6.21,4.18,4.18,0,0,0,2.48,1.24l.14,0,.38,0a4.18,4.18,0,0,0,3-1.28l1.59-1.62.14-.16,4.06-4.19.3-.3,17.58,18.16a3.35,3.35,0,0,1,0,4.65M616,280.84l-5.28,5.45a2.07,2.07,0,0,1-1.46.61,2.2,2.2,0,0,1-1.57-.68,2.26,2.26,0,0,1-.06-3.12l5.28-5.46a2,2,0,0,1,1.12-.58,1.86,1.86,0,0,1,.33,0,2.23,2.23,0,0,1,1.57.68,2.31,2.31,0,0,1,.63,2,2.14,2.14,0,0,1-.56,1.17m-12,.58a2.16,2.16,0,0,1-1.57-.69,2.27,2.27,0,0,1-.07-3.12l5.29-5.46a2,2,0,0,1,1.12-.58l.33,0a2.19,2.19,0,0,1,1.57.68,2.31,2.31,0,0,1,.63,2,2.11,2.11,0,0,1-.56,1.16l-5.28,5.46a2.06,2.06,0,0,1-1.46.62m-5.31-5.49a2.21,2.21,0,0,1-1.57-.68,2.28,2.28,0,0,1-.07-3.13l5.28-5.45a2,2,0,0,1,1.13-.58,1.19,1.19,0,0,1,.33,0,2.19,2.19,0,0,1,1.57.68,2.37,2.37,0,0,1,.63,2,2.19,2.19,0,0,1-.57,1.16l-5.27,5.46a2.09,2.09,0,0,1-1.46.61m-5.32-5.49a2.2,2.2,0,0,1-1.57-.68,2.27,2.27,0,0,1-.06-3.13l2.35-2.42,2.93-3a2,2,0,0,1,1.45-.62,1.7,1.7,0,0,1,.51.07,2.23,2.23,0,0,1,1.07.61,2.37,2.37,0,0,1,.63,2,2.19,2.19,0,0,1-.57,1.16l-1.92,2-3.36,3.46a2,2,0,0,1-1.46.62"/><path class="cls-1" d="M233.49,266.3l0-.17a6.33,6.33,0,0,0-1.8-3.58L227,257.89a5.69,5.69,0,0,1-1.64-3.44l-.48-4.58a.17.17,0,0,0,0-.07l-.06-.52.25-7.5a.54.54,0,0,1,.16-.38.56.56,0,0,1,.4-.17,2.27,2.27,0,0,1,2.19,2.34l-.12,3.72s0,0,0,0v.08s0,.06,0,.08v0l.66,2.67a2.72,2.72,0,0,0-.42.34,2.87,2.87,0,0,0,0,4l4.79,4.81a.82.82,0,0,0,1.16-1.16l-4.79-4.81a1.21,1.21,0,0,1,0-1.71,1.18,1.18,0,0,1,1.7,0l4.17,4.19h0a.81.81,0,0,0,.26.18h0l.16.05,1.65.28a2.77,2.77,0,0,1,1.49.78l2.75,2.76a2.75,2.75,0,0,1,.81,1.91l.1,4.37Zm12.64,3.13a3.28,3.28,0,0,0-2.23-3.06l-.1-4.57a4.46,4.46,0,0,0-1.3-3L239.75,256a4.42,4.42,0,0,0-2.38-1.23l-1.38-.24-4-4a2.8,2.8,0,0,0-2-.83l-.6-2.46.11-3.6a3.92,3.92,0,0,0-3.78-4,2.23,2.23,0,0,0-1.61.64,2.2,2.2,0,0,0-.64,1.49l-.25,7.57s0,.06,0,.09v0a3.29,3.29,0,0,0,0,.54l.5,4.68a7.33,7.33,0,0,0,2.11,4.43l4.64,4.66a4.7,4.7,0,0,1,1.33,2.66l0,.14a3.45,3.45,0,0,0-1.2.78,3.25,3.25,0,0,0-.92,2.32l.06,6a3.28,3.28,0,0,0,1,2.3,3.23,3.23,0,0,0,2.27.93h0l9.9-.11a3.26,3.26,0,0,0,3.21-3.29Z"/><path class="cls-1" d="M269.3,249.8v.07l-.49,4.58a5.71,5.71,0,0,1-1.64,3.44l-4.64,4.66a6.39,6.39,0,0,0-1.8,3.58l0,.17-8.76-.09.1-4.37a2.75,2.75,0,0,1,.81-1.91l2.75-2.76a2.69,2.69,0,0,1,1.49-.77l1.64-.29.17-.05h0a.81.81,0,0,0,.26-.18h0l4.18-4.19a1.18,1.18,0,0,1,1.7,0,1.21,1.21,0,0,1,0,1.71l-4.79,4.81a.83.83,0,0,0,0,1.17.82.82,0,0,0,1.16,0l4.79-4.82a2.87,2.87,0,0,0,0-4,2.72,2.72,0,0,0-.42-.34l.65-2.67s0,0,0,0,0-.06,0-.09v-.08s0,0,0,0l-.12-3.71a2.27,2.27,0,0,1,2.18-2.35.57.57,0,0,1,.41.17.53.53,0,0,1,.16.37l.25,7.51Zm-7,26.91h0l.11-.12-.1.12m-.63-7.53.2.17-.2-.17m9.1-27.46a2.19,2.19,0,0,0-2.26-2.13,3.91,3.91,0,0,0-3.77,4l.11,3.6-.6,2.46a2.8,2.8,0,0,0-2,.83l-4,4-1.38.24a4.37,4.37,0,0,0-2.38,1.24l-2.75,2.76a4.36,4.36,0,0,0-1.29,3l-.11,4.57a3.28,3.28,0,0,0-2.23,3.06l-.06,6a3.25,3.25,0,0,0,.92,2.31,3.2,3.2,0,0,0,2.29,1l9.9.11h0a3.26,3.26,0,0,0,3.25-3.22l.07-6a3.3,3.3,0,0,0-.93-2.32,3.45,3.45,0,0,0-1.2-.78l0-.13a4.76,4.76,0,0,1,1.33-2.67l4.64-4.66a7.3,7.3,0,0,0,2.11-4.42l.5-4.69a3.07,3.07,0,0,0,.05-.53v0s0-.06,0-.09Z"/><path class="cls-1" d="M247.1,246.66a4.42,4.42,0,1,1,4.39-4.42,4.42,4.42,0,0,1-4.39,4.42m11-7.24h-1.54a10.07,10.07,0,0,0-.79-1.92l1.09-1.09a1.76,1.76,0,0,0,0-2.46l-1.53-1.53a1.75,1.75,0,0,0-2.44,0l-1.09,1.09a10.07,10.07,0,0,0-1.92-.79v-1.55a1.74,1.74,0,0,0-1.73-1.73H246a1.74,1.74,0,0,0-1.73,1.73v1.55a10.07,10.07,0,0,0-1.92.79l-1.08-1.09a1.76,1.76,0,0,0-2.45,0L237.31,234a1.76,1.76,0,0,0,0,2.46l1.09,1.09a9.46,9.46,0,0,0-.79,1.92h-1.54a1.73,1.73,0,0,0-1.73,1.74v2.16a1.73,1.73,0,0,0,1.73,1.74h1.54a8.75,8.75,0,0,0,.8,1.92l-1.1,1.1a1.74,1.74,0,0,0,0,2.45l1.53,1.54a1.72,1.72,0,0,0,1.22.51,1.74,1.74,0,0,0,1.23-.51l1.08-1.1a10.11,10.11,0,0,0,1.92.8v1.55a1.74,1.74,0,0,0,1.73,1.73h2.16a1.74,1.74,0,0,0,1.73-1.73v-1.55a10.11,10.11,0,0,0,1.92-.8l1.09,1.1a1.71,1.71,0,0,0,2.44,0l1.53-1.54a1.74,1.74,0,0,0,0-2.45L255.8,247a9.81,9.81,0,0,0,.79-1.92h1.54a1.73,1.73,0,0,0,1.73-1.74v-2.16a1.73,1.73,0,0,0-1.73-1.74"/><path class="cls-1" d="M497.68,567.09h-.5v1.67h.35a.85.85,0,0,0,.94-.93c0-.49-.26-.74-.79-.74"/><path class="cls-1" d="M490,522.89c-9.54,0-17.28,8-17.28,17.87h34.56c0-9.87-7.74-17.87-17.28-17.87"/><path class="cls-1" d="M499.7,569.7a2.71,2.71,0,0,1-2,.67h-.53v2.42h-1.91V565.5h2.44a2.94,2.94,0,0,1,2,.6,2.2,2.2,0,0,1,.67,1.72,2.45,2.45,0,0,1-.7,1.88m-5.08-2.62h-2.29v1.39h2.11v1.58h-2.11v2.74h-1.87V565.5h4.16Zm-6.73,5.71h-2.25l-.68-3.18c0-.13-.08-.4-.15-.79s-.12-.73-.15-1c0,.21-.07.48-.13.8s-.11.62-.17.88-.29,1.37-.7,3.28h-2.25l-1.75-7.29h1.84l.76,3.65c.18.81.3,1.45.36,1.93,0-.34.12-.8.23-1.38s.2-1.06.3-1.44l.62-2.76h1.76l.61,2.76c.1.44.2,1,.31,1.52s.18,1,.21,1.3c0-.37.16-1,.34-1.92l.79-3.66h1.83Zm14.66-12.07h-25a1,1,0,0,0-1,1v14.74a1,1,0,0,0,1,1h25a1,1,0,0,0,1-1V561.77a1,1,0,0,0-1-1"/><path class="cls-1" d="M501.68,543.3,490,554.86,478.38,543.3a1.47,1.47,0,0,0-2.15.05,1.59,1.59,0,0,0,0,2.22L489,558.18l0,0a1.48,1.48,0,0,0,.45.3l0,0a1.45,1.45,0,0,0,1.06,0l0,0a1.61,1.61,0,0,0,.45-.3l0,0,12.7-12.61a1.59,1.59,0,0,0,0-2.22,1.47,1.47,0,0,0-2.15-.05"/><polygon class="cls-1" points="596.45 407.76 596.45 417.95 586.25 417.95 586.25 430.69 596.45 430.69 596.45 440.89 609.18 440.89 609.18 430.69 619.38 430.69 619.38 417.95 609.18 417.95 609.18 407.76 596.45 407.76"/><path class="cls-1" d="M625.14,408.46a4.07,4.07,0,1,1,4-4.06,4.06,4.06,0,0,1-4,4.06m10.16-6.66h-1.42a8.57,8.57,0,0,0-.73-1.77l1-1a1.61,1.61,0,0,0,0-2.26l-1.4-1.41a1.63,1.63,0,0,0-2.25,0l-1,1a8.57,8.57,0,0,0-1.77-.73V394.2a1.6,1.6,0,0,0-1.59-1.6h-2a1.6,1.6,0,0,0-1.59,1.6v1.43a8.49,8.49,0,0,0-1.76.73l-1-1a1.63,1.63,0,0,0-2.25,0l-1.41,1.41a1.61,1.61,0,0,0,0,2.26l1,1a9.12,9.12,0,0,0-.72,1.77H615a1.6,1.6,0,0,0-1.6,1.6v2A1.6,1.6,0,0,0,615,407h1.42a8.57,8.57,0,0,0,.73,1.77l-1,1a1.59,1.59,0,0,0,0,2.25l1.41,1.42a1.61,1.61,0,0,0,1.13.46,1.58,1.58,0,0,0,1.12-.46l1-1a9.07,9.07,0,0,0,1.76.73v1.43a1.59,1.59,0,0,0,1.59,1.59h2a1.59,1.59,0,0,0,1.59-1.59v-1.43a9.16,9.16,0,0,0,1.77-.73l1,1a1.57,1.57,0,0,0,1.12.46,1.61,1.61,0,0,0,1.13-.46l1.4-1.42a1.59,1.59,0,0,0,0-2.25l-1-1a8.57,8.57,0,0,0,.73-1.77h1.42a1.59,1.59,0,0,0,1.59-1.6v-2a1.6,1.6,0,0,0-1.59-1.6"/><path class="cls-1" d="M628.8,426.88a2.61,2.61,0,1,1,3.08-2,2.62,2.62,0,0,1-3.08,2m7.27-2.83-.89-.19a5.39,5.39,0,0,0-.22-1.21l.76-.5a1,1,0,0,0,.31-1.42l-.7-1.08a1,1,0,0,0-1.41-.3l-.77.5a5.31,5.31,0,0,0-1-.69l.19-.9a1,1,0,0,0-.79-1.22l-1.25-.26a1,1,0,0,0-1.21.79l-.19.9a5.49,5.49,0,0,0-1.21.22l-.49-.77a1,1,0,0,0-1.42-.3l-1.07.7a1,1,0,0,0-.3,1.42l.49.77a5.82,5.82,0,0,0-.69,1l-.89-.19a1,1,0,0,0-1.22.79l-.27,1.26a1,1,0,0,0,.79,1.21l.9.19a5,5,0,0,0,.22,1.22l-.77.5a1,1,0,0,0-.3,1.41l.7,1.08a1,1,0,0,0,.64.44,1,1,0,0,0,.77-.14l.76-.5a5.58,5.58,0,0,0,1,.7l-.19.89a1,1,0,0,0,.78,1.22l1.25.27a1,1,0,0,0,1.21-.8l.2-.89A5.42,5.42,0,0,0,631,430l.5.77a1,1,0,0,0,.64.45,1,1,0,0,0,.77-.15l1.08-.7a1,1,0,0,0,.3-1.42l-.5-.77a5.87,5.87,0,0,0,.7-1l.89.19a1,1,0,0,0,1.21-.79l.27-1.26a1,1,0,0,0-.79-1.21"/><path class="cls-1" d="M454.56,447.69H437.8v-8.78h16.76l4.28,4.39ZM436.09,479.3h-1.71V430.12h1.71Zm-3.42-38.64H415.92l-4.28-4.39,4.28-4.39h16.75Zm0,14H415.92l-4.28-4.39,4.28-4.39h16.75Zm28-12-5.13-5.27a.88.88,0,0,0-.61-.25H437.8v-7.9a.86.86,0,0,0-.86-.88h-3.42a.86.86,0,0,0-.85.88v.87H415.56a.81.81,0,0,0-.6.26l-5.13,5.27a.89.89,0,0,0,0,1.25l5.13,5.26a.85.85,0,0,0,.6.26h17.11v1.76H415.56a.8.8,0,0,0-.6.25l-5.13,5.27a.89.89,0,0,0,0,1.25l5.13,5.26a.85.85,0,0,0,.6.26h17.11v23.71a.87.87,0,0,0,.85.88h3.42a.87.87,0,0,0,.86-.88V449.44h17.11a.88.88,0,0,0,.61-.25l5.13-5.27a.91.91,0,0,0,0-1.25"/><rect class="cls-1" x="416.42" y="435.39" width="3.42" height="1.76"/><rect class="cls-1" x="421.55" y="435.39" width="9.41" height="1.76"/><rect class="cls-1" x="416.42" y="449.44" width="9.41" height="1.76"/><rect class="cls-1" x="427.54" y="449.44" width="3.42" height="1.76"/><rect class="cls-1" x="439.51" y="442.42" width="7.7" height="1.76"/><rect class="cls-1" x="448.92" y="442.42" width="5.13" height="1.76"/><rect class="cls-1" x="433.67" y="429.37" width="3.12" height="50.74"/><path class="cls-1" d="M365.49,645.49a2,2,0,1,1,1.94-2,2,2,0,0,1-1.94,2m-15.49,0a2,2,0,1,1,1.94-2,2,2,0,0,1-1.94,2m-.65-11.77a2.65,2.65,0,0,1,1.55-2.4h0a2.45,2.45,0,0,1,1-.22h11.61a2.63,2.63,0,0,1,2.59,2.62v3.92H349.35ZM370,637.64v-3.92a6.5,6.5,0,0,0-6.46-6.54H351.94a6.33,6.33,0,0,0-3.88,1.31,2.3,2.3,0,0,0-.38.32,6.49,6.49,0,0,0-2.2,4.91v3.92a1.3,1.3,0,0,0-1.29,1.31v10.46a1.3,1.3,0,0,0,1.29,1.31h1.29v2a1.94,1.94,0,1,0,3.88,0v-2h14.2v2a1.94,1.94,0,1,0,3.87,0v-2H370a1.3,1.3,0,0,0,1.29-1.31V639a1.29,1.29,0,0,0-1.27-1.31"/><path class="cls-1" d="M348.34,625.32a8.69,8.69,0,0,1,2.67-.7h0a6.9,6.9,0,0,1,.92,0h11.62a8.92,8.92,0,0,1,6.45,2.75v-8a2.59,2.59,0,0,0-2.58-2.62H348.07a2.59,2.59,0,0,0-2.59,2.62v8a8.75,8.75,0,0,1,2.59-1.87l.27-.13"/><path class="cls-1" d="M340.93,633.31H320.61V617l10.16-5.4,10.16,5.4Zm1.52-17.82-10.71-5.73a1.64,1.64,0,0,0-1.95,0l-10.49,5.57-.22.16a1.7,1.7,0,0,0-.54,1.26v18.69H343V616.75a1.74,1.74,0,0,0-.55-1.26"/><path class="cls-1" d="M322.52,618.15v12.47a.7.7,0,0,0,.69.71h15.12a.7.7,0,0,0,.68-.71V618.15a.7.7,0,0,0-.68-.71H323.21a.7.7,0,0,0-.69.71"/></g></g></svg>