<svg xmlns="http://www.w3.org/2000/svg" viewBox="0 0 76.54 76.54"><defs><style>.cls-1{fill:#009edd;}.cls-2{fill:#fff;}</style></defs><title>homegrown</title><g id="Layer_2" data-name="Layer 2"><g id="Layer_1-2" data-name="Layer 1"><path class="cls-1" d="M38.27,76.54A38.27,38.27,0,1,0,0,38.27,38.28,38.28,0,0,0,38.27,76.54"/><path class="cls-2" d="M44.32,59.27H14.82a2.5,2.5,0,0,0,0,5h43a2.5,2.5,0,1,0,0-5H44.32Z"/><path class="cls-2" d="M24.82,18.27a1.5,1.5,0,0,0,1.5-1.5v-3a1.5,1.5,0,0,0-3,0v3a1.5,1.5,0,0,0,1.5,1.5"/><path class="cls-2" d="M23.32,32.77v3a1.5,1.5,0,0,0,3,0v-3a1.5,1.5,0,1,0-3,0"/><path class="cls-2" d="M31.54,20.17l2.12-2.12a1.51,1.51,0,0,0,0-2.12,1.49,1.49,0,0,0-2.12,0l-2.12,2.12a1.5,1.5,0,0,0,2.12,2.12"/><path class="cls-2" d="M18.1,29.36,16,31.48a1.5,1.5,0,1,0,2.12,2.13l2.12-2.13a1.49,1.49,0,0,0,0-2.12,1.51,1.51,0,0,0-2.12,0"/><path class="cls-2" d="M31.32,24.77a1.5,1.5,0,0,0,1.5,1.5h3a1.5,1.5,0,0,0,0-3h-3a1.5,1.5,0,0,0-1.5,1.5"/><path class="cls-2" d="M13.82,26.27h3a1.5,1.5,0,0,0,0-3h-3a1.5,1.5,0,0,0,0,3"/><path class="cls-2" d="M29.42,29.36a1.49,1.49,0,0,0,0,2.12l2.12,2.13a1.5,1.5,0,0,0,2.12-2.13l-2.12-2.12a1.51,1.51,0,0,0-2.12,0"/><path class="cls-2" d="M18.1,20.17a1.5,1.5,0,0,0,2.12-2.12L18.1,15.93A1.5,1.5,0,0,0,16,18.05Z"/><path class="cls-2" d="M24.82,29.27a4.5,4.5,0,1,0-4.5-4.5,4.51,4.51,0,0,0,4.5,4.5"/><path class="cls-2" d="M46.71,23.75H50a3.89,3.89,0,0,0,3.89,3.89h6.49a3.89,3.89,0,0,0,0-7.78h-4a3.24,3.24,0,0,0-3.18-2.59H46.71a3.24,3.24,0,0,0,0,6.48"/><path class="cls-2" d="M44.38,45.36A24.33,24.33,0,0,1,47.49,47a.68.68,0,0,0,.59,0,.64.64,0,0,0,.36-.47,8,8,0,0,1,1.91-4.14,7.86,7.86,0,0,1,1.9,4.05.63.63,0,0,0,.36.46.61.61,0,0,0,.57,0,29.69,29.69,0,0,1,3.14-1.54c-1.08,2.35-2.3,5-4.56,5.46a7.63,7.63,0,0,1-2.85,0c-2.28-.37-3.42-2.93-4.53-5.41"/><path class="cls-2" d="M45.83,57.21h5a.63.63,0,0,0,0-1.26H45.74l-.07-1a2.46,2.46,0,0,1,2.43-2.76h4.51A2.45,2.45,0,0,1,55,55l-.37,5.31H46.05Z"/><path class="cls-2" d="M30.08,45.36A25,25,0,0,1,33.2,47a.66.66,0,0,0,.58,0,.64.64,0,0,0,.36-.47,7.89,7.89,0,0,1,1.92-4.14A7.92,7.92,0,0,1,38,46.42a.63.63,0,0,0,.36.46.61.61,0,0,0,.57,0A29.69,29.69,0,0,1,42,45.32c-1.07,2.35-2.3,5-4.55,5.46a7.67,7.67,0,0,1-2.86,0c-2.28-.37-3.42-2.93-4.53-5.41"/><path class="cls-2" d="M31.53,57.21h5a.63.63,0,0,0,0-1.26H31.44l-.07-1a2.46,2.46,0,0,1,2.43-2.76h4.51A2.45,2.45,0,0,1,40.73,55l-.37,5.31H31.75Z"/><path class="cls-2" d="M16.23,45.36A24.33,24.33,0,0,1,19.34,47a.68.68,0,0,0,.59,0,.64.64,0,0,0,.36-.47,7.87,7.87,0,0,1,1.91-4.14,8,8,0,0,1,1.9,4.05.63.63,0,0,0,.35.46.63.63,0,0,0,.58,0,28.78,28.78,0,0,1,3.13-1.54c-1.07,2.35-2.3,5-4.55,5.46a7.61,7.61,0,0,1-2.85,0c-2.28-.37-3.43-2.93-4.53-5.41"/><path class="cls-2" d="M17.68,57.21h5a.63.63,0,0,0,0-1.26H17.59l-.08-1a2.51,2.51,0,0,1,.6-1.93,2.47,2.47,0,0,1,1.83-.83h4.51A2.45,2.45,0,0,1,26.88,55l-.37,5.31H17.89Z"/></g></g></svg>