<svg xmlns="http://www.w3.org/2000/svg" width="488.04" height="216.35" viewBox="0 0 488.04 216.35"><defs><style>.cls-1{fill:#d7d2cf;}</style></defs><title>largeNews</title><g id="Layer_2" data-name="Layer 2"><g id="Layer_1-2" data-name="Layer 1"><path class="cls-1" d="M4,.07H2.1C.86.54.37.73,0,2.28,1,8.45,1.19,17.87,1.75,26.39c1.6,24.7,2.78,48.05,3,73.32,0,4,2,54.89,4.39,83.34,1,11.62,2.2,17.38,2.64,21.2a2.55,2.55,0,0,0,.31.85,2.32,2.32,0,0,0,1.78-.25q1,0,2,.15a15.3,15.3,0,0,1,3,.51,5.65,5.65,0,0,1,3.41,1.13,5.24,5.24,0,0,0,2.67-.51h1.63a2.43,2.43,0,0,0,1.54.31h.41a5.79,5.79,0,0,1,3.86.73l4.59.06c1.67.26,3.48.08,5.15.27.45.6.25.9.06,1.43.72,1.44,2.51,1.42,3.87,1.61a11,11,0,0,1,2.92.24,9.43,9.43,0,0,0,3.89,1,32.23,32.23,0,0,0,3.26,0,33.28,33.28,0,0,1,4.35.13h3a8.21,8.21,0,0,1,3,.25,3.6,3.6,0,0,0,2.58,1.93l3.74.05c1.15-1.17,1.59-1.15,3-.64a5.54,5.54,0,0,0,3.51,1.67,5.16,5.16,0,0,1,2.2-1.05,10.26,10.26,0,0,0,2.41-.11,8,8,0,0,1,3.11-.23c1.3-1.08,2.14-2.9,3.18-.91a18.26,18.26,0,0,0,3.22.19h.9c2.07.23,3.2-1.37,4.92-1.56l5.56.07c1.07-.17,1.66-.41,2.73-.51.13.65.69.63.91.83l3.5,0a10.2,10.2,0,0,0,3.07-.78c1.34-.92,1.78-.85,2.6-.64-.18.59-.31,1.08-.47,1.62,1.27.22,1.56-.42,2.34-.92,1.62-.49,3.44-.17,5-.75a7.38,7.38,0,0,1,3.17-.91,7.36,7.36,0,0,1,3.8-.76c1.17,0,2.21.3,3.4.31,1.24-1.18,2.38-.24,4.32-.21a50.91,50.91,0,0,0,5-1.43l4.94.06c.41,0,.6.46.91.69a9.6,9.6,0,0,0,2.13-.37,5.64,5.64,0,0,1,3.58,1c1.69.06,3.14.31,4.85.33a14.14,14.14,0,0,1,2,1.79,4.39,4.39,0,0,0,2-.25c2.8-1.78,6.45,0,9.64,0a23.16,23.16,0,0,0,4.77-.61c1.29-.16,2.72-.1,4-.22.7.12.61.88,1,1.37a6,6,0,0,0,3.17-.91,5.66,5.66,0,0,0,3.34-.5,8,8,0,0,1,2.6-2,25.74,25.74,0,0,1,4.21-.08,31.49,31.49,0,0,1,4.54-.48c.33.57.56.9.84,1.36l3.86.05a21.56,21.56,0,0,0,4.25-1.16,10.48,10.48,0,0,1,3.89.46,4.53,4.53,0,0,0,2.37,1,17.49,17.49,0,0,0,4.57-.21h2a3.78,3.78,0,0,0,1.26.69h3.87c1.4.21,2.41.69,3.69.86.83,1.22,1.88,1.18,3.07,1.15h2.55a15.93,15.93,0,0,1,4.62.27l5.55.07c1.72-.44,3.27-1.21,4.93-1.56a11.48,11.48,0,0,1,2.55.17c.29-.51.48-1.14.7-1.62a15.37,15.37,0,0,1,3.25-.1,6.85,6.85,0,0,0,1.7,1.52,5.58,5.58,0,0,1,2.8-1.05l.58-.52h0c.41.46.78.89,1.36,1.56a5.05,5.05,0,0,1,.73,3.28c0,.53-.6.74,0,1.55,1.63,0,2.6-.08,3.78,1.25a17,17,0,0,1,3.22-1.67c1.32-1.9,1.88-2.77,4.66-2.7a6.75,6.75,0,0,0,2.12-2,6.9,6.9,0,0,1,3.71-1.32,9.14,9.14,0,0,1,4.21.91c1.21-.69,2.24-1.57,4-1.32a14.41,14.41,0,0,0,5.55-1.3c1.45-.85,2.81-2.55,5-2.52a11.75,11.75,0,0,1,4.19.74,15.29,15.29,0,0,1,3.92-.63c2.72-.31,4.74-1.8,7.83-1.45,1.82,0,3.71-.09,5.09-1.31a34.93,34.93,0,0,1,10.89.49A5.55,5.55,0,0,1,336.9,199a53.62,53.62,0,0,0,7.91-.41c2.35,0,4.65.33,7.07.44,1.3.71,2.06,1.92,3.47,1.25,3.12-1.81,6.5-4.18,11.23-4.5l10.87.14a23.47,23.47,0,0,1,8.34-.75,7.65,7.65,0,0,1,3.45-.82,14.06,14.06,0,0,0,4.86,1.44h1.41c2.23,0,4.42-.05,6.48,1.14a8,8,0,0,0,3.61-.64c3.3,0,6.2-.26,8.62,2.52,2.32.32,5.16,1,7.7.62.53-.24.34-1.18,1.47-.67a10.77,10.77,0,0,0,4.64.57c.9,1.72,2,1.76,4.06,1.09,2.49,0,4.86.26,7-.77h1c1.76,0,3.39,0,4.93,1.28,2.72,0,5.13.75,7.85.62,1,.28,1.77.73,2.54-.65a15.23,15.23,0,0,0,2.08-.66c3.21,0,5.88,1.38,9.12,1.15a8.56,8.56,0,0,1,3.51-1.85c.26-1.21.13-1.55,1.17-2.39.76-.78,1.32-.41.59-2.06a17.94,17.94,0,0,1-2.27-5.19c0-.49-.68-1.15,0-1.72-.51-1-.8-1.88-1.89-2.44-.37-1.31-1.53-2.26-.69-2.76.58.35.55,1.45,1.77,1.06a5.44,5.44,0,0,0,1.15-2.74,8.13,8.13,0,0,0,.43-2.06c.93-1,1.94-1.61,1.53-3.59.44-.91,1.28-.51.09-2.58-.46-1.64-.6-2.18-1.93-3-.05-.1-1.87-.44-.57-1.38,1.18.65,1.27,1,2.44,0-.05-.57-.09-1.15-.14-1.72.13-.25,1.4-.06.66-1.2,0-1.33.13-2-.72-3.11a5.33,5.33,0,0,1,.28-2.06c.26-.71.87-.91.27-2.23-.19-2.26-.49-3.51,1-4.63a8.23,8.23,0,0,0-1.53-3.64c-1.41-1.46-1-2.79,0-5,.73-.77,1.34-1.18,1.31-2.57-.1-1.12-.28-1.68.39-2.57a10.21,10.21,0,0,0-.06-2.59,5.45,5.45,0,0,0-1.24-3.8c.22-.59-.18-1.27.62-1.71s1.43-.54,1.86-1.52a13.62,13.62,0,0,1-1.37-1.74c.35-.79-.56-1.31.77-1.71,1.58,0,2.48.22,3.09-1.34a21.8,21.8,0,0,1-2.31-5.71,19.42,19.42,0,0,1-3-4.34c.46-.74-.71-1.62,1.07-1.7,1.32-1.37,3-2.8,3.39-5.12-1-1-2.39-2.22-3.34-3.31a5.55,5.55,0,0,1,.34-3.27c1.55-.58,2.88-1,2.46-3.41A5,5,0,0,0,477,95.29,30.45,30.45,0,0,0,476,89.6c-1.31-1.19-2.17-3.22.11-4.13a8.22,8.22,0,0,1,2.2.72c1.47-.49,2.62-.74,3.32-2.37a5.3,5.3,0,0,0,.14-3.78,13,13,0,0,1,.43-2.06c.06,0,.29-1.57.88-.5a18.1,18.1,0,0,1,3.08-.63c.07-.58.15-1.16.22-1.74-.49-2.59-.36-5.51-1.84-7.42-.11-.63-1.45-.55-.31-1.9h1.07a2.71,2.71,0,0,1,.57,0,2.08,2.08,0,0,0,1.1-.15c-.68-1.07-1.09-2.12-1.82-3.47-.57-1-1.42.3-1.08-1.91-.71-3.84-.27-5.67.6-9.11a8.66,8.66,0,0,1-1.36-3.46c1.12-1.91,3.35-2.83,2.08-6.16a3,3,0,0,0,1.8-2.21,10.83,10.83,0,0,0,.11-4.13,8.53,8.53,0,0,0-.49-4c0-.21-.88-.56-.12-1.37.82-.48,1.23,0,1.25-1.54a7.45,7.45,0,0,0-.46-3.62c-1.91-2.56-4.65-5.29-5-9l-1.23-1.91A61.89,61.89,0,0,1,475.54,9c-1.79-2.77-2.42-3.83-5.6-4.72-4.18.42-8.43,1.5-12.68,1.9l-8.72-.11c-3.5.39-7,1.19-10.58,1.41-1.85,0-3.64-.67-5.54-.42-2.42.52-5.31.74-7.27,2.66a17.17,17.17,0,0,1-7.25.94,32,32,0,0,1-6.92-.44c-4.16-1.3-8.55-1.39-12.77-2.75-3.5-.9-7.7-1.81-11.85-1-1.7.41-3.53.38-5.3.62-3.77,0-7.43.2-11.11.46A121.52,121.52,0,0,1,357.44,8a20.22,20.22,0,0,0-5.62,2.17c-2.09.5-4.1,1.34-6.46,1.29-3.91-.05-7.37-1.54-11.46-1.7A29.25,29.25,0,0,0,329,11.43h-1.52a18.47,18.47,0,0,1-5.24-.44,12.83,12.83,0,0,0-5.58-.93A16.49,16.49,0,0,0,311,9.4a25,25,0,0,1-4.65-.34l-10.87-.14-7-.09a16.49,16.49,0,0,0-8.52-1.32c-.92,0-1.83,0-2.73.07a35.13,35.13,0,0,1-3.84,0c-2.3.56-4.86.72-7,1.45l-6.89-.09c-1.64,0-3.25.1-4.85.22a46.29,46.29,0,0,1-6.12.16c-1.55-.76-2.81-1.57-4.7-1.27-1.23,0-2.56-.24-3.64.3-2.83,0-5.71-.26-8.19.75-2.84.69-5.2,1.88-8.23,2.13-.82,0-1.76.06-2.72.12-2.56.18-5.23.35-6.06-.92a11.43,11.43,0,0,0-5.48.27,10.83,10.83,0,0,1-6.33-.77c-2.53,0-4.74-1.42-7.33-1.65l-4.28,0c-4.09-1.06-7.84-4.53-13.67-2.59-1.75,0-3.19.61-4.83.8a18.65,18.65,0,0,0-2.47-.38l-6.7.1a34.47,34.47,0,0,0-5.76-1.28c-1.6-.22-3.15-1.11-5-.93-2.27,0-5-.59-6.83.6a3.59,3.59,0,0,0-3.67,1.84c0,1.55,0,2.27-1.49,2.22-1.43-1.15-2.53-1.9-4.07-3-4.2-1-9.4.15-13.63-2.07a43.06,43.06,0,0,0-4.64,1.15A10.26,10.26,0,0,1,114,3.76c-2.44,0-5-.47-7,.94-2.3.56-4.85,1.86-7.6,2.31-2-.48-4.25-.78-5.27-2.65L87.88,4.3c-2-.28-4.39-1.19-6.7-1.46-1.65.55-3,1.57-4.93,1.31L63.42,4c-1.36,0-2.49-.41-3.85-.39a28.28,28.28,0,0,0-6.22.6,23.23,23.23,0,0,1-6.12-.08,91.25,91.25,0,0,1-9.95-2,13.9,13.9,0,0,0-5.18.28c-.87-.21-1.5-.37-2.49-.55s-2.81-.53-4,.12a6.3,6.3,0,0,1-3.38,1.67C17.08,2.45,12,2.55,7.11.19A11.68,11.68,0,0,0,5.34,0H4"/></g></g></svg>