<svg xmlns="http://www.w3.org/2000/svg" viewBox="0 0 103.2 136.75"><defs><style>.cls-1{fill:#009edd;}.cls-2{fill:#fff;}</style></defs><title>loading</title><g id="Layer_2" data-name="Layer 2"><g id="Layer_1-2" data-name="Layer 1"><path class="cls-1" d="M103.2,51.6a51.6,51.6,0,1,0-51.6,51.6,51.6,51.6,0,0,0,51.6-51.6"/><path class="cls-1" d="M103.2,51.6a51.6,51.6,0,1,0-51.6,51.6,51.6,51.6,0,0,0,51.6-51.6"/><path class="cls-2" d="M83.51,70.42,80.91,56.7A19,19,0,0,1,73,58.2l2.59,13.72a4,4,0,0,0,7.93-1.5"/><path class="cls-2" d="M66.72,49.4a12.1,12.1,0,1,1,16.82-3.18A12.11,12.11,0,0,1,66.72,49.4m20.15-.91a16.14,16.14,0,1,0-22.42,4.25,16.14,16.14,0,0,0,22.42-4.25"/><path class="cls-2" d="M65.76,34.1,68,35.61a6.73,6.73,0,0,1,9.34-1.76l1.52-2.23A9.43,9.43,0,0,0,65.76,34.1"/><polyline class="cls-1" points="50.6 96.94 50.6 133.66 52.6 133.66 52.6 96.94"/><path class="cls-1" d="M54.68,133.66a3.09,3.09,0,1,0-3.08,3.09,3.08,3.08,0,0,0,3.08-3.09"/><path class="cls-2" d="M46.29,36.92h-.67a.67.67,0,1,1,0-1.34h.67a.63.63,0,0,1,.68.67.67.67,0,0,1-.68.67m0,3.37h-.67a.68.68,0,1,1,0-1.35h.67a.64.64,0,0,1,.68.68.68.68,0,0,1-.68.67m0,3.37h-.67a.68.68,0,1,1,0-1.35h.67A.64.64,0,0,1,47,43a.68.68,0,0,1-.68.68m7.21,1.41H50V33.42a.64.64,0,0,0-.68-.67H42.59a.68.68,0,0,0-.68.67V45.07h-3a.68.68,0,0,0-.67.68v2.62a2.24,2.24,0,0,1-.2,1H54.17V45.75a.72.72,0,0,0-.67-.68"/><path class="cls-2" d="M28.92,41.21l-2.06.6.84-3,1.37,2.36Zm-3.36-.27-2.91-5,4,1.42ZM23,30.63l2.9,5L22,34.2ZM18,27.73l4,1.42L20.9,32.79Zm2.14-2.22L21.2,27.4l-3-1.08Zm15.32,15.7h-3.7l-1.15-.54c-.91-1.49-8.1-14.08-9.47-16.37a.76.76,0,0,0-1-.27l-3.28,1.82c-.23.13-.46.27-.46.6V37.21h.76V29.28c.08.2,6.88,12.73,7.57,13.81l-.61.2a.69.69,0,0,0-.54.68v3.16a1.46,1.46,0,0,0,1.53,1.35h5.12v2.43h1.53v-2.5h2.93a1.45,1.45,0,0,0,1.53-1.34V41.88a.77.77,0,0,0-.76-.67"/><path class="cls-2" d="M46.62,60.54H45.2a.66.66,0,0,1-.72-.68.7.7,0,0,1,.72-.67h1.42a.68.68,0,1,1,0,1.35m-5.71,0H39.48a.66.66,0,0,1-.72-.68.7.7,0,0,1,.72-.67h1.43a.68.68,0,1,1,0,1.35m-5.72,0H33.76a.65.65,0,0,1-.71-.68.69.69,0,0,1,.71-.67h1.43a.68.68,0,1,1,0,1.35M10.47,50.73a.69.69,0,0,0-.71.67v5.37a1.89,1.89,0,0,0,.78,1.55c2.5,1.88,3,2.08,3,2.56v1.46a7.93,7.93,0,0,1,3.2,1,4.59,4.59,0,0,0,2.48.64,4.48,4.48,0,0,0,2.47-.64,8.16,8.16,0,0,1,4.23-1.08,8.18,8.18,0,0,1,4.22,1.08,5.11,5.11,0,0,0,5,0,8.09,8.09,0,0,1,4.22-1.08,8.18,8.18,0,0,1,4.22,1.08,5.11,5.11,0,0,0,4.95,0,8,8,0,0,1,3.75-1.07c0-.87-.2-1.55.33-1.83l1.78-.88a1.91,1.91,0,0,0,1.14-1.75v-7Z"/><path class="cls-2" d="M51.56,73.85a4.09,4.09,0,0,0-2.34.65,7.94,7.94,0,0,1-8,0,4.52,4.52,0,0,0-4.67,0,7.94,7.94,0,0,1-8,0,4.5,4.5,0,0,0-4.66,0,7.37,7.37,0,0,1-4,1.07,7.43,7.43,0,0,1-4-1.07,4.05,4.05,0,0,0-2.33-.65,1.72,1.72,0,0,1,0-3.44,7.37,7.37,0,0,1,4,1.07,4.05,4.05,0,0,0,2.33.65,4.05,4.05,0,0,0,2.33-.65,7.34,7.34,0,0,1,4-1.07,7.34,7.34,0,0,1,4,1.07,4.5,4.5,0,0,0,4.66,0,8,8,0,0,1,8,0,4.5,4.5,0,0,0,4.66,0,7.41,7.41,0,0,1,4-1.07,1.72,1.72,0,0,1,0,3.44"/><path class="cls-2" d="M53.28,66.71a1.72,1.72,0,0,1-1.72,1.72,4.05,4.05,0,0,0-2.33.65,8,8,0,0,1-8,0,4.07,4.07,0,0,0-2.33-.65,4,4,0,0,0-2.33.65,8,8,0,0,1-8,0,4.5,4.5,0,0,0-4.66,0,7.34,7.34,0,0,1-4,1.07,7.37,7.37,0,0,1-4-1.07,4.05,4.05,0,0,0-2.33-.65,1.73,1.73,0,0,1,0-3.45,7.16,7.16,0,0,1,1,.06,7.25,7.25,0,0,1,3,1,4.11,4.11,0,0,0,2.34.65,4.05,4.05,0,0,0,2.33-.65,7.33,7.33,0,0,1,4-1.08,7.33,7.33,0,0,1,4,1.08,4.5,4.5,0,0,0,4.66,0,7.89,7.89,0,0,1,8,0,4.5,4.5,0,0,0,4.66,0A7.36,7.36,0,0,1,51.1,65l.46,0a1.73,1.73,0,0,1,1.72,1.73"/></g></g></svg>