<svg xmlns="http://www.w3.org/2000/svg" viewBox="0 0 103.2 136.75"><defs><style>.cls-1{fill:#c22033;}.cls-2{fill:#fff;}</style></defs><title>packing</title><g id="Layer_2" data-name="Layer 2"><g id="Layer_1-2" data-name="Layer 1"><path class="cls-1" d="M103.2,51.6a51.6,51.6,0,1,0-51.6,51.6,51.6,51.6,0,0,0,51.6-51.6"/><path class="cls-1" d="M103.2,51.6a51.6,51.6,0,1,0-51.6,51.6,51.6,51.6,0,0,0,51.6-51.6"/><path class="cls-2" d="M66.32,49.38a.4.4,0,1,1,.4-.4.4.4,0,0,1-.4.4m-.69-1.8a.4.4,0,1,1,.4.4.4.4,0,0,1-.4-.4m-1.08,1.79A.4.4,0,1,1,65,49a.4.4,0,0,1-.4.4m-1.31,1.21a.4.4,0,1,1,.41-.4.4.4,0,0,1-.41.4m4.4-3.38a.4.4,0,1,1-.4.4.4.4,0,0,1,.4-.4m.41-1.62a.4.4,0,1,1-.41.4.4.4,0,0,1,.41-.4m2.3,1.17a.4.4,0,1,1-.41.4.4.4,0,0,1,.41-.4m8.07,6.09c-3.83-3.79-9.37-8.51-10.47-8.27s-6.32,5.63-9.55,9a65,65,0,0,0,8.25.53,53.18,53.18,0,0,0,11.77-1.25"/><path class="cls-2" d="M86.28,82.65a1.45,1.45,0,0,1-2,.36l-2-1.37c-3.25,1.78-10,1.42-12.76,1.42-3.08,0-8.82.79-13-1.24l-1.19.84a1.45,1.45,0,1,1-1.67-2.38l.64-.45c-1.73-3.79.15-12.91,1.13-17a36.58,36.58,0,0,0,8.37.62h3.85c3.47,0,10.91-.44,14.63-1.49,3.27,6.39,2.7,14.31,1.8,17.41l1.81,1.27a1.45,1.45,0,0,1,.36,2"/><path class="cls-2" d="M83.82,60.51c-.62,1.08-9.36,2.22-16.14,2.22s-14.07.32-14.49-2.46A6.84,6.84,0,0,1,53.27,58l.12-.55.41-1.32.17-.55a18.61,18.61,0,0,1,.83-1.86s13.69,3,26.6-.9c2.34,2.5,3,6.62,2.42,7.71"/><path class="cls-2" d="M53.8,56.1l-.41,1.32c.11-.46.25-.91.39-1.33Z"/><path class="cls-1" d="M75.32,65.91s-1.79,5.29-3.45,3.63,2.9-3.51,3.45-3.63"/><path class="cls-1" d="M71.06,64.9s-1.18.94-.36,3.12c.92,2.44-.82,3-1.52,2.31-1.56-1.56,1.32-5.25,1.88-5.43"/><path class="cls-1" d="M68.81,67.15s-1.19.94-.36,3.12c.92,2.44-.82,3-1.52,2.32-1.57-1.57,1.32-5.26,1.88-5.44"/><path class="cls-1" d="M65.19,77.06,63,78.89c-.44.45-1-.45-.77-.66L64.1,76c.18-.19.26.23.56.53s.72.38.53.57"/><path class="cls-1" d="M64.61,74.9c-1.57-1.56,1.31-5.24,1.89-5.43,0,0-1.2.94-.37,3.12.92,2.44-.83,3-1.52,2.31"/><path class="cls-1" d="M66.29,76.59c-.71-.7-.13-2.45,2.31-1.52,2.18.82,3.12-.37,3.12-.37-.18.56-3.87,3.45-5.43,1.89"/><path class="cls-1" d="M68.61,74.27c-.71-.7-.13-2.45,2.31-1.53,2.18.83,3.13-.36,3.13-.36-.19.57-3.88,3.45-5.44,1.89"/><path class="cls-1" d="M70.86,72c-.7-.71-.13-2.45,2.32-1.53,2.17.83,3.12-.36,3.12-.36-.19.57-3.88,3.45-5.44,1.89"/><path class="cls-2" d="M47.78,32.11l10.37-8.74L54,19.24l-7.78,9.22-5.38-6.53-5.38,6.53-7.77-9.22-4.13,4.13L34,32.11,33,41.48l-9.45,8,4.13,4.13,4.65-5.53-1.1,11.29H29.34v2.88H52.39V59.39H50.47L49.36,48.1,54,53.63l4.13-4.13-9.46-8Zm-6.92,1.83a2.4,2.4,0,1,1-2.4,2.4,2.37,2.37,0,0,1,2.4-2.4m2.88,25.45H38V52.76a2.88,2.88,0,0,1,5.76,0Z"/><polyline class="cls-1" points="51.47 96.94 51.47 133.66 53.47 133.66 53.47 96.94"/><path class="cls-1" d="M55.55,133.66a3.09,3.09,0,1,0-3.08,3.09,3.08,3.08,0,0,0,3.08-3.09"/></g></g></svg>