<svg xmlns="http://www.w3.org/2000/svg" viewBox="0 0 76.54 76.54"><defs><style>.cls-1{fill:#009edd;}.cls-2{fill:#fff;}</style></defs><title>safeFood</title><g id="Layer_2" data-name="Layer 2"><g id="Layer_1-2" data-name="Layer 1"><path class="cls-1" d="M38.27,76.54A38.27,38.27,0,1,0,0,38.27,38.28,38.28,0,0,0,38.27,76.54"/><path class="cls-2" d="M21.6,37.58c-5.27,0-9.25,3.75-9.25,8.78a1.39,1.39,0,0,0,2.78,0,5.8,5.8,0,0,1,3.18-5.21L16.18,52.26a.93.93,0,0,0,.91,1.05h.81v7.86a1.39,1.39,0,1,0,2.77,0V53.31h1.86v7.86a1.39,1.39,0,1,0,2.77,0V53.31h.81A.94.94,0,0,0,27,52.26L24.89,41.15a5.78,5.78,0,0,1,3.19,5.21,1.39,1.39,0,0,0,2.78,0c0-5-4-8.78-9.26-8.78"/><path class="cls-2" d="M21.6,35.71A3.7,3.7,0,1,0,17.9,32a3.7,3.7,0,0,0,3.7,3.7"/><path class="cls-2" d="M36.12,55a7.6,7.6,0,0,0,7.6,7.6H56.59a7.6,7.6,0,0,0,7.6-7.6Z"/><path class="cls-2" d="M44.92,53.21H63.6a4.09,4.09,0,0,0-4.1-4.1h0A3.8,3.8,0,0,0,54,46a4.09,4.09,0,0,0-7.72,0,3.69,3.69,0,0,0-1.69-.4,3.8,3.8,0,0,0-3.79,3.5h0a4.09,4.09,0,0,0-4.1,4.1h8.21Z"/><path class="cls-2" d="M44.43,26.41l-.41.4-3.28,3.44a.31.31,0,0,1-.42,0L37,26.81l-.41-.4a2.53,2.53,0,0,1,0-3.61,2.45,2.45,0,0,1,1.69-.66,2.49,2.49,0,0,1,1.74.71l.51.47.5-.47a2.51,2.51,0,0,1,1.75-.71,2.47,2.47,0,0,1,1.69.66,2.54,2.54,0,0,1,0,3.61m5-10.7L40.64,14h-.22l-8.78,1.73a.58.58,0,0,0-.47.57v11.8c0,5.77,4.27,10.44,9.36,10.44s9.35-4.67,9.35-10.44V16.28a.58.58,0,0,0-.47-.57"/></g></g></svg>