<svg xmlns="http://www.w3.org/2000/svg" viewBox="0 0 103.2 136.75"><defs><style>.cls-1{fill:#c22033;}.cls-2{fill:#231f20;}.cls-3{fill:#fff;}</style></defs><title>shipping</title><g id="Layer_2" data-name="Layer 2"><g id="Layer_1-2" data-name="Layer 1"><polyline class="cls-1" points="50.7 96.94 50.7 133.66 52.7 133.66 52.7 96.94"/><path class="cls-1" d="M54.78,133.66a3.09,3.09,0,1,0-3.08,3.09,3.08,3.08,0,0,0,3.08-3.09"/><path class="cls-2" d="M103.2,51.6a51.6,51.6,0,1,0-51.6,51.6,51.6,51.6,0,0,0,51.6-51.6"/><path class="cls-1" d="M103.2,51.6a51.6,51.6,0,1,0-51.6,51.6,51.6,51.6,0,0,0,51.6-51.6"/><path class="cls-3" d="M51.6,25.57a1.14,1.14,0,0,1,1.13-1.14h6.79a1.14,1.14,0,0,1,1.13,1.14v6.79a1.14,1.14,0,0,1-1.13,1.13H52.73a1.13,1.13,0,0,1-1.13-1.13Z"/><rect class="cls-3" x="40.28" y="24.43" width="9.05" height="9.05" rx="1.13"/><rect class="cls-3" x="33.49" y="36.89" width="33.96" height="5.65" rx="1.13"/><path class="cls-3" d="M30.1,45.94H70.83a2.25,2.25,0,0,1,2.26,2.46,22.83,22.83,0,0,1-5.22,12.24,5.18,5.18,0,0,1-2.75-.85,10.49,10.49,0,0,0-10.47,0,5.87,5.87,0,0,1-6.12,0,10.49,10.49,0,0,0-10.47,0,5.3,5.3,0,0,1-3.07.86,4.87,4.87,0,0,1-2.29-.46A22.82,22.82,0,0,1,27.84,48.4a2.25,2.25,0,0,1,2.26-2.46"/><path class="cls-3" d="M76.5,76.5a5.38,5.38,0,0,0-3.07.85,10.36,10.36,0,0,1-10.47,0,5.38,5.38,0,0,0-3.07-.85,5.32,5.32,0,0,0-3.06.85,10.36,10.36,0,0,1-10.47,0,6,6,0,0,0-6.13,0A9.68,9.68,0,0,1,35,78.77a9.67,9.67,0,0,1-5.23-1.42,5.34,5.34,0,0,0-3.06-.85,2.27,2.27,0,0,1,0-4.53,9.68,9.68,0,0,1,5.23,1.41,5.29,5.29,0,0,0,3.06.85,5.3,5.3,0,0,0,3.07-.85,10.42,10.42,0,0,1,10.47,0,6,6,0,0,0,6.13,0,10.42,10.42,0,0,1,10.47,0,6,6,0,0,0,6.13,0A9.72,9.72,0,0,1,76.5,72a2.27,2.27,0,0,1,0,4.53"/><path class="cls-3" d="M76.5,67.44a5.3,5.3,0,0,0-3.07.86A10.42,10.42,0,0,1,63,68.3a5.3,5.3,0,0,0-3.07-.86,5.24,5.24,0,0,0-3.06.86,10.42,10.42,0,0,1-10.47,0,5.89,5.89,0,0,0-6.13,0A9.69,9.69,0,0,1,35,69.71a9.77,9.77,0,0,1-5.23-1.41,5.27,5.27,0,0,0-3.06-.86,2.26,2.26,0,1,1,0-4.52,9.68,9.68,0,0,1,5.23,1.41,6,6,0,0,0,6.13,0,10.42,10.42,0,0,1,10.47,0,6,6,0,0,0,6.13,0,10.42,10.42,0,0,1,10.47,0,6,6,0,0,0,6.13,0,9.72,9.72,0,0,1,5.24-1.41,2.26,2.26,0,0,1,0,4.52"/></g></g></svg>