<svg xmlns="http://www.w3.org/2000/svg" viewBox="0 0 103.2 136.75"><defs><style>.cls-1{fill:#009edd;}.cls-2{fill:#fff;}</style></defs><title>storing</title><g id="Layer_2" data-name="Layer 2"><g id="Layer_1-2" data-name="Layer 1"><path class="cls-1" d="M103.2,51.6a51.6,51.6,0,1,0-51.6,51.6,51.6,51.6,0,0,0,51.6-51.6"/><path class="cls-1" d="M103.2,51.6a51.6,51.6,0,1,0-51.6,51.6,51.6,51.6,0,0,0,51.6-51.6"/><path class="cls-2" d="M76.47,76.32H28.26V38.76l24.1-12.45L76.47,38.76ZM80.09,35.2,54.68,22a4,4,0,0,0-4.63,0L25.15,34.83l-.52.37a3.92,3.92,0,0,0-1.29,2.91V81.24H81.39V38.11a3.93,3.93,0,0,0-1.3-2.91"/><path class="cls-2" d="M32.8,41.32v28.8a1.64,1.64,0,0,0,1.63,1.63H70.3a1.64,1.64,0,0,0,1.63-1.63V41.32a1.63,1.63,0,0,0-1.63-1.63H34.43a1.63,1.63,0,0,0-1.63,1.63"/><polyline class="cls-1" points="50.63 96.94 50.63 133.66 52.63 133.66 52.63 96.94"/><path class="cls-1" d="M54.72,133.66a3.09,3.09,0,1,0-3.08,3.09,3.08,3.08,0,0,0,3.08-3.09"/></g></g></svg>