<svg xmlns="http://www.w3.org/2000/svg" width="170.29" height="34.11" viewBox="0 0 170.29 34.11"><defs><style>.cls-1{fill:#cfbfb0;opacity:0.7;isolation:isolate;}</style></defs><title>tape</title><g id="Layer_2" data-name="Layer 2"><g id="Layer_1-2" data-name="Layer 1"><path class="cls-1" d="M168,4.63,0,0C3,2.2,2.38,3.67,3.05,6.06c-1.27,1.73.7,3.54.89,4.51,1.78,1.86-.54,3-.79,4.46A61.7,61.7,0,0,0,.71,29.55l165.16,4.56c.69-1.86-1.55-3.18-2-4.16-.78-1,.54-2.24.71-3,2.34-2-.23-2.36-.36-3.74a24.91,24.91,0,0,1,.93-7.08c.33-1.34-.64-2.58-.93-3.76,1.57-1.57,3.74-2.09,5.77-3.22,1-2.68-.74-2.7-2-4.54"/></g></g></svg>