<svg xmlns="http://www.w3.org/2000/svg" viewBox="0 0 103.2 133.66"><defs><style>.cls-1{fill:#c22033;}.cls-2{fill:#fff;}</style></defs><title>transporting</title><g id="Layer_2" data-name="Layer 2"><g id="Layer_1-2" data-name="Layer 1"><path class="cls-1" d="M103.2,51.6a51.6,51.6,0,1,0-51.6,51.6,51.6,51.6,0,0,0,51.6-51.6"/><path class="cls-1" d="M103.2,51.6a51.6,51.6,0,1,0-51.6,51.6,51.6,51.6,0,0,0,51.6-51.6"/><path class="cls-2" d="M65.26,68.19a3.5,3.5,0,1,1,3.5-3.5,3.5,3.5,0,0,1-3.5,3.5m-28,0a3.5,3.5,0,1,1,3.5-3.5,3.49,3.49,0,0,1-3.5,3.5m-1.16-21a4.68,4.68,0,0,1,2.8-4.27h0a4.34,4.34,0,0,1,1.84-.4h21a4.71,4.71,0,0,1,4.53,3.55,4.46,4.46,0,0,1,.14,1.12v7H36.1Zm37.33,7v-7A11.68,11.68,0,0,0,61.76,35.52h-21a11.53,11.53,0,0,0-7,2.33,5.38,5.38,0,0,0-.7.58A11.84,11.84,0,0,0,30.87,41a11.65,11.65,0,0,0-1.78,6.18v7a2.35,2.35,0,0,0-2.33,2.33V75.19a2.34,2.34,0,0,0,2.33,2.33h2.34V81a3.5,3.5,0,0,0,7,0v-3.5H64.1V81a3.5,3.5,0,1,0,7,0v-3.5h2.3a2.33,2.33,0,0,0,2.34-2.33V56.52a2.33,2.33,0,0,0-2.31-2.33"/><path class="cls-2" d="M34.25,32.21A15.85,15.85,0,0,1,39.08,31h0a12.74,12.74,0,0,1,1.65-.09h21a16.26,16.26,0,0,1,11.66,4.92V21.53a4.65,4.65,0,0,0-4.66-4.67h-35a4.64,4.64,0,0,0-4.66,4.67V35.78a15.79,15.79,0,0,1,4.66-3.34c.17-.09.33-.16.49-.23"/><polyline class="cls-1" points="50.62 96.94 50.62 133.66 52.62 133.66 52.62 96.94"/></g></g></svg>