<svg xmlns="http://www.w3.org/2000/svg" viewBox="0 0 103.2 136.75"><defs><style>.cls-1{fill:#009edd;}.cls-2{fill:#fff;}</style></defs><title>unloading</title><g id="Layer_2" data-name="Layer 2"><g id="Layer_1-2" data-name="Layer 1"><path class="cls-1" d="M103.2,51.6a51.6,51.6,0,1,0-51.6,51.6,51.6,51.6,0,0,0,51.6-51.6"/><path class="cls-1" d="M103.2,51.6a51.6,51.6,0,1,0-51.6,51.6,51.6,51.6,0,0,0,51.6-51.6"/><rect class="cls-2" x="42.01" y="34.56" width="19.59" height="26.7"/><polygon class="cls-2" points="87.8 33.82 76.64 28.28 76.64 26.46 75.98 26.46 75.98 28.36 64.91 33.82 87.8 33.82"/><rect class="cls-2" x="20.85" y="24.23" width="61.42" height="0.99"/><polygon class="cls-2" points="51.93 26.46 51.27 26.46 51.27 28.36 40.19 33.82 63.01 33.82 51.93 28.28 51.93 26.46"/><path class="cls-2" d="M60.46,69.76,50.2,84.68a1.88,1.88,0,0,1-1.42.81h-.12a1.85,1.85,0,0,1-1.4-.63L41,78.79a1.87,1.87,0,1,1,2.79-2.48l4.72,4.3,8.92-13a1.87,1.87,0,0,1,3.07,2.12"/><polyline class="cls-1" points="50.6 96.94 50.6 133.66 52.6 133.66 52.6 96.94"/><path class="cls-1" d="M54.68,133.66a3.08,3.08,0,1,0-3.08,3.09,3.08,3.08,0,0,0,3.08-3.09"/><rect class="cls-2" x="17.21" y="34.56" width="19.59" height="26.7"/><rect class="cls-2" x="66.73" y="34.56" width="19.59" height="26.7"/><polygon class="cls-2" points="27.13 26.46 26.47 26.46 26.47 28.36 15.39 33.82 38.21 33.82 27.13 28.28 27.13 26.46"/></g></g></svg>