<svg xmlns="http://www.w3.org/2000/svg" xmlns:xlink="http://www.w3.org/1999/xlink"><symbol viewBox="0 0 34.02 34.02" id="assessment" xmlns="http://www.w3.org/2000/svg"><defs><style>.acls-1{fill:#96ca4f}</style></defs><g id="aLayer_2" data-name="Layer 2"><g id="aLayer_1-2" data-name="Layer 1"><path class="acls-1" d="M6 5a3.54 3.54 0 0 1 6.49 0 3.49 3.49 0 0 1 0 2.83A3.54 3.54 0 0 1 6 7.79 3.49 3.49 0 0 1 6 5m15.56 0a3.54 3.54 0 0 1 6.49 0 3.49 3.49 0 0 1 0 2.83 3.54 3.54 0 0 1-6.49 0 3.49 3.49 0 0 1 0-2.83M1.42 7.79H3a6.37 6.37 0 0 0 12.43 0h3.16a6.37 6.37 0 0 0 12.41 0h1.6a1.42 1.42 0 1 0 0-2.79H31a6.37 6.37 0 0 0-12.41 0h-3.16A6.37 6.37 0 0 0 3 5H1.42a1.42 1.42 0 1 0 0 2.83M33.31 16.3H12.05a.71.71 0 0 0-.71.71v2.82H22A2.13 2.13 0 0 1 24.1 22v12H34V17a.71.71 0 0 0-.71-.71"/><path class="acls-1" d="M18.07 27.64H4.61a1.07 1.07 0 1 1 0-2.13h13.46a1.07 1.07 0 0 1 0 2.13m0 4.25H4.61a1.07 1.07 0 1 1 0-2.13h13.46a1.07 1.07 0 0 1 0 2.13m3.19-10.63H1.42A1.43 1.43 0 0 0 0 22.68V34h22.68V22.68a1.43 1.43 0 0 0-1.42-1.42"/></g></g></symbol><symbol viewBox="0 0 36.85 32.1" id="basket" xmlns="http://www.w3.org/2000/svg"><defs><style>.bcls-1{fill:#96ca4f}</style></defs><g id="bLayer_2" data-name="Layer 2"><path class="bcls-1" d="M27.07 25.39a1.4 1.4 0 1 1-2.79 0v-7.33a1.4 1.4 0 0 1 2.79 0zm-7.29 0a1.4 1.4 0 1 1-2.79 0v-7.33a1.4 1.4 0 0 1 2.79 0zm-7.32 0a1.4 1.4 0 1 1-2.79 0v-7.33a1.4 1.4 0 0 1 2.79 0zM11.34 4.26h1.74v.2a1.3 1.3 0 0 0 1.28 1.28h8.1a1.29 1.29 0 0 0 1.27-1.28v-.2h1.75l4.22 7.17H7.07zm22.93 7.17h-1.35l-5.47-9.26a1.35 1.35 0 0 0-1.2-.7h-2.52v-.19A1.29 1.29 0 0 0 22.46 0h-8.1a1.29 1.29 0 0 0-1.28 1.28v.19h-2.52a1.41 1.41 0 0 0-1.2.7l-5.5 9.26H2.5a2.48 2.48 0 0 0-2.4 3.18l4.22 15.63a2.54 2.54 0 0 0 2.44 1.86h23.37a2.58 2.58 0 0 0 2.44-1.86l4.22-15.63a2.6 2.6 0 0 0-2.52-3.18" id="bLayer_1-2" data-name="Layer 1"/></g></symbol><symbol viewBox="0 0 29.17 36.85" id="can" xmlns="http://www.w3.org/2000/svg"><defs><style>.ccls-1{fill:#96ca4f}</style></defs><g id="cLayer_2" data-name="Layer 2"><g id="cLayer_1-2" data-name="Layer 1"><path class="ccls-1" d="M1.61 21.07l3.68 14.72a1.53 1.53 0 0 0 1.53 1.06h15.23a1.52 1.52 0 0 0 1.51-1l4.08-15.09H1.54zM27.64 16.12H1.54a1.54 1.54 0 1 0 0 3.07h26.1a1.54 1.54 0 0 0 0-3.07M3.07 14.59a1.54 1.54 0 0 0 1.54-1.54 10 10 0 0 1 20 0 1.54 1.54 0 1 0 3.07 0 13.05 13.05 0 0 0-26.1 0 1.53 1.53 0 0 0 1.53 1.54"/></g></g></symbol><symbol viewBox="0 0 32.61 28.5" id="certification" xmlns="http://www.w3.org/2000/svg"><defs><style>.dcls-1{fill:#96ca4f}</style></defs><g id="dLayer_2" data-name="Layer 2"><g id="dLayer_1-2" data-name="Layer 1"><path class="dcls-1" d="M27.15 7.46h-9.44a.68.68 0 1 1 0-1.35h9.44a.68.68 0 1 1 0 1.35m0 4.07h-9.44a.68.68 0 1 1 0-1.35h9.44a.68.68 0 1 1 0 1.35m0 4.07h-9.44a.68.68 0 1 1 0-1.35h9.44a.68.68 0 1 1 0 1.35m0 4.07h-9.44a.68.68 0 1 1 0-1.35h9.44a.68.68 0 1 1 0 1.35M32 0H12.89a.67.67 0 0 0-.64.68v3.07l.64.13a2.58 2.58 0 0 1 2 2.52v8.17A9.65 9.65 0 0 1 12.63 21a5 5 0 0 1-.38.41v6.43a.67.67 0 0 0 .64.68H26.5v-4.1a2 2 0 0 1 2-2h4.07V.68A.67.67 0 0 0 32 0"/><path class="dcls-1" d="M28.54 23.75a.67.67 0 0 0-.68.67v4.07l4.75-4.74h-4.07zM13.61 14.57V6.4a1.2 1.2 0 0 0-.95-1.19l-.38-.07L7 4.09h-.47L1 5.24a1.21 1.21 0 0 0-1 1.2v8.17c0 4.31 3.11 7.78 6.8 7.78a6.57 6.57 0 0 0 5.41-3.16 8.43 8.43 0 0 0 1.36-4.66"/></g></g></symbol><symbol id="chart" viewBox="0 0 80 80" xml:space="preserve" xmlns="http://www.w3.org/2000/svg"><style>.est0{clip-path:url(#eSVGID_2_)}.est1{fill:#007bbb}</style><defs><path id="eSVGID_1_" d="M9.5 10.2h61v59.5h-61z"/></defs><clipPath id="eSVGID_2_"><use xlink:href="#eSVGID_1_" overflow="visible"/></clipPath><g id="eLayer_1-2" class="est0"><path class="est1" d="M34.7 21.7l11 10.7c.4.3.8.5 1.3.5s.9-.2 1.2-.5l16.6-16.1V24c.1 1 1 1.8 2 1.7.9-.1 1.6-.8 1.7-1.7V12c0-1-.9-1.8-1.9-1.8H54.4c-1 0-1.8.8-1.8 1.8s.8 1.8 1.8 1.8h7.8L47.1 28.6 36.1 18c-.8-.7-2-.7-2.8 0L10.1 40.7c-.7.7-.7 1.8-.1 2.5l.1.1c.7.7 1.9.7 2.6 0l22-21.6zM24.1 49.3H14c-1.4 0-2.6.8-2.6 1.9v16.7c0 1 1.1 1.9 2.6 1.9h10.2c1.4 0 2.6-.8 2.6-1.9V51.2c-.1-1-1.2-1.8-2.7-1.9M46 39.4H36c-1.4 0-2.6.8-2.6 1.8v26.6c0 1 1.1 1.8 2.6 1.8h10c1.4 0 2.6-.8 2.6-1.8V41.3c0-1-1.1-1.9-2.6-1.9m21.9-9.8H57.7c-1.4 0-2.6.8-2.6 1.8v36.5c0 1 1.2 1.8 2.6 1.8h10.2c1.4 0 2.6-.8 2.6-1.8V31.4c0-1-1.2-1.8-2.6-1.8"/></g></symbol><symbol viewBox="0 0 47.97 47.99" id="deployment" xmlns="http://www.w3.org/2000/svg"><defs><style>.fcls-1{fill:#007bbb}</style></defs><g id="fLayer_2" data-name="Layer 2"><g id="fLayer_1-2" data-name="Layer 1"><path class="fcls-1" d="M18.85 23.89a7.26 7.26 0 0 0-10.06.36L.66 32.38a2.26 2.26 0 0 0 0 3.19l6.77 6.77a2.26 2.26 0 0 0 3.19 0L19 34a7 7 0 0 0-.13-10.09M47.77 2.75a4 4 0 1 0-2.55 5.05 4 4 0 0 0 2.55-5"/><path class="fcls-1" d="M44.45 18.05a4.94 4.94 0 0 0-2.29-6.59l-2.65-1.33a1.46 1.46 0 0 0-.44-.16c-6.85-3-15.43.3-18.87 7a2.07 2.07 0 0 0 3.68 1.89A11.19 11.19 0 0 1 35 13.06L18.2 45a2.09 2.09 0 0 0 .91 2.81 2 2 0 0 0 .95.23 2.09 2.09 0 0 0 1.86-1.14l9.31-17.72L35 31a10.44 10.44 0 0 1 4.23 13.93 2.08 2.08 0 0 0 2.48 3 2 2 0 0 0 1.22-1A14.28 14.28 0 0 0 39 28.74l1.76-3.4z"/></g></g></symbol><symbol id="food" viewBox="0 0 80 80" xml:space="preserve" xmlns="http://www.w3.org/2000/svg"><style>.gst0{clip-path:url(#gSVGID_2_)}.gst1{fill:#007bbb}</style><defs><path id="gSVGID_1_" d="M1.2 9.8h77.5v60.5H1.2z"/></defs><clipPath id="gSVGID_2_"><use xlink:href="#gSVGID_1_" overflow="visible"/></clipPath><g id="gLayer_1-2" class="gst0"><path class="gst1" d="M30.2 32.7c0 3.3-2.7 6-6 6H24V36c0-3.3 2.7-6 6-6H30.3v2.7zm0 10.1c0 3.3-2.7 6-6 6H24v-2.7c0-3.3 2.7-6 6.1-6h.2v2.7zm0 10.1c0 3.3-2.7 6-6 6H24v-2.7c0-3.3 2.7-6 6.1-6h.2v2.7zm-6.3 11c-.2 1.4-1.4 2.4-2.8 2.2-1.1-.1-2-1-2.2-2.2V62c0-.3.3-.6.6-.6h3.8c.3 0 .6.3.6.6v1.9zm-11.3-11v-2.8h.2c3.3 0 6 2.7 6 6v2.8h-.2c-3.3 0-6-2.7-6-6m0-12.8h.2c3.3 0 6 2.7 6.1 6v2.8h-.2c-3.3 0-6-2.7-6.1-6v-2.8zm0-10.1h.2c3.3 0 6 2.6 6 5.9v2.9h-.2c-3.3 0-6-2.7-6.1-6V30zm6.3-5.1c0-1.4 1.1-2.5 2.5-2.5s2.5 1.1 2.5 2.5v3.7c.2 1.4-.8 2.6-2.2 2.8-1.4.2-2.6-.8-2.8-2.2v-4.3zm17.6-6.3H6.2c-2.7 0-5 2.3-5 5v41.6c0 2.7 2.3 5 5 5h30.3c2.7 0 5-2.3 5-5V23.6c0-2.7-2.2-5-5-5M6.9 16.1h29c1.7 0 3.2-1.4 3.2-3.1S37.7 9.8 36 9.8H7c-1.7 0-3.1 1.4-3.1 3.2-.1 1.6 1.3 3.1 3 3.1"/><path class="gst1" d="M77.8 56.4H32.4c-.6 0-1 .4-1 1 0 7.1 5.7 12.8 12.8 12.8h21.7c7.1 0 12.8-5.7 12.8-12.8.1-.5-.4-1-.9-1M52 45.8l-2.5-.7c-2.6-.7-5.3.9-6 3.5l-.2.7 2.5.7c2.6.7 5.3-.9 6-3.5l.2-.7zm-.5 5.7l2.5.7c2.6.7 5.3-.9 6-3.5l.2-.6-2.5-.7c-2.6-.7-5.3.9-6 3.5l-.2.6zm8.1 2.2l2.5.7c2.6.7 5.3-.9 6-3.5l.2-.7-2.4-.7c-2.6-.7-5.3.9-6 3.5l-.3.7zm-9.3-11.2l2.5.7.2-.7c.7-2.6-.9-5.3-3.5-6l-2.5-.7-.2.7c-.7 2.5.9 5.2 3.5 6m8.1 2.1l2.5.7.2-.7c.7-2.6-.9-5.3-3.5-6l-2.5-.6-.2.6c-.6 2.7.9 5.3 3.5 6m8.1 2.2l2.4.7.2-.6c.7-2.6-.9-5.3-3.5-6l-2.4-.7-.2.7c-.6 2.5.9 5.2 3.5 5.9M76.7 51c.2-.7-.3-1.5-1-1.7l-5-1.3-.7 2.7 5 1.3c.8.2 1.5-.3 1.7-1m-39.4-6.2c-.7-.2-1.5.2-1.7 1s.2 1.5 1 1.7l3.6 1c.7.2 1.5-.2 1.8-.9s-.2-1.5-.9-1.8H41l-3.7-1zm2.2-8.1l3.6 1c.7.2 1.5-.2 1.8-.9s-.2-1.6-.9-1.8h-.1l-3.6-1c-.7-.2-1.5.2-1.7 1-.3.7.2 1.5.9 1.7m-5 4.4l9.9 2.6c.7.2 1.5-.2 1.7-1s-.2-1.5-1-1.7l-9.9-2.6c-.7-.2-1.5.2-1.8.9s.2 1.5 1.1 1.8c-.1 0 0 0 0 0"/></g></symbol><symbol viewBox="0 0 63.76 58.68" id="forklift" xmlns="http://www.w3.org/2000/svg"><defs><style>.hcls-1{fill:#007bbb}</style></defs><g id="hLayer_2" data-name="Layer 2"><g id="hLayer_1-2" data-name="Layer 1"><path class="hcls-1" d="M62.35 15.37h-11.5l-4.47.07-17.7 19.62 3.77 1a.41.41 0 0 0 .51-.2l15.47-17.54h13.86a1.56 1.56 0 0 0 1.47-1.51 1.44 1.44 0 0 0-1.41-1.44M5.56 47.36a5.66 5.66 0 0 0 0 11.32 5.66 5.66 0 0 0 0-11.32"/><path class="hcls-1" d="M20.19 38.6L18.14 34h-5.87V19.63h6.19l4.67 19zm11.75 3.2a.63.63 0 0 0 .58-.52l.25-2.36a.53.53 0 0 0-.44-.65L27 36.83l-5.73-19.89a1.88 1.88 0 0 0-1.66-1.17h-14c-1-.07-1.6.91-1.6 2V34H1.34c-.83 0-1.21.91-1.21 1.76v12a7.28 7.28 0 0 1 5.49-2.48 7.46 7.46 0 0 1 7.54 7.78h10.16a7.77 7.77 0 0 1-.13-1.7 9.4 9.4 0 0 1 8.75-9.55"/><path class="hcls-1" d="M32.45 43.89a7.4 7.4 0 1 0 7.22 7.4 7.34 7.34 0 0 0-7.22-7.4M63.37 1.9A1.88 1.88 0 0 0 61.52 0h-12.9a1.88 1.88 0 0 0-1.86 1.9v9.35a1.88 1.88 0 0 0 1.86 1.9h13a1.88 1.88 0 0 0 1.85-1.9V1.9z"/></g></g></symbol><symbol viewBox="0 0 32.23 33.93" id="management" xmlns="http://www.w3.org/2000/svg"><defs><style>.icls-1{fill:#fff}</style></defs><g id="iLayer_2" data-name="Layer 2"><g id="iLayer_1-2" data-name="Layer 1"><path class="icls-1" d="M16.11 21.21a4.14 4.14 0 0 1-4-4.25 4.14 4.14 0 0 1 4-4.24 4.14 4.14 0 0 1 4 4.24 4.15 4.15 0 0 1-4 4.25M27.26 18a2.12 2.12 0 0 0 0-2.07 12.78 12.78 0 0 0-11.15-6.74A12.77 12.77 0 0 0 5 15.93 2.12 2.12 0 0 0 5 18a12.77 12.77 0 0 0 11.14 6.74A12.78 12.78 0 0 0 27.26 18M24.51 9.19h6.71a1.06 1.06 0 0 0 0-2.12h-4.28l5-5.24a1.11 1.11 0 0 0 0-1.5 1 1 0 0 0-1.43 0l-5 5.24V1.06a1 1 0 1 0-2 0v7.07a1 1 0 0 0 1 1.06M0 8.13a1 1 0 0 0 1 1.06h6.72a1 1 0 0 0 1-1.06V1.06a1 1 0 1 0-2 0v4.51L1.74.33a1 1 0 0 0-1.43 0 1.11 1.11 0 0 0 0 1.5l5 5.24H1a1 1 0 0 0-1 1.06M32.23 25.8a1 1 0 0 0-1-1.06h-6.72a1 1 0 0 0-1 1.06v7.07a1 1 0 1 0 2 0v-4.51l5 5.24a1 1 0 0 0 1.43 0 1.11 1.11 0 0 0 0-1.5l-5-5.24h4.28a1 1 0 0 0 1-1.06M7.72 24.74H1a1.06 1.06 0 0 0 0 2.12h4.29l-5 5.24a1.11 1.11 0 0 0 0 1.5 1 1 0 0 0 1.43 0l5-5.24v4.51a1 1 0 1 0 2 0V25.8a1 1 0 0 0-1-1.06"/></g></g></symbol><symbol viewBox="0 0 43.28 59.73" id="money" xmlns="http://www.w3.org/2000/svg"><defs><style>.jcls-1{fill:#007bbb}</style></defs><g id="jLayer_2" data-name="Layer 2"><g id="jLayer_1-2" data-name="Layer 1"><path class="jcls-1" d="M22.84 47.29v1.86a1.8 1.8 0 1 1-3.6 0v-1.86h-.61a1.87 1.87 0 0 1 0-3.74h3.55a1.87 1.87 0 1 0 0-3.73h-1.07a5.54 5.54 0 0 1-5.48-5.59A5.61 5.61 0 0 1 19.24 29v-2.25a1.8 1.8 0 1 1 3.6 0v1.87h1.81a1.87 1.87 0 0 1 0 3.73h-3.54a1.87 1.87 0 1 0 0 3.74h1.07a5.52 5.52 0 0 1 5.47 5.56 5.62 5.62 0 0 1-4.81 5.64M41.9 35.45l-9.44-19.27H10.82L1.38 35.45a17.83 17.83 0 0 0 3.4 19 16.35 16.35 0 0 0 12 5.26h9.62a16.35 16.35 0 0 0 12.1-5.24 17.83 17.83 0 0 0 3.4-19M10.81 13.69h9.62l-2-9.25a2.42 2.42 0 0 0-2.33-1.95H9.61A1.23 1.23 0 0 0 8.44 4zM27.65 13.69h4.81l2.38-12.22A1.24 1.24 0 0 0 33.65 0h-3.59a2.48 2.48 0 0 0-2.41 2.49A2.47 2.47 0 0 0 25.25 0h-3.6a1.23 1.23 0 0 0-1.19 1.47l2.38 12.22z"/></g></g></symbol><symbol viewBox="0 0 49.62 42.77" id="partners" xmlns="http://www.w3.org/2000/svg"><defs><style>.kcls-1{fill:#007bbb}</style></defs><g id="kLayer_2" data-name="Layer 2"><g id="kLayer_1-2" data-name="Layer 1"><path class="kcls-1" d="M10.39 28.46l1.95-1.89a2 2 0 0 0 .57-1.1 2.11 2.11 0 0 0-.63-1.87 2.34 2.34 0 0 0-1.08-.6 1.86 1.86 0 0 0-.52-.07 2.14 2.14 0 0 0-1.48.59l-3 2.88-2.39 2.3a2.06 2.06 0 0 0 .07 3 2.32 2.32 0 0 0 1.59.64A2.17 2.17 0 0 0 7 31.76z"/><path class="kcls-1" d="M25.43 11.61l-.3.3-4.13 4-.15.15-1.6 1.54a4.39 4.39 0 0 1-3.06 1.21h-.52a4.38 4.38 0 0 1-2.53-1.18 4.08 4.08 0 0 1 0-5.9l9.18-8.87c.23-.22.46-.44.7-.64a15.49 15.49 0 0 0-18.6 2.06 14.29 14.29 0 0 0 0 20.66l.13.12 3.12-3a4.27 4.27 0 0 1 3-1.19 4.52 4.52 0 0 1 3.14 1.25A4.24 4.24 0 0 1 15 24.06a4.74 4.74 0 0 1 .15 1 3.52 3.52 0 0 1-.15 1.16 3.81 3.81 0 0 1 1.11-.15 4.53 4.53 0 0 1 3.14 1.25 4.24 4.24 0 0 1 1.3 2.95 3.46 3.46 0 0 1-.15 1.16 4.07 4.07 0 0 1 1.11-.14 4.54 4.54 0 0 1 3.14 1.25 4.21 4.21 0 0 1 1.29 2.94 3.52 3.52 0 0 1-.15 1.17 4.13 4.13 0 0 1 1.11-.15 4.49 4.49 0 0 1 3.1 1.26 4.25 4.25 0 0 1 1.3 2.94 3.94 3.94 0 0 1-.39 1.83 3.34 3.34 0 0 0 1.24.24 3.28 3.28 0 0 0 2.28-.91 3.05 3.05 0 0 0 .57-3.74 3.35 3.35 0 0 0 1.71.48 3.25 3.25 0 0 0 2.29-.92 3.05 3.05 0 0 0 .46-3.87 3.23 3.23 0 0 0 1.57.41 3.29 3.29 0 0 0 2.29-.92 3.06 3.06 0 0 0 0-4.42z"/><path class="kcls-1" d="M18.31 30.68a2.11 2.11 0 0 0-.64-1.86 2.29 2.29 0 0 0-1.6-.65 1.93 1.93 0 0 0-.33 0 2.11 2.11 0 0 0-1.14.55l-5.36 5.22a2.06 2.06 0 0 0 .06 3 2.31 2.31 0 0 0 1.6.65 2.11 2.11 0 0 0 1.47-.59l5.37-5.18a2 2 0 0 0 .57-1.11M23.7 35.9a2.12 2.12 0 0 0-.64-1.9 2.27 2.27 0 0 0-1.59-.64 2 2 0 0 0-.34 0A2.11 2.11 0 0 0 20 34l-5.36 5.18a2.07 2.07 0 0 0 .06 3 2.31 2.31 0 0 0 1.6.64 2.13 2.13 0 0 0 1.48-.58L23.13 37a2 2 0 0 0 .57-1.11M45.2 4.28a15.47 15.47 0 0 0-16.36-3.2 15 15 0 0 0-4 2.34c-.33.28-.66.56-1 .86l-9.17 8.87a2 2 0 0 0 0 3 2.15 2.15 0 0 0 1.52.6 2.2 2.2 0 0 0 1.54-.6l8-7.69 2.74 2.65L43.9 26a12.49 12.49 0 0 0 1.3-1.11 14.26 14.26 0 0 0 0-20.65"/></g></g></symbol><symbol id="procured" viewBox="0 0 80 80" xml:space="preserve" xmlns="http://www.w3.org/2000/svg"><style>.lst0{clip-path:url(#lSVGID_2_)}.lst1{fill:#007bbb}</style><defs><path id="lSVGID_1_" d="M0 13.7h80v52.6H0z"/></defs><clipPath id="lSVGID_2_"><use xlink:href="#lSVGID_1_" overflow="visible"/></clipPath><g id="lLayer_1-2" class="lst0"><path class="lst1" d="M19.8 56v1.5c-.1.9-.8 1.5-1.7 1.5-.8-.1-1.4-.7-1.4-1.4V56h-.5c-.9 0-1.5-.7-1.5-1.5 0-.9.7-1.5 1.5-1.5h3.1c.9 0 1.5-.7 1.5-1.5 0-.9-.7-1.5-1.5-1.5h-.9c-2.6.1-4.7-1.9-4.8-4.5-.1-2 1.2-3.9 3.1-4.5v-2c.1-.9.8-1.5 1.7-1.4.8.1 1.4.7 1.4 1.4v1.5h1.6c.9 0 1.5.7 1.5 1.5 0 .9-.7 1.5-1.5 1.5h-3.1c-.9 0-1.5.7-1.5 1.5 0 .9.7 1.5 1.5 1.5h.9c2.6 0 4.7 2 4.7 4.6.1 2.6-1.8 4.6-4.1 4.9m16.4-9.8l-8.1-16H9.4l-8.2 16C-1.1 51.6 0 57.8 4.2 62c2.7 2.8 6.5 4.4 10.4 4.4h8.3c8 0 14.5-6.4 14.5-14.4 0-2.1-.3-4-1.2-5.8M9.4 28.1h8.3L16 20.5c-.2-.9-1.1-1.6-2-1.6H8.3c-.6 0-1 .4-1 1v.2l2.1 8zm14.5 0h4.2L30.2 18c.1-.6-.3-1.1-.9-1.2H26c-1.1 0-2.1.9-2.1 2.1 0-1.1-.9-2.1-2.1-2.1h-3.1c-.6 0-1 .5-1 1v.2l2.1 10.1h4.1z"/><path class="lst1" d="M57.7 55.6H28.2c-.4 0-.6.3-.6.6 0 4.6 3.7 8.3 8.3 8.3H50c4.6 0 8.3-3.7 8.3-8.3 0-.3-.3-.6-.6-.6m-16.8-6.8l-1.6-.4c-1.7-.5-3.5.6-3.9 2.3l-.1.3 1.6.4c1.7.5 3.5-.5 3.9-2.2l.1-.4zm-.3 3.6l1.6.4c1.7.5 3.5-.5 3.9-2.3l.1-.4-1.6-.4c-1.7-.5-3.5.5-4 2.2v.5zm5.2 1.4l1.6.4c1.7.5 3.5-.5 3.9-2.3l.1-.4-1.6-.4c-1.7-.5-3.5.5-3.9 2.2l-.1.5zm-6-7.2l1.6.4.1-.4c.5-1.7-.6-3.4-2.3-3.9l-1.6-.4-.1.4c-.5 1.7.5 3.4 2.3 3.9m5.3 1.4l1.6.4.1-.4c.5-1.7-.6-3.4-2.3-3.9l-1.6-.4-.1.4c-.5 1.7.5 3.4 2.3 3.9-.1 0-.1 0 0 0m5.3 1.4l1.6.4.1-.4c.5-1.7-.5-3.4-2.2-3.9l-1.6-.4-.1.4c-.6 1.7.4 3.4 2.2 3.9-.1 0-.1 0 0 0m6.6 2.7c.1-.5-.1-1-.6-1.1l-3.2-.9-.5 1.8 3.2.9c.5.1.9-.2 1.1-.7 0 .1 0 0 0 0m-25.7-4c-.5-.1-1 .1-1.1.6v.1c-.1.5.1 1 .6 1.1h.1l2.4.6c.5.1 1-.1 1.1-.6.1-.5-.1-1-.6-1.1l-2.5-.7zm1.5-5.2l2.4.6c.5.1 1-.1 1.1-.6.1-.5-.1-1-.6-1.1l-2.4-.7c-.5-.1-1 .2-1.1.6-.2.5.1 1 .6 1.2m-3.3 2.8l6.5 1.7c.5.1 1-.1 1.1-.6v-.1c.1-.5-.1-1-.6-1.1L29.9 44c-.5-.1-1 .2-1.1.6s.2 1 .7 1.1m11.7-11.9c-2.8 0-5-2.3-5-5.1s2.3-5 5.1-5 5 2.3 5 5c0 2.9-2.3 5.1-5.1 5.1m7.7-6.1h-.5c-.2-1.2-.6-2.3-1.3-3.2l.3-.3c.4-.4.4-1.1 0-1.5-.4-.4-1.1-.4-1.5 0l-.3.3c-.9-.7-2.1-1.2-3.2-1.3v-.4c-.1-.6-.6-1-1.2-1-.5 0-.9.5-1 1v.4c-1.2.2-2.3.6-3.2 1.3l-.3-.3c-.4-.4-1.1-.4-1.5 0-.4.4-.4 1.1 0 1.5l.3.3c-.7.9-1.2 2-1.3 3.2h-.5c-.6 0-1.1.5-1.1 1.1 0 .6.5 1.1 1.1 1.1h.3c.2 1.2.6 2.3 1.3 3.2l-.3.3c-.4.4-.4 1.1 0 1.5.2.2.5.3.8.3.3 0 .6-.1.8-.3l.3-.3c.9.7 2.1 1.2 3.2 1.3v.5c.1.6.6 1 1.2 1 .5 0 .9-.5 1-1v-.5c1.2-.2 2.3-.6 3.2-1.3l.3.3c.2.2.5.3.8.3.3 0 .6-.1.8-.3.4-.4.4-1.1 0-1.5l-.3-.4c.7-.9 1.2-2 1.3-3.2h.5c.6 0 1.1-.5 1.1-1.1-.1-.5-.5-1-1.1-1m22.4 2c-2.8 0-5-2.3-5-5.1s2.3-5 5.1-5 5 2.3 5 5.1c-.1 2.7-2.3 5-5.1 5m7.6-6.1h-.5c-.2-1.2-.6-2.3-1.3-3.2l.3-.3c.4-.4.4-1.1 0-1.5-.4-.4-1.1-.4-1.5 0l-.3.3c-1-.7-2.1-1.1-3.2-1.3v-.5c-.1-.6-.6-1-1.2-1-.5 0-.9.5-1 1v.5c-1.2.2-2.3.6-3.2 1.3l-.3-.3c-.4-.5-1.1-.5-1.5-.1-.5.4-.5 1.1-.1 1.5l.1.1.3.3c-.7.9-1.2 2-1.3 3.2h-.5c-.6-.1-1.1.4-1.2 1-.1.6.4 1.1 1 1.2h.7c.2 1.2.6 2.2 1.3 3.2l-.3.3c-.4.4-.4 1.1 0 1.5.2.2.5.3.8.3.3 0 .6-.1.8-.3l.3-.3c.9.7 2.1 1.1 3.2 1.3v.5c.1.6.6 1 1.2 1 .5 0 .9-.5 1-1v-.5c1.2-.2 2.3-.6 3.2-1.3l.3.3c.2.2.5.3.8.3.3 0 .6-.1.8-.3.4-.4.4-1.1 0-1.5l-.5-.3c.7-.9 1.2-2 1.3-3.2h.5c.6.1 1.1-.4 1.2-1 .1-.6-.4-1.1-1-1.2h-.2M57.4 37.2c-2.1 0-3.8-1.7-3.8-3.8 0-2.1 1.7-3.8 3.8-3.8 2.1 0 3.8 1.7 3.8 3.8 0 2.1-1.7 3.8-3.8 3.8m5.8-4.6h-.3c-.1-.9-.5-1.7-1-2.4l.2-.2c.3-.3.3-.8 0-1.1-.3-.3-.8-.3-1.2 0l-.2.2c-.7-.5-1.5-.9-2.4-1v-.3c0-.5-.4-.8-.8-.8-.5 0-.8.4-.8.8v.3c-.9.1-1.7.5-2.4 1l-.3-.3c-.3-.3-.8-.3-1.2 0-.3.3-.3.8 0 1.1l.2.2c-.5.7-.9 1.5-1 2.4h-.3c-.4 0-.8.4-.8.8s.4.8.8.8h.3c.1.9.4 1.7.9 2.4l-.2.2c-.3.3-.3.8 0 1.1.3.3.8.3 1.2 0l.2-.2c.7.5 1.5.9 2.4 1v.3c0 .5.4.8.8.8.5 0 .8-.4.8-.8v-.3c.9-.1 1.7-.5 2.4-1l.2.2c.2.2.4.2.6.2.2 0 .4-.1.6-.2.3-.3.3-.8 0-1.1l-.2-.2c.5-.7.9-1.5 1-2.4h.3c.4 0 .8-.4.8-.8s-.2-.7-.6-.7M54.9 24c-2.1 0-3.8-1.7-3.8-3.8 0-2.1 1.7-3.8 3.8-3.8 2.1 0 3.8 1.7 3.8 3.8 0 2.1-1.7 3.8-3.8 3.8m5.7-4.6h-.3c-.1-.9-.5-1.7-1-2.4l.2-.2c.3-.3.3-.8 0-1.1-.3-.3-.8-.3-1.2 0l-.2.2c-.7-.5-1.5-.9-2.4-1v-.3c0-.5-.4-.8-.8-.8s-.8.4-.8.8v.3c-.9.1-1.7.5-2.4 1l-.2-.2c-.3-.3-.8-.3-1.2 0-.3.3-.3.8 0 1.1l.2.2c-.5.7-.9 1.5-1 2.4h-.3c-.4 0-.8.4-.8.8s.4.8.8.8h.3c.1.9.5 1.7 1 2.4l-.2.2c-.3.3-.3.8 0 1.1.2.2.4.2.6.2.2 0 .4-.1.6-.2l.2-.2c.7.5 1.5.9 2.4 1v.3c0 .5.4.8.8.8s.8-.4.8-.8v-.4c.9-.1 1.7-.5 2.4-1l.2.2c.2.2.4.2.6.2.2 0 .4-.1.6-.2.3-.3.3-.8 0-1.1l-.2-.2c.5-.7.9-1.5 1-2.4h.3c.4 0 .8-.4.8-.8.1-.3-.3-.7-.8-.7"/></g></symbol><symbol viewBox="0 0 101.21 90.72" id="quote" xmlns="http://www.w3.org/2000/svg"><defs><style>.mcls-1{fill:#96ca4f}</style></defs><g id="mLayer_2" data-name="Layer 2"><g id="mLayer_1-2" data-name="Layer 1"><path class="mcls-1" d="M12.37 0L0 43.86v46.86h40.48V44.23H27.36L35.24 0H12.37zM73.1 0L60.73 43.86v46.86h40.48V44.23H88.09L95.96 0H73.1z"/></g></g></symbol><symbol viewBox="0 0 32.41 42.52" id="safety" xmlns="http://www.w3.org/2000/svg"><defs><style>.ncls-1{fill:#96ca4f}</style></defs><g id="nLayer_2" data-name="Layer 2"><path class="ncls-1" d="M23 21.54l-.71.7-5.69 6a.52.52 0 0 1-.73 0l-5.69-6-.71-.7a4.38 4.38 0 0 1-.06-6.24 4.3 4.3 0 0 1 5.95.09l.87.8.88-.8a4.3 4.3 0 0 1 6-.09 4.38 4.38 0 0 1-.11 6.24M31.59 3L16.4 0a.86.86 0 0 0-.4 0L.82 3A1 1 0 0 0 0 4v20.44c0 10 7.39 18.08 16.2 18.08s16.21-8.09 16.21-18.08V4a1 1 0 0 0-.82-1" id="nLayer_1-2" data-name="Layer 1"/></g></symbol><symbol viewBox="0 0 44.61 43.74" id="sea" xmlns="http://www.w3.org/2000/svg"><defs><style>.ocls-1{fill:#007bbb}</style></defs><g id="oLayer_2" data-name="Layer 2"><g id="oLayer_1-2" data-name="Layer 1"><path class="ocls-1" d="M13.94 7.29h5.58a.92.92 0 0 0 .92-.91V.91a.92.92 0 0 0-.92-.91h-5.58a.92.92 0 0 0-.94.91v5.47a.92.92 0 0 0 .93.91M23.23 7.29h5.58a.92.92 0 0 0 .93-.91V.91a.92.92 0 0 0-.93-.91h-5.58a.92.92 0 0 0-.93.91v5.47a.92.92 0 0 0 .93.91M8.67 29.16a4.41 4.41 0 0 0 2.52-.69 8.13 8.13 0 0 1 4.29-1.13 8.21 8.21 0 0 1 4.31 1.13 4.35 4.35 0 0 0 2.51.69 4.35 4.35 0 0 0 2.51-.69 8.18 8.18 0 0 1 4.31-1.13 8.13 8.13 0 0 1 4.29 1.13 4.31 4.31 0 0 0 2.26.68A18.17 18.17 0 0 0 40 19.29a1.83 1.83 0 0 0-1.86-2H4.66a1.83 1.83 0 0 0-1.86 2 18.19 18.19 0 0 0 4 9.5 4.19 4.19 0 0 0 1.89.37M42.75 38.27a8 8 0 0 0-4.3 1.14 4.95 4.95 0 0 1-5 0 8 8 0 0 0-4.3-1.14 8 8 0 0 0-4.29 1.14 4.48 4.48 0 0 1-2.52.69 4.48 4.48 0 0 1-2.52-.69 8 8 0 0 0-4.3-1.14 8 8 0 0 0-4.29 1.14 4.48 4.48 0 0 1-2.52.69 4.48 4.48 0 0 1-2.52-.69 8 8 0 0 0-4.29-1.14 1.83 1.83 0 1 0 0 3.65 4.35 4.35 0 0 1 2.51.69 8.17 8.17 0 0 0 4.3 1.13A8.17 8.17 0 0 0 13 42.61a4.35 4.35 0 0 1 2.51-.69 4.38 4.38 0 0 1 2.52.69 8.17 8.17 0 0 0 4.3 1.13 8.17 8.17 0 0 0 4.3-1.13 4.35 4.35 0 0 1 2.51-.69 4.38 4.38 0 0 1 2.52.69 8.75 8.75 0 0 0 8.6 0 4.38 4.38 0 0 1 2.52-.69 1.83 1.83 0 1 0 0-3.65M1.86 34.63a4.35 4.35 0 0 1 2.51.69 8.17 8.17 0 0 0 4.3 1.13A8.17 8.17 0 0 0 13 35.32a4.35 4.35 0 0 1 2.51-.69 4.38 4.38 0 0 1 2.52.69 8.14 8.14 0 0 0 4.3 1.13 8.1 8.1 0 0 0 4.29-1.13 4.41 4.41 0 0 1 2.52-.69 4.38 4.38 0 0 1 2.52.69 8.75 8.75 0 0 0 8.6 0 4.38 4.38 0 0 1 2.52-.69 1.83 1.83 0 1 0 0-3.65 8 8 0 0 0-4.3 1.14 5 5 0 0 1-5 0A8 8 0 0 0 29.11 31a8.06 8.06 0 0 0-4.3 1.14 4.43 4.43 0 0 1-2.51.68 4.48 4.48 0 0 1-2.52-.68 8 8 0 0 0-4.3-1.14 8 8 0 0 0-4.29 1.14 4.48 4.48 0 0 1-2.52.68 4.48 4.48 0 0 1-2.52-.68A8 8 0 0 0 1.86 31a1.83 1.83 0 1 0 0 3.65M8.36 14.58h26a.92.92 0 0 0 .93-.91v-2.73a.92.92 0 0 0-.93-.92h-26a.93.93 0 0 0-.93.92v2.73a.92.92 0 0 0 .93.91"/></g></g></symbol><symbol viewBox="0 0 33.06 34.51" id="solutions" xmlns="http://www.w3.org/2000/svg"><defs><style>.pcls-1{fill:#fff}</style></defs><g id="pLayer_2" data-name="Layer 2"><g id="pLayer_1-2" data-name="Layer 1"><path class="pcls-1" d="M5.77 24.3L.83 29.46a3.05 3.05 0 0 0 0 4.19 2.75 2.75 0 0 0 4 0l4.95-5.16a17 17 0 0 1-4-4.19M15.15 14.38H12.4a.7.7 0 0 0-.69.72v3.55a8.87 8.87 0 0 0 4.13 4V15.1a.7.7 0 0 0-.69-.72M26.17 10.07h-2.75a.7.7 0 0 0-.69.71v11.84a8.87 8.87 0 0 0 4.13-4v-7.84a.7.7 0 0 0-.69-.71M20.66 12.22h-2.75a.71.71 0 0 0-.69.72v10.17a8.33 8.33 0 0 0 4.13 0V12.94a.71.71 0 0 0-.69-.72"/><path class="pcls-1" d="M26.86 21.7a10.24 10.24 0 0 1-4.13 2.85 10.44 10.44 0 0 1-1.38.4 9.8 9.8 0 0 1-4.13 0 10.44 10.44 0 0 1-1.38-.4 10.24 10.24 0 0 1-4.13-2.85A10.92 10.92 0 0 1 9 14.38 10.57 10.57 0 0 1 19.28 3.6a10.57 10.57 0 0 1 10.34 10.78 10.92 10.92 0 0 1-2.76 7.32M19.28 0C11.67 0 5.51 6.44 5.51 14.38s6.16 14.38 13.77 14.38 13.78-6.43 13.78-14.38S26.9 0 19.28 0"/></g></g></symbol><symbol viewBox="0 0 32.19 33.93" id="tools" xmlns="http://www.w3.org/2000/svg"><defs><style>.qcls-1{fill:#fff}</style></defs><g id="qLayer_2" data-name="Layer 2"><g id="qLayer_1-2" data-name="Layer 1"><path class="qcls-1" d="M10.64 18a1 1 0 0 0-1.42 0l-8 8.48a4.43 4.43 0 0 0 0 6l.25.26a3.89 3.89 0 0 0 5.69 0l8.05-8.48a1.11 1.11 0 0 0 0-1.5zM20.43 14.89l5.32-5.61 3.66-.53a1.23 1.23 0 0 0 .91-.69L32 4.51A1.32 1.32 0 0 0 31.82 3L29.32.39a1.17 1.17 0 0 0-1.41-.23L24.54 2a1.27 1.27 0 0 0-.65 1l-.51 3.85-5.32 5.61z"/><path class="qcls-1" d="M24.08 21.59L11.7 8.54a6.59 6.59 0 0 0-1.41-6.68A5.85 5.85 0 0 0 5.18.06a.73.73 0 0 0-.38 1.21L7.39 4a2.66 2.66 0 0 1 0 3.64l-.15.16a2.34 2.34 0 0 1-3.45 0L1.2 5.08a.66.66 0 0 0-1.14.39 6.61 6.61 0 0 0 1.7 5.38 5.82 5.82 0 0 0 6.33 1.48l12.39 13.06a6.58 6.58 0 0 0 1.41 6.67 5.81 5.81 0 0 0 5.11 1.8.72.72 0 0 0 .37-1.2l-2.29-2.41a2.6 2.6 0 0 1 0-3.53l.25-.27a2.29 2.29 0 0 1 3.35 0L31 28.87a.67.67 0 0 0 1.15-.4 6.56 6.56 0 0 0-1.71-5.4 5.81 5.81 0 0 0-6.34-1.48"/></g></g></symbol><symbol viewBox="0 0 42.95 60.12" id="truck" xmlns="http://www.w3.org/2000/svg"><defs><style>.rcls-1{fill:#007bbb}</style></defs><g id="rLayer_2" data-name="Layer 2"><g id="rLayer_1-2" data-name="Layer 1"><path class="rcls-1" d="M33.77 45.61a3.11 3.11 0 1 1 3.07-3.11 3.09 3.09 0 0 1-3.07 3.11m-24.56 0a3.11 3.11 0 1 1 3.07-3.11 3.09 3.09 0 0 1-3.07 3.11M8.19 27a4.18 4.18 0 0 1 2.45-3.8 4 4 0 0 1 1.62-.35H30.7a4.14 4.14 0 0 1 4 3.16 3.89 3.89 0 0 1 .12 1v6.22H8.19zm32.74 6.22V27A10.3 10.3 0 0 0 30.7 16.58H12.28a10 10 0 0 0-6.14 2.08 3.59 3.59 0 0 0-.61.51 10.66 10.66 0 0 0-1.93 2.29A10.46 10.46 0 0 0 2.05 27v6.22a2.06 2.06 0 0 0-2 2.07v16.54a2.06 2.06 0 0 0 2 2.07h2V57a3.07 3.07 0 1 0 6.14 0v-3.1h22.55V57a3.07 3.07 0 1 0 6.14 0v-3.1h2a2.06 2.06 0 0 0 2-2.07V35.24a2.06 2.06 0 0 0-2-2.07"/><path class="rcls-1" d="M6.57 13.64a13.91 13.91 0 0 1 4.23-1.12 11.43 11.43 0 0 1 1.45-.08H30.7a14.19 14.19 0 0 1 10.23 4.37V4.15A4.1 4.1 0 0 0 36.84 0H6.14a4.1 4.1 0 0 0-4.09 4.15v12.66a13.65 13.65 0 0 1 4.09-3 4.25 4.25 0 0 1 .43-.21"/></g></g></symbol><symbol viewBox="0 0 62.77 97.63" id="truckpartners" xmlns="http://www.w3.org/2000/svg"><defs><style>.scls-1{fill:#007bbb}</style></defs><g id="sLayer_2" data-name="Layer 2"><g id="sLayer_1-2" data-name="Layer 1"><path class="scls-1" d="M40.75 34.75a2.37 2.37 0 1 1 2.34-2.37 2.35 2.35 0 0 1-2.34 2.37m-18.75 0a2.37 2.37 0 1 1 2.34-2.37A2.34 2.34 0 0 1 22 34.75m-.78-14.21a3.19 3.19 0 0 1 1.87-2.9 3 3 0 0 1 1.24-.26h14a3.15 3.15 0 0 1 3 2.4 3 3 0 0 1 .09.76v4.73H21.26zm25 4.73v-4.73a7.84 7.84 0 0 0-7.8-7.9h-14a7.59 7.59 0 0 0-4.68 1.58 2.86 2.86 0 0 0-.47.39 7.84 7.84 0 0 0-2.65 5.93v4.73A1.58 1.58 0 0 0 15 26.85v12.64a1.57 1.57 0 0 0 1.56 1.58h1.56v2.37a2.34 2.34 0 1 0 4.68 0v-2.37H40v2.37a2.34 2.34 0 1 0 4.68 0v-2.37h1.54a1.57 1.57 0 0 0 1.56-1.58V26.85a1.58 1.58 0 0 0-1.54-1.58"/><path class="scls-1" d="M20 10.39a10.55 10.55 0 0 1 3.23-.85 8.08 8.08 0 0 1 1.11-.06h14a10.81 10.81 0 0 1 7.8 3.33V3.16A3.13 3.13 0 0 0 43.09 0H19.7a3.12 3.12 0 0 0-3.12 3.16v9.65a10.57 10.57 0 0 1 3.12-2.26l.32-.16M56.24 72.13h-3.89a6.34 6.34 0 0 0-4.15 1.58.49.49 0 0 1-.13.06 16.33 16.33 0 0 0-3.4 3.57c-2.38 3-5.07 6.52-12.62 7.38a3.21 3.21 0 0 0-2.74 3.56 3.15 3.15 0 0 0 3.09 2.87h.35c6.39-.73 10.35-3.08 13.07-5.58v12.06h17V78.88a6.66 6.66 0 0 0-6.53-6.75M27.41 88.5a5.24 5.24 0 0 1 1.42-4.11c-6.08-1.2-8.57-4.27-10.74-7a16.05 16.05 0 0 0-3.39-3.57s-.09 0-.12-.06a6.39 6.39 0 0 0-4.16-1.58H6.54A6.66 6.66 0 0 0 0 78.88v18.75h17V85.51a21.76 21.76 0 0 0 11.35 5.3 5.21 5.21 0 0 1-.9-2.31M47.11 63a7.19 7.19 0 1 0 7.17-7.43A7.31 7.31 0 0 0 47.11 63m-31.45 0a7.31 7.31 0 0 1-7.18 7.43 7.43 7.43 0 0 1 0-14.86A7.31 7.31 0 0 1 15.66 63"/></g></g></symbol><symbol viewBox="0 0 48.44 72.32" id="warehouses" xmlns="http://www.w3.org/2000/svg"><defs><style>.tcls-1{fill:#db8d7f}</style></defs><g id="tLayer_2" data-name="Layer 2"><g id="tLayer_1-2" data-name="Layer 1"><path class="tcls-1" d="M31.79 21.09a1.52 1.52 0 0 1-3 0v-4.52a1.52 1.52 0 0 1 3 0zm0 6.23a5.84 5.84 0 0 1-5.86 5.83h-.2v-1.71a5.84 5.84 0 0 1 5.86-5.83h.2zm0 9a5.84 5.84 0 0 1-5.86 5.83h-.2v-1.67a5.84 5.84 0 0 1 5.86-5.83h.2zm-7.54-10.71h-.06a1.47 1.47 0 0 1-1.48-1.47V13.53a1.48 1.48 0 0 1 1.48-1.48h.06a1.48 1.48 0 0 1 1.48 1.48v10.61a1.47 1.47 0 0 1-1.48 1.47m-1.54 7.54h-.2a5.84 5.84 0 0 1-5.86-5.83v-1.71h.2a5.84 5.84 0 0 1 5.86 5.83zm0 9h-.2a5.84 5.84 0 0 1-5.86-5.83v-1.67h.2a5.84 5.84 0 0 1 5.86 5.83zm-6.06-25.58a1.52 1.52 0 0 1 3 0v4.52a1.52 1.52 0 0 1-3 0zM45.41 9H3a3 3 0 0 0-3 3v33.2h48.44V12.05a3 3 0 0 0-3-3M9.08 6h30.28a3 3 0 1 0 0-6H9.08a3 3 0 1 0 0 6M0 72.32h18.17V57.25a3 3 0 0 1 3-3h6.06a3 3 0 0 1 3 3v15.07h18.21V48.21H0z"/></g></g></symbol></svg>