<svg xmlns="http://www.w3.org/2000/svg" xmlns:xlink="http://www.w3.org/1999/xlink"><symbol viewBox="0 0 34.02 34.02" id="assessment" xmlns="http://www.w3.org/2000/svg"><defs><style>.aacls-1{fill:#96ca4f}</style></defs><g id="aaLayer_2" data-name="Layer 2"><g id="aaLayer_1-2" data-name="Layer 1"><path class="aacls-1" d="M6 5a3.54 3.54 0 0 1 6.49 0 3.49 3.49 0 0 1 0 2.83A3.54 3.54 0 0 1 6 7.79 3.49 3.49 0 0 1 6 5m15.56 0a3.54 3.54 0 0 1 6.49 0 3.49 3.49 0 0 1 0 2.83 3.54 3.54 0 0 1-6.49 0 3.49 3.49 0 0 1 0-2.83M1.42 7.79H3a6.37 6.37 0 0 0 12.43 0h3.16a6.37 6.37 0 0 0 12.41 0h1.6a1.42 1.42 0 1 0 0-2.79H31a6.37 6.37 0 0 0-12.41 0h-3.16A6.37 6.37 0 0 0 3 5H1.42a1.42 1.42 0 1 0 0 2.83M33.31 16.3H12.05a.71.71 0 0 0-.71.71v2.82H22A2.13 2.13 0 0 1 24.1 22v12H34V17a.71.71 0 0 0-.71-.71"/><path class="aacls-1" d="M18.07 27.64H4.61a1.07 1.07 0 1 1 0-2.13h13.46a1.07 1.07 0 0 1 0 2.13m0 4.25H4.61a1.07 1.07 0 1 1 0-2.13h13.46a1.07 1.07 0 0 1 0 2.13m3.19-10.63H1.42A1.43 1.43 0 0 0 0 22.68V34h22.68V22.68a1.43 1.43 0 0 0-1.42-1.42"/></g></g></symbol><symbol viewBox="0 0 36.85 32.1" id="basket" xmlns="http://www.w3.org/2000/svg"><defs><style>.abcls-1{fill:#96ca4f}</style></defs><g id="abLayer_2" data-name="Layer 2"><path class="abcls-1" d="M27.07 25.39a1.4 1.4 0 1 1-2.79 0v-7.33a1.4 1.4 0 0 1 2.79 0zm-7.29 0a1.4 1.4 0 1 1-2.79 0v-7.33a1.4 1.4 0 0 1 2.79 0zm-7.32 0a1.4 1.4 0 1 1-2.79 0v-7.33a1.4 1.4 0 0 1 2.79 0zM11.34 4.26h1.74v.2a1.3 1.3 0 0 0 1.28 1.28h8.1a1.29 1.29 0 0 0 1.27-1.28v-.2h1.75l4.22 7.17H7.07zm22.93 7.17h-1.35l-5.47-9.26a1.35 1.35 0 0 0-1.2-.7h-2.52v-.19A1.29 1.29 0 0 0 22.46 0h-8.1a1.29 1.29 0 0 0-1.28 1.28v.19h-2.52a1.41 1.41 0 0 0-1.2.7l-5.5 9.26H2.5a2.48 2.48 0 0 0-2.4 3.18l4.22 15.63a2.54 2.54 0 0 0 2.44 1.86h23.37a2.58 2.58 0 0 0 2.44-1.86l4.22-15.63a2.6 2.6 0 0 0-2.52-3.18" id="abLayer_1-2" data-name="Layer 1"/></g></symbol><symbol viewBox="0 0 29.17 36.85" id="can" xmlns="http://www.w3.org/2000/svg"><defs><style>.accls-1{fill:#96ca4f}</style></defs><g id="acLayer_2" data-name="Layer 2"><g id="acLayer_1-2" data-name="Layer 1"><path class="accls-1" d="M1.61 21.07l3.68 14.72a1.53 1.53 0 0 0 1.53 1.06h15.23a1.52 1.52 0 0 0 1.51-1l4.08-15.09H1.54zM27.64 16.12H1.54a1.54 1.54 0 1 0 0 3.07h26.1a1.54 1.54 0 0 0 0-3.07M3.07 14.59a1.54 1.54 0 0 0 1.54-1.54 10 10 0 0 1 20 0 1.54 1.54 0 1 0 3.07 0 13.05 13.05 0 0 0-26.1 0 1.53 1.53 0 0 0 1.53 1.54"/></g></g></symbol><symbol viewBox="0 0 32.61 28.5" id="certification" xmlns="http://www.w3.org/2000/svg"><defs><style>.adcls-1{fill:#96ca4f}</style></defs><g id="adLayer_2" data-name="Layer 2"><g id="adLayer_1-2" data-name="Layer 1"><path class="adcls-1" d="M27.15 7.46h-9.44a.68.68 0 1 1 0-1.35h9.44a.68.68 0 1 1 0 1.35m0 4.07h-9.44a.68.68 0 1 1 0-1.35h9.44a.68.68 0 1 1 0 1.35m0 4.07h-9.44a.68.68 0 1 1 0-1.35h9.44a.68.68 0 1 1 0 1.35m0 4.07h-9.44a.68.68 0 1 1 0-1.35h9.44a.68.68 0 1 1 0 1.35M32 0H12.89a.67.67 0 0 0-.64.68v3.07l.64.13a2.58 2.58 0 0 1 2 2.52v8.17A9.65 9.65 0 0 1 12.63 21a5 5 0 0 1-.38.41v6.43a.67.67 0 0 0 .64.68H26.5v-4.1a2 2 0 0 1 2-2h4.07V.68A.67.67 0 0 0 32 0"/><path class="adcls-1" d="M28.54 23.75a.67.67 0 0 0-.68.67v4.07l4.75-4.74h-4.07zM13.61 14.57V6.4a1.2 1.2 0 0 0-.95-1.19l-.38-.07L7 4.09h-.47L1 5.24a1.21 1.21 0 0 0-1 1.2v8.17c0 4.31 3.11 7.78 6.8 7.78a6.57 6.57 0 0 0 5.41-3.16 8.43 8.43 0 0 0 1.36-4.66"/></g></g></symbol><symbol id="chart" viewBox="0 0 80 80" xml:space="preserve" xmlns="http://www.w3.org/2000/svg"><style>.aest0{clip-path:url(#aeSVGID_2_)}.aest1{fill:#007bbb}</style><defs><path id="aeSVGID_1_" d="M9.5 10.2h61v59.5h-61z"/></defs><clipPath id="aeSVGID_2_"><use xlink:href="#aeSVGID_1_" overflow="visible"/></clipPath><g id="aeLayer_1-2" class="aest0"><path class="aest1" d="M34.7 21.7l11 10.7c.4.3.8.5 1.3.5s.9-.2 1.2-.5l16.6-16.1V24c.1 1 1 1.8 2 1.7.9-.1 1.6-.8 1.7-1.7V12c0-1-.9-1.8-1.9-1.8H54.4c-1 0-1.8.8-1.8 1.8s.8 1.8 1.8 1.8h7.8L47.1 28.6 36.1 18c-.8-.7-2-.7-2.8 0L10.1 40.7c-.7.7-.7 1.8-.1 2.5l.1.1c.7.7 1.9.7 2.6 0l22-21.6zM24.1 49.3H14c-1.4 0-2.6.8-2.6 1.9v16.7c0 1 1.1 1.9 2.6 1.9h10.2c1.4 0 2.6-.8 2.6-1.9V51.2c-.1-1-1.2-1.8-2.7-1.9M46 39.4H36c-1.4 0-2.6.8-2.6 1.8v26.6c0 1 1.1 1.8 2.6 1.8h10c1.4 0 2.6-.8 2.6-1.8V41.3c0-1-1.1-1.9-2.6-1.9m21.9-9.8H57.7c-1.4 0-2.6.8-2.6 1.8v36.5c0 1 1.2 1.8 2.6 1.8h10.2c1.4 0 2.6-.8 2.6-1.8V31.4c0-1-1.2-1.8-2.6-1.8"/></g></symbol><symbol viewBox="0 0 40.21 45.06" id="connect" xmlns="http://www.w3.org/2000/svg"><defs><style>.afcls-1{fill:#28a5de}</style></defs><g id="afLayer_2" data-name="Layer 2"><g id="afLayer_1-2" data-name="Layer 1"><path class="afcls-1" d="M11.76 18.65v-.31a1 1 0 0 1 .46-.81l.28-.14-2.91-1.67V16a1 1 0 0 1-.46.81l-.28.19zM28.5 26.4v.32a1 1 0 0 1-.46.81l-.28.18 2.91 1.62V29a1 1 0 0 1 .46-.81l.28-.14zM11.76 26.72v-.32L8.85 28l.28.13a.93.93 0 0 1 .46.81v.32l2.91-1.62-.28-.18a.88.88 0 0 1-.46-.77M28.5 18.34v.31L31.41 17l-.28-.13a.93.93 0 0 1-.46-.81v-.32l-2.91 1.62.28.14a.93.93 0 0 1 .46.81M39.75 10.9l-.27-.13-3-1.71-.23-.14a.89.89 0 0 0-.46-.13.8.8 0 0 0-.46.13l-.23.14-3.1 1.75-.23.14a.93.93 0 0 0-.46.81v4a1 1 0 0 0 .46.81l.28.14 3 1.71.23.13a.83.83 0 0 0 .92 0l.23-.13 3.09-1.76.23-.13a.93.93 0 0 0 .46-.81v-4a1 1 0 0 0-.46-.82M20.57 10.41a.89.89 0 0 1-.46.13.87.87 0 0 1-.46-.13l-.28-.18v3.29l.28-.18a.88.88 0 0 1 .46-.14.91.91 0 0 1 .46.14l.28.13v-3.24zM19.65 34.65a.88.88 0 0 1 .46-.14.91.91 0 0 1 .46.14l.27.13V31.5l-.27.18a.89.89 0 0 1-.46.13.87.87 0 0 1-.46-.13l-.28-.14v3.29zM24.12 37.35l-.23-.13-3-1.71-.28-.19a.89.89 0 0 0-.46-.13.76.76 0 0 0-.46.13l-.28.14-3 1.71-.23.14a.94.94 0 0 0-.47.81v4a1 1 0 0 0 .47.81l.23.13 3 1.72.28.13a.88.88 0 0 0 .46.14.91.91 0 0 0 .46-.14l.28-.13 3-1.72.23-.13a.93.93 0 0 0 .46-.81v-4a.73.73 0 0 0-.46-.77M39.75 28.52l-.23-.13-3-1.72-.23-.13a.91.91 0 0 0-.46-.14.76.76 0 0 0-.46.14l-.23.13L32 28.39l-.28.13a.93.93 0 0 0-.46.81v4a1 1 0 0 0 .46.81l.23.14 3.09 1.76.23.13a.83.83 0 0 0 .92 0l.23-.13 3-1.72.27-.13a.93.93 0 0 0 .46-.81v-4a1 1 0 0 0-.46-.86M8.53 28.52l-.28-.13-3-1.72-.25-.13a.94.94 0 0 0-.46-.14.94.94 0 0 0-.47.14l-.27.13-3.06 1.72-.23.13a.93.93 0 0 0-.46.81v4a1 1 0 0 0 .46.81l.27.14 3 1.71.28.14a.89.89 0 0 0 .46.13.8.8 0 0 0 .48-.12l.16-.14 3.09-1.76.24-.13A1 1 0 0 0 9 33.3v-4a.85.85 0 0 0-.42-.77M16.09 7.7l.24.14 3 1.71.28.18a.88.88 0 0 0 .46.14.91.91 0 0 0 .46-.14l.27-.13 3.05-1.72.23-.13a.93.93 0 0 0 .46-.81v-4a1 1 0 0 0-.46-.81L23.89 2 20.84.27l-.27-.14a.89.89 0 0 0-.46-.13.76.76 0 0 0-.46.13l-.28.19-3 1.68-.23.13a.93.93 0 0 0-.46.81V7a.72.72 0 0 0 .41.72M.46 16.49l.23.14 3.09 1.75.23.14a.89.89 0 0 0 .46.13.76.76 0 0 0 .46-.13l.23-.14 3.05-1.71.27-.13a.94.94 0 0 0 .52-.81v-4a1 1 0 0 0-.47-.82l-.23-.13L5.16 9l-.23-.13a.88.88 0 0 0-.46-.14.81.81 0 0 0-.47.15L3.78 9l-3 1.76-.28.13a.94.94 0 0 0-.46.82v4a.85.85 0 0 0 .46.76M22.68 21.2H16.9v-1h5.78zm0 2.44a2.15 2.15 0 0 1-1.32 2v-.2h-3.14v.2a2.15 2.15 0 0 1-1.32-2v-2.12h5.78zm-1.57 2.14v.88h-2.64v-.95h2.64zm-.35 1.32v2h-1.94v-2.2h1.94zm-3.29-9.72a.72.72 0 0 1 1.43 0V20h-1.43zm3.21 0a.72.72 0 0 1 1.43 0V20h-1.43zm6.71.46l-.27-.13-6.28-3.56-.27-.15a.89.89 0 0 0-.46-.13.76.76 0 0 0-.46.13l-.28.18-6.27 3.53-.28.13a.93.93 0 0 0-.46.81v7.66a1 1 0 0 0 .46.81l.28.14 6.22 3.51.28.14a.88.88 0 0 0 .92 0l.28-.14 6.2-3.51.28-.18a.93.93 0 0 0 .46-.81v-7.62h.09a1 1 0 0 0-.46-.81"/></g></g></symbol><symbol viewBox="0 0 42.76 48.45" id="costRed" xmlns="http://www.w3.org/2000/svg"><defs><style>.agcls-1{fill:#0f6386}</style></defs><g id="agLayer_2" data-name="Layer 2"><g id="agLayer_1-2" data-name="Layer 1"><path class="agcls-1" d="M41.14 46.83h1.62v1.62h-1.62zM34.24 46.83h1.73v1.62h-1.73zM37.68 46.83h1.72v1.62h-1.72zM30.78 46.83h1.73v1.62h-1.73zM27.33 46.83h1.73v1.62h-1.73zM23.88 46.83h1.73v1.62h-1.73zM20.53 46.83h1.62v1.62h-1.62zM20.53 23.39h1.62v1.67h-1.62zM20.53 26.74h1.62v1.67h-1.62zM20.53 6.64h1.62v1.67h-1.62zM20.53 3.3h1.62v1.67h-1.62zM20.53 30.09h1.62v1.67h-1.62zM20.53 43.49h1.62v1.67h-1.62zM20.53 33.44h1.62v1.68h-1.62zM20.53 36.79h1.62v1.68h-1.62zM20.53 40.13h1.62v1.68h-1.62zM20.53 0h1.62v1.62h-1.62zM30.78 0h1.73v1.62h-1.73zM27.33 0h1.73v1.62h-1.73zM23.88 0h1.73v1.62h-1.73zM37.69 0h1.72v1.62h-1.72zM34.24 0h1.73v1.62h-1.73zM41.14 0h1.62v1.62h-1.62zM41.14 3.3h1.62v1.67h-1.62zM41.14 6.64h1.62v1.67h-1.62zM41.14 26.74h1.62v1.67h-1.62zM41.14 30.09h1.62v1.67h-1.62zM41.14 23.39h1.62v1.68h-1.62zM41.14 40.13h1.62v1.68h-1.62zM41.14 13.34h1.62v1.68h-1.62zM41.14 36.79h1.62v1.68h-1.62zM41.14 16.69h1.62v1.68h-1.62zM41.14 20.04h1.62v1.67h-1.62zM41.14 43.49h1.62v1.67h-1.62zM41.14 33.44h1.62v1.68h-1.62zM41.14 9.99h1.62v1.68h-1.62z"/><path class="agcls-1" d="M8 37.94a2.08 2.08 0 1 1 .6-1.47 2.06 2.06 0 0 1-.6 1.47M4.46 12a2.07 2.07 0 1 1 2.07 2.07A2.07 2.07 0 0 1 4.46 12M34 7.36l-.57-.58a4.58 4.58 0 0 0-6.45 0L13.33 20.43l-3.08-3.08a6.39 6.39 0 0 0 .9-.75 6.53 6.53 0 1 0-9.24 0l7.63 7.63-7.63 7.62A6.54 6.54 0 0 0 6.53 43a6.46 6.46 0 0 0 4.62-1.92 6.54 6.54 0 0 0 0-9.24 6.32 6.32 0 0 0-.9-.74l3.09-3.1 4.31 4.32 1.14-1.15v-5.3l-1.66-1.66zM30.1 31.45a.84.84 0 0 0 .27.64 3.07 3.07 0 0 0 .86.51v-2.06c-.75.11-1.13.42-1.13.91M32.44 35.63v2.19c.79-.14 1.19-.48 1.19-1a.78.78 0 0 0-.3-.62 4 4 0 0 0-.89-.53"/><path class="agcls-1" d="M35.26 38.89a4.94 4.94 0 0 1-2.82 1v1.8h-1.21v-1.75a9.63 9.63 0 0 1-3.75-.76v-2.31a10.73 10.73 0 0 0 1.84.67 10.31 10.31 0 0 0 1.91.34v-2.72l-.58-.23a6.64 6.64 0 0 1-2.47-1.49 2.86 2.86 0 0 1-.72-2 2.59 2.59 0 0 1 1-2.09 5 5 0 0 1 2.77-1V27h1.21v1.31a10 10 0 0 1 3.63.81l-.83 2.05a9.48 9.48 0 0 0-2.8-.68v2.61a12.29 12.29 0 0 1 2.43 1.14 3.24 3.24 0 0 1 1.06 1.06 2.56 2.56 0 0 1 .34 1.35 2.78 2.78 0 0 1-1 2.24m-11.62-11.8v18.24h16V11.11z"/></g></g></symbol><symbol viewBox="0 0 47.97 47.99" id="deployment" xmlns="http://www.w3.org/2000/svg"><defs><style>.ahcls-1{fill:#007bbb}</style></defs><g id="ahLayer_2" data-name="Layer 2"><g id="ahLayer_1-2" data-name="Layer 1"><path class="ahcls-1" d="M18.85 23.89a7.26 7.26 0 0 0-10.06.36L.66 32.38a2.26 2.26 0 0 0 0 3.19l6.77 6.77a2.26 2.26 0 0 0 3.19 0L19 34a7 7 0 0 0-.13-10.09M47.77 2.75a4 4 0 1 0-2.55 5.05 4 4 0 0 0 2.55-5"/><path class="ahcls-1" d="M44.45 18.05a4.94 4.94 0 0 0-2.29-6.59l-2.65-1.33a1.46 1.46 0 0 0-.44-.16c-6.85-3-15.43.3-18.87 7a2.07 2.07 0 0 0 3.68 1.89A11.19 11.19 0 0 1 35 13.06L18.2 45a2.09 2.09 0 0 0 .91 2.81 2 2 0 0 0 .95.23 2.09 2.09 0 0 0 1.86-1.14l9.31-17.72L35 31a10.44 10.44 0 0 1 4.23 13.93 2.08 2.08 0 0 0 2.48 3 2 2 0 0 0 1.22-1A14.28 14.28 0 0 0 39 28.74l1.76-3.4z"/></g></g></symbol><symbol id="food" viewBox="0 0 80 80" xml:space="preserve" xmlns="http://www.w3.org/2000/svg"><style>.aist0{clip-path:url(#aiSVGID_2_)}.aist1{fill:#007bbb}</style><defs><path id="aiSVGID_1_" d="M1.2 9.8h77.5v60.5H1.2z"/></defs><clipPath id="aiSVGID_2_"><use xlink:href="#aiSVGID_1_" overflow="visible"/></clipPath><g id="aiLayer_1-2" class="aist0"><path class="aist1" d="M30.2 32.7c0 3.3-2.7 6-6 6H24V36c0-3.3 2.7-6 6-6H30.3v2.7zm0 10.1c0 3.3-2.7 6-6 6H24v-2.7c0-3.3 2.7-6 6.1-6h.2v2.7zm0 10.1c0 3.3-2.7 6-6 6H24v-2.7c0-3.3 2.7-6 6.1-6h.2v2.7zm-6.3 11c-.2 1.4-1.4 2.4-2.8 2.2-1.1-.1-2-1-2.2-2.2V62c0-.3.3-.6.6-.6h3.8c.3 0 .6.3.6.6v1.9zm-11.3-11v-2.8h.2c3.3 0 6 2.7 6 6v2.8h-.2c-3.3 0-6-2.7-6-6m0-12.8h.2c3.3 0 6 2.7 6.1 6v2.8h-.2c-3.3 0-6-2.7-6.1-6v-2.8zm0-10.1h.2c3.3 0 6 2.6 6 5.9v2.9h-.2c-3.3 0-6-2.7-6.1-6V30zm6.3-5.1c0-1.4 1.1-2.5 2.5-2.5s2.5 1.1 2.5 2.5v3.7c.2 1.4-.8 2.6-2.2 2.8-1.4.2-2.6-.8-2.8-2.2v-4.3zm17.6-6.3H6.2c-2.7 0-5 2.3-5 5v41.6c0 2.7 2.3 5 5 5h30.3c2.7 0 5-2.3 5-5V23.6c0-2.7-2.2-5-5-5M6.9 16.1h29c1.7 0 3.2-1.4 3.2-3.1S37.7 9.8 36 9.8H7c-1.7 0-3.1 1.4-3.1 3.2-.1 1.6 1.3 3.1 3 3.1"/><path class="aist1" d="M77.8 56.4H32.4c-.6 0-1 .4-1 1 0 7.1 5.7 12.8 12.8 12.8h21.7c7.1 0 12.8-5.7 12.8-12.8.1-.5-.4-1-.9-1M52 45.8l-2.5-.7c-2.6-.7-5.3.9-6 3.5l-.2.7 2.5.7c2.6.7 5.3-.9 6-3.5l.2-.7zm-.5 5.7l2.5.7c2.6.7 5.3-.9 6-3.5l.2-.6-2.5-.7c-2.6-.7-5.3.9-6 3.5l-.2.6zm8.1 2.2l2.5.7c2.6.7 5.3-.9 6-3.5l.2-.7-2.4-.7c-2.6-.7-5.3.9-6 3.5l-.3.7zm-9.3-11.2l2.5.7.2-.7c.7-2.6-.9-5.3-3.5-6l-2.5-.7-.2.7c-.7 2.5.9 5.2 3.5 6m8.1 2.1l2.5.7.2-.7c.7-2.6-.9-5.3-3.5-6l-2.5-.6-.2.6c-.6 2.7.9 5.3 3.5 6m8.1 2.2l2.4.7.2-.6c.7-2.6-.9-5.3-3.5-6l-2.4-.7-.2.7c-.6 2.5.9 5.2 3.5 5.9M76.7 51c.2-.7-.3-1.5-1-1.7l-5-1.3-.7 2.7 5 1.3c.8.2 1.5-.3 1.7-1m-39.4-6.2c-.7-.2-1.5.2-1.7 1s.2 1.5 1 1.7l3.6 1c.7.2 1.5-.2 1.8-.9s-.2-1.5-.9-1.8H41l-3.7-1zm2.2-8.1l3.6 1c.7.2 1.5-.2 1.8-.9s-.2-1.6-.9-1.8h-.1l-3.6-1c-.7-.2-1.5.2-1.7 1-.3.7.2 1.5.9 1.7m-5 4.4l9.9 2.6c.7.2 1.5-.2 1.7-1s-.2-1.5-1-1.7l-9.9-2.6c-.7-.2-1.5.2-1.8.9s.2 1.5 1.1 1.8c-.1 0 0 0 0 0"/></g></symbol><symbol viewBox="0 0 63.76 58.68" id="forklift" xmlns="http://www.w3.org/2000/svg"><defs><style>.ajcls-1{fill:#007bbb}</style></defs><g id="ajLayer_2" data-name="Layer 2"><g id="ajLayer_1-2" data-name="Layer 1"><path class="ajcls-1" d="M62.35 15.37h-11.5l-4.47.07-17.7 19.62 3.77 1a.41.41 0 0 0 .51-.2l15.47-17.54h13.86a1.56 1.56 0 0 0 1.47-1.51 1.44 1.44 0 0 0-1.41-1.44M5.56 47.36a5.66 5.66 0 0 0 0 11.32 5.66 5.66 0 0 0 0-11.32"/><path class="ajcls-1" d="M20.19 38.6L18.14 34h-5.87V19.63h6.19l4.67 19zm11.75 3.2a.63.63 0 0 0 .58-.52l.25-2.36a.53.53 0 0 0-.44-.65L27 36.83l-5.73-19.89a1.88 1.88 0 0 0-1.66-1.17h-14c-1-.07-1.6.91-1.6 2V34H1.34c-.83 0-1.21.91-1.21 1.76v12a7.28 7.28 0 0 1 5.49-2.48 7.46 7.46 0 0 1 7.54 7.78h10.16a7.77 7.77 0 0 1-.13-1.7 9.4 9.4 0 0 1 8.75-9.55"/><path class="ajcls-1" d="M32.45 43.89a7.4 7.4 0 1 0 7.22 7.4 7.34 7.34 0 0 0-7.22-7.4M63.37 1.9A1.88 1.88 0 0 0 61.52 0h-12.9a1.88 1.88 0 0 0-1.86 1.9v9.35a1.88 1.88 0 0 0 1.86 1.9h13a1.88 1.88 0 0 0 1.85-1.9V1.9z"/></g></g></symbol><symbol viewBox="0 0 66.37 65.22" id="globe" xmlns="http://www.w3.org/2000/svg"><g data-name="Layer 2"><path d="M33.18 65.22C14.87 65.22 0 50.61 0 32.61S14.87 0 33.18 0s33.19 14.61 33.19 32.61S51.5 65.22 33.18 65.22m24-38.58c.16.08.24.48.49.64a2.47 2.47 0 0 1 .66.81.28.28 0 0 0 .08.16 1.33 1.33 0 0 1 .57.65.57.57 0 0 1 0 .72c-.08.08-.24.33-.33.41a1.75 1.75 0 0 1-.41.56l-.08.08c-.66-.24-1.56-1.93-1.64-1.85s.57 1 .49 1.21l-.08.08c-.08.16-.08.56-.41.56s-1.07-1.53-1.07-1.77c.08-.65.49-.65.33-1.29a2 2 0 0 1 0-1.38 3.46 3.46 0 0 0 .08-.4c.08-.4.66-.32.91-.16a.32.32 0 0 1 .16.32h-.08a1.54 1.54 0 0 0 .33.65M24.72 42.7c1-.08 1 .08 1.07.32a1.88 1.88 0 0 0 .58.49l.08.08a5.42 5.42 0 0 0 .74.64.6.6 0 0 1 .32.49c.09.08.09.24.66.32s.49.73.82 1a.31.31 0 0 1 .17.32c0 .08-.08.16-.08.24s-.17.09-.25.17c-.58.24-.74-.17-1.23-.25s-.91-1.61-1.65-2.26c-.08-.08-.08-.16-.16-.24s-.08-.32-.74-.56l-.33-.33zm4.6 3.87c.33-.24.58.09.82.17a2.08 2.08 0 0 1 .91.32.61.61 0 0 0 .33.32c.24.24.16.16-.17.57 0 0 .66.4.66.72-.08.65-1.81-.32-1.89-.48 0 0-.74-.32-.9-.65-.33-.56-.33-.56 0-.8.08 0 .16-.08.24-.17m12.9-13.31c.16-.17.24-.41.49-.25s0 .81.25.89c.49.16.41 1.29.9 1.62a3.4 3.4 0 0 1-.16.88c-.25-.08-1.73-.4-1.65-.88s-.49-1.94.17-2.26m.08-11.14v.32a2.75 2.75 0 0 0 .9 1.37c.25.24.09 1.21-.08 1.45s-.16.17-.33.17a1.5 1.5 0 0 0-.41.16c-.24.24-.24.48-.41.56a1.16 1.16 0 0 1-1.23-.32c-.25-.4-2-1.78-1.89-1.94s0-.08.08-.16h.17a3.74 3.74 0 0 1 .9-.08 2.9 2.9 0 0 1 .66-.81 1.32 1.32 0 0 0-.5-1.29c-.24-.08-.32-.4-.41-.48-.49-.24-.9-1.54-.9-1.94s1.15-.81 1.48-.4a19.24 19.24 0 0 1 1.56 2c.08.33.82.89.41 1.38m-.58-7c.42-.24 2.22.17 2 1.13 0 .08.41.17.49.17a2 2 0 0 1 2.38.08c.33.24.9.24 1.07.8 0 .25 1.23 1.21 1.39 2a4.39 4.39 0 0 1 .83.89c.82.24 1.06 2.91.49 3.55a.44.44 0 0 1-.33.16c-1.4-.08-1.64.81-1.81 1.54-.16.48-.24 1-.74 1.13a.17.17 0 0 0-.16.16c-.25.24-.08 1 .25 1.21.65.56.9.89.74 1.05s-.58 0-1.15-.16a3.86 3.86 0 0 0-1.4-.41c-.82.08-1.48-1.13-1.64-2.18-.09-.08.41-.4.33-.4-.33-.24-.5-.08-.5-.89a2.32 2.32 0 0 1 .33-.64c.82-.81-.33-3.31-1.07-4.2a2.25 2.25 0 0 1-.41-2.34c0-.16 0-.16-.08-.08a.32.32 0 0 0-.25.08c-.32.16-.9.89-1.31 1-.08 0-.25-.08-.41-.49 0-.56-.9-1-.41-1.53.74-.24 1.39-1.62 1.39-1.62m10.52 8.56c.41 0 .74 0 .82.65.08.16.33.24.41.4.33.48-.57 1-.9 1.21-.09.08-.25.16-.33.24-.58.41-1.15.65-1.81-.16-.33-.48 0-.89 0-1.29-.08-.81.41-.81.9-.81a3.83 3.83 0 0 0 .91-.24m7.47 28.09c-.9.24-1.72 1.13-2.46.65a.44.44 0 0 0-.33-.17c-1.15-.16-.82-3.55-.9-4.76-.09-.72 1.15-2.58 1.23-3.23 0-1.21 2.13-2.42 2-3.47 0-.89.58-1.53.66-2.26a1.72 1.72 0 0 1 1.07-1c0-.16.16-.4.16-.48-.25.08-1 1.13-1.48 1.13-1-.16-2.22-.81-1.48-1.78.09-.16.09-.24 0-.32-.41-.65 0-1 .25-1.53.08-.16.16-.25.25-.25s.08-.08.16-.08.25-.08.49-.16c.41-.16.41-.24.41-.64 0-.16-.16-.08-.24-.16-.25-.33-.66-.41-1.23-.89-.74-1 1.06-1.94 1.06-2 0-.49-.16-.89-.16-1.37s-.58-1.46-.49-1.62c.24-.4.41-1.37.65-1.61s.09-.41.09-.73c.24-.56-.41-1.21.16-2.34.08-.08.16-.16-.08-.4a11.36 11.36 0 0 1-1.07-1.62c-.25-.72-.25 0-.25.08.17.25.09.33-.08.41s-.33.08-.57.08c-.41 0-.25-.08 0 .08 1.06.89.9 1.37 1.23 2.5.16.4.41.49.57.73s.09.24-.08.32c-.49.32-1.31-.24-1.72.24-.09.16-.17.24-.33.16-.74-.32-.49-.64-.91-1.05-.65-.72-.65-.72-.57-1.37a2.35 2.35 0 0 0-.58-1.93 20.09 20.09 0 0 1-1.39-2.1 2.16 2.16 0 0 1-.08-1.46.44.44 0 0 1 .65-.32c.41.16 1.48.24 1.56.32.25.25.41.33.5.33.08-.16-.25-1.05-.33-.89s-.17.4-.74.16c-.66-.4-.82-.65-.66-.81s.41-.16.25-.32c-.41-.57 0-1.94-1.07-2.91-.49-.48-.74-1.61-1.31-1.37-1.32.57-1.15 0-1.89-.72a4.63 4.63 0 0 0-1-.73 3.43 3.43 0 0 0-1.15-.16c-1.39 0-1.72-.33-2-.73a.58.58 0 0 0-.41-.32v-.18c-1.23-.65-1.32-1.05-1.15-1.29.24-.41.82-1-.49-.81a2.53 2.53 0 0 1-1.89-.32c-2.14-1.13-1.24-.08-1.89.08-.25.08-.58-.08-1-.25-2.22-1-1 1-2.13.81-.25 0-.5-.24-.83-.48s-.73-.57-.9-.41c-.41.33-.41.49-.41.57-.08.56-1.56.48-2.3 1a1.75 1.75 0 0 1-1.56.24c-.41-.16-1.31 0-1.48-.32s.58-.89.82-1 .09-.08.09-.32-.41-.49-.66-.65-.25-.16-.25-.24 0-.16.08-.16c.66-1.78 1.73-1.54 2.47-1.3.16 0 .33.09.41 0 1.07-.64.57-1.93 2.46-1.53.74.16 1 0 1.07-.32a9.77 9.77 0 0 0 0-1.53C35.4.4 34.33.32 33.18.32 15 .32.33 14.77.33 32.61a32.29 32.29 0 0 0 20.78 30 1.46 1.46 0 0 1 .74-1.21c.65-.41.24-1 0-1.38-.91-1.37-.33-1.85-1.23-3 0-.73-1.32-1.37-1.07-2.67 0-.4 1-1.69 1.31-1.69a15.43 15.43 0 0 1 1.73-.16c.41-.65.9-.49 1.06-1.29.09-.17.25-.17.33-.25s0-.08-.16-.24a9 9 0 0 0-2-.89 1.06 1.06 0 0 0-.5-.72c-.41-.24-.9-.57-.82-1.94a6.42 6.42 0 0 0-1.72-4.12 2.07 2.07 0 0 1-1.07-1c-.16-.4-1.4-1.53-1.4-1.69.09-1-.82-1.53-.9-2.26s-.49-.73-.66-1c-.24-1 .09-1.21.41-1.37.83-.57.66-3.07.66-3.8 0-.88.58-1.77.58-2.26h-.09a4.19 4.19 0 0 0-.57 1.22c-.41.88 0 2.34-.25 2.58s-.65-.16-.82-.41c-.9-1.77.74-7.66 2.14-9s3-3.87 5-4c.08 0 2.38-3.88 3.37-4.52.82-.54 2.33-2.71 1.76-3.54a3.72 3.72 0 0 1-1.15-1.3c-.66-1-1.89-1.21-.57-2.34a2.23 2.23 0 0 0 .9 1.21 4.33 4.33 0 0 1 1.15-1 1.22 1.22 0 0 1 1.39 0c.25.16.5.48.74.64s.33 0 .5-.24c.33-.73 1.48-.4 1.64.24 1.64-.08 1.07.32 1.89.81.16.16.25.16-.08.64s.24.81-.66 1.46c-.08 0-.08.16-.08.32a18.74 18.74 0 0 0 2 5.41c0-.08.17-.32.25-.32.24-.17-.5-.65-.5-1.13a.8.8 0 0 1 .25-.65c.17-.16-.41-.57-.41-.81.33-.56 2.46-.64 2.22.65-.08.72.24.56.41 1a2.4 2.4 0 0 1-.33 1.85c-.16.17-.41.33-.41.57s.66 0 .74.08.57-.89.74-.89c1.39-.4.08 1.86.08 1.86.08.32.49.4.82.48s.74.25.74.57c0 .08.08.72.08.72-.08.33-1.56.41-1.89.57-.82.4-3.77.08-3.69 1.21 0 .4-.17 2.66.57 2.42.58.57.91.81.58 1.54-.08.24-.41 1.29.08 1.85a1.76 1.76 0 0 0 .41-.64c.08-.17.08-.25.66-.65.08-.08.33-.4.57-.65a.58.58 0 0 0 .25-.24c0-.72-.58-.72.08-1.53 1-1.29 1.4-1.45 1.64-1.21l.25.24a.77.77 0 0 0 .33.4 2.22 2.22 0 0 1 .49.41c.08.16.25.32.25.48l.24.49c.17.24.33.4.25.72 0 .16.25.33.49.49a2.12 2.12 0 0 1 .66.56c0 .08.08.16.16.24a1.61 1.61 0 0 1 .5 1.05c.08.33.24.57.33.89a1.75 1.75 0 0 1-.17 2.1 1.49 1.49 0 0 1-2.13.32 7.49 7.49 0 0 0-1.89-.08.68.68 0 0 0-.5.33c.25.08 1.48-.49 2.06.4 0 .08-.33.73-.25.73.08.16.49.16.66.16.33 0 .57.56.49.88 0 .49-.41.49-.74.33-.08-.08-.82.24-1.15.08s-.49.16-.74.24-.41 0-.49-.48-.9-.08-1.07.16a2.63 2.63 0 0 1-1.15.64c-.24.08-.16.08-.49 0-.08 0-.74.41-1 .49a4.94 4.94 0 0 0-1.39 1.53c-.25.73-1.64.49-2.22.89-.49 0-1.31.08-1.56.56s-.33.17-.58.89v.24c0 .65 0 1.46-.9 1.46-.57 0-.74-.65-.57-1.13a2.56 2.56 0 0 0-1.24-2.59 1.35 1.35 0 0 0-.73-.16 1.22 1.22 0 0 1-1.01-.46 2.33 2.33 0 0 0-2.06-1.21c-.33 0-1.64.56-1.72.89a3.66 3.66 0 0 0-1 1.93c.17.33.41 1 .66 1.46a2 2 0 0 1 .82.4.52.52 0 0 0 .58.08 1.15 1.15 0 0 1 1.23-.16c.49.24.9.48.82 1.13a5.36 5.36 0 0 0-.58.64 1.62 1.62 0 0 1-.65.65c-.25.08-.58.32-.08.48a3.35 3.35 0 0 1 1.15 1c.24.25.82 1 .65 1.38l-.41.4a1.75 1.75 0 0 0-.49 1.21A1.43 1.43 0 0 0 23 49.4a1.71 1.71 0 0 0 .49.32c.74.08 1 .81 1.23.73 1.23-.4 3-.4 3.86.89.08.16 2.55.32 3.12 1a1 1 0 0 0 .91.48 1.12 1.12 0 0 1 1.15.81 7.54 7.54 0 0 0 3 2.58c2.63 1.13.58 4 5.84 4 1.39 0 1.23.72 1.39 1.29.17.4-3.61 1.37-4 2.82a32.9 32.9 0 0 0 19.72-12.58m4.93-20.1c-.08-.56 0-.72.25-.72h.16c.66.24.33-.89.82-1.05H66c-.08-.89-.24-1.86-.41-2.75a3 3 0 0 1-.74 1.05c-.49.4.83 1.7.25 2.1-.25.24-1.23.4-1.48.08-.16-.16-.08-.24-.33-.24-.08-.08-.24-.08-.24 0s.65.72.74.89c.33.32-.41 1.13-.74.72s-.5-.16-.74-.32c-.33.56-.33 1.13-.58 1.45a23 23 0 0 0-.41 2.67s.25.64.33.64l1.48-2.5c.08-.16.16-.24.49-.24s.5.48.74.56a2.05 2.05 0 0 0 .33-.56.74.74 0 0 0 .08-.41c-.08-.4 0-1-.08-1.37" data-name="Layer 1"/></g></symbol><symbol viewBox="0 0 32.23 33.93" id="management" xmlns="http://www.w3.org/2000/svg"><defs><style>.alcls-1{fill:#fff}</style></defs><g id="alLayer_2" data-name="Layer 2"><g id="alLayer_1-2" data-name="Layer 1"><path class="alcls-1" d="M16.11 21.21a4.14 4.14 0 0 1-4-4.25 4.14 4.14 0 0 1 4-4.24 4.14 4.14 0 0 1 4 4.24 4.15 4.15 0 0 1-4 4.25M27.26 18a2.12 2.12 0 0 0 0-2.07 12.78 12.78 0 0 0-11.15-6.74A12.77 12.77 0 0 0 5 15.93 2.12 2.12 0 0 0 5 18a12.77 12.77 0 0 0 11.14 6.74A12.78 12.78 0 0 0 27.26 18M24.51 9.19h6.71a1.06 1.06 0 0 0 0-2.12h-4.28l5-5.24a1.11 1.11 0 0 0 0-1.5 1 1 0 0 0-1.43 0l-5 5.24V1.06a1 1 0 1 0-2 0v7.07a1 1 0 0 0 1 1.06M0 8.13a1 1 0 0 0 1 1.06h6.72a1 1 0 0 0 1-1.06V1.06a1 1 0 1 0-2 0v4.51L1.74.33a1 1 0 0 0-1.43 0 1.11 1.11 0 0 0 0 1.5l5 5.24H1a1 1 0 0 0-1 1.06M32.23 25.8a1 1 0 0 0-1-1.06h-6.72a1 1 0 0 0-1 1.06v7.07a1 1 0 1 0 2 0v-4.51l5 5.24a1 1 0 0 0 1.43 0 1.11 1.11 0 0 0 0-1.5l-5-5.24h4.28a1 1 0 0 0 1-1.06M7.72 24.74H1a1.06 1.06 0 0 0 0 2.12h4.29l-5 5.24a1.11 1.11 0 0 0 0 1.5 1 1 0 0 0 1.43 0l5-5.24v4.51a1 1 0 1 0 2 0V25.8a1 1 0 0 0-1-1.06"/></g></g></symbol><symbol viewBox="0 0 60.16 41.51" id="meeting" xmlns="http://www.w3.org/2000/svg"><defs><style>.amcls-1{fill:#28a5de}</style></defs><g id="amLayer_2" data-name="Layer 2"><g id="amLayer_1-2" data-name="Layer 1"><path class="amcls-1" d="M9.5 7.91a.5.5 0 0 1-.76 0 .6.6 0 0 1 0-.81l1.52-1.62a.5.5 0 0 1 .76 0 .6.6 0 0 1 0 .81zM9.88 9.13l2.66-2.84a.5.5 0 0 1 .76 0 .6.6 0 0 1 0 .81l-2.66 2.84a.52.52 0 0 1-.76 0 .61.61 0 0 1 0-.8zM8.34 13.42a2.53 2.53 0 0 1 0 5 2.53 2.53 0 0 1 0-5M10.81 29.84H7.7a1.65 1.65 0 0 1-1.61-1.49l-1-6.49a.73.73 0 0 0-.81-.63.77.77 0 0 0-.59.86l1 6.49a3.15 3.15 0 0 0 3.06 2.81h3.17a.74.74 0 0 0 .7-.75.84.84 0 0 0-.81-.8"/><path class="amcls-1" d="M15.22 23.3a1 1 0 0 0 0-2h-2a2.88 2.88 0 0 1-1.77-.57l-1.76-1.22a2.15 2.15 0 0 0-1.19-.4h-.32a2 2 0 0 0-1.61.8 2.28 2.28 0 0 0-.48 1.84L7 27.89a1.12 1.12 0 0 0 1.08 1h4.24l1.07 6.43a1.13 1.13 0 0 0 1.08 1h.21a1.12 1.12 0 0 0 .86-1.32l-1.23-7.4a1.13 1.13 0 0 0-1.08-1H11l-.27-4.07a4.53 4.53 0 0 0 2.58.75zM50 13.42A2.53 2.53 0 1 1 47.66 16 2.46 2.46 0 0 1 50 13.42M54.11 21.23a.72.72 0 0 0-.8.63l-1 6.49a1.66 1.66 0 0 1-1.61 1.49h-3.14a.75.75 0 0 0 0 1.49h3.11a3.15 3.15 0 0 0 3.07-2.81l1-6.49a.73.73 0 0 0-.59-.8"/><path class="amcls-1" d="M51.86 19.91a2.15 2.15 0 0 0-1.67-.8h-.32a2.09 2.09 0 0 0-1.18.4l-1.78 1.26a3.27 3.27 0 0 1-1.77.57h-2a1 1 0 0 0 0 2h2a5.21 5.21 0 0 0 2.58-.75l-.27 4.07h-2.2a1.13 1.13 0 0 0-1.08 1L42.94 35a1.12 1.12 0 0 0 .86 1.32h.2a1.13 1.13 0 0 0 1.08-1l1.07-6.43h4.25a1.12 1.12 0 0 0 1.07-1l.91-6.14a2.82 2.82 0 0 0-.53-1.84M21 13.42A2.53 2.53 0 1 1 18.6 16a2.46 2.46 0 0 1 2.4-2.58M23.71 20.94a2.38 2.38 0 0 0-2.26-1.83h-1a2.33 2.33 0 0 0-2.25 1.83l-.65 2.36h6.77zM29.19 13.42A2.53 2.53 0 1 1 26.82 16a2.46 2.46 0 0 1 2.37-2.53M31.93 20.94a2.38 2.38 0 0 0-2.26-1.83h-1a2.32 2.32 0 0 0-2.25 1.83l-.62 2.36h6.77zM37.41 13.42A2.53 2.53 0 1 1 35 16a2.46 2.46 0 0 1 2.37-2.53M40.14 20.94a2.36 2.36 0 0 0-2.25-1.83h-1a2.32 2.32 0 0 0-2.25 1.83L34 23.3h6.77z"/><path class="amcls-1" d="M46.05 25a.74.74 0 0 0-.69-.75H13.07a.75.75 0 0 0 0 1.5h3.6v9.92a.73.73 0 0 0 .7.75H41a.73.73 0 0 0 .7-.75v-9.96h3.6a.75.75 0 0 0 .75-.75"/><path class="amcls-1" d="M7.21 1.15A6.37 6.37 0 0 0 1.07 7.7v26.11a6.37 6.37 0 0 0 6.14 6.56H53a6.36 6.36 0 0 0 6.13-6.56V7.7A6.36 6.36 0 0 0 53 1.15zM53 41.51H7.21A7.47 7.47 0 0 1 0 33.81V7.7A7.48 7.48 0 0 1 7.21 0H53a7.47 7.47 0 0 1 7.2 7.7v26.11a7.47 7.47 0 0 1-7.2 7.7"/></g></g></symbol><symbol viewBox="0 0 43.28 59.73" id="money" xmlns="http://www.w3.org/2000/svg"><defs><style>.ancls-1{fill:#007bbb}</style></defs><g id="anLayer_2" data-name="Layer 2"><g id="anLayer_1-2" data-name="Layer 1"><path class="ancls-1" d="M22.84 47.29v1.86a1.8 1.8 0 1 1-3.6 0v-1.86h-.61a1.87 1.87 0 0 1 0-3.74h3.55a1.87 1.87 0 1 0 0-3.73h-1.07a5.54 5.54 0 0 1-5.48-5.59A5.61 5.61 0 0 1 19.24 29v-2.25a1.8 1.8 0 1 1 3.6 0v1.87h1.81a1.87 1.87 0 0 1 0 3.73h-3.54a1.87 1.87 0 1 0 0 3.74h1.07a5.52 5.52 0 0 1 5.47 5.56 5.62 5.62 0 0 1-4.81 5.64M41.9 35.45l-9.44-19.27H10.82L1.38 35.45a17.83 17.83 0 0 0 3.4 19 16.35 16.35 0 0 0 12 5.26h9.62a16.35 16.35 0 0 0 12.1-5.24 17.83 17.83 0 0 0 3.4-19M10.81 13.69h9.62l-2-9.25a2.42 2.42 0 0 0-2.33-1.95H9.61A1.23 1.23 0 0 0 8.44 4zM27.65 13.69h4.81l2.38-12.22A1.24 1.24 0 0 0 33.65 0h-3.59a2.48 2.48 0 0 0-2.41 2.49A2.47 2.47 0 0 0 25.25 0h-3.6a1.23 1.23 0 0 0-1.19 1.47l2.38 12.22z"/></g></g></symbol><symbol viewBox="0 0 49.62 42.77" id="partners" xmlns="http://www.w3.org/2000/svg"><defs><style>.aocls-1{fill:#007bbb}</style></defs><g id="aoLayer_2" data-name="Layer 2"><g id="aoLayer_1-2" data-name="Layer 1"><path class="aocls-1" d="M10.39 28.46l1.95-1.89a2 2 0 0 0 .57-1.1 2.11 2.11 0 0 0-.63-1.87 2.34 2.34 0 0 0-1.08-.6 1.86 1.86 0 0 0-.52-.07 2.14 2.14 0 0 0-1.48.59l-3 2.88-2.39 2.3a2.06 2.06 0 0 0 .07 3 2.32 2.32 0 0 0 1.59.64A2.17 2.17 0 0 0 7 31.76z"/><path class="aocls-1" d="M25.43 11.61l-.3.3-4.13 4-.15.15-1.6 1.54a4.39 4.39 0 0 1-3.06 1.21h-.52a4.38 4.38 0 0 1-2.53-1.18 4.08 4.08 0 0 1 0-5.9l9.18-8.87c.23-.22.46-.44.7-.64a15.49 15.49 0 0 0-18.6 2.06 14.29 14.29 0 0 0 0 20.66l.13.12 3.12-3a4.27 4.27 0 0 1 3-1.19 4.52 4.52 0 0 1 3.14 1.25A4.24 4.24 0 0 1 15 24.06a4.74 4.74 0 0 1 .15 1 3.52 3.52 0 0 1-.15 1.16 3.81 3.81 0 0 1 1.11-.15 4.53 4.53 0 0 1 3.14 1.25 4.24 4.24 0 0 1 1.3 2.95 3.46 3.46 0 0 1-.15 1.16 4.07 4.07 0 0 1 1.11-.14 4.54 4.54 0 0 1 3.14 1.25 4.21 4.21 0 0 1 1.29 2.94 3.52 3.52 0 0 1-.15 1.17 4.13 4.13 0 0 1 1.11-.15 4.49 4.49 0 0 1 3.1 1.26 4.25 4.25 0 0 1 1.3 2.94 3.94 3.94 0 0 1-.39 1.83 3.34 3.34 0 0 0 1.24.24 3.28 3.28 0 0 0 2.28-.91 3.05 3.05 0 0 0 .57-3.74 3.35 3.35 0 0 0 1.71.48 3.25 3.25 0 0 0 2.29-.92 3.05 3.05 0 0 0 .46-3.87 3.23 3.23 0 0 0 1.57.41 3.29 3.29 0 0 0 2.29-.92 3.06 3.06 0 0 0 0-4.42z"/><path class="aocls-1" d="M18.31 30.68a2.11 2.11 0 0 0-.64-1.86 2.29 2.29 0 0 0-1.6-.65 1.93 1.93 0 0 0-.33 0 2.11 2.11 0 0 0-1.14.55l-5.36 5.22a2.06 2.06 0 0 0 .06 3 2.31 2.31 0 0 0 1.6.65 2.11 2.11 0 0 0 1.47-.59l5.37-5.18a2 2 0 0 0 .57-1.11M23.7 35.9a2.12 2.12 0 0 0-.64-1.9 2.27 2.27 0 0 0-1.59-.64 2 2 0 0 0-.34 0A2.11 2.11 0 0 0 20 34l-5.36 5.18a2.07 2.07 0 0 0 .06 3 2.31 2.31 0 0 0 1.6.64 2.13 2.13 0 0 0 1.48-.58L23.13 37a2 2 0 0 0 .57-1.11M45.2 4.28a15.47 15.47 0 0 0-16.36-3.2 15 15 0 0 0-4 2.34c-.33.28-.66.56-1 .86l-9.17 8.87a2 2 0 0 0 0 3 2.15 2.15 0 0 0 1.52.6 2.2 2.2 0 0 0 1.54-.6l8-7.69 2.74 2.65L43.9 26a12.49 12.49 0 0 0 1.3-1.11 14.26 14.26 0 0 0 0-20.65"/></g></g></symbol><symbol viewBox="0 0 42.53 48.87" id="personnel" xmlns="http://www.w3.org/2000/svg"><defs><style>.apcls-1{fill:none}.apcls-2{clip-path:url(#apclip-path)}.apcls-3{fill:#28a5de}</style><clipPath id="apclip-path"><path class="apcls-1" d="M0 0h42.53v48.87H0z"/></clipPath></defs><g id="apLayer_2" data-name="Layer 2"><g id="apLayer_1-2" data-name="Layer 1"><g class="apcls-2"><path class="apcls-3" d="M3 6.73h-.39A2.46 2.46 0 0 0 0 8.83v8.82a1.05 1.05 0 0 0 1.07 1 1.05 1.05 0 0 0 1.08-1V10.3a.23.23 0 0 1 .23-.22.22.22 0 0 1 .23.22v5.21h1.63z"/></g><path class="apcls-3" d="M6.94 15.52L8.2 6.73H3.67l1.25 8.79h2.02z"/><g class="apcls-2"><path class="apcls-3" d="M2.61 30.49A1.51 1.51 0 0 0 4.16 32a1.51 1.51 0 0 0 1.54-1.51V18.85a.23.23 0 0 1 .46 0v11.63a1.55 1.55 0 0 0 3.09 0V16.43H2.61z"/><path class="apcls-3" d="M9.23 6.73h-.36l-1.25 8.79h1.63V10.3a.23.23 0 0 1 .23-.22.23.23 0 0 1 .24.23v7.33a1.08 1.08 0 0 0 2.15 0V9a2.51 2.51 0 0 0-2.64-2.27M3 3.52h.45a2.42 2.42 0 0 0 2.46 2.24 2.42 2.42 0 0 0 2.45-2.24h.46a.35.35 0 0 0 .33-.36.35.35 0 0 0-.33-.37h-.17A2.81 2.81 0 0 0 7.31.39l-.18 1v.14a.26.26 0 0 1-.3.2.23.23 0 0 1-.2-.28v-.27l.18-1A2.59 2.59 0 0 0 5.92 0 2.91 2.91 0 0 0 5 .15l.18 1v.28a.24.24 0 0 1-.2.28.26.26 0 0 1-.3-.2v-.17l-.17-1a2.8 2.8 0 0 0-1.33 2.45H3a.35.35 0 0 0-.33.37.35.35 0 0 0 .33.36M17 13.64h-.52c-1.83 0-3.65 1.26-3.65 2.92v12.32a1.5 1.5 0 0 0 3 0V18.62a.32.32 0 0 1 .33-.3.31.31 0 0 1 .32.3v7.29h2.28z"/></g><path class="apcls-3" d="M22.52 25.91l1.75-12.27h-6.32l1.75 12.27h2.82z"/><g class="apcls-2"><path class="apcls-3" d="M16.48 46.8a2.16 2.16 0 0 0 4.31 0V30.55a.32.32 0 0 1 .32-.32.32.32 0 0 1 .33.32V46.8a2.15 2.15 0 0 0 4.3 0V27.18h-9.26z"/><path class="apcls-3" d="M25.72 13.64h-.5l-1.75 12.27h2.27v-7.29a.31.31 0 0 1 .32-.3.32.32 0 0 1 .33.31v10.25a1.5 1.5 0 0 0 3 0V16.77c0-1.76-1.78-3.13-3.67-3.13M17 9.16h.63a3.44 3.44 0 0 0 6.84 0h.65a.52.52 0 0 0 0-1h-.23A3.93 3.93 0 0 0 23 4.79l-.25 1.34v.21a.36.36 0 0 1-.41.27.33.33 0 0 1-.29-.39l.06-.37.26-1.38a3.65 3.65 0 0 0-1.29-.23 3.83 3.83 0 0 0-1.23.21l.25 1.38.07.39a.33.33 0 0 1-.29.39.36.36 0 0 1-.41-.27V6.1l-.25-1.34a3.93 3.93 0 0 0-1.92 3.37H17a.52.52 0 0 0 0 1M33.66 6.73h-.38a2.46 2.46 0 0 0-2.61 2.1v8.82a1.08 1.08 0 0 0 2.15 0V10.3a.23.23 0 0 1 .23-.22.22.22 0 0 1 .23.22v5.21h1.63z"/></g><path class="apcls-3" d="M37.61 15.52l1.26-8.79h-4.53l1.25 8.79h2.02zM33.28 30.49a1.55 1.55 0 0 0 3.09 0V18.85a.23.23 0 1 1 .46 0v11.63a1.55 1.55 0 0 0 3.09 0V16.43h-6.64z"/><path class="apcls-3" d="M39.9 6.73h-.36l-1.25 8.79h1.63V10.3a.23.23 0 0 1 .23-.22.23.23 0 0 1 .24.23v7.33a1.08 1.08 0 0 0 2.15 0V9a2.51 2.51 0 0 0-2.64-2.27M33.68 3.52h.45a2.46 2.46 0 0 0 4.9 0h.46a.35.35 0 0 0 .33-.36.35.35 0 0 0-.33-.37h-.17A2.81 2.81 0 0 0 38 .39l-.18 1v.14a.26.26 0 0 1-.3.2.23.23 0 0 1-.2-.28v-.27l.19-1a2.59 2.59 0 0 0-.92-.18 2.91 2.91 0 0 0-.89.15l.18 1v.28a.24.24 0 0 1-.2.28.26.26 0 0 1-.3-.2v-.17l-.17-1a2.8 2.8 0 0 0-1.38 2.42h-.17a.35.35 0 0 0-.33.37.35.35 0 0 0 .33.36"/></g></g></symbol><symbol viewBox="0 0 38.25 42.96" id="prefab" xmlns="http://www.w3.org/2000/svg"><defs><style>.aqcls-1{fill:none}.aqcls-2{clip-path:url(#aqclip-path)}.aqcls-3{fill:#28a5de}</style><clipPath id="aqclip-path"><path class="aqcls-1" d="M0 0h38.24v42.96H0z"/></clipPath></defs><g id="aqLayer_2" data-name="Layer 2"><g id="aqLayer_1-2" data-name="Layer 1"><g class="aqcls-2"><path class="aqcls-3" d="M15.29 26.64h-3.17a.58.58 0 0 0-.39.17.51.51 0 0 0-.15.37v3.16a.54.54 0 0 0 .15.38.56.56 0 0 0 .39.15h3.17a.56.56 0 0 0 .39-.15.58.58 0 0 0 .15-.38v-3.16a.56.56 0 0 0-.15-.37.58.58 0 0 0-.39-.17m18.73 0h-3.17a.56.56 0 0 0-.39.17.51.51 0 0 0-.15.37v3.16a.54.54 0 0 0 .15.38.54.54 0 0 0 .39.15H34a.51.51 0 0 0 .53-.53v-3.16a.51.51 0 0 0-.15-.37.56.56 0 0 0-.38-.17m-9.37-.15h-2.9a.54.54 0 0 0-.38.15.56.56 0 0 0-.15.39v2.89a.51.51 0 0 0 .53.53h2.92a.56.56 0 0 0 .35-.15.54.54 0 0 0 .15-.38V27a.51.51 0 0 0-.54-.54m-9.36-9.13h-3.13a.61.61 0 0 0-.39.15.56.56 0 0 0-.15.39v3.16a.48.48 0 0 0 .15.36.58.58 0 0 0 .39.17h3.17a.58.58 0 0 0 .39-.17.51.51 0 0 0 .15-.36V17.9a.51.51 0 0 0-.54-.54m18.73 0h-3.17a.59.59 0 0 0-.39.15.56.56 0 0 0-.15.39v3.16a.48.48 0 0 0 .15.36.56.56 0 0 0 .39.17H34a.56.56 0 0 0 .38-.17.48.48 0 0 0 .15-.36V17.9a.56.56 0 0 0-.15-.39.58.58 0 0 0-.38-.15m-9.37-.16h-2.81a.57.57 0 0 0-.39.16.51.51 0 0 0-.15.37v2.82a.51.51 0 0 0 .54.54h2.83a.51.51 0 0 0 .54-.54v-2.82a.51.51 0 0 0-.15-.37.57.57 0 0 0-.39-.16m13.6-8.95V43h-8.31v-2.8a3.72 3.72 0 0 0-3.71-3.69H19.9a3.73 3.73 0 0 0-3.72 3.69V43H7.89V8.4A.43.43 0 0 0 8 8.25z"/></g><path class="aqcls-3" d="M.74 0l6.89 7.19h29.89L30.66 0H.74zM0 35.02l6.82 7.14V7.89L0 .78v34.24zM26.23 37.59H19.9a2.62 2.62 0 0 0-2.64 2.61V43h11.61v-2.8a2.62 2.62 0 0 0-2.64-2.61"/></g></g></symbol><symbol id="procured" viewBox="0 0 80 80" xml:space="preserve" xmlns="http://www.w3.org/2000/svg"><style>.arst0{clip-path:url(#arSVGID_2_)}.arst1{fill:#007bbb}</style><defs><path id="arSVGID_1_" d="M0 13.7h80v52.6H0z"/></defs><clipPath id="arSVGID_2_"><use xlink:href="#arSVGID_1_" overflow="visible"/></clipPath><g id="arLayer_1-2" class="arst0"><path class="arst1" d="M19.8 56v1.5c-.1.9-.8 1.5-1.7 1.5-.8-.1-1.4-.7-1.4-1.4V56h-.5c-.9 0-1.5-.7-1.5-1.5 0-.9.7-1.5 1.5-1.5h3.1c.9 0 1.5-.7 1.5-1.5 0-.9-.7-1.5-1.5-1.5h-.9c-2.6.1-4.7-1.9-4.8-4.5-.1-2 1.2-3.9 3.1-4.5v-2c.1-.9.8-1.5 1.7-1.4.8.1 1.4.7 1.4 1.4v1.5h1.6c.9 0 1.5.7 1.5 1.5 0 .9-.7 1.5-1.5 1.5h-3.1c-.9 0-1.5.7-1.5 1.5 0 .9.7 1.5 1.5 1.5h.9c2.6 0 4.7 2 4.7 4.6.1 2.6-1.8 4.6-4.1 4.9m16.4-9.8l-8.1-16H9.4l-8.2 16C-1.1 51.6 0 57.8 4.2 62c2.7 2.8 6.5 4.4 10.4 4.4h8.3c8 0 14.5-6.4 14.5-14.4 0-2.1-.3-4-1.2-5.8M9.4 28.1h8.3L16 20.5c-.2-.9-1.1-1.6-2-1.6H8.3c-.6 0-1 .4-1 1v.2l2.1 8zm14.5 0h4.2L30.2 18c.1-.6-.3-1.1-.9-1.2H26c-1.1 0-2.1.9-2.1 2.1 0-1.1-.9-2.1-2.1-2.1h-3.1c-.6 0-1 .5-1 1v.2l2.1 10.1h4.1z"/><path class="arst1" d="M57.7 55.6H28.2c-.4 0-.6.3-.6.6 0 4.6 3.7 8.3 8.3 8.3H50c4.6 0 8.3-3.7 8.3-8.3 0-.3-.3-.6-.6-.6m-16.8-6.8l-1.6-.4c-1.7-.5-3.5.6-3.9 2.3l-.1.3 1.6.4c1.7.5 3.5-.5 3.9-2.2l.1-.4zm-.3 3.6l1.6.4c1.7.5 3.5-.5 3.9-2.3l.1-.4-1.6-.4c-1.7-.5-3.5.5-4 2.2v.5zm5.2 1.4l1.6.4c1.7.5 3.5-.5 3.9-2.3l.1-.4-1.6-.4c-1.7-.5-3.5.5-3.9 2.2l-.1.5zm-6-7.2l1.6.4.1-.4c.5-1.7-.6-3.4-2.3-3.9l-1.6-.4-.1.4c-.5 1.7.5 3.4 2.3 3.9m5.3 1.4l1.6.4.1-.4c.5-1.7-.6-3.4-2.3-3.9l-1.6-.4-.1.4c-.5 1.7.5 3.4 2.3 3.9-.1 0-.1 0 0 0m5.3 1.4l1.6.4.1-.4c.5-1.7-.5-3.4-2.2-3.9l-1.6-.4-.1.4c-.6 1.7.4 3.4 2.2 3.9-.1 0-.1 0 0 0m6.6 2.7c.1-.5-.1-1-.6-1.1l-3.2-.9-.5 1.8 3.2.9c.5.1.9-.2 1.1-.7 0 .1 0 0 0 0m-25.7-4c-.5-.1-1 .1-1.1.6v.1c-.1.5.1 1 .6 1.1h.1l2.4.6c.5.1 1-.1 1.1-.6.1-.5-.1-1-.6-1.1l-2.5-.7zm1.5-5.2l2.4.6c.5.1 1-.1 1.1-.6.1-.5-.1-1-.6-1.1l-2.4-.7c-.5-.1-1 .2-1.1.6-.2.5.1 1 .6 1.2m-3.3 2.8l6.5 1.7c.5.1 1-.1 1.1-.6v-.1c.1-.5-.1-1-.6-1.1L29.9 44c-.5-.1-1 .2-1.1.6s.2 1 .7 1.1m11.7-11.9c-2.8 0-5-2.3-5-5.1s2.3-5 5.1-5 5 2.3 5 5c0 2.9-2.3 5.1-5.1 5.1m7.7-6.1h-.5c-.2-1.2-.6-2.3-1.3-3.2l.3-.3c.4-.4.4-1.1 0-1.5-.4-.4-1.1-.4-1.5 0l-.3.3c-.9-.7-2.1-1.2-3.2-1.3v-.4c-.1-.6-.6-1-1.2-1-.5 0-.9.5-1 1v.4c-1.2.2-2.3.6-3.2 1.3l-.3-.3c-.4-.4-1.1-.4-1.5 0-.4.4-.4 1.1 0 1.5l.3.3c-.7.9-1.2 2-1.3 3.2h-.5c-.6 0-1.1.5-1.1 1.1 0 .6.5 1.1 1.1 1.1h.3c.2 1.2.6 2.3 1.3 3.2l-.3.3c-.4.4-.4 1.1 0 1.5.2.2.5.3.8.3.3 0 .6-.1.8-.3l.3-.3c.9.7 2.1 1.2 3.2 1.3v.5c.1.6.6 1 1.2 1 .5 0 .9-.5 1-1v-.5c1.2-.2 2.3-.6 3.2-1.3l.3.3c.2.2.5.3.8.3.3 0 .6-.1.8-.3.4-.4.4-1.1 0-1.5l-.3-.4c.7-.9 1.2-2 1.3-3.2h.5c.6 0 1.1-.5 1.1-1.1-.1-.5-.5-1-1.1-1m22.4 2c-2.8 0-5-2.3-5-5.1s2.3-5 5.1-5 5 2.3 5 5.1c-.1 2.7-2.3 5-5.1 5m7.6-6.1h-.5c-.2-1.2-.6-2.3-1.3-3.2l.3-.3c.4-.4.4-1.1 0-1.5-.4-.4-1.1-.4-1.5 0l-.3.3c-1-.7-2.1-1.1-3.2-1.3v-.5c-.1-.6-.6-1-1.2-1-.5 0-.9.5-1 1v.5c-1.2.2-2.3.6-3.2 1.3l-.3-.3c-.4-.5-1.1-.5-1.5-.1-.5.4-.5 1.1-.1 1.5l.1.1.3.3c-.7.9-1.2 2-1.3 3.2h-.5c-.6-.1-1.1.4-1.2 1-.1.6.4 1.1 1 1.2h.7c.2 1.2.6 2.2 1.3 3.2l-.3.3c-.4.4-.4 1.1 0 1.5.2.2.5.3.8.3.3 0 .6-.1.8-.3l.3-.3c.9.7 2.1 1.1 3.2 1.3v.5c.1.6.6 1 1.2 1 .5 0 .9-.5 1-1v-.5c1.2-.2 2.3-.6 3.2-1.3l.3.3c.2.2.5.3.8.3.3 0 .6-.1.8-.3.4-.4.4-1.1 0-1.5l-.5-.3c.7-.9 1.2-2 1.3-3.2h.5c.6.1 1.1-.4 1.2-1 .1-.6-.4-1.1-1-1.2h-.2M57.4 37.2c-2.1 0-3.8-1.7-3.8-3.8 0-2.1 1.7-3.8 3.8-3.8 2.1 0 3.8 1.7 3.8 3.8 0 2.1-1.7 3.8-3.8 3.8m5.8-4.6h-.3c-.1-.9-.5-1.7-1-2.4l.2-.2c.3-.3.3-.8 0-1.1-.3-.3-.8-.3-1.2 0l-.2.2c-.7-.5-1.5-.9-2.4-1v-.3c0-.5-.4-.8-.8-.8-.5 0-.8.4-.8.8v.3c-.9.1-1.7.5-2.4 1l-.3-.3c-.3-.3-.8-.3-1.2 0-.3.3-.3.8 0 1.1l.2.2c-.5.7-.9 1.5-1 2.4h-.3c-.4 0-.8.4-.8.8s.4.8.8.8h.3c.1.9.4 1.7.9 2.4l-.2.2c-.3.3-.3.8 0 1.1.3.3.8.3 1.2 0l.2-.2c.7.5 1.5.9 2.4 1v.3c0 .5.4.8.8.8.5 0 .8-.4.8-.8v-.3c.9-.1 1.7-.5 2.4-1l.2.2c.2.2.4.2.6.2.2 0 .4-.1.6-.2.3-.3.3-.8 0-1.1l-.2-.2c.5-.7.9-1.5 1-2.4h.3c.4 0 .8-.4.8-.8s-.2-.7-.6-.7M54.9 24c-2.1 0-3.8-1.7-3.8-3.8 0-2.1 1.7-3.8 3.8-3.8 2.1 0 3.8 1.7 3.8 3.8 0 2.1-1.7 3.8-3.8 3.8m5.7-4.6h-.3c-.1-.9-.5-1.7-1-2.4l.2-.2c.3-.3.3-.8 0-1.1-.3-.3-.8-.3-1.2 0l-.2.2c-.7-.5-1.5-.9-2.4-1v-.3c0-.5-.4-.8-.8-.8s-.8.4-.8.8v.3c-.9.1-1.7.5-2.4 1l-.2-.2c-.3-.3-.8-.3-1.2 0-.3.3-.3.8 0 1.1l.2.2c-.5.7-.9 1.5-1 2.4h-.3c-.4 0-.8.4-.8.8s.4.8.8.8h.3c.1.9.5 1.7 1 2.4l-.2.2c-.3.3-.3.8 0 1.1.2.2.4.2.6.2.2 0 .4-.1.6-.2l.2-.2c.7.5 1.5.9 2.4 1v.3c0 .5.4.8.8.8s.8-.4.8-.8v-.4c.9-.1 1.7-.5 2.4-1l.2.2c.2.2.4.2.6.2.2 0 .4-.1.6-.2.3-.3.3-.8 0-1.1l-.2-.2c.5-.7.9-1.5 1-2.4h.3c.4 0 .8-.4.8-.8.1-.3-.3-.7-.8-.7"/></g></symbol><symbol viewBox="0 0 101.21 90.72" id="quote" xmlns="http://www.w3.org/2000/svg"><defs><style>.ascls-1{fill:#96ca4f}</style></defs><g id="asLayer_2" data-name="Layer 2"><g id="asLayer_1-2" data-name="Layer 1"><path class="ascls-1" d="M12.37 0L0 43.86v46.86h40.48V44.23H27.36L35.24 0H12.37zM73.1 0L60.73 43.86v46.86h40.48V44.23H88.09L95.96 0H73.1z"/></g></g></symbol><symbol viewBox="0 0 38.61 39.98" id="renTruck" xmlns="http://www.w3.org/2000/svg"><defs><style>.atcls-1{fill:none}.atcls-2{clip-path:url(#atclip-path)}.atcls-3{fill:#0f6386}</style><clipPath id="atclip-path"><path class="atcls-1" d="M0 0h38.61v39.98H0z"/></clipPath></defs><g id="atLayer_2" data-name="Layer 2"><g id="atLayer_1-2" data-name="Layer 1"><g class="atcls-2"><path class="atcls-3" d="M32.07 0H6.86a22.56 22.56 0 0 1-2.13 4.36H34A41.13 41.13 0 0 1 32.07 0M4.2 26.83A124.73 124.73 0 0 0 19.77 28c5.08 0 11-.51 14.56-.87v-6.36H4.13zM32.27 33.53h-4.6l1.79-3.42h2.81zM6.34 30.11h2.81l1.79 3.42h-4.6zm6 2.76h14.2l-.27.66H12.63zM26.89 32l-.21.51H12.19L12 32zm-15.09-.36l-.22-.52h15.67l-.19.52zm15.87-1.53l-.27.65h-16l-.28-.65zm-7.9-1.05a128.35 128.35 0 0 1-15.56-1.13l.07 6.42a2.2 2.2 0 0 0 2.22 2.16 1.65 1.65 0 0 0-.16.68v1.22A1.61 1.61 0 0 0 8 40h3.76a1.6 1.6 0 0 0 1.64-1.57v-1.24a1.51 1.51 0 0 0-.16-.68h12.15a1.65 1.65 0 0 0-.16.68v1.22A1.6 1.6 0 0 0 26.87 40h3.76a1.6 1.6 0 0 0 1.64-1.57v-1.24a1.45 1.45 0 0 0-.16-.68 2.21 2.21 0 0 0 2.22-2.16v-6.16c-3.58.36-9.49.87-14.56.87"/></g><path class="atcls-3" d="M11.43 30.76l.15.36h15.67l.15-.36H11.43zM11.8 31.64l.15.36h14.94l.15-.36H11.8zM12.17 32.51l.15.36h14.22l.14-.36H12.17zM34.32 16.76V7.25l1 1.68a1.39 1.39 0 0 0-.28 1l.43 4.39a1.47 1.47 0 0 0 .32.77zM21.5 18.13H6.72l1.93-9.19H30l1.92 9.19zM4.06 15.77v.77l-1.31-1.46a1.47 1.47 0 0 0 .32-.77l.44-4.39a1.44 1.44 0 0 0-.29-1l1-1.61zm34.11-6.13a1.52 1.52 0 0 0-1.68-1.34.45.45 0 0 0-.16 0l-2-3.16H4.27l-2 3.16h-.16A1.53 1.53 0 0 0 .45 9.63L0 14a1.47 1.47 0 0 0 1.36 1.61 1.48 1.48 0 0 0 .42 0l2.3 2.59V20h30.25v-1.58l2.49-2.79a1.52 1.52 0 0 0 1.76-1.2 1.35 1.35 0 0 0 0-.4zM19.32 22.15a1.74 1.74 0 0 0-.11.18l-.82 1.46c-.12.22-.23.45-.34.67a.17.17 0 0 0 0 .17l.06.12.56 1.25a.12.12 0 0 1 0 .1c-.14.32-.3.63-.46.94v-.06l.31-.53.63-1.14c.11-.2.21-.42.32-.62a.17.17 0 0 0 0-.17l-.06-.11c-.2-.4-.41-.79-.62-1.18v-.08c.14-.32.29-.63.46-.94m-.56 5h-.55A.22.22 0 0 1 18 27c-.25-.41-.5-.8-.74-1.21s-.38-.7-.58-1a.34.34 0 0 1 0-.35c.23-.41.44-.81.68-1.21s.43-.71.65-1.06a.21.21 0 0 1 .18-.1h1.15a.19.19 0 0 1 .17.1l.4.63c.32.51.61 1 .89 1.57l.06.12a.3.3 0 0 1 0 .26c-.12.21-.22.43-.34.64-.26.45-.53.89-.8 1.34l-.21.33a.19.19 0 0 1-.18.1z"/></g></g></symbol><symbol viewBox="0 0 36.57 45.68" id="renault" xmlns="http://www.w3.org/2000/svg"><defs><style>.aucls-1{fill:#0f6386}</style></defs><g id="auLayer_2" data-name="Layer 2"><path class="aucls-1" d="M23 1.1l-.09-.05c-.09.12-.2.22-.28.35-.34.55-.7 1.08-1 1.64-2.34 4.36-4.69 8.72-7 13.1-1 1.95-1.94 4-2.91 5.94a1.59 1.59 0 0 0 0 1.54c.18.35.32.71.49 1.06L17.5 35.1a.94.94 0 0 1 .05.86q-1.8 4.31-4 8.43a1.57 1.57 0 0 0-.09.23l.09.06a5.34 5.34 0 0 0 .41-.56c.88-1.57 1.78-3.14 2.63-4.73q2.73-5.1 5.41-10.21c1-1.85 1.84-3.74 2.76-5.6a1.55 1.55 0 0 0 0-1.45c-.18-.35-.32-.71-.5-1.05Q21.64 15.82 19 10.56a.79.79 0 0 1 0-.76q1.78-4.28 3.95-8.38c.05-.1.09-.21.14-.32m-4.81 44.58h-4.74a1.87 1.87 0 0 1-1.78-1C9.63 41 7.43 37.45 5.37 33.8c-1.73-3.08-3.29-6.26-4.95-9.37a3.11 3.11 0 0 1 0-3.16c1.96-3.61 3.8-7.27 5.8-10.83C8 7.23 10 4.12 11.83 1a1.67 1.67 0 0 1 1.51-.9c2.39-.05 4.78-.1 7.17-.1.91 0 1.81.07 2.71.07a1.63 1.63 0 0 1 1.47.9c1.14 1.89 2.3 3.77 3.43 5.67q4.1 6.87 7.66 14c.18.36.35.72.52 1.08a2.54 2.54 0 0 1 0 2.35c-1 1.89-1.88 3.82-2.91 5.68-2.24 4-4.55 8-6.84 12-.57 1-1.21 2-1.8 2.95a1.71 1.71 0 0 1-1.56.94h-4.87z" id="auLayer_1-2" data-name="Layer 1"/></g></symbol><symbol viewBox="0 0 32.41 42.52" id="safety" xmlns="http://www.w3.org/2000/svg"><defs><style>.avcls-1{fill:#96ca4f}</style></defs><g id="avLayer_2" data-name="Layer 2"><path class="avcls-1" d="M23 21.54l-.71.7-5.69 6a.52.52 0 0 1-.73 0l-5.69-6-.71-.7a4.38 4.38 0 0 1-.06-6.24 4.3 4.3 0 0 1 5.95.09l.87.8.88-.8a4.3 4.3 0 0 1 6-.09 4.38 4.38 0 0 1-.11 6.24M31.59 3L16.4 0a.86.86 0 0 0-.4 0L.82 3A1 1 0 0 0 0 4v20.44c0 10 7.39 18.08 16.2 18.08s16.21-8.09 16.21-18.08V4a1 1 0 0 0-.82-1" id="avLayer_1-2" data-name="Layer 1"/></g></symbol><symbol viewBox="0 0 44.61 43.74" id="sea" xmlns="http://www.w3.org/2000/svg"><defs><style>.awcls-1{fill:#007bbb}</style></defs><g id="awLayer_2" data-name="Layer 2"><g id="awLayer_1-2" data-name="Layer 1"><path class="awcls-1" d="M13.94 7.29h5.58a.92.92 0 0 0 .92-.91V.91a.92.92 0 0 0-.92-.91h-5.58a.92.92 0 0 0-.94.91v5.47a.92.92 0 0 0 .93.91M23.23 7.29h5.58a.92.92 0 0 0 .93-.91V.91a.92.92 0 0 0-.93-.91h-5.58a.92.92 0 0 0-.93.91v5.47a.92.92 0 0 0 .93.91M8.67 29.16a4.41 4.41 0 0 0 2.52-.69 8.13 8.13 0 0 1 4.29-1.13 8.21 8.21 0 0 1 4.31 1.13 4.35 4.35 0 0 0 2.51.69 4.35 4.35 0 0 0 2.51-.69 8.18 8.18 0 0 1 4.31-1.13 8.13 8.13 0 0 1 4.29 1.13 4.31 4.31 0 0 0 2.26.68A18.17 18.17 0 0 0 40 19.29a1.83 1.83 0 0 0-1.86-2H4.66a1.83 1.83 0 0 0-1.86 2 18.19 18.19 0 0 0 4 9.5 4.19 4.19 0 0 0 1.89.37M42.75 38.27a8 8 0 0 0-4.3 1.14 4.95 4.95 0 0 1-5 0 8 8 0 0 0-4.3-1.14 8 8 0 0 0-4.29 1.14 4.48 4.48 0 0 1-2.52.69 4.48 4.48 0 0 1-2.52-.69 8 8 0 0 0-4.3-1.14 8 8 0 0 0-4.29 1.14 4.48 4.48 0 0 1-2.52.69 4.48 4.48 0 0 1-2.52-.69 8 8 0 0 0-4.29-1.14 1.83 1.83 0 1 0 0 3.65 4.35 4.35 0 0 1 2.51.69 8.17 8.17 0 0 0 4.3 1.13A8.17 8.17 0 0 0 13 42.61a4.35 4.35 0 0 1 2.51-.69 4.38 4.38 0 0 1 2.52.69 8.17 8.17 0 0 0 4.3 1.13 8.17 8.17 0 0 0 4.3-1.13 4.35 4.35 0 0 1 2.51-.69 4.38 4.38 0 0 1 2.52.69 8.75 8.75 0 0 0 8.6 0 4.38 4.38 0 0 1 2.52-.69 1.83 1.83 0 1 0 0-3.65M1.86 34.63a4.35 4.35 0 0 1 2.51.69 8.17 8.17 0 0 0 4.3 1.13A8.17 8.17 0 0 0 13 35.32a4.35 4.35 0 0 1 2.51-.69 4.38 4.38 0 0 1 2.52.69 8.14 8.14 0 0 0 4.3 1.13 8.1 8.1 0 0 0 4.29-1.13 4.41 4.41 0 0 1 2.52-.69 4.38 4.38 0 0 1 2.52.69 8.75 8.75 0 0 0 8.6 0 4.38 4.38 0 0 1 2.52-.69 1.83 1.83 0 1 0 0-3.65 8 8 0 0 0-4.3 1.14 5 5 0 0 1-5 0A8 8 0 0 0 29.11 31a8.06 8.06 0 0 0-4.3 1.14 4.43 4.43 0 0 1-2.51.68 4.48 4.48 0 0 1-2.52-.68 8 8 0 0 0-4.3-1.14 8 8 0 0 0-4.29 1.14 4.48 4.48 0 0 1-2.52.68 4.48 4.48 0 0 1-2.52-.68A8 8 0 0 0 1.86 31a1.83 1.83 0 1 0 0 3.65M8.36 14.58h26a.92.92 0 0 0 .93-.91v-2.73a.92.92 0 0 0-.93-.92h-26a.93.93 0 0 0-.93.92v2.73a.92.92 0 0 0 .93.91"/></g></g></symbol><symbol viewBox="0 0 33.06 34.51" id="solutions" xmlns="http://www.w3.org/2000/svg"><defs><style>.axcls-1{fill:#fff}</style></defs><g id="axLayer_2" data-name="Layer 2"><g id="axLayer_1-2" data-name="Layer 1"><path class="axcls-1" d="M5.77 24.3L.83 29.46a3.05 3.05 0 0 0 0 4.19 2.75 2.75 0 0 0 4 0l4.95-5.16a17 17 0 0 1-4-4.19M15.15 14.38H12.4a.7.7 0 0 0-.69.72v3.55a8.87 8.87 0 0 0 4.13 4V15.1a.7.7 0 0 0-.69-.72M26.17 10.07h-2.75a.7.7 0 0 0-.69.71v11.84a8.87 8.87 0 0 0 4.13-4v-7.84a.7.7 0 0 0-.69-.71M20.66 12.22h-2.75a.71.71 0 0 0-.69.72v10.17a8.33 8.33 0 0 0 4.13 0V12.94a.71.71 0 0 0-.69-.72"/><path class="axcls-1" d="M26.86 21.7a10.24 10.24 0 0 1-4.13 2.85 10.44 10.44 0 0 1-1.38.4 9.8 9.8 0 0 1-4.13 0 10.44 10.44 0 0 1-1.38-.4 10.24 10.24 0 0 1-4.13-2.85A10.92 10.92 0 0 1 9 14.38 10.57 10.57 0 0 1 19.28 3.6a10.57 10.57 0 0 1 10.34 10.78 10.92 10.92 0 0 1-2.76 7.32M19.28 0C11.67 0 5.51 6.44 5.51 14.38s6.16 14.38 13.77 14.38 13.78-6.43 13.78-14.38S26.9 0 19.28 0"/></g></g></symbol><symbol viewBox="0 0 82.14 36.15" id="staff" xmlns="http://www.w3.org/2000/svg"><defs><style>.aycls-1{fill:#0f6386}</style></defs><g id="ayLayer_2" data-name="Layer 2"><path class="aycls-1" d="M15.94 19.16C7.14 19.16 0 26 0 34.34a9.33 9.33 0 0 0 .11 1.4c0 .38.4.36.76.36H31c.36 0 .71 0 .76-.36a11.07 11.07 0 0 0 .11-1.63c0-8.32-7.11-15-16-15zM9.64 8a7.84 7.84 0 0 1 7.69-8A7.84 7.84 0 0 1 25 8a7.84 7.84 0 0 1-7.69 8 7.84 7.84 0 0 1-7.62-8zm32.11 8a7.83 7.83 0 0 0 7.68-8 7.69 7.69 0 1 0-15.37 0 7.83 7.83 0 0 0 7.68 8zm-6.31 20.09a10.74 10.74 0 0 0 0-1.39A17.42 17.42 0 0 0 31 23.15a16.33 16.33 0 0 1 10.79-4 16.54 16.54 0 0 1 9.85 3.27 16.82 16.82 0 0 0-5 11.9v1.83H35.33zm30.77-16.93c-8.81 0-15.94 6.79-15.94 15.18a8.18 8.18 0 0 0 .11 1.4c0 .38.39.36.75.36h30.14c.36 0 .71 0 .76-.36a12.63 12.63 0 0 0 .11-1.63c0-8.32-7.11-15-15.85-15zM57.09 8a7.69 7.69 0 1 1 15.37 0 7.69 7.69 0 1 1-15.37 0" id="ayLayer_1-2" data-name="Layer 1"/></g></symbol><symbol viewBox="0 0 32.79 43.37" id="toilet" xmlns="http://www.w3.org/2000/svg"><defs><style>.azcls-1{fill:#28a5de}</style></defs><g id="azLayer_2" data-name="Layer 2"><path class="azcls-1" d="M32.75 25.67c-.41 5.28-4.43 9.85-10.21 11.62v6.08H2.05v-17.7h30.7zm-2-5.31a1.92 1.92 0 0 1 2.05 1.77 1.92 1.92 0 0 1-2.05 1.77H4.1a1.92 1.92 0 0 1-2-1.77 1.92 1.92 0 0 1 2-1.77zM2.05 0A1.93 1.93 0 0 1 4.1 1.77V17.7a1.93 1.93 0 0 1-2 1.77A1.92 1.92 0 0 1 0 17.7V1.77A1.92 1.92 0 0 1 2.05 0" id="azLayer_1-2" data-name="Layer 1"/></g></symbol><symbol viewBox="0 0 32.19 33.93" id="tools" xmlns="http://www.w3.org/2000/svg"><defs><style>.bacls-1{fill:#fff}</style></defs><g id="baLayer_2" data-name="Layer 2"><g id="baLayer_1-2" data-name="Layer 1"><path class="bacls-1" d="M10.64 18a1 1 0 0 0-1.42 0l-8 8.48a4.43 4.43 0 0 0 0 6l.25.26a3.89 3.89 0 0 0 5.69 0l8.05-8.48a1.11 1.11 0 0 0 0-1.5zM20.43 14.89l5.32-5.61 3.66-.53a1.23 1.23 0 0 0 .91-.69L32 4.51A1.32 1.32 0 0 0 31.82 3L29.32.39a1.17 1.17 0 0 0-1.41-.23L24.54 2a1.27 1.27 0 0 0-.65 1l-.51 3.85-5.32 5.61z"/><path class="bacls-1" d="M24.08 21.59L11.7 8.54a6.59 6.59 0 0 0-1.41-6.68A5.85 5.85 0 0 0 5.18.06a.73.73 0 0 0-.38 1.21L7.39 4a2.66 2.66 0 0 1 0 3.64l-.15.16a2.34 2.34 0 0 1-3.45 0L1.2 5.08a.66.66 0 0 0-1.14.39 6.61 6.61 0 0 0 1.7 5.38 5.82 5.82 0 0 0 6.33 1.48l12.39 13.06a6.58 6.58 0 0 0 1.41 6.67 5.81 5.81 0 0 0 5.11 1.8.72.72 0 0 0 .37-1.2l-2.29-2.41a2.6 2.6 0 0 1 0-3.53l.25-.27a2.29 2.29 0 0 1 3.35 0L31 28.87a.67.67 0 0 0 1.15-.4 6.56 6.56 0 0 0-1.71-5.4 5.81 5.81 0 0 0-6.34-1.48"/></g></g></symbol><symbol viewBox="0 0 42.44 42.39" id="training" xmlns="http://www.w3.org/2000/svg"><defs><style>.bbcls-1{fill:#0f6386}</style></defs><g id="bbLayer_2" data-name="Layer 2"><g id="bbLayer_1-2" data-name="Layer 1"><path class="bbcls-1" d="M7.68.05a3.24 3.24 0 1 1-3.23 3.24A3.23 3.23 0 0 1 7.68.05M40.53.9h-9.32a.93.93 0 0 0-.9-.9h-4.24a.89.89 0 0 0-.9.9h-9.43a1.9 1.9 0 0 0-1.91 1.91v3.34l1.85.31V2.81c0-.06.06-.06.11-.06h24.8V20.35H15.74c-.06 0-.11 0-.11-.06V12.4l-1.8-.32v8.21a1.9 1.9 0 0 0 1.91 1.91h24.79a1.9 1.9 0 0 0 1.91-1.91V2.81A1.9 1.9 0 0 0 40.53.9"/><path class="bbcls-1" d="M24.32 16a1 1 0 0 0-.37.1l-1.8-1.21v-.38a1.2 1.2 0 0 0-1.17-1h-.21a1.2 1.2 0 0 0 .23 2.33h.21c.11 0 .16-.05.27-.05l1.91 1.32v.27a1.19 1.19 0 0 0 1.16 1h.21a1.21 1.21 0 0 0 1-1.38c0-.05-.06-.11-.06-.16l3-4.24a.6.6 0 0 0 .42 0 .65.65 0 0 0 .32-.11L31.53 14v.21a1.18 1.18 0 0 0 1.16 1h.21a1.21 1.21 0 0 0 1-1.38c0-.1-.06-.16-.06-.26l4.14-5.88h.31A1.21 1.21 0 0 0 38 5.35h-.21a1.19 1.19 0 0 0-.95 1.38.79.79 0 0 0 .1.32l-4.04 5.83h-.37a.72.72 0 0 0-.42.15L30 11.55v-.32a1.19 1.19 0 0 0-1.17-1h-.21a1.19 1.19 0 0 0-.95 1.37c0 .06.05.11.05.16l-3 4.24a1.05 1.05 0 0 0-.42-.05M28.88 34.17h-4.51A2.8 2.8 0 0 0 21.56 37v2.86a1.28 1.28 0 0 0 1.12 1.28 1.24 1.24 0 0 0 .74-.16v1.43h6.36V41a1.15 1.15 0 0 0 .74.16 1.28 1.28 0 0 0 1.11-1.28V37a2.79 2.79 0 0 0-2.75-2.81M26.65 28.08a2.71 2.71 0 1 1-2.7 2.7 2.7 2.7 0 0 1 2.7-2.7M39.63 34.17h-4.5A2.75 2.75 0 0 0 32.37 37v2.86a1.28 1.28 0 0 0 1.12 1.28 1.24 1.24 0 0 0 .74-.16v1.43h6.36V41a1.15 1.15 0 0 0 .74.16 1.28 1.28 0 0 0 1.11-1.28V37a2.8 2.8 0 0 0-2.81-2.81M37.41 28.08a2.71 2.71 0 1 1-2.71 2.7 2.7 2.7 0 0 1 2.71-2.7M18.12 34.17h-4.5A2.75 2.75 0 0 0 10.86 37v2.86A1.24 1.24 0 0 0 12.72 41v1.43h6.35V41a1.2 1.2 0 0 0 .75.16 1.28 1.28 0 0 0 1.11-1.28V37a2.87 2.87 0 0 0-2.81-2.81M15.84 28.08a2.71 2.71 0 1 1-2.7 2.7 2.7 2.7 0 0 1 2.7-2.7M7.31 34.17h-4.5A2.79 2.79 0 0 0 0 37v2.86a1.28 1.28 0 0 0 1.11 1.28 1.28 1.28 0 0 0 .75-.14v1.43h6.35V41a1.17 1.17 0 0 0 .74.16 1.28 1.28 0 0 0 1.12-1.28V37a2.76 2.76 0 0 0-2.76-2.81"/><path class="bbcls-1" d="M1.17 20.4a1.76 1.76 0 0 0 2.17-1l.9-2.49v10.22a4 4 0 0 1 .85-.13 3.73 3.73 0 0 1 2.54 1v-7a.45.45 0 0 1 .37-.39.36.36 0 0 1 .37.32v7.89a3.79 3.79 0 0 1 .53 1.91 4.1 4.1 0 0 1-.11.9 1.74 1.74 0 0 0 1.33.58 1.67 1.67 0 0 0 1.69-1.69v-20L20.24 12a1.72 1.72 0 0 0 2-1.37 1.75 1.75 0 0 0-1.38-2l-8.1-1.43a11.28 11.28 0 0 0-1.91-.16H9.06L7.68 8.42 6.3 7.05h-.79a1.85 1.85 0 0 0-1.7 1.16l-3.65 10a1.71 1.71 0 0 0 1 2.17"/><path class="bbcls-1" d="M5.09 28.08a2.71 2.71 0 1 1-2.71 2.7 2.7 2.7 0 0 1 2.71-2.7"/></g></g></symbol><symbol viewBox="0 0 42.95 60.12" id="truck" xmlns="http://www.w3.org/2000/svg"><defs><style>.bccls-1{fill:#007bbb}</style></defs><g id="bcLayer_2" data-name="Layer 2"><g id="bcLayer_1-2" data-name="Layer 1"><path class="bccls-1" d="M33.77 45.61a3.11 3.11 0 1 1 3.07-3.11 3.09 3.09 0 0 1-3.07 3.11m-24.56 0a3.11 3.11 0 1 1 3.07-3.11 3.09 3.09 0 0 1-3.07 3.11M8.19 27a4.18 4.18 0 0 1 2.45-3.8 4 4 0 0 1 1.62-.35H30.7a4.14 4.14 0 0 1 4 3.16 3.89 3.89 0 0 1 .12 1v6.22H8.19zm32.74 6.22V27A10.3 10.3 0 0 0 30.7 16.58H12.28a10 10 0 0 0-6.14 2.08 3.59 3.59 0 0 0-.61.51 10.66 10.66 0 0 0-1.93 2.29A10.46 10.46 0 0 0 2.05 27v6.22a2.06 2.06 0 0 0-2 2.07v16.54a2.06 2.06 0 0 0 2 2.07h2V57a3.07 3.07 0 1 0 6.14 0v-3.1h22.55V57a3.07 3.07 0 1 0 6.14 0v-3.1h2a2.06 2.06 0 0 0 2-2.07V35.24a2.06 2.06 0 0 0-2-2.07"/><path class="bccls-1" d="M6.57 13.64a13.91 13.91 0 0 1 4.23-1.12 11.43 11.43 0 0 1 1.45-.08H30.7a14.19 14.19 0 0 1 10.23 4.37V4.15A4.1 4.1 0 0 0 36.84 0H6.14a4.1 4.1 0 0 0-4.09 4.15v12.66a13.65 13.65 0 0 1 4.09-3 4.25 4.25 0 0 1 .43-.21"/></g></g></symbol><symbol viewBox="0 0 41.46 39.98" id="truckDonated" xmlns="http://www.w3.org/2000/svg"><defs><style>.bdcls-1{fill:none}.bdcls-2{clip-path:url(#bdclip-path)}.bdcls-3{fill:#0f6386}</style><clipPath id="bdclip-path"><path class="bdcls-1" d="M0 0h41.46v39.98H0z"/></clipPath></defs><g id="bdLayer_2" data-name="Layer 2"><g id="bdLayer_1-2" data-name="Layer 1"><g class="bdcls-2"><path class="bdcls-3" d="M32.14 0H18.69a13.37 13.37 0 0 1-1.14 2.42h15.6a22.42 22.42 0 0 1-1-2.42M17.27 14.92a64 64 0 0 0 8.3.63 76.94 76.94 0 0 0 7.77-.49v-3.51H17.23zM32.24 18.65h-2.45l.95-1.91h1.5zm-13.83-1.91h1.5l.95 1.91h-2.45zm3.19 1.54h7.58l-.14.37h-7.28zm7.77-.48l-.11.28h-7.73l-.12-.28zm-8-.2l-.12-.29h8.36l-.1.29zm8.47-.86l-.15.37h-8.57l-.12-.37zm-4.22-.58a64 64 0 0 1-8.3-.63v3.57a1.21 1.21 0 0 0 1.19 1.21.78.78 0 0 0-.09.37v.68a.88.88 0 0 0 .88.88h2a.88.88 0 0 0 .87-.88v-.68a.78.78 0 0 0-.09-.37h6.49a1.12 1.12 0 0 0-.09.37v.68a.89.89 0 0 0 .88.88h2a.88.88 0 0 0 .87-.88v-.68a.78.78 0 0 0-.09-.37 1.21 1.21 0 0 0 1.19-1.21v-3.42c-1.91.2-5.06.48-7.77.48"/></g><path class="bdcls-3" d="M21.12 17.11l.08.2h8.37l.07-.2h-8.52zM21.32 17.59l.08.21h7.97l.08-.21h-8.13zM21.52 18.08l.08.2h7.58l.08-.2h-7.74zM33.33 9.32V4l.56.93a.87.87 0 0 0-.15.56L34 8a.74.74 0 0 0 .17.42zm-6.83.76h-7.89l1-5.11H31l1 5.11zm-9.3-1.31v.43l-.7-.81a1 1 0 0 0 .17-.39l.23-2.45a.84.84 0 0 0-.15-.55l.53-.9zm18.19-3.41a.83.83 0 0 0-.9-.75h-.08l-1.06-1.73h-16l-1.1 1.75h-.09a.82.82 0 0 0-.89.75L15 7.8a.83.83 0 0 0 .73.9.55.55 0 0 0 .22 0l1.23 1.44v1h16.16v-.86l1.33-1.55a.81.81 0 0 0 .94-.73 1.77 1.77 0 0 0 0-.23zM10.1 19.56c-1.48-1.41-7.41-1.86-9.18-2a.92.92 0 0 0-.65.24.87.87 0 0 0-.27.63v17.3a.87.87 0 0 0 .86.87h5.19a.87.87 0 0 0 .82-.6C7 35.61 10 24.75 10.36 20.26a.84.84 0 0 0-.26-.7M36.28 28.83l-6.05 2.59c-1.67.08-5.15 0-6 0s-5.41-1.42-4.71-1.73a3.7 3.7 0 0 1 1.21 0c3.95.31 10.37 1.11 10.37-1.75s-7-3.45-8.64-3.45S18 23 15.55 22.76c-1-.08-2.28-.21-3.61-.3A92.06 92.06 0 0 1 9 34.19l9.16 4.14c3.43 1.3 5.76 3 13 0 0 0 10.36-4.4 10.36-6.91 0-2.07-2.38-3.56-5.18-2.59"/></g></g></symbol><symbol viewBox="0 0 62.77 97.63" id="truckpartners" xmlns="http://www.w3.org/2000/svg"><defs><style>.becls-1{fill:#007bbb}</style></defs><g id="beLayer_2" data-name="Layer 2"><g id="beLayer_1-2" data-name="Layer 1"><path class="becls-1" d="M40.75 34.75a2.37 2.37 0 1 1 2.34-2.37 2.35 2.35 0 0 1-2.34 2.37m-18.75 0a2.37 2.37 0 1 1 2.34-2.37A2.34 2.34 0 0 1 22 34.75m-.78-14.21a3.19 3.19 0 0 1 1.87-2.9 3 3 0 0 1 1.24-.26h14a3.15 3.15 0 0 1 3 2.4 3 3 0 0 1 .09.76v4.73H21.26zm25 4.73v-4.73a7.84 7.84 0 0 0-7.8-7.9h-14a7.59 7.59 0 0 0-4.68 1.58 2.86 2.86 0 0 0-.47.39 7.84 7.84 0 0 0-2.65 5.93v4.73A1.58 1.58 0 0 0 15 26.85v12.64a1.57 1.57 0 0 0 1.56 1.58h1.56v2.37a2.34 2.34 0 1 0 4.68 0v-2.37H40v2.37a2.34 2.34 0 1 0 4.68 0v-2.37h1.54a1.57 1.57 0 0 0 1.56-1.58V26.85a1.58 1.58 0 0 0-1.54-1.58"/><path class="becls-1" d="M20 10.39a10.55 10.55 0 0 1 3.23-.85 8.08 8.08 0 0 1 1.11-.06h14a10.81 10.81 0 0 1 7.8 3.33V3.16A3.13 3.13 0 0 0 43.09 0H19.7a3.12 3.12 0 0 0-3.12 3.16v9.65a10.57 10.57 0 0 1 3.12-2.26l.32-.16M56.24 72.13h-3.89a6.34 6.34 0 0 0-4.15 1.58.49.49 0 0 1-.13.06 16.33 16.33 0 0 0-3.4 3.57c-2.38 3-5.07 6.52-12.62 7.38a3.21 3.21 0 0 0-2.74 3.56 3.15 3.15 0 0 0 3.09 2.87h.35c6.39-.73 10.35-3.08 13.07-5.58v12.06h17V78.88a6.66 6.66 0 0 0-6.53-6.75M27.41 88.5a5.24 5.24 0 0 1 1.42-4.11c-6.08-1.2-8.57-4.27-10.74-7a16.05 16.05 0 0 0-3.39-3.57s-.09 0-.12-.06a6.39 6.39 0 0 0-4.16-1.58H6.54A6.66 6.66 0 0 0 0 78.88v18.75h17V85.51a21.76 21.76 0 0 0 11.35 5.3 5.21 5.21 0 0 1-.9-2.31M47.11 63a7.19 7.19 0 1 0 7.17-7.43A7.31 7.31 0 0 0 47.11 63m-31.45 0a7.31 7.31 0 0 1-7.18 7.43 7.43 7.43 0 0 1 0-14.86A7.31 7.31 0 0 1 15.66 63"/></g></g></symbol><symbol viewBox="0 0 34.58 41.09" id="ups" xmlns="http://www.w3.org/2000/svg"><defs><style>.bfcls-1{fill:#0f6386}</style></defs><g id="bfLayer_2" data-name="Layer 2"><g id="bfLayer_1-2" data-name="Layer 1"><path class="bfcls-1" d="M32.61 24.57a10.85 10.85 0 0 1-5.71 9.75 95.75 95.75 0 0 1-9.33 4.56.57.57 0 0 1-.46 0 69.25 69.25 0 0 1-10.39-5.21 10.36 10.36 0 0 1-4.59-7.4A16.69 16.69 0 0 1 2 23.54v-10.4a.85.85 0 0 1 .31-.7 30 30 0 0 1 14.52-7.31 48.08 48.08 0 0 1 13.44-.7c.63.05 1.27.11 1.91.14.32 0 .43.14.42.47v9.91c0 3.21.06 6.42 0 9.62m2-9.71V4.33a.65.65 0 0 0-.39-.67A30.39 30.39 0 0 0 24.27.53 46.14 46.14 0 0 0 9.81.61a30.13 30.13 0 0 0-9.4 3.05.67.67 0 0 0-.4.7v20.12a12.56 12.56 0 0 0 6.35 11.35A84.25 84.25 0 0 0 17.09 41a.57.57 0 0 0 .46 0 96.24 96.24 0 0 0 10.19-4.89c4.66-2.65 6.84-6.69 6.83-12v-9.29"/><path class="bfcls-1" d="M12.45 20v6.4a.6.6 0 0 1-.33.62 8.23 8.23 0 0 1-6.12.87 3.89 3.89 0 0 1-3-3.47A7.7 7.7 0 0 1 2.89 23v-9.33c0-.42.12-.5.51-.49h2.59c.4 0 .52.08.51.49v9.58a2.5 2.5 0 0 0 .16.89 1.44 1.44 0 0 0 2 .6c.19-.14.1-.33.1-.49v-9.81c0-.41-.15-.94.1-1.21s.76-.06 1.15-.07h1.93c.38 0 .51.07.5.48v6.4M31.59 17.63a13.55 13.55 0 0 0-1.12-1.06 3.13 3.13 0 0 0-2.11-.66 1.1 1.1 0 0 0-1.05.7 1.19 1.19 0 0 0 .32 1.32 5.44 5.44 0 0 0 1.22.85 7.8 7.8 0 0 1 2.2 1.75 4.68 4.68 0 0 1 .53 5.11 4.17 4.17 0 0 1-4.16 2.46 9.35 9.35 0 0 1-3.44-1 .22.22 0 0 1-.18-.24c0-1.14 0-2.27.06-3.41l.05-.06.57.49a4.69 4.69 0 0 0 2.14 1 1.5 1.5 0 0 0 1.71-.65 1.54 1.54 0 0 0-.5-1.89 9.31 9.31 0 0 0-1-.7 10.43 10.43 0 0 1-1.7-1.24 4.53 4.53 0 0 1-1.05-5.07 4.51 4.51 0 0 1 4.43-2.51 5.67 5.67 0 0 1 2.71.87.73.73 0 0 1 .41.73v3.16"/><path class="bfcls-1" d="M19.7 21.92a6.06 6.06 0 0 1-.44 2A1.81 1.81 0 0 1 17.4 25c-.32 0-.48-.1-.47-.47v-4-4c0-.33.11-.44.42-.48a1.71 1.71 0 0 1 2 1.16 9.89 9.89 0 0 1 .34 4.83m3.19-5.61A5 5 0 0 0 19.09 13a7.72 7.72 0 0 0-5.44.8.72.72 0 0 0-.44.74V33.78c0 .41.13.47.49.46h2.74c.37 0 .49-.08.48-.47v-5.34c0-.26 0-.4.35-.37a5 5 0 0 0 5.42-3.16 11.38 11.38 0 0 0 .18-8.58"/></g></g></symbol><symbol viewBox="0 0 48.44 72.32" id="warehouses" xmlns="http://www.w3.org/2000/svg"><defs><style>.bgcls-1{fill:#db8d7f}</style></defs><g id="bgLayer_2" data-name="Layer 2"><g id="bgLayer_1-2" data-name="Layer 1"><path class="bgcls-1" d="M31.79 21.09a1.52 1.52 0 0 1-3 0v-4.52a1.52 1.52 0 0 1 3 0zm0 6.23a5.84 5.84 0 0 1-5.86 5.83h-.2v-1.71a5.84 5.84 0 0 1 5.86-5.83h.2zm0 9a5.84 5.84 0 0 1-5.86 5.83h-.2v-1.67a5.84 5.84 0 0 1 5.86-5.83h.2zm-7.54-10.71h-.06a1.47 1.47 0 0 1-1.48-1.47V13.53a1.48 1.48 0 0 1 1.48-1.48h.06a1.48 1.48 0 0 1 1.48 1.48v10.61a1.47 1.47 0 0 1-1.48 1.47m-1.54 7.54h-.2a5.84 5.84 0 0 1-5.86-5.83v-1.71h.2a5.84 5.84 0 0 1 5.86 5.83zm0 9h-.2a5.84 5.84 0 0 1-5.86-5.83v-1.67h.2a5.84 5.84 0 0 1 5.86 5.83zm-6.06-25.58a1.52 1.52 0 0 1 3 0v4.52a1.52 1.52 0 0 1-3 0zM45.41 9H3a3 3 0 0 0-3 3v33.2h48.44V12.05a3 3 0 0 0-3-3M9.08 6h30.28a3 3 0 1 0 0-6H9.08a3 3 0 1 0 0 6M0 72.32h18.17V57.25a3 3 0 0 1 3-3h6.06a3 3 0 0 1 3 3v15.07h18.21V48.21H0z"/></g></g></symbol><symbol viewBox="0 0 52.73 52.73" id="wfp" xmlns="http://www.w3.org/2000/svg"><defs><style>.bhcls-1{fill:#db8d7f}</style></defs><g id="bhLayer_2" data-name="Layer 2"><path class="bhcls-1" d="M33.26 3.44h.51a1.69 1.69 0 0 0 1.07-.29 1 1 0 0 0 .36-.82 1 1 0 0 0-.3-.8 1.41 1.41 0 0 0-.9-.26h-.71zm3.5-1.16a2.23 2.23 0 0 1-.76 1.8 3.12 3.12 0 0 1-2.09.63h-.67V7.3h-1.53V0h2.34a3.12 3.12 0 0 1 2 .57 2.09 2.09 0 0 1 .69 1.71m-8.87 5h-1.5V0h4.18v1.27h-2.66v1.88h2.48v1.27h-2.48zm-4.21 0h-1.74l-1-3.83c0-.14-.1-.42-.19-.85a7.77 7.77 0 0 1-.15-.86q0 .27-.15.87c-.08.39-.14.68-.19.85l-1 3.82h-1.73L15.65 0h1.52l.94 4c.16.73.28 1.37.35 1.91 0-.19.07-.48.14-.88s.14-.71.2-.93L19.86 0h1.47l1.06 4.09q.08.27.18.84c.07.38.12.7.16 1 0-.26.08-.58.16-1s.14-.7.2-.94L24 0h1.52zm-3.77 25.43a13.67 13.67 0 0 0-5.15.88s-.06 0 0-.05a9.94 9.94 0 0 1 7.64-3.06h10.35a1.13 1.13 0 0 1 0 2.23zm2.34 2.87c-3.06 0-3.95-1.74-8.58-.59v-.06a10.77 10.77 0 0 1 6.52-1.61h12.56a1.13 1.13 0 0 1 0 2.23h-10.5m.22 2.82c-3.14 0-3.39-2.31-8-2.84v-.06c3.82-1 5.25.67 7.48.67h10.8a1.13 1.13 0 0 1 0 2.23zm-.68-8.54a11 11 0 0 0-5.11 1.38s-.06 0 0 0a8.11 8.11 0 0 1 6.43-3.57h9.68a1.13 1.13 0 0 1 0 2.23zm13.89-6.13a.66.66 0 0 0-.41-.19.64.64 0 0 0-.34 0 .76.76 0 0 0 .1-.31.83.83 0 0 0-.08-.48c-.31-.68.58-2.05.47-2.11s-.61 1.45-1.11 2.06a.87.87 0 0 0-.18.45.8.8 0 0 0 .08.48.37.37 0 0 0 .29.22h.1v.06a.42.42 0 0 0 .13.36.68.68 0 0 0 .41.19.78.78 0 0 0 .46-.08c.67-.37 2-.73 2-.86s-1.38.67-1.93.18m1-1a.66.66 0 0 0-.38-.19.69.69 0 0 0-.25 0 .42.42 0 0 0 0-.12A.69.69 0 0 0 36 22c-.34-.63.55-1.82.43-1.88s-.6 1.28-1.09 1.8a.68.68 0 0 0-.19.4.74.74 0 0 0 .1.43.4.4 0 0 0 .31.21.32.32 0 0 0 .17 0 .5.5 0 0 0 .13.37.57.57 0 0 0 .38.18.56.56 0 0 0 .4-.11c.57-.41 1.89-.66 1.86-.79s-1.3.56-1.8.08m.89-.92a.44.44 0 0 0-.36-.1.37.37 0 0 0-.18.05v-.08a.6.6 0 0 0 0-.4c-.21-.62.74-1.53.65-1.61s-.71 1-1.22 1.43a.61.61 0 0 0-.22.33.68.68 0 0 0 0 .4.49.49 0 0 0 .25.24.36.36 0 0 0 .25 0 .41.41 0 0 0 0 .16.44.44 0 0 0 .17.31.56.56 0 0 0 .36.1.55.55 0 0 0 .34-.17c.46-.46 1.6-.89 1.55-1s-1.07.71-1.6.37m1.77-2c-.1-.14-.9.73-1.48.82a.63.63 0 0 0-.34.16.61.61 0 0 0-.2.34.35.35 0 0 0 .05.3.3.3 0 0 0 .28.1.61.61 0 0 0 .34-.17.72.72 0 0 0 .2-.33c.17-.6 1.22-1.13 1.15-1.22M22.89 21c0 .09-.2.76-.2.76h-.3a.62.62 0 0 1-.6-.79c.13-.33.38-.37.7-.38a1 1 0 0 1 .49.11s-.05.15-.09.32m-.45 2a1.85 1.85 0 0 0 0 .23.67.67 0 0 1-.27-.78.51.51 0 0 1 .48-.27c-.06.27-.12.54-.17.82m-.35 2.51c0 .17-.27.19-.43.24-.46.14-.9.08-1-.47s.3-.84.77-1a.63.63 0 0 1 .69.21.44.44 0 0 1 .1.15s-.07.66-.09.82m-1.46-2.9c.36-.09.73-.22 1 .13a.7.7 0 0 1-.27 1.11.91.91 0 0 1-.93-.05c-.35-.33-.32-1.07.2-1.19m-.35-1.92c.38-.09.77-.23 1.06.14a.74.74 0 0 1-.37 1.2.93.93 0 0 1-1-.06c-.36-.34-.34-1.12.21-1.25m-.35 4.14c-.09.34-.38.39-.67.47a10.38 10.38 0 0 1-.73-.92v-.09a.42.42 0 0 1 .17-.18 1.34 1.34 0 0 1 .76-.16.71.71 0 0 1 .46.88m-1.86-1.77c-.27-.95 1.33-1.37 1.57-.43s-1.35 1.37-1.57.43m-.23-1.9c-.28-.95 1.33-1.36 1.57-.43s-1.36 1.37-1.57.43m-.23-1.87c-.26-.88 1.25-1.27 1.48-.4s-1.27 1.28-1.48.4m-.15 3.6c-.08 0-.1.06-.13.06l-.72-.77a1.46 1.46 0 0 1 .31-.23c.59-.33 1.08.62.54.94m-1.33-1.76c-.36-.78.93-1.63 1.32-.78s-.93 1.64-1.32.78m1.08-2.47c.41.72-.82 1.53-1.17.75s.78-1.45 1.17-.75m-1-1.69a.51.51 0 1 1 .66.75.77.77 0 0 1-.54.16.53.53 0 0 1-.12-.91m.05-1.55a.57.57 0 0 1 .51-.12.44.44 0 0 1 .05.76.65.65 0 0 1-.46.14.45.45 0 0 1-.1-.78m.77-2.21a.51.51 0 0 1 .62 0 .43.43 0 0 1-.12.68.51.51 0 0 1-.62 0 .44.44 0 0 1 .12-.68m-.14 1.68c-.15-.56.78-.82.93-.25s-.79.81-.93.25m1.5 1c.22.6-.8.94-1 .35s.81-.94 1-.35m.13-2.91a.63.63 0 0 1 .65 0 .48.48 0 0 1-.09.79.59.59 0 0 1-.65 0 .48.48 0 0 1 .09-.79m-.18 5c-.28.06-.56.17-.79-.07a.58.58 0 0 1 .19-1 .71.71 0 0 1 .78.06.59.59 0 0 1-.18 1m0-3.06c-.17-.59.79-.9 1-.32s-.81.9-1 .32M20 16c.23.68-.92 1-1.13.37s.94-1 1.13-.37m0-1.84a.57.57 0 0 1 .57.13.44.44 0 0 1-.19.75.72.72 0 0 1-.54-.09.47.47 0 0 1 .16-.79m1 1.42c.37 0 .55.55.34.82a.67.67 0 0 1-.6.14.52.52 0 0 1-.34-.81c.15-.19.39-.15.6-.15m-1.77 2.23c-.23-.77 1.1-1.12 1.3-.35s-1.13 1.13-1.3.35m.81 1c.36 0 .74-.12 1 .26a.7.7 0 0 1-.41 1.05.89.89 0 0 1-.9-.18c-.29-.36-.18-1.08.35-1.13m1.84-1.73a.62.62 0 0 1 .28 1 .85.85 0 0 1-.68.08c-.42-.08-.69-.7-.33-1a.79.79 0 0 1 .73-.08m.7 1.87c.28.35.17 1-.32 1a.9.9 0 0 1-.76-.22c-.28-.34-.17-1 .32-1a.94.94 0 0 1 .76.22m1.89-6.19a.1.1 0 0 0-.12 0 .11.11 0 0 0-.08.14c1.13 3-.31 4.49-.9 6.6-.72-1.71 1.66-3.32.43-6.45 0 0-.05-.07-.09-.07a.1.1 0 0 0-.13.09A4.3 4.3 0 0 1 22 16a2.83 2.83 0 0 0-.65-1A2.08 2.08 0 0 0 20 13.42a1.76 1.76 0 0 0-.82-1 1.66 1.66 0 0 0-1.5.06 1.72 1.72 0 0 0-1.4.78 1.64 1.64 0 0 0-.11 1.19 2.63 2.63 0 0 0-.58 1.86 3.56 3.56 0 0 0 0 2.17 3.46 3.46 0 0 0 .13 2.52 2.53 2.53 0 0 0 0 .28 29.43 29.43 0 0 0-5.51-3.94.15.15 0 0 0-.17 0 .14.14 0 0 0 0 .21c2.57 2.51 4.87 5.61 7.07 12A8.24 8.24 0 0 1 23.05 27h3.31c-2.1-7.84 1-10.65-1.9-14.24m15.66 4c-.6-.16-4.47-.84-8.8 7.13a34.93 34.93 0 0 1 3.08-7.61.15.15 0 0 0 0-.18.13.13 0 0 0-.18 0c-2.9 4.9-3.9 7.6-4.5 10.9h1.8c.3-3.18 4.31-10.65 8.58-10.1v-.06m-8.59 26.23l-1-4h-1.62A14.14 14.14 0 0 0 30 42a.15.15 0 0 0 .15.07.14.14 0 0 0 .12-.17c-.11-.86-.24-1.69-.37-2.51a17.59 17.59 0 0 0 1.45 3.73.07.07 0 0 0 .09 0 .08.08 0 0 0 .06-.1m1.67-1.84c-.17-.68-.35-1.51-.5-2.21h-.63c.25.75.58 1.58.87 2.3a.14.14 0 0 0 .16.09.16.16 0 0 0 .1-.18m.21 2.38c-.2-.57-.48-1.07-.7-1.62s-.47-1.07-.66-1.63-.33-.9-.46-1.33H31c.17.5.39 1 .6 1.54a16.56 16.56 0 0 0 1.65 3.15.11.11 0 0 0 .12 0 .11.11 0 0 0 .06-.14m.9-19.44a.15.15 0 0 0-.21 0 12.39 12.39 0 0 0-2 2.86h.66a11 11 0 0 1 1.54-2.62.17.17 0 0 0 0-.21m-5-5.62a24.77 24.77 0 0 1 2.27-2.68.09.09 0 0 0 0-.11.07.07 0 0 0-.11 0 6.75 6.75 0 0 1-.54.53c-.08 0-.28 0-.49.21a1 1 0 0 0-.32.37c-.11 0-.31.1-.48.33a.89.89 0 0 0-.23.51c-.12 0-.28.16-.42.38a1.28 1.28 0 0 0-.17.42 1.23 1.23 0 0 0-.29.33 1 1 0 0 0-.16.54l-.09.15v-.12a26.29 26.29 0 0 1 .83-4.15 11.69 11.69 0 0 1 1.68-3.77.14.14 0 0 0 0-.19.13.13 0 0 0-.19 0 6.23 6.23 0 0 0-.73 1c-.09-.05-.29.13-.44.42a.85.85 0 0 0-.13.59c-.1 0-.28.17-.39.46s-.12.53 0 .61c-.11 0-.29.21-.4.56a.94.94 0 0 0 0 .66s-.28.21-.38.57-.09.63 0 .69c-.11 0-.26.25-.34.6a1 1 0 0 0 0 .66c-.1 0-.22.28-.28.61a.94.94 0 0 0 .05.67.91.91 0 0 0-.24.63 1 1 0 0 0 .09.67 1.27 1.27 0 0 0-.2.58 1.36 1.36 0 0 0 0 .6 1 1 0 0 0-.16.64 1.28 1.28 0 0 0 .09.58 1.37 1.37 0 0 0-.08.5 1.2 1.2 0 0 0 .1.6v2.8h2c0-.71.06-1.49.13-2.19a9.07 9.07 0 0 1 1-3.61.09.09 0 0 0 0-.11.07.07 0 0 0-.12 0 7.32 7.32 0 0 0-1.45 3.62c0 .25-.07.51-.1.76a17 17 0 0 1 .39-3 4.5 4.5 0 0 1 1.84-3 .1.1 0 0 0 0-.1.09.09 0 0 0-.1-.07 1.11 1.11 0 0 0-.19.09c-.07-.09-.32 0-.58.14s-.41.36-.4.47-.34.09-.55.39-.3.6-.21.68-.29.2-.41.55a1.26 1.26 0 0 0-.07.6c-.09.28-.16.56-.23.85 0-.4.06-.81.12-1.22a8.45 8.45 0 0 1 1.15-3.28m6.2-3.25a.68.68 0 0 0-.45 0 .72.72 0 0 0-.3.16.88.88 0 0 0 0-.32.76.76 0 0 0-.24-.42c-.53-.53-.16-2.13-.29-2.15s-.07 1.58-.33 2.32a.84.84 0 0 0 0 .5.83.83 0 0 0 .24.42.36.36 0 0 0 .35.09.18.18 0 0 0 .09 0v.06a.42.42 0 0 0 .25.29.68.68 0 0 0 .45 0 .73.73 0 0 0 .4-.24c.5-.59 1.68-1.41 1.61-1.52s-1.07 1.11-1.75.85m2.28-2c-.08-.11-1 1-1.66.72a.61.61 0 0 0-.42 0 .52.52 0 0 0-.22.12v-.12a.65.65 0 0 0-.24-.37c-.54-.47-.12-1.9-.24-1.91s-.13 1.4-.41 2.07a.63.63 0 0 0 0 .43.71.71 0 0 0 .24.38.42.42 0 0 0 .36.08.35.35 0 0 0 .15-.07.52.52 0 0 0 .25.31.66.66 0 0 0 .42 0 .61.61 0 0 0 .34-.24c.39-.6 1.54-1.29 1.47-1.41m.06-1.39c-.09-.09-.76 1-1.37.9a.57.57 0 0 0-.38 0 .58.58 0 0 0-.15.11v-.08a.7.7 0 0 0-.16-.37c-.42-.5.16-1.7.05-1.73s-.31 1.22-.65 1.77a.58.58 0 0 0-.09.38.62.62 0 0 0 .16.37.37.37 0 0 0 .31.13.36.36 0 0 0 .23-.11.4.4 0 0 0 0 .15.39.39 0 0 0 .27.23.48.48 0 0 0 .37 0 .52.52 0 0 0 .26-.27c.27-.6 1.19-1.41 1.11-1.49m-.41-1.58c-.14-.1-.58 1-1.1 1.29a.65.65 0 0 0-.26.28.59.59 0 0 0-.07.38.32.32 0 0 0 .15.27.3.3 0 0 0 .29 0 .62.62 0 0 0 .26-.27.7.7 0 0 0 .08-.39c0-.62.75-1.48.65-1.55M28 39h-5.55a5.41 5.41 0 0 1-1-.09A9.41 9.41 0 0 0 25.2 42a12.38 12.38 0 0 0 .6 2.46 3.9 3.9 0 0 0 1.56-.46c0-.13-.58-2.24-.58-2.24A11.27 11.27 0 0 0 28 39m13.91 9.45a8 8 0 0 1-4.71.21c-3.4-1.06-7.18-3.07-10.81-1.4-3.63-1.67-7.41.34-10.82 1.4a7.92 7.92 0 0 1-4.7-.21v.07a7.9 7.9 0 0 0 7.36 1.35c2.43-.76 4.49-3.34 7.37-2.24a20 20 0 0 0-6.06 4.1l1.2 1a19.82 19.82 0 0 1 5.09-4.54 1.2 1.2 0 0 1 .6-.23 1.17 1.17 0 0 1 .59.23 19.66 19.66 0 0 1 5.09 4.54l1.2-1a20 20 0 0 0-6.06-4.1c2.88-1.1 4.94 1.48 7.37 2.24a7.89 7.89 0 0 0 7.36-1.35v-.07m-22.54-2.32c-3.56-.87-4.53-4.2-7.5-5.65v.05c.94 1.54 1.44 3.9 4.15 5.36-3.87-.75-5.5.29-9.56-1.55 0 0-.08 0 0 .06 1.33 1.94 4.5 3.26 8.84 2.89a27.29 27.29 0 0 0 4.19-1.14v-.06M12 44.08c-1.35-1.77-1-5.56-4-9h-.06c.58 2.55.41 5.45 2 7.57 0 0 0 .05 0 0-3.15-2.48-6.39-3.22-7.83-5.23h-.06c.35 2.6 5.34 6.65 10 6.65v-.05m-4.79-4.65c-1.45-2.69.28-6.79-1.36-10.78h-.08c-.05 2.18-1.4 5.43-.58 7.89C3.12 33.46 1.47 32.82.09 30H.01a8.09 8.09 0 0 0 1.69 4.92 16.2 16.2 0 0 0 5.51 4.5s.07 0 0-.05M6.28 23h-.09c-1.1 2-3.07 3.69-3.13 6.42C2.66 27.32.87 25 .79 21.9c0 0-.06-.06-.08 0-1.47 4 .64 7.73 2.9 10.84h.07C3.59 29.41 6.44 27 6.28 23m1.4-5.13c-1 1.45-3.39 2.47-4.25 4.57h-.05c.35-2.35-.56-5.07.29-8.19H3.6a8.75 8.75 0 0 0-1.79 5.43c-.09 2.46.78 4.25 1.2 5.91h.07c.62-2.18 3.71-3.5 4.67-7.64 0 0 0-.07-.07 0M10.52 13c-1.72 1.35-4.35 2.64-4.91 3.58l.63-3.06a11.57 11.57 0 0 1 1.25-3.7c-3.27 2.59-2.79 6.33-2.93 9.4 1.93-2.09 5.07-3.31 6-6.15h-.05M13 8.28c-2.89.1-5 2.53-5.92 5.63C11 11 10.82 9.76 13 8.37a.05.05 0 0 0 0-.09m33.32 36.1c-4.05 1.84-5.68.8-9.56 1.55 2.71-1.46 3.21-3.82 4.15-5.36l-.05-.05c-3 1.45-3.94 4.78-7.5 5.65v.06c1.5.35 2.63 1 4.19 1.14 4.34.37 7.51-.95 8.84-2.89v-.06m4.4-6.92c-1.44 2-4.68 2.75-7.82 5.23 1.59-2.12 1.42-5 2-7.57h-.06c-3 3.46-2.67 7.25-4 9v.05c4.62 0 9.61-4.05 10-6.65h-.06m2-7.41s-.06-.05-.08 0c-1.38 2.78-3 3.42-5.11 6.46.81-2.46-.54-5.71-.59-7.89 0 0-.06-.05-.08 0-1.64 4 .09 8.09-1.36 10.78 0 0 0 .06.05.05A16.2 16.2 0 0 0 51 34.92a8.09 8.09 0 0 0 1.69-4.87M52 21.89c0-.05-.08 0-.08 0-.08 3.05-1.87 5.42-2.23 7.52-.07-2.73-2-4.38-3.14-6.45h-.08c-.17 4 2.68 6.42 2.59 9.71h.08c2.25-3.11 4.36-6.87 2.89-10.84m-1.1-2.27a8.75 8.75 0 0 0-1.79-5.43h-.07c.85 3.12-.06 5.84.29 8.19h-.05c-.86-2.1-3.21-3.12-4.25-4.57h-.07c1 4.14 4.05 5.46 4.67 7.64h.07c.42-1.66 1.29-3.45 1.2-5.91m-5.6-9.88a11.57 11.57 0 0 1 1.25 3.7l.63 3.06c-.56-.94-3.19-2.23-4.91-3.58h-.05c1 2.84 4.11 4.06 6 6.15-.14-3.07.34-6.81-2.93-9.4m-5.54-1.25v.09c2.15 1.39 1.93 2.64 5.91 5.56-.91-3.1-3-5.53-5.92-5.63" id="bhLayer_1-2" data-name="Layer 1"/></g></symbol></svg>