<svg xmlns="http://www.w3.org/2000/svg" width="133.49" height="116.87" viewBox="0 0 133.49 116.87"><defs><style>.cls-1,.cls-3{fill:#fff;}.cls-2{opacity:0.5;}.cls-3{fill-rule:evenodd;}</style></defs><title>cbt02</title><g id="Layer_2" data-name="Layer 2"><g id="Layer_1-2" data-name="Layer 1"><path class="cls-1" d="M13,78.87c-7.53,0-13,5-13,12a2,2,0,0,0,4,0,7.86,7.86,0,0,1,4-7v31a2,2,0,0,0,4,0v-15h2v15a2,2,0,1,0,4,0v-31a7.83,7.83,0,0,1,4,7,2,2,0,0,0,4,0C26,83.91,20.52,78.87,13,78.87Z"/><circle class="cls-1" cx="12.99" cy="72.87" r="4"/><g class="cls-2"><path class="cls-3" d="M68.25,61.74h54.62v-5H68.25ZM67.8,64h55.25l6.14,10.56H61.78Zm48,12.74v4a5.85,5.85,0,0,1-.25,1.69c0,.06,0,.12-.05.18l0,.09-.06.15,0,.12a.87.87,0,0,0-.07.17l-.09.19-.06.11-.06.13-.07.12-.06.11-.08.12-.06.1-.09.13a.21.21,0,0,1,0,.06,6.09,6.09,0,0,1-4.13,2.5h-.09l-.16,0h-1.09l-.15,0h-.1a6.08,6.08,0,0,1-4.13-2.51l0,0-.09-.13-.06-.1-.07-.12-.07-.11-.06-.12a.75.75,0,0,1-.07-.12l-.06-.12a1,1,0,0,0-.07-.15l-.09-.22a.3.3,0,0,0,0-.1,1.09,1.09,0,0,1,0-.17l0-.08-.06-.18a5.85,5.85,0,0,1-.24-1.69v-4Zm-14.24,0v4a6.22,6.22,0,0,1-.24,1.69l-.06.18,0,.09,0,.15,0,.12c0,.05,0,.11-.07.17l-.09.19a.54.54,0,0,1-.05.11l-.07.13-.06.12-.07.11-.07.12a.61.61,0,0,1-.07.1l-.08.13a.21.21,0,0,0,0,.06,6.11,6.11,0,0,1-4.13,2.5h-.1l-.15,0h-1.1l-.15,0H94.7a6.08,6.08,0,0,1-4.14-2.51l0,0L90.44,84l-.06-.1-.08-.12-.06-.11a.75.75,0,0,1-.07-.12l-.06-.12-.06-.12a1,1,0,0,1-.07-.15L89.89,83l0-.1-.06-.17,0-.08a1.21,1.21,0,0,1-.05-.18,5.85,5.85,0,0,1-.25-1.69v-4Zm-14.24,0v4A5.85,5.85,0,0,1,87,82.42c0,.06,0,.12-.05.18l0,.09-.06.15,0,.12a.87.87,0,0,0-.07.17l-.09.19-.06.11-.06.13a.75.75,0,0,0-.07.12l-.06.11-.08.12-.06.1-.09.13,0,.06a6.11,6.11,0,0,1-4.13,2.5H82l-.16,0H80.71l-.16,0h-.09a6.06,6.06,0,0,1-4.13-2.51l0,0L76.2,84l-.06-.1-.08-.12L76,83.68a.75.75,0,0,0-.07-.12l-.06-.12-.06-.12a1,1,0,0,0-.07-.15L75.65,83a1,1,0,0,0,0-.1l-.06-.17,0-.08a1.21,1.21,0,0,0,0-.18,5.85,5.85,0,0,1-.24-1.69v-4ZM64.41,86.16c-.09,0-.19-.09-.28-.15A6,6,0,0,1,61,80.73v-4H73.05v4a5.85,5.85,0,0,1-.25,1.69,1.21,1.21,0,0,1,0,.18l0,.09-.06.15a.56.56,0,0,1,0,.12c0,.05-.05.11-.07.17l-.09.19,0,.11a.83.83,0,0,0-.07.13l-.06.12a.41.41,0,0,0-.07.11l-.07.12-.07.1-.08.13,0,.06a6.09,6.09,0,0,1-4.13,2.5h-.09l-.15,0h-1l-.28,0h-.08l-.31,0h0c-.24,0-.48-.11-.71-.18l-.06,0-.26-.1-.1,0-.24-.1-.09,0m9.33,30.41H85.79V95.38H73.74ZM130,80.73A6,6,0,0,1,126.88,86l-.27.14h0l-.33.15-.06,0-.29.11-.06,0a5.42,5.42,0,0,1-.72.19h0l-.34.06h-.07l-.29,0h-1l-.16,0h-.09A6.09,6.09,0,0,1,119,84.2a.21.21,0,0,1,0-.06l-.09-.13-.06-.1-.08-.12-.06-.11-.07-.12-.06-.13-.06-.11a1.42,1.42,0,0,1-.08-.18c0-.06,0-.12-.08-.19s0-.07,0-.11l-.06-.15,0-.09a1.21,1.21,0,0,1,0-.18,5.85,5.85,0,0,1-.25-1.69v-4H130Zm-9.67,28.6a1.09,1.09,0,0,1-1.09,1.09H95.49a1.09,1.09,0,0,1-1.09-1.09v-15a1.09,1.09,0,0,1,1.09-1.09h23.74a1.09,1.09,0,0,1,1.09,1.09Zm5.8-20.69h0l-.22,0-.12,0-.22,0-.14,0-.29,0-.24,0h-.15l-.23,0h-1l-.28,0-.21,0-.17,0-.22,0h0a8.26,8.26,0,0,1-5.26-3.28l-.07-.11-.11-.15c0-.08-.11-.16-.16-.25l-.07-.12-.06-.09a.41.41,0,0,1,0,.09l-.07.12c0,.09-.11.17-.16.25l-.11.15-.07.11a8.26,8.26,0,0,1-5.26,3.28h0l-.22,0-.17,0-.22,0-.27,0h-1l-.28,0-.21,0-.17,0-.22,0h0a8.21,8.21,0,0,1-5.25-3.28l-.08-.11-.11-.15-.15-.25-.08-.13a.56.56,0,0,1,0-.08l-.06.09a.75.75,0,0,1-.07.12,2.13,2.13,0,0,1-.16.25l-.1.15-.08.11a1.09,1.09,0,0,1-.13.17h0a8.23,8.23,0,0,1-5.13,3.11h0l-.22,0-.17,0-.21,0-.28,0H95l-.28,0-.21,0-.17,0-.22,0h0a8.21,8.21,0,0,1-5.26-3.28l-.07-.11-.11-.15c0-.08-.11-.16-.16-.25l-.08-.13,0-.08a.41.41,0,0,1-.05.09.75.75,0,0,0-.07.12l-.16.25-.11.15a.76.76,0,0,1-.08.11l-.12.17h0a8.21,8.21,0,0,1-5.12,3.11h0l-.23,0-.16,0-.22,0-.27,0h-1l-.27,0-.22,0-.16,0-.23,0h0a8.21,8.21,0,0,1-5.25-3.28l-.08-.11-.11-.15L74.27,85a.57.57,0,0,1-.08-.13.22.22,0,0,1,0-.08l-.06.09L74,85a2.13,2.13,0,0,1-.16.25l-.1.15a.76.76,0,0,0-.08.11l-.13.17h0a8.23,8.23,0,0,1-5.13,3.11h0l-.22,0-.17,0-.21,0-.28,0h-1l-.24,0h-.14l-.32,0-.2,0-.14,0-.21,0-.13,0-.37-.1-.12,0v28h6.91V94.29a1.09,1.09,0,0,1,1.09-1.09H86.88A1.09,1.09,0,0,1,88,94.29v22.28h38.41v-28l-.26.08Z"/></g><path class="cls-1" d="M82.49,23.16h-.75a11.81,11.81,0,0,0-2.18-5.27l.53-.53a1.8,1.8,0,0,0,0-2.53,1.79,1.79,0,0,0-2.53,0l-.53.53a11.87,11.87,0,0,0-5.28-2.19v-.75a1.79,1.79,0,0,0-3.58,0v.75a11.83,11.83,0,0,0-5.27,2.19l-.53-.53a1.79,1.79,0,0,0-2.53,2.53l.53.53a11.94,11.94,0,0,0-2.19,5.27h-.74a1.79,1.79,0,0,0,0,3.58h.74A11.94,11.94,0,0,0,60.37,32l-.53.53a1.79,1.79,0,1,0,2.53,2.53l.53-.53a11.72,11.72,0,0,0,5.27,2.19v.75a1.79,1.79,0,1,0,3.58,0v-.75A11.75,11.75,0,0,0,77,34.54l.53.53a1.76,1.76,0,0,0,1.26.53,1.8,1.8,0,0,0,1.27-3.06L79.56,32a11.81,11.81,0,0,0,2.18-5.27h.75a1.79,1.79,0,1,0,0-3.58ZM70,33.3A8.35,8.35,0,1,1,78.31,25,8.36,8.36,0,0,1,70,33.3Z"/><path class="cls-1" d="M131.7,16.33H131a12,12,0,0,0-2.19-5.28l.53-.53A1.79,1.79,0,0,0,126.77,8l-.53.53A12,12,0,0,0,121,6.33V5.59a1.79,1.79,0,1,0-3.57,0v.74a12,12,0,0,0-5.28,2.19L111.58,8a1.79,1.79,0,1,0-2.53,2.53l.53.53a12,12,0,0,0-2.19,5.28h-.74a1.79,1.79,0,0,0,0,3.58h.74a12,12,0,0,0,2.19,5.27l-.53.53a1.79,1.79,0,0,0,1.27,3.05,1.76,1.76,0,0,0,1.26-.52l.53-.53a12,12,0,0,0,5.28,2.19v.74a1.79,1.79,0,1,0,3.57,0V29.9a12,12,0,0,0,5.28-2.19l.53.53a1.79,1.79,0,0,0,2.53-2.53l-.53-.53A12,12,0,0,0,131,19.91h.74a1.79,1.79,0,1,0,0-3.58ZM119.18,26.47a8.36,8.36,0,1,1,8.35-8.35A8.37,8.37,0,0,1,119.18,26.47Z"/><path class="cls-1" d="M105.87,31.28h-.56a8.78,8.78,0,0,0-1.64-4l.4-.4a1.34,1.34,0,1,0-1.9-1.9l-.4.4a8.78,8.78,0,0,0-4-1.64v-.56a1.34,1.34,0,1,0-2.68,0v.56a8.78,8.78,0,0,0-4,1.64l-.4-.4a1.35,1.35,0,0,0-1.9,0,1.33,1.33,0,0,0,0,1.9l.4.4a8.9,8.9,0,0,0-1.65,4h-.56a1.34,1.34,0,1,0,0,2.68h.56a8.9,8.9,0,0,0,1.65,4l-.4.4a1.33,1.33,0,0,0,0,1.9,1.35,1.35,0,0,0,1.9,0l.4-.4a8.78,8.78,0,0,0,4,1.64V42a1.34,1.34,0,1,0,2.68,0v-.56a8.78,8.78,0,0,0,4-1.64l.4.4a1.34,1.34,0,1,0,1.9-1.9l-.4-.4a8.78,8.78,0,0,0,1.64-4h.56a1.34,1.34,0,1,0,0-2.68Zm-9.4,7.61a6.27,6.27,0,1,1,6.27-6.27A6.27,6.27,0,0,1,96.47,38.89Z"/><path class="cls-1" d="M101.77,9.4h-.56a8.9,8.9,0,0,0-1.64-3.95l.4-.4a1.35,1.35,0,0,0,0-1.9,1.33,1.33,0,0,0-1.9,0l-.4.4a8.9,8.9,0,0,0-4-1.65V1.34a1.35,1.35,0,0,0-2.69,0V1.9a8.91,8.91,0,0,0-4,1.65l-.4-.4a1.34,1.34,0,1,0-1.9,1.9l.4.4a8.91,8.91,0,0,0-1.65,4H83a1.35,1.35,0,0,0,0,2.69h.56a8.9,8.9,0,0,0,1.65,4l-.4.4a1.34,1.34,0,0,0,1,2.29,1.35,1.35,0,0,0,1-.39l.4-.4a8.9,8.9,0,0,0,4,1.64v.56a1.35,1.35,0,1,0,2.69,0v-.56a8.89,8.89,0,0,0,4-1.64l.4.4a1.33,1.33,0,0,0,1,.39,1.34,1.34,0,0,0,1-2.29l-.4-.4a8.89,8.89,0,0,0,1.64-4h.56a1.35,1.35,0,1,0,0-2.69ZM92.37,17a6.27,6.27,0,1,1,6.27-6.27A6.28,6.28,0,0,1,92.37,17Z"/></g></g></svg>