<?xml version="1.0" encoding="utf-8"?>
<!-- Generator: Adobe Illustrator 23.0.3, SVG Export Plug-In . SVG Version: 6.00 Build 0)  -->
<svg version="1.1" id="Layer_1" xmlns="http://www.w3.org/2000/svg" xmlns:xlink="http://www.w3.org/1999/xlink" x="0px" y="0px"
	 viewBox="0 0 517.5 177.5" style="enable-background:new 0 0 517.5 177.5;" xml:space="preserve">
<style type="text/css">
	.st0{opacity:0.5;}
	.st1{fill-rule:evenodd;clip-rule:evenodd;fill:#FFFFFF;}
	.st2{fill:#FFFFFF;}
	.st3{opacity:0.5;fill:#FFFFFF;enable-background:new    ;}
</style>
<title>cb101</title>
<g>
	<g id="Layer_1-2">
		<g id="cb101">
			<g id="four">
				<g class="st0">
					<path class="st1" d="M233.3,122.4h54.6v-5h-54.6V122.4z M232.8,124.7H288l6.1,10.6h-67.4L232.8,124.7z M280.8,137.4v4
						c0,0.6-0.1,1.1-0.2,1.7c0,0.1,0,0.1,0,0.2v0.1l-0.1,0.2c0,0,0,0.1,0,0.1c0,0.1-0.1,0.1-0.1,0.2l-0.1,0.2l-0.1,0.1l-0.1,0.1
						l-0.1,0.1l-0.1,0.1l-0.1,0.1l-0.1,0.1l-0.1,0.1v0.1c-1,1.4-2.5,2.3-4.1,2.5h-0.1h-0.2h-1.1h-0.2h-0.1c-1.7-0.2-3.2-1.1-4.1-2.5
						v-0.1l-0.1-0.1l-0.1-0.1l-0.1-0.1l-0.1-0.1c0,0,0-0.1-0.1-0.1l-0.1-0.1l-0.1-0.1c0-0.1,0-0.1-0.1-0.1l-0.1-0.2v-0.1l-0.1-0.2
						v-0.1c0-0.1,0-0.1,0-0.2c-0.2-0.5-0.2-1.1-0.2-1.7v-4L280.8,137.4z M266.5,137.4v4c0,0.6-0.1,1.1-0.2,1.7c0,0.1,0,0.1,0,0.2
						v0.1c0,0.1,0,0.1,0,0.2c0,0,0,0.1,0,0.1c0,0.1,0,0.1-0.1,0.2l-0.1,0.2c0,0,0,0.1,0,0.1c0,0.1,0,0.1-0.1,0.1l-0.1,0.1l-0.1,0.1
						l-0.1,0.1c0,0,0,0.1-0.1,0.1l-0.1,0.1l0,0.1c-1,1.4-2.5,2.3-4.1,2.5h-0.1h-0.1H260h-0.1h-0.1c-1.7-0.2-3.2-1.1-4.1-2.5v-0.1
						l-0.1-0.1c0,0,0-0.1-0.1-0.1l-0.1-0.1l-0.1-0.1c0,0-0.1-0.1-0.1-0.1l-0.1-0.1l-0.1-0.1c0,0-0.1-0.1-0.1-0.1
						c0-0.1-0.1-0.1-0.1-0.2c0,0,0-0.1,0-0.1l-0.1-0.2v-0.1l-0.1-0.2c-0.2-0.5-0.2-1.1-0.2-1.7v-4L266.5,137.4z M252.3,137.4v4
						c0,0.6-0.1,1.1-0.2,1.7c0,0.1,0,0.1-0.1,0.2v0.1c0,0.1,0,0.1-0.1,0.2c0,0,0,0.1,0,0.1c0,0.1,0,0.1-0.1,0.2c0,0.1,0,0.1-0.1,0.2
						l-0.1,0.1c0,0,0,0.1-0.1,0.1l-0.1,0.1c0,0,0,0.1-0.1,0.1c0,0,0,0.1-0.1,0.1l-0.1,0.1l-0.1,0.1v0.1c-1,1.4-2.5,2.3-4.1,2.5H247
						h-0.2h-1.1h-0.2h-0.1c-1.7-0.2-3.2-1.1-4.1-2.5v-0.1l-0.1-0.1l-0.1-0.1l-0.1-0.1l-0.1-0.1l-0.1-0.1l-0.1-0.1l-0.1-0.1l-0.1-0.1
						l-0.1-0.2v-0.1l-0.1-0.2v-0.1c0-0.1,0-0.1-0.1-0.2c-0.2-0.5-0.2-1.1-0.2-1.7v-4L252.3,137.4z M229.4,146.8l-0.3-0.1
						c-1.9-1.1-3.1-3.1-3.1-5.3v-4h12.1v4c0,0.6-0.1,1.1-0.2,1.7c0,0.1,0,0.1-0.1,0.2v0.1l-0.1,0.2c0,0,0,0.1,0,0.1s0,0.1-0.1,0.2
						l-0.1,0.2l-0.1,0.1l-0.1,0.1c0,0,0,0.1-0.1,0.1l-0.1,0.1l-0.1,0.1l-0.1,0.1l-0.1,0.1v0.1c-1,1.4-2.5,2.3-4.1,2.5h-0.1h-0.2h-1
						h-0.3h-0.1l-0.3-0.1l0,0c-0.2,0-0.5-0.1-0.7-0.2h-0.1L230,147h-0.1l-0.2-0.1h-0.1 M238.9,177.3h11.9V156h-12.1L238.9,177.3z
						 M283.4,143.5c0,0,0-0.1,0-0.1l-0.1-0.2v-0.1c0-0.1,0-0.1,0-0.2c-0.2-0.5-0.2-1.1-0.2-1.7v-4H295v4.1c0,2.2-1.2,4.2-3.1,5.3
						l-0.3,0.1l0,0l-0.3,0.1h-0.1l-0.3,0.1h-0.1c-0.2,0.1-0.5,0.1-0.7,0.2l0,0c-0.1,0-0.2,0-0.3,0.1h-0.1h-0.3h-1h-0.2h-0.1
						c-1.7-0.2-3.2-1.1-4.1-2.5c0,0,0,0,0-0.1l-0.1-0.1l-0.1-0.1l-0.1-0.1l-0.1-0.1c0,0-0.1-0.1-0.1-0.1l-0.1-0.1l-0.1-0.1
						 M285.3,170c0,0.6-0.5,1.1-1.1,1.1h-23.7c-0.6,0-1.1-0.5-1.1-1.1v-15c0-0.6,0.5-1.1,1.1-1.1h23.7c0.6,0,1.1,0.5,1.1,1.1V170z
						 M291.1,149.3L291.1,149.3l-0.2,0.1h-0.1h-0.2h-0.1h-0.3h-0.2h-0.1h-0.2h-1h-0.3H288h-0.2h-0.2l0,0c-2.1-0.4-4-1.5-5.3-3.3
						l-0.1-0.1l-0.1-0.1c0-0.1-0.1-0.2-0.2-0.2l-0.1-0.1l-0.1-0.1c0,0,0,0.1,0,0.1c0,0,0,0.1-0.1,0.1l-0.2,0.2l-0.1,0.1
						c0,0,0,0.1-0.1,0.1c-1.3,1.7-3.1,2.9-5.2,3.3l0,0H276h-0.2h-0.2h-0.3h-1H274h-0.2h-0.2h-0.2l0,0c-2.1-0.4-4-1.5-5.2-3.3
						l-0.1-0.1c0-0.1-0.1-0.1-0.1-0.2l-0.1-0.2l-0.1-0.1c0,0,0-0.1,0-0.1l-0.1,0.1c0,0,0,0.1-0.1,0.1c0,0.1-0.1,0.2-0.2,0.2
						l-0.1,0.1l-0.1,0.1l-0.1,0.2l0,0c-1.3,1.6-3.1,2.7-5.1,3.1l0,0h-0.2h-0.2h-0.2h-0.3h-1h-0.3h-0.2h-0.2h-0.2l0,0
						c-2.1-0.4-4-1.5-5.3-3.3l-0.1-0.1l-0.1-0.2l-0.2-0.2l-0.1-0.1c0,0,0-0.1-0.1-0.1v0.1l-0.1,0.1c0,0.1-0.1,0.2-0.2,0.2l-0.1,0.1
						c0,0,0,0.1-0.1,0.1c0,0.1-0.1,0.1-0.1,0.2l0,0c-1.3,1.6-3.1,2.7-5.1,3.1l0,0h-0.2h-0.2h-0.2h-0.3h-1h-0.3h-0.2h-0.2H245l0,0
						c-2.1-0.4-4-1.5-5.3-3.3c0,0,0-0.1-0.1-0.1l-0.1-0.2l-0.1-0.2l-0.1-0.1c0,0,0-0.1,0-0.1l-0.1,0.1l-0.1,0.1
						c-0.1,0.1-0.1,0.2-0.2,0.2L239,146l-0.1,0.1l-0.1,0.2l0,0c-1.3,1.6-3.1,2.7-5.1,3.1l0,0h-0.2h-0.2H233h-0.3h-1h-0.2h-0.1H231
						h-0.2h-0.1h-0.2h-0.1l-0.4-0.1h-0.1v28h6.9v-22.3c0-0.6,0.5-1.1,1.1-1.1c0,0,0,0,0,0h14.2c0.6,0,1.1,0.5,1.1,1.1v22.3h38.4v-28
						l-0.3,0.1L291.1,149.3z"/>
				</g>
				<path class="st2" d="M247.5,83.8h-0.8c-0.3-1.9-1-3.7-2.2-5.3l0.5-0.5c0.7-0.7,0.8-1.8,0.1-2.5c-0.7-0.7-1.8-0.8-2.5-0.1
					c0,0-0.1,0.1-0.1,0.1L242,76c-1.6-1.1-3.4-1.9-5.3-2.2v-0.7c0-1-0.8-1.8-1.8-1.8c-1,0-1.8,0.8-1.8,1.8v0.7
					c-1.9,0.3-3.7,1-5.2,2.2l-0.5-0.5c-0.7-0.7-1.9-0.6-2.5,0.1c-0.6,0.7-0.6,1.8,0,2.4l0.5,0.5c-1.1,1.6-1.9,3.4-2.2,5.3h-0.7
					c-1,0-1.8,0.8-1.8,1.8s0.8,1.8,1.8,1.8h0.7c0.3,1.9,1,3.7,2.2,5.3l-0.5,0.5c-0.7,0.7-0.7,1.8,0,2.5c0.7,0.7,1.8,0.7,2.5,0
					l0.5-0.5c1.6,1.1,3.4,1.9,5.3,2.2v0.8c0,1,0.8,1.8,1.8,1.8c1,0,1.8-0.8,1.8-1.8v-0.8c1.9-0.3,3.7-1,5.2-2.2l0.5,0.5
					c0.7,0.7,1.8,0.7,2.5,0c0.7-0.7,0.7-1.8,0-2.5l-0.5-0.5c1.2-1.6,1.9-3.4,2.2-5.3h0.8c1,0,1.8-0.8,1.8-1.8S248.5,83.8,247.5,83.8
					L247.5,83.8z M235,93.9c-4.6,0-8.3-3.7-8.3-8.4s3.7-8.3,8.4-8.3c4.6,0,8.3,3.7,8.3,8.3C243.3,90.2,239.6,93.9,235,93.9z"/>
				<path class="st2" d="M296.7,77H296c-0.3-1.9-1-3.7-2.2-5.3l0.5-0.5c0.7-0.7,0.7-1.8,0-2.5c-0.7-0.7-1.8-0.7-2.5,0l0,0l-0.5,0.5
					c-1.6-1.2-3.4-1.9-5.3-2.2v-0.8c0-1-0.8-1.8-1.8-1.8c-1,0-1.8,0.8-1.8,1.8V67c-1.9,0.3-3.7,1-5.3,2.2l-0.5-0.5
					c-0.7-0.7-1.8-0.7-2.5,0c-0.7,0.7-0.7,1.8,0,2.5l0.5,0.5c-1.2,1.6-1.9,3.4-2.2,5.3h-0.7c-1,0-1.8,0.8-1.8,1.8
					c0,1,0.8,1.8,1.8,1.8h0.7c0.3,1.9,1,3.7,2.2,5.3l-0.5,0.5c-0.7,0.7-0.6,1.9,0.1,2.5c0.7,0.6,1.8,0.6,2.4,0l0.5-0.5
					c1.6,1.1,3.4,1.9,5.3,2.2v0.7c0,1,0.8,1.8,1.8,1.8c1,0,1.8-0.8,1.8-1.8v-0.7c1.9-0.3,3.7-1,5.3-2.2l0.5,0.5
					c0.3,0.3,0.8,0.5,1.3,0.5c1,0,1.8-0.8,1.7-1.8c0-0.4-0.2-0.8-0.5-1.2l-0.5-0.5c1.2-1.6,1.9-3.4,2.2-5.4h0.8c1,0,1.8-0.8,1.8-1.8
					S297.7,77,296.7,77L296.7,77z M284.2,87.1c-4.6,0-8.3-3.7-8.3-8.4c0-4.6,3.7-8.3,8.4-8.3c4.6,0,8.3,3.7,8.3,8.3
					C292.5,83.4,288.8,87.1,284.2,87.1z"/>
				<path class="st2" d="M270.9,91.9h-0.6c-0.2-1.4-0.8-2.8-1.6-4l0.4-0.4c0.5-0.5,0.5-1.4,0-1.9c-0.5-0.5-1.4-0.5-1.9,0l-0.4,0.4
					c-1.2-0.9-2.6-1.4-4-1.6v-0.6c0.1-0.7-0.5-1.4-1.2-1.5s-1.4,0.5-1.5,1.2c0,0.1,0,0.2,0,0.2v0.6c-1.4,0.2-2.8,0.8-4,1.6l-0.4-0.4
					c-0.5-0.5-1.4-0.5-1.9,0c-0.5,0.5-0.5,1.4,0,1.9c0,0,0,0,0,0l0.4,0.4c-0.9,1.2-1.4,2.6-1.6,4H252c-0.7,0.1-1.3,0.7-1.2,1.5
					c0.1,0.7,0.6,1.2,1.2,1.2h0.6c0.2,1.4,0.8,2.8,1.6,4l-0.4,0.4c-0.5,0.5-0.5,1.4,0,1.9c0.3,0.3,0.6,0.4,1,0.4
					c0.4,0,0.7-0.1,0.9-0.4l0.4-0.4c1.2,0.9,2.5,1.4,4,1.7v0.6c0.1,0.7,0.7,1.3,1.5,1.2c0.7-0.1,1.2-0.6,1.2-1.2v-0.6
					c1.4-0.2,2.8-0.8,4-1.7l0.4,0.4c0.3,0.3,0.6,0.4,1,0.4c0.7,0,1.3-0.6,1.3-1.4c0-0.4-0.1-0.7-0.4-0.9l-0.4-0.4
					c0.9-1.2,1.4-2.6,1.6-4h0.6c0.7,0.1,1.4-0.5,1.5-1.2c0.1-0.7-0.5-1.4-1.2-1.5C271.1,91.9,271,91.9,270.9,91.9L270.9,91.9z
					 M261.5,99.5c-3.5,0-6.3-2.8-6.3-6.3c0-3.5,2.8-6.3,6.3-6.3s6.3,2.8,6.3,6.3c0,0,0,0,0,0C267.8,96.7,264.9,99.5,261.5,99.5z"/>
				<path class="st2" d="M266.8,70h-0.6c-0.2-1.4-0.8-2.8-1.6-4l0.4-0.4c0.5-0.5,0.5-1.4,0-1.9s-1.4-0.5-1.9,0l-0.4,0.4
					c-1.2-0.9-2.6-1.4-4-1.6V62c0.1-0.7-0.4-1.4-1.2-1.5c-0.7-0.1-1.4,0.4-1.5,1.2c0,0.1,0,0.2,0,0.3v0.6c-1.4,0.2-2.8,0.8-4,1.6
					l-0.4-0.4c-0.5-0.5-1.4-0.5-1.9,0c-0.5,0.5-0.5,1.4,0,1.9c0,0,0,0,0,0l0.4,0.4c-0.9,1.2-1.4,2.6-1.6,4H248
					c-0.7,0-1.3,0.6-1.3,1.3c0,0.7,0.6,1.3,1.3,1.3h0.6c0.2,1.4,0.8,2.8,1.6,4l-0.4,0.4c-0.5,0.5-0.5,1.4,0,1.9
					c0.3,0.3,0.6,0.4,1,0.4c0.4,0,0.7-0.1,1-0.4l0.4-0.4c1.2,0.9,2.6,1.4,4,1.6v0.6c-0.1,0.7,0.5,1.4,1.2,1.5s1.4-0.5,1.5-1.2
					c0-0.1,0-0.2,0-0.2v-0.6c1.4-0.2,2.8-0.8,4-1.6l0.4,0.4c0.3,0.3,0.6,0.4,1,0.4c0.7,0,1.4-0.5,1.4-1.3c0-0.4-0.1-0.7-0.4-1
					l-0.4-0.4c0.9-1.2,1.4-2.6,1.6-4h0.6c0.7,0,1.3-0.6,1.3-1.3c0-0.7-0.6-1.3-1.3-1.3L266.8,70z M257.4,77.6
					c-3.5,0-6.3-2.8-6.3-6.3c0-3.5,2.8-6.3,6.3-6.3c3.5,0,6.3,2.8,6.3,6.3c0,0,0,0,0,0C263.7,74.8,260.9,77.6,257.4,77.6
					C257.4,77.6,257.4,77.6,257.4,77.6L257.4,77.6z"/>
				<path class="st2" d="M178,139.5c-7.5,0-13,5.1-13,12c0,1.1,0.9,2,2,2s2-0.9,2-2c-0.1-2.9,1.5-5.6,4-7v31c0,1.1,0.9,2,2,2
					s2-0.9,2-2v-15h2v15c0,1.1,0.9,2,2,2s2-0.9,2-2v-31c2.5,1.4,4.1,4.1,4,7c0,1.1,0.9,2,2,2s2-0.9,2-2
					C191,144.6,185.5,139.5,178,139.5z"/>
				<circle class="st2" cx="178" cy="133.5" r="4"/>
			</g>
			<g id="three">
				<g class="st0">
					<path class="st1" d="M376.9,140.2h36.8v-3.4h-36.8V140.2z M376.6,141.8h37.2l4.1,7.1h-45.4L376.6,141.8z M408.5,155.2
						C408.5,155.2,408.5,155.2,408.5,155.2l-0.1,0.2l0,0c-0.7,0.9-1.7,1.5-2.8,1.7h-1.1c-1.1-0.2-2.1-0.8-2.8-1.7l0,0l-0.1-0.1
						c0,0,0,0,0-0.1c0,0,0-0.1,0-0.1l0-0.1c0,0,0-0.1,0-0.1c0,0,0-0.1,0-0.1c0,0,0-0.1,0-0.1c0,0,0-0.1,0-0.1l-0.1-0.1v-0.1v-0.1
						v-0.1c0,0,0-0.1,0-0.1c-0.1-0.4-0.2-0.8-0.2-1.1v-2.7l7.5,0v2.7c0,0.4-0.1,0.8-0.2,1.1v0.1v0.1v0.1v0.1c0,0,0,0.1,0,0.1
						l-0.1,0.1c0,0,0,0.1,0,0.1v0.1v0.1 M399.3,150.4v2.7c0,0.4-0.1,0.8-0.2,1.1c0,0,0,0.1,0,0.1v0.1c0,0,0,0.1,0,0.1v0.1
						c0,0,0,0.1,0,0.1l-0.1,0.1c0,0,0,0.1,0,0.1v0.1v0.1v0.1l0,0.1v0.1l-0.1,0.1l0,0c-0.7,0.9-1.7,1.5-2.8,1.7h-1.1
						c-1.1-0.2-2.1-0.8-2.8-1.7l0,0l-0.1-0.1v-0.1l0-0.1V155c0,0,0-0.1,0-0.1c0,0,0-0.1,0-0.1c0,0,0-0.1,0-0.1c0,0,0-0.1,0-0.1
						l-0.1-0.1c0,0,0,0,0-0.1c0,0,0-0.1,0-0.1v-0.1c0,0,0-0.1,0-0.1c-0.1-0.4-0.2-0.8-0.2-1.1v-2.7L399.3,150.4z M389.7,150.4v2.7
						c0,0.4-0.1,0.8-0.2,1.1v0.1v0.1v0.1v0.1c0,0,0,0.1,0,0.1l-0.1,0.1v0.1l0,0.1v0.1c0,0,0,0.1,0,0.1c0,0,0,0.1,0,0.1
						c0,0,0,0,0,0.1l-0.1,0.1l0,0c-0.7,0.9-1.7,1.5-2.8,1.7h-1.1c-1.1-0.1-2.1-0.8-2.8-1.7l0,0l-0.1-0.1c0,0,0,0,0-0.1
						c0,0,0-0.1,0-0.1c0,0,0,0,0-0.1l0-0.1v-0.1c0,0,0-0.1,0-0.1l0-0.1l-0.1-0.1v-0.1c0,0,0-0.1,0-0.1v-0.1v-0.1
						c-0.1-0.4-0.2-0.8-0.2-1.1v-2.7L389.7,150.4z M374.3,156.7l-0.2-0.1c-1.3-0.7-2.1-2.1-2.1-3.6v-2.7h8.1v2.7
						c0,0.4-0.1,0.8-0.2,1.1v0.1v0.1v0.1v0.1c0,0,0,0.1,0,0.1l-0.1,0.1c0,0,0,0.1,0,0.1v0.1v0.1c0,0,0,0.1,0,0.1c0,0,0,0.1,0,0.1
						c0,0,0,0,0,0.1l-0.1,0.1l0,0c-0.7,0.9-1.7,1.5-2.8,1.7h-1.1h-0.2l0,0c-0.2,0-0.3-0.1-0.5-0.1l0,0l-0.2-0.1H375l-0.2-0.1h-0.1
						 M381.1,177.3h8.1v-14.4h-8.1V177.3z M419,153.1c0,1.5-0.8,2.8-2.1,3.6l-0.2,0.1l0,0l-0.2,0.1l0,0l-0.2,0.1l0,0
						c-0.2,0.1-0.3,0.1-0.5,0.1l0,0h-0.2h-1.7c-1.1-0.1-2.1-0.8-2.8-1.7l0,0l-0.1-0.1c0,0,0,0,0-0.1c0,0,0-0.1,0-0.1
						c0,0,0-0.1,0-0.1V155v-0.1c0,0,0-0.1,0-0.1l-0.1-0.1c0,0,0-0.1,0-0.1v-0.1v-0.1v-0.1v-0.1c-0.1-0.4-0.2-0.8-0.2-1.1v-2.7h8.1
						L419,153.1z M412,172.3c0,0.4-0.3,0.7-0.7,0.7h-16c-0.4,0-0.7-0.3-0.7-0.7c0,0,0,0,0,0v-10.1c0-0.4,0.3-0.7,0.7-0.7
						c0,0,0,0,0,0h16c0.4,0,0.7,0.3,0.7,0.7V172.3z M415.9,158.4L415.9,158.4h-0.1h-0.1h-0.1h-0.1h-0.2h-0.1H414h-0.1h-0.1h-0.1l0,0
						c-1.4-0.2-2.7-1-3.5-2.2l-0.1-0.1c0,0,0-0.1-0.1-0.1l-0.1-0.2c0,0,0-0.1,0-0.1v-0.1v0.1c0,0,0,0.1,0,0.1l-0.1,0.2
						c0,0-0.1,0.1-0.1,0.1l-0.1,0.1c-0.8,1.2-2.1,2-3.5,2.2l0,0h-0.1h-0.1h-0.1h-1h-0.1h-0.1h-0.1l0,0c-1.4-0.2-2.7-1-3.5-2.2l0-0.1
						l-0.1-0.1l-0.1-0.2c0,0,0-0.1,0-0.1v-0.1c0,0,0,0,0,0.1l0,0.1c0,0.1-0.1,0.1-0.1,0.2c0,0,0,0.1-0.1,0.1v0.1l-0.1,0.1l0,0
						c-0.8,1.1-2.1,1.9-3.5,2.1l0,0h-0.1h-0.1h-0.1h-1H395h-0.1h-0.1l0,0c-1.4-0.2-2.7-1-3.5-2.2v-0.1c0,0-0.1-0.1-0.1-0.1
						c0-0.1-0.1-0.1-0.1-0.2c0,0,0-0.1,0-0.1v-0.1v0.1c0,0,0,0.1,0,0.1l-0.1,0.2l-0.1,0.1l0,0.1l-0.1,0.1l0,0
						c-0.8,1.1-2.1,1.9-3.5,2.1l0,0H387h-0.1h-0.1h-1h-0.1h-0.1h-0.1l0,0c-1.4-0.2-2.7-1-3.5-2.2v-0.1l-0.1-0.1l-0.1-0.2l-0.1-0.1
						v-0.1v0.1c0,0,0,0.1,0,0.1l-0.1,0.2c0,0-0.1,0.1-0.1,0.1l-0.1,0.1l-0.1,0.1l0,0c-0.9,1.1-2.1,1.8-3.5,2.1l0,0h-0.1h-0.1h-0.1
						h-1.1H376h-0.1h-0.1h-0.1h-0.1l-0.3-0.1h-0.1v18.9h4.6v-15c0-0.4,0.3-0.7,0.7-0.7h9.6c0.4,0,0.7,0.3,0.7,0.7v15h25.9v-18.9
						h-0.2L415.9,158.4z"/>
				</g>
				<path class="st2" d="M386.5,96h-44.1c-0.6,0-1,0.4-1,1v18c0,0.6,0.4,1,1,1h44.1c0.6,0,1-0.4,1-1V97
					C387.5,96.4,387.1,96,386.5,96z M348.5,109c-1.7,0-3-1.3-3-3s1.3-3,3-3s3,1.3,3,3C351.5,107.7,350.2,109,348.5,109
					C348.5,109,348.5,109,348.5,109L348.5,109z M364.5,113c-3.9,0-7-3.1-7-7s3.1-7,7-7s7,3.1,7,7C371.5,109.9,368.4,113,364.5,113
					C364.5,113,364.5,113,364.5,113L364.5,113z M380.5,109c-1.7,0-3-1.3-3-3s1.3-3,3-3s3,1.3,3,3C383.5,107.7,382.2,109,380.5,109
					C380.5,109,380.5,109,380.5,109L380.5,109z"/>
				<path class="st2" d="M385,123h-39.4l1.4-1.4c0.6-0.6,0.6-1.5,0-2.1c-0.6-0.6-1.5-0.6-2.1,0l-4,4c-0.1,0.1-0.3,0.3-0.3,0.5l0,0
					c-0.1,0.3-0.1,0.7,0,1.1l0,0c0.1,0.2,0.2,0.4,0.3,0.5l4,4c0.6,0.6,1.5,0.6,2.1,0c0.6-0.6,0.6-1.5,0-2.1l-1.4-1.4H385
					c0.8,0,1.5-0.7,1.5-1.5S385.8,123,385,123L385,123z"/>
				<path class="st2" d="M388.4,86.9L388.4,86.9c-0.1-0.2-0.2-0.4-0.3-0.5l-4-4c-0.6-0.6-1.5-0.6-2.1,0c-0.6,0.6-0.6,1.5,0,2.1
					l1.4,1.4H344c-0.8,0-1.5,0.7-1.5,1.5s0.7,1.5,1.5,1.5h39.4l-1.4,1.4c-0.6,0.6-0.6,1.5,0,2.1c0.6,0.6,1.5,0.6,2.1,0l0,0l4-4
					c0.1-0.1,0.3-0.3,0.3-0.5l0,0C388.6,87.6,388.6,87.2,388.4,86.9L388.4,86.9z"/>
				<g class="st0">
					<path class="st1" d="M308.9,140.2h36.8v-3.4h-36.8V140.2z M308.6,141.8h37.2l4.1,7.1h-45.4L308.6,141.8z M340.5,155.2
						C340.5,155.2,340.5,155.2,340.5,155.2l-0.1,0.2l0,0c-0.7,0.9-1.7,1.5-2.8,1.7h-1.1c-1.1-0.2-2.1-0.8-2.8-1.7l0,0l-0.1-0.1
						c0,0,0,0,0-0.1c0,0,0-0.1,0-0.1l0-0.1c0,0,0-0.1,0-0.1c0,0,0-0.1,0-0.1c0,0,0-0.1,0-0.1c0,0,0-0.1,0-0.1l-0.1-0.1v-0.1v-0.1
						v-0.1c0,0,0-0.1,0-0.1c-0.1-0.4-0.2-0.8-0.2-1.1v-2.7l7.5,0v2.7c0,0.4-0.1,0.8-0.2,1.1v0.1v0.1v0.1v0.1c0,0,0,0.1,0,0.1
						l-0.1,0.1c0,0,0,0.1,0,0.1v0.1v0.1 M331.3,150.4v2.7c0,0.4-0.1,0.8-0.2,1.1c0,0,0,0.1,0,0.1v0.1c0,0,0,0.1,0,0.1v0.1
						c0,0,0,0.1,0,0.1l-0.1,0.1c0,0,0,0.1,0,0.1v0.1v0.1v0.1l0,0.1v0.1l-0.1,0.1l0,0c-0.7,0.9-1.7,1.5-2.8,1.7h-1.1
						c-1.1-0.2-2.1-0.8-2.8-1.7l0,0l-0.1-0.1v-0.1l0-0.1V155c0,0,0-0.1,0-0.1c0,0,0-0.1,0-0.1c0,0,0-0.1,0-0.1c0,0,0-0.1,0-0.1
						l-0.1-0.1c0,0,0,0,0-0.1c0,0,0-0.1,0-0.1v-0.1c0,0,0-0.1,0-0.1c-0.1-0.4-0.2-0.8-0.2-1.1v-2.7L331.3,150.4z M321.7,150.4v2.7
						c0,0.4-0.1,0.8-0.2,1.1v0.1v0.1v0.1v0.1c0,0,0,0.1,0,0.1l-0.1,0.1v0.1l0,0.1v0.1c0,0,0,0.1,0,0.1c0,0,0,0.1,0,0.1
						c0,0,0,0,0,0.1l-0.1,0.1l0,0c-0.7,0.9-1.7,1.5-2.8,1.7h-1.1c-1.1-0.1-2.1-0.8-2.8-1.7l0,0l-0.1-0.1c0,0,0,0,0-0.1
						c0,0,0-0.1,0-0.1c0,0,0,0,0-0.1l0-0.1v-0.1c0,0,0-0.1,0-0.1l0-0.1l-0.1-0.1v-0.1c0,0,0-0.1,0-0.1v-0.1v-0.1
						c-0.1-0.4-0.2-0.8-0.2-1.1v-2.7L321.7,150.4z M306.3,156.7l-0.2-0.1c-1.3-0.7-2.1-2.1-2.1-3.6v-2.7h8.1v2.7
						c0,0.4-0.1,0.8-0.2,1.1v0.1v0.1v0.1v0.1c0,0,0,0.1,0,0.1l-0.1,0.1c0,0,0,0.1,0,0.1v0.1v0.1c0,0,0,0.1,0,0.1c0,0,0,0.1,0,0.1
						c0,0,0,0,0,0.1l-0.1,0.1l0,0c-0.7,0.9-1.7,1.5-2.8,1.7h-1.1h-0.2l0,0c-0.2,0-0.3-0.1-0.5-0.1l0,0l-0.2-0.1H307l-0.2-0.1h-0.1
						 M313.1,177.3h8.1v-14.4h-8.1V177.3z M351,153.1c0,1.5-0.8,2.8-2.1,3.6l-0.2,0.1l0,0l-0.2,0.1l0,0l-0.2,0.1l0,0
						c-0.2,0.1-0.3,0.1-0.5,0.1l0,0h-0.2h-1.7c-1.1-0.1-2.1-0.8-2.8-1.7l0,0l-0.1-0.1c0,0,0,0,0-0.1c0,0,0-0.1,0-0.1
						c0,0,0-0.1,0-0.1V155v-0.1c0,0,0-0.1,0-0.1l-0.1-0.1c0,0,0-0.1,0-0.1v-0.1v-0.1v-0.1v-0.1c-0.1-0.4-0.2-0.8-0.2-1.1v-2.7h8.1
						L351,153.1z M344,172.3c0,0.4-0.3,0.7-0.7,0.7h-16c-0.4,0-0.7-0.3-0.7-0.7c0,0,0,0,0,0v-10.1c0-0.4,0.3-0.7,0.7-0.7
						c0,0,0,0,0,0h16c0.4,0,0.7,0.3,0.7,0.7V172.3z M347.9,158.4L347.9,158.4h-0.1h-0.1h-0.1h-0.1h-0.2h-0.1H346h-0.1h-0.1h-0.1l0,0
						c-1.4-0.2-2.7-1-3.5-2.2l-0.1-0.1c0,0,0-0.1-0.1-0.1l-0.1-0.2c0,0,0-0.1,0-0.1v-0.1v0.1c0,0,0,0.1,0,0.1l-0.1,0.2
						c0,0-0.1,0.1-0.1,0.1l-0.1,0.1c-0.8,1.2-2.1,2-3.5,2.2l0,0h-0.1h-0.1h-0.1h-1h-0.1h-0.1h-0.1l0,0c-1.4-0.2-2.7-1-3.5-2.2l0-0.1
						l-0.1-0.1l-0.1-0.2c0,0,0-0.1,0-0.1v-0.1c0,0,0,0,0,0.1l0,0.1c0,0.1-0.1,0.1-0.1,0.2c0,0,0,0.1-0.1,0.1v0.1l-0.1,0.1l0,0
						c-0.8,1.1-2.1,1.9-3.5,2.1l0,0h-0.1h-0.1h-0.1h-1H327h-0.1h-0.1l0,0c-1.4-0.2-2.7-1-3.5-2.2v-0.1c0,0-0.1-0.1-0.1-0.1
						c0-0.1-0.1-0.1-0.1-0.2c0,0,0-0.1,0-0.1v-0.1v0.1c0,0,0,0.1,0,0.1l-0.1,0.2l-0.1,0.1l0,0.1l-0.1,0.1l0,0
						c-0.8,1.1-2.1,1.9-3.5,2.1l0,0H319h-0.1h-0.1h-1h-0.1h-0.1h-0.1l0,0c-1.4-0.2-2.7-1-3.5-2.2v-0.1l-0.1-0.1l-0.1-0.2l-0.1-0.1
						v-0.1v0.1c0,0,0,0.1,0,0.1l-0.1,0.2c0,0-0.1,0.1-0.1,0.1l-0.1,0.1l-0.1,0.1l0,0c-0.9,1.1-2.1,1.8-3.5,2.1l0,0h-0.1h-0.1h-0.1
						h-1.1H308h-0.1h-0.1h-0.1h-0.1l-0.3-0.1h-0.1v18.9h4.6v-15c0-0.4,0.3-0.7,0.7-0.7h9.6c0.4,0,0.7,0.3,0.7,0.7v15h25.9v-18.9
						h-0.2L347.9,158.4z"/>
				</g>
			</g>
			<g id="two">
				<path class="st2" d="M443.1,99.4l7.5,7.5c0.2,0.2,0.6,0.4,0.9,0.4c0.3,0,0.6-0.1,0.8-0.3l11.3-11.3v5.4c0,0.7,0.6,1.3,1.3,1.3
					c0.7,0,1.3-0.6,1.3-1.3v-8.4c0-0.7-0.6-1.3-1.3-1.3h-8.4c-0.7,0-1.3,0.6-1.3,1.3s0.6,1.3,1.3,1.3c0,0,0,0,0,0h5.4l-10.4,10.4
					l-7.4-7.4c-0.3-0.2-0.6-0.4-0.9-0.4c-0.4,0-0.7,0.1-0.9,0.4l-15.9,15.9c-0.5,0.5-0.4,1.3,0.1,1.8c0.5,0.4,1.2,0.4,1.7,0
					L443.1,99.4z"/>
				<path class="st2" d="M435.6,119.3h-6.7c-0.8-0.1-1.6,0.5-1.7,1.3v11.6c0.1,0.8,0.9,1.4,1.7,1.3h6.7c0.8,0.1,1.6-0.5,1.7-1.3
					v-11.6C437.2,119.8,436.4,119.2,435.6,119.3z"/>
				<path class="st2" d="M450.7,112.2h-6.6c-0.8-0.1-1.6,0.5-1.7,1.3v18.6c0.1,0.8,0.9,1.4,1.7,1.3h6.6c0.8,0.1,1.6-0.5,1.7-1.3
					v-18.6C452.3,112.7,451.5,112.1,450.7,112.2z"/>
				<path class="st2" d="M465.8,105.1h-6.7c-0.8-0.1-1.6,0.5-1.7,1.3v25.7c0.1,0.8,0.9,1.4,1.7,1.3h6.7c0.8,0.1,1.6-0.5,1.7-1.3
					v-25.7C467.4,105.6,466.6,105,465.8,105.1z"/>
				<g class="st0">
					<path class="st2" d="M477.9,163l-7.2,7.2c-1.5,1.7-1.4,4.3,0.3,5.8c1.6,1.4,4,1.4,5.5,0l7.2-7.2
						C481.4,167.2,479.5,165.3,477.9,163z"/>
					<path class="st2" d="M497.5,129.2c-11,0-20,9-20,20s9,20,20,20s20-9,20-20S508.5,129.2,497.5,129.2z M508.5,159.4
						c-5.6,6.1-15.1,6.4-21.2,0.8c-3.1-2.8-4.8-6.8-4.8-11c0-8.3,6.7-15,15-15c8.3,0,15,6.7,15,15
						C512.5,153,511.1,156.6,508.5,159.4z"/>
					<path class="st2" d="M508.9,147.8l-6-6c-0.7-0.8-2-0.9-2.8-0.1s-0.9,2-0.1,2.8c0,0,0.1,0.1,0.1,0.1l2.6,2.6h-15.2
						c-1.1,0-2,0.9-2,2s0.9,2,2,2h15.2l-2.6,2.6c-0.7,0.8-0.7,2.1,0.1,2.8c0.8,0.7,1.9,0.7,2.7,0l6-6
						C509.7,149.8,509.7,148.6,508.9,147.8z"/>
				</g>
			</g>
			<g id="one">
				<path class="st3" d="M46.7,152.5l-6.2-4.9l1.3-1.3c1-1,1-2.7,0-3.7s-2.7-1-3.7,0l-2.1,2.1l-0.4-0.4c-1-1-2.7-1-3.7,0
					s-1,2.7,0,3.7l0.4,0.4l-1,1H5.5c-3,0-5.5,2.5-5.5,5.5v9.1c0,1.1,0.9,2,2,2s2-0.9,2-2V155c0-0.8,0.7-1.5,1.5-1.5H6v21
					c0,1.7,1.3,3,3,3s3-1.3,3-3v-6h1.8c4.1,4.8,11.4,5.4,16.2,1.2c0.4-0.4,0.9-0.8,1.2-1.2H33v6c0,1.7,1.3,3,3,3s3-1.3,3-3v-16h5.7
					c1.8,0,3.3-1.5,3.3-3.3C48,154.1,47.5,153.2,46.7,152.5z"/>
				<path class="st3" d="M27.9,44.3h9.2c0,6.1,4.9,11.1,11.1,11.1c0,0,0,0,0,0h18.5c6.1-0.2,10.9-5.3,10.7-11.4
					c-0.2-5.9-4.9-10.6-10.7-10.7H55.4c-0.9-4.3-4.6-7.4-9-7.4H27.9c-5.1,0-9.2,4.1-9.2,9.2C18.7,40.2,22.8,44.3,27.9,44.3z"/>
				<path class="st2" d="M81.1,150.9h0.9v-2.8c0-2.6-2.1-4.6-4.6-4.6h-0.9v2.8C76.5,148.9,78.6,150.9,81.1,150.9z"/>
				<path class="st2" d="M81.1,159.3h0.9v-2.8c0-2.6-2.1-4.6-4.6-4.6h-0.9v2.8C76.5,157.2,78.6,159.3,81.1,159.3z"/>
				<path class="st2" d="M82.1,164.9c0-2.6-2.1-4.6-4.6-4.6h-0.9v2.8c0,2.6,2.1,4.6,4.6,4.6h0.9V164.9z"/>
				<path class="st2" d="M84.9,148.1v2.8h0.9c2.6,0,4.6-2.1,4.6-4.6v-2.8h-0.9C86.9,143.5,84.9,145.6,84.9,148.1z"/>
				<path class="st2" d="M84.9,156.5v2.8h0.9c2.6,0,4.6-2.1,4.6-4.6v-2.8h-0.9C86.9,151.9,84.9,153.9,84.9,156.5z"/>
				<path class="st2" d="M84.9,164.9v2.8h0.9c2.6,0,4.6-2.1,4.6-4.6v-2.8h-0.9C86.9,160.2,84.9,162.3,84.9,164.9z"/>
				<path class="st2" d="M82.1,174.6c0.1,0.8,0.7,1.3,1.5,1.3c0.7-0.1,1.2-0.6,1.3-1.3v-5.1h-2.8V174.6z"/>
				<path class="st2" d="M77.9,141.6c0.8,0,1.4-0.6,1.4-1.4v-3.7c0.1-0.8-0.5-1.4-1.3-1.5c-0.8-0.1-1.4,0.5-1.5,1.3
					c0,0.1,0,0.2,0,0.2v3.7C76.5,141,77.1,141.6,77.9,141.6z"/>
				<path class="st2" d="M89,135.1c-0.8,0-1.4,0.6-1.4,1.4v3.7c0.1,0.8,0.7,1.3,1.5,1.3c0.7-0.1,1.2-0.6,1.3-1.3v-3.7
					C90.4,135.8,89.8,135.1,89,135.1z"/>
				<path class="st2" d="M83.5,144.4c0.8,0,1.4-0.6,1.4-1.4v-10.2c-0.1-0.8-0.7-1.3-1.5-1.3c-0.7,0.1-1.2,0.6-1.3,1.3V143
					C82.1,143.8,82.7,144.4,83.5,144.4C83.4,144.4,83.5,144.4,83.5,144.4z"/>
				<path class="st2" d="M102.8,151.1l0.9,0.2l0.7-2.7c0.7-2.5-0.8-5-3.3-5.7c0,0,0,0,0,0l-0.9-0.2l-0.7,2.7
					C98.8,147.9,100.3,150.5,102.8,151.1C102.8,151.1,102.8,151.1,102.8,151.1z"/>
				<path class="st2" d="M100.6,159.2l0.9,0.2l0.7-2.7c0.7-2.5-0.8-5-3.3-5.7c0,0,0,0,0,0l-0.9-0.2l-0.7,2.7
					C96.6,156,98.1,158.5,100.6,159.2z"/>
				<path class="st2" d="M99.3,167.5l0.7-2.7c0.7-2.5-0.8-5-3.3-5.7l-0.9-0.2l-0.7,2.7c-0.7,2.5,0.8,5,3.3,5.7c0,0,0,0,0,0
					L99.3,167.5z"/>
				<path class="st2" d="M107.1,149.4l-0.7,2.7l0.9,0.2c2.5,0.7,5-0.8,5.7-3.3l0.7-2.7l-0.9-0.2
					C110.3,145.5,107.7,146.9,107.1,149.4z"/>
				<path class="st2" d="M104.9,157.5l-0.7,2.7l0.9,0.2c2.5,0.7,5-0.8,5.7-3.3l0.7-2.7l-0.9-0.2C108.1,153.5,105.6,155,104.9,157.5z
					"/>
				<path class="st2" d="M102.7,165.6l-0.7,2.7l0.9,0.2c2.5,0.7,5-0.8,5.7-3.3l0.7-2.7l-0.9-0.2C106,161.6,103.4,163.1,102.7,165.6
					C102.7,165.5,102.7,165.5,102.7,165.6z"/>
				<path class="st2" d="M97.5,174.2c-0.2,0.7,0.2,1.5,1,1.7s1.5-0.2,1.7-1l1.3-4.9l-2.7-0.7L97.5,174.2z"/>
				<path class="st2" d="M102,141.3c0.7,0.2,1.5-0.3,1.7-1c0,0,0,0,0,0l1-3.6c0.2-0.7-0.2-1.5-1-1.7c-0.7-0.2-1.5,0.2-1.7,1l-1,3.6
					C100.8,140.3,101.2,141.1,102,141.3C102,141.3,102,141.3,102,141.3z"/>
				<path class="st2" d="M114.5,137.9c-0.7-0.2-1.5,0.2-1.7,1c0,0,0,0,0,0l-1,3.6c-0.2,0.7,0.2,1.5,1,1.7s1.5-0.2,1.7-1l0,0l1-3.6
					C115.7,138.9,115.2,138.2,114.5,137.9C114.5,137.9,114.5,137.9,114.5,137.9z"/>
				<path class="st2" d="M106.7,145.5c0.7,0.2,1.5-0.3,1.7-1c0,0,0,0,0,0l2.6-9.9c0.2-0.7-0.2-1.5-1-1.7c-0.7-0.2-1.5,0.2-1.7,1l0,0
					l-2.6,9.9C105.5,144.5,105.9,145.3,106.7,145.5z"/>
				<g class="st0">
					<circle class="st2" cx="201.7" cy="24" r="24"/>
					<path class="st2" d="M133.6,83.5c-7.3-12.9-26.2-12.9-33.6,0l-51.1,89c-0.8,1.5-0.3,3.4,1.2,4.3c0.5,0.3,1,0.4,1.6,0.4h62.1
						l2.1-3.6l34.6-60.6L133.6,83.5z"/>
					<path class="st2" d="M225.2,171.6l-36.7-64.1c-4.1-7.3-13.3-9.9-20.6-5.8c-2.4,1.4-4.5,3.4-5.8,5.8l-7.4,13l-32.4,56.8h99.6
						c2.1,0,3.8-1.7,3.8-3.8C225.7,172.8,225.5,172.1,225.2,171.6z"/>
				</g>
			</g>
		</g>
	</g>
</g>
</svg>
