<svg xmlns="http://www.w3.org/2000/svg" width="114.5" height="95.2" viewBox="0 0 114.5 95.2"><defs><style>.cls-1{opacity:0.5;}.cls-2,.cls-3{fill:#fff;}.cls-2{fill-rule:evenodd;}</style></defs><title>cbt03</title><g id="Layer_2" data-name="Layer 2"><g id="Layer_1-2" data-name="Layer 1"><g class="cls-1"><path class="cls-2" d="M72.89,58.25H109.7v-3.4H72.89Zm-.3,1.55h37.23L114,66.91H68.53Zm32.32,8.58v2.67a3.88,3.88,0,0,1-.17,1.14l0,.12,0,.06,0,.1,0,.08a1.17,1.17,0,0,1-.05.11l-.06.13,0,.08,0,.09,0,.07a.56.56,0,0,1,0,.08.56.56,0,0,1,0,.08.43.43,0,0,1,0,.07l-.06.09,0,0a4.06,4.06,0,0,1-2.78,1.68h-1.07a4.08,4.08,0,0,1-2.79-1.69l0,0-.06-.09a.16.16,0,0,1,0-.07.22.22,0,0,1-.05-.08l0-.07a.59.59,0,0,0,0-.08.36.36,0,0,1,0-.09.2.2,0,0,1,0-.08.47.47,0,0,1-.05-.1l-.06-.15,0-.07,0-.1,0-.06a.56.56,0,0,0,0-.12,4.24,4.24,0,0,1-.16-1.14V68.38Zm-9.6,0v2.67a4.24,4.24,0,0,1-.16,1.14.56.56,0,0,1,0,.12l0,.06a.42.42,0,0,1,0,.1l0,.08s0,.08,0,.11l-.06.13,0,.08,0,.09,0,.07,0,.08,0,.08,0,.07-.06.09,0,0a4.1,4.1,0,0,1-2.78,1.68H90.71a4.06,4.06,0,0,1-2.78-1.69l0,0-.06-.09,0-.07,0-.08,0-.07a.56.56,0,0,0,0-.08.36.36,0,0,0,0-.09l0-.08,0-.1-.06-.15a.14.14,0,0,1,0-.07.42.42,0,0,1,0-.1l0-.06a.56.56,0,0,1,0-.12,4.24,4.24,0,0,1-.16-1.14V68.38Zm-9.59,0v2.67a3.88,3.88,0,0,1-.17,1.14l0,.12,0,.06,0,.1,0,.08a.37.37,0,0,1-.05.11l-.06.13,0,.08-.05.09,0,.07a.56.56,0,0,1,0,.08.22.22,0,0,1-.05.08.16.16,0,0,1,0,.07l-.06.09,0,0a4.06,4.06,0,0,1-2.78,1.68H81.12a4,4,0,0,1-2.78-1.69l0,0-.06-.09a.43.43,0,0,1,0-.07.22.22,0,0,1,0-.08.25.25,0,0,1,0-.07L78.07,73l0-.09a.2.2,0,0,1,0-.08l0-.1-.06-.15,0-.07a.42.42,0,0,0,0-.1l0-.06,0-.12a3.88,3.88,0,0,1-.17-1.14V68.38ZM70.31,74.71l-.19-.1A4.07,4.07,0,0,1,68,71.05V68.38h8.13v2.67A3.88,3.88,0,0,1,76,72.19l0,.12,0,.06,0,.1,0,.08a1.17,1.17,0,0,1,0,.11l-.06.13,0,.08,0,.09L75.6,73a.2.2,0,0,1,0,.08.56.56,0,0,1,0,.08.43.43,0,0,1,0,.07l-.06.09,0,0a4.08,4.08,0,0,1-2.78,1.68H71.52l-.21,0h0a4.21,4.21,0,0,1-.48-.12l0,0-.18-.06-.06,0-.16-.07-.06,0M76.59,95.2h8.12V80.92H76.59ZM114.5,71.05a4.08,4.08,0,0,1-2.09,3.55l-.19.09h0l-.22.1,0,0-.2.07h0a3,3,0,0,1-.49.13h0l-.23,0H109.9a4.06,4.06,0,0,1-2.78-1.68l0,0-.06-.09a.43.43,0,0,1,0-.07.56.56,0,0,1,0-.08.2.2,0,0,1,0-.08l-.05-.07,0-.09,0-.08-.06-.12a.61.61,0,0,0,0-.12l0-.08,0-.1,0-.06,0-.12a3.88,3.88,0,0,1-.17-1.14V68.38h8.13ZM108,90.32a.74.74,0,0,1-.73.74h-16a.73.73,0,0,1-.73-.74V80.19a.73.73,0,0,1,.73-.74h16a.74.74,0,0,1,.73.74Zm3.91-13.94h0l-.15,0-.08,0-.14,0-.1,0-.2,0-.15,0h-1.11l-.15,0h-.11l-.15,0h0A5.52,5.52,0,0,1,106,74.28l-.06-.07a.61.61,0,0,0-.07-.1l-.1-.17a.35.35,0,0,1,0-.08,0,0,0,1,0-.08,0,.35.35,0,0,1,0,.08l-.1.17a.61.61,0,0,0-.07.1l-.06.07a5.52,5.52,0,0,1-3.54,2.21h0l-.15,0h-.11l-.15,0h-1l-.14,0h-.11l-.15,0h0a5.52,5.52,0,0,1-3.55-2.21l0-.07-.07-.1-.11-.17a.22.22,0,0,0,0-.08l0-.06a.21.21,0,0,0,0,.06l-.05.08a1.63,1.63,0,0,1-.11.17.61.61,0,0,1-.07.1l0,.07-.09.12h0a5.54,5.54,0,0,1-3.45,2.09h0l-.15,0H91.9l-.14,0h-1l-.14,0h-.12l-.15,0h0a5.52,5.52,0,0,1-3.54-2.21l0-.07a.61.61,0,0,1-.07-.1,1.63,1.63,0,0,1-.11-.17.56.56,0,0,0-.05-.08l0-.06,0,.06a.35.35,0,0,0,0,.08l-.11.17-.07.1,0,.07-.09.12h0a5.54,5.54,0,0,1-3.46,2.09h0l-.15,0h-.11l-.14,0h-1l-.15,0h-.11l-.15,0h0a5.57,5.57,0,0,1-3.55-2.21l0-.07-.08-.1-.1-.17-.06-.08,0-.06,0,.06a.35.35,0,0,1,0,.08l-.1.17a.61.61,0,0,0-.07.1l-.06.07-.08.12h0A5.59,5.59,0,0,1,73,76.49h0l-.15,0h-.11l-.15,0h-1.1l-.22,0-.13,0-.1,0-.14,0H70.8l-.26-.07-.07,0V95.2h4.65v-15a.74.74,0,0,1,.73-.74h9.6a.74.74,0,0,1,.73.74v15h25.88V76.33l-.17,0Z"/></g><path class="cls-3" d="M82.53,14H38.47a1,1,0,0,0-1,1V33a1,1,0,0,0,1,1H82.53a1,1,0,0,0,1-1V15A1,1,0,0,0,82.53,14Zm-38,13a3,3,0,1,1,3-3A3,3,0,0,1,44.5,27Zm16,4a7,7,0,1,1,7-7A7,7,0,0,1,60.5,31Zm16-4a3,3,0,1,1,3-3A3,3,0,0,1,76.5,27Z"/><path class="cls-3" d="M81,41H41.62L43,39.65a1.5,1.5,0,0,0-2.13-2.12l-4,3.95a1.63,1.63,0,0,0-.33.49v0a1.41,1.41,0,0,0,0,1.09v0a1.56,1.56,0,0,0,.33.5l4,4a1.51,1.51,0,0,0,2.13,0,1.51,1.51,0,0,0,0-2.12L41.62,44H81a1.5,1.5,0,0,0,0-3Z"/><path class="cls-3" d="M84.39,4.91v0a1.56,1.56,0,0,0-.33-.5l-4-3.95A1.51,1.51,0,0,0,78,.44a1.51,1.51,0,0,0,0,2.12L79.38,4H40a1.5,1.5,0,0,0,0,3H79.38L78,8.35a1.5,1.5,0,0,0,2.13,2.12l4-4A1.63,1.63,0,0,0,84.39,6V6a1.41,1.41,0,0,0,0-1.09Z"/><g class="cls-1"><path class="cls-2" d="M4.89,58.25H41.7v-3.4H4.89Zm-.3,1.55H41.82L46,66.91H.53Zm32.32,8.58v2.67a3.88,3.88,0,0,1-.17,1.14l0,.12,0,.06,0,.1,0,.08a1.17,1.17,0,0,1,0,.11l-.06.13a.3.3,0,0,1,0,.08l0,.09,0,.07a1538627839384.23,1538627839384.23,0,0,1-.1.16.43.43,0,0,1,0,.07l-.06.09,0,0a4.06,4.06,0,0,1-2.78,1.68H32.31a4.08,4.08,0,0,1-2.79-1.69l0,0-.06-.09a.16.16,0,0,1,0-.07.22.22,0,0,1,0-.08L29.3,73l0-.08a.36.36,0,0,1,0-.09.2.2,0,0,1,0-.08.47.47,0,0,1-.05-.1l-.06-.15,0-.07,0-.1,0-.06a.56.56,0,0,0,0-.12,4.24,4.24,0,0,1-.16-1.14V68.38Zm-9.6,0v2.67a4.24,4.24,0,0,1-.16,1.14.56.56,0,0,1,0,.12l0,.06a.42.42,0,0,1,0,.1l0,.08s0,.08,0,.11l-.06.13s0,0,0,.08l0,.09-.05.07a.59.59,0,0,1,0,.08l-.05.08,0,.07-.06.09,0,0a4.1,4.1,0,0,1-2.78,1.68H22.71a4.06,4.06,0,0,1-2.78-1.69l0,0-.06-.09,0-.07-.05-.08,0-.07a.56.56,0,0,0-.05-.08.36.36,0,0,0,0-.09l0-.08a.47.47,0,0,0,0-.1l-.06-.15a.14.14,0,0,1,0-.07.42.42,0,0,1,0-.1l0-.06a.56.56,0,0,1,0-.12,4.24,4.24,0,0,1-.16-1.14V68.38Zm-9.59,0v2.67a3.88,3.88,0,0,1-.17,1.14l0,.12,0,.06,0,.1,0,.08a.37.37,0,0,1-.05.11l-.06.13,0,.08-.05.09,0,.07a.56.56,0,0,1-.05.08.22.22,0,0,1,0,.08.16.16,0,0,1,0,.07l-.06.09,0,0a4.06,4.06,0,0,1-2.78,1.68H13.12a4,4,0,0,1-2.78-1.69l0,0-.06-.09a.43.43,0,0,1,0-.07.22.22,0,0,1-.05-.08.25.25,0,0,1,0-.07l0-.08,0-.09a.2.2,0,0,1,0-.08s0-.07-.05-.1l-.06-.15,0-.07a.42.42,0,0,0,0-.1l0-.06,0-.12a3.88,3.88,0,0,1-.17-1.14V68.38ZM2.31,74.71l-.19-.1A4.07,4.07,0,0,1,0,71.05V68.38H8.13v2.67A3.88,3.88,0,0,1,8,72.19l0,.12,0,.06,0,.1,0,.08a1.17,1.17,0,0,1,0,.11l-.06.13,0,.08,0,.09L7.6,73a.2.2,0,0,1,0,.08.56.56,0,0,1,0,.08.43.43,0,0,1,0,.07l-.06.09,0,0A4.08,4.08,0,0,1,4.6,75.07H3.52l-.21,0h0a4.21,4.21,0,0,1-.48-.12l0,0-.18-.06-.06,0-.16-.07-.06,0M8.59,95.2h8.12V80.92H8.59ZM46.5,71.05a4.08,4.08,0,0,1-2.09,3.55l-.19.09h0l-.22.1,0,0-.2.07h0a3,3,0,0,1-.49.13h0l-.23,0H41.9a4.06,4.06,0,0,1-2.78-1.68l0,0L39,73.26a.43.43,0,0,1,0-.07.56.56,0,0,1-.05-.08.2.2,0,0,1,0-.08l0-.07,0-.09a.3.3,0,0,1,0-.08l-.06-.12a.61.61,0,0,0-.05-.12l0-.08,0-.1,0-.06,0-.12a3.88,3.88,0,0,1-.17-1.14V68.38H46.5ZM40,90.32a.74.74,0,0,1-.73.74h-16a.73.73,0,0,1-.73-.74V80.19a.73.73,0,0,1,.73-.74h16a.74.74,0,0,1,.73.74Zm3.91-13.94h0l-.15,0-.08,0-.14,0-.1,0-.2,0-.15,0H41.93l-.15,0h-.11l-.15,0h0A5.52,5.52,0,0,1,38,74.28l-.06-.07a.61.61,0,0,0-.07-.1l-.1-.17a.35.35,0,0,1,0-.08.21.21,0,0,1,0-.06.21.21,0,0,1,0,.06.35.35,0,0,1-.05.08l-.1.17a.61.61,0,0,0-.07.1l-.06.07a5.52,5.52,0,0,1-3.54,2.21h0l-.15,0H33.5l-.15,0h-1l-.14,0h-.11l-.15,0h0a5.52,5.52,0,0,1-3.55-2.21l-.05-.07-.07-.1-.11-.17a.22.22,0,0,0-.05-.08l0-.06a.21.21,0,0,0,0,.06l-.05.08a1.63,1.63,0,0,1-.11.17.61.61,0,0,1-.07.1l-.05.07-.09.12h0a5.54,5.54,0,0,1-3.45,2.09h0l-.15,0H23.9l-.14,0h-1l-.14,0h-.12l-.15,0h0a5.52,5.52,0,0,1-3.54-2.21l-.05-.07a.61.61,0,0,1-.07-.1,1.63,1.63,0,0,1-.11-.17.56.56,0,0,0-.05-.08l0-.06,0,.06a.35.35,0,0,0-.05.08l-.11.17-.07.1-.05.07-.09.12h0a5.54,5.54,0,0,1-3.46,2.09h0l-.15,0h-.11l-.14,0h-1l-.15,0h-.11l-.15,0h0a5.57,5.57,0,0,1-3.55-2.21l0-.07-.08-.1L9,73.94l-.06-.08,0-.06,0,.06a.35.35,0,0,1-.05.08l-.1.17a.61.61,0,0,0-.07.1l-.06.07-.08.12h0A5.59,5.59,0,0,1,5,76.49H5l-.15,0H4.72l-.15,0H3.47l-.22,0-.13,0-.1,0-.14,0H2.8l-.26-.07-.07,0V95.2H7.12v-15a.74.74,0,0,1,.73-.74h9.6a.74.74,0,0,1,.73.74v15H44.06V76.33l-.17,0Z"/></g></g></g></svg>