<?xml version="1.0" encoding="utf-8"?>
<!-- Generator: Adobe Illustrator 23.0.3, SVG Export Plug-In . SVG Version: 6.00 Build 0)  -->
<svg version="1.1" id="Layer_1" xmlns="http://www.w3.org/2000/svg" xmlns:xlink="http://www.w3.org/1999/xlink" x="0px" y="0px"
	 viewBox="0 0 517.5 109.5" style="enable-background:new 0 0 517.5 109.5;" xml:space="preserve">
<style type="text/css">
	.st0{opacity:0.5;}
	.st1{fill-rule:evenodd;clip-rule:evenodd;fill:#FFFFFF;}
	.st2{fill:#FFFFFF;}
</style>
<title>cbt02</title>
<g>
	<g id="cbt02">
		<g id="cbt02-2">
			<g id="two">
				<g class="st0">
					<path class="st1" d="M328.3,54.7h54.6v-5h-54.6V54.7z M327.8,57H383l6.1,10.6h-67.4L327.8,57z M375.8,69.7v4
						c0,0.6-0.1,1.1-0.2,1.7c0,0.1,0,0.1,0,0.2v0.1l-0.1,0.2c0,0,0,0.1,0,0.1c0,0.1-0.1,0.1-0.1,0.2l-0.1,0.2l-0.1,0.1l-0.1,0.1
						l-0.1,0.1l-0.1,0.1l-0.1,0.1l-0.1,0.1l-0.1,0.1v0.1c-1,1.4-2.5,2.3-4.1,2.5h-0.2h-0.1h-0.8h-0.1h-0.2c-1.7-0.2-3.2-1.1-4.1-2.5
						v-0.1l-0.1-0.1l-0.1-0.1l-0.1-0.1l-0.1-0.1c0,0,0-0.1-0.1-0.1l-0.1-0.1l-0.1-0.1l-0.1-0.2l-0.1-0.2c0,0,0-0.1,0-0.1l-0.1-0.2
						v-0.1c0-0.1,0-0.1,0-0.2c-0.2-0.5-0.2-1.1-0.2-1.7v-4L375.8,69.7z M361.5,69.7v4c0,0.6-0.1,1.1-0.2,1.7c0,0.1,0,0.1,0,0.2v0.1
						c0,0,0,0.1,0,0.2V76l-0.1,0.2l-0.1,0.2l0,0.1l-0.1,0.1l-0.1,0.1c0,0-0.1,0.1-0.1,0.1l-0.1,0.1l-0.1,0.1l-0.1,0.1l0,0.1
						c-1,1.4-2.5,2.3-4.1,2.5h-0.2H356h-0.8h-0.1h-0.2c-1.7-0.2-3.2-1.1-4.1-2.5v-0.1l-0.1-0.1c0,0,0-0.1,0-0.1c0,0-0.1-0.1-0.1-0.1
						l-0.1-0.1c0,0-0.1-0.1-0.1-0.1l-0.1-0.1l-0.1-0.1c0-0.1-0.1-0.1-0.1-0.2c0-0.1-0.1-0.1-0.1-0.2c0,0,0-0.1,0-0.1l-0.1-0.2v-0.1
						l-0.1-0.2c-0.2-0.5-0.2-1.1-0.2-1.7v-4L361.5,69.7z M347.3,69.7v4c0,0.6-0.1,1.1-0.2,1.7c0,0.1,0,0.1,0,0.2c0,0,0,0.1,0,0.1
						c0,0,0,0.1,0,0.2l0,0.1c0,0.1,0,0.1-0.1,0.2c0,0.1,0,0.1-0.1,0.2l-0.1,0.1c0,0,0,0.1-0.1,0.1l-0.1,0.1c0,0,0,0.1-0.1,0.1
						c0,0,0,0.1-0.1,0.1l-0.1,0.1l-0.1,0.1v0.1c-1,1.4-2.5,2.3-4.1,2.5h-0.2h-0.1H341h-0.1h-0.2c-1.7-0.2-3.2-1.1-4.1-2.5v-0.1
						l-0.1-0.1l-0.1-0.1l-0.1-0.1l-0.1-0.1l-0.1-0.1l-0.1-0.1l-0.1-0.1c0,0,0-0.1-0.1-0.2l-0.1-0.2c0,0,0-0.1,0-0.1l-0.1-0.2v-0.1
						c0-0.1,0-0.1,0-0.2c-0.2-0.5-0.2-1.1-0.2-1.7v-4L347.3,69.7z M324.4,79.1l-0.3-0.2c-1.9-1.1-3.2-3.1-3.1-5.3v-4h12.1v4
						c0,0.6-0.1,1.1-0.2,1.7c0,0.1,0,0.1,0,0.2v0.1l-0.1,0.2c0,0,0,0.1,0,0.1l-0.1,0.2l-0.1,0.2c0,0,0,0.1,0,0.1
						c0,0-0.1,0.1-0.1,0.1c0,0,0,0.1-0.1,0.1l-0.1,0.1l-0.1,0.1l-0.1,0.1l-0.1,0.1c0,0,0,0,0,0.1c-1,1.4-2.5,2.3-4.1,2.5h-0.2h-0.1
						h-0.8h-0.3h-0.1H326l0,0c-0.2,0-0.5-0.1-0.7-0.2h-0.1l-0.3-0.1h-0.1l-0.2-0.1h-0.1 M333.9,109.7h11.9V88.3h-12.1L333.9,109.7z
						 M390,73.7c0,2.2-1.2,4.2-3.1,5.3l-0.3,0.2l0,0c-0.1,0.1-0.2,0.1-0.3,0.2h-0.1l-0.3,0.1h-0.1c-0.2,0.1-0.5,0.1-0.7,0.2l0,0
						l-0.3,0.1h-0.1c-0.1,0-0.2,0-0.3,0h-0.9h-0.1h-0.2c-1.7-0.2-3.2-1.1-4.1-2.5c0,0,0,0,0-0.1l-0.1-0.1l-0.1-0.1l-0.1-0.1
						l-0.1-0.1c0,0-0.1-0.1-0.1-0.1l-0.1-0.1l-0.1-0.1c0-0.1-0.1-0.1-0.1-0.2c0-0.1-0.1-0.1-0.1-0.2c0,0,0-0.1,0-0.1l-0.1-0.2v-0.1
						c0-0.1,0-0.1,0-0.2c-0.2-0.5-0.2-1.1-0.2-1.7v-4H390V73.7z M380.3,102.3c0,0.6-0.5,1.1-1.1,1.1h-23.7c-0.6,0-1.1-0.5-1.1-1.1
						v-15c0-0.6,0.5-1.1,1.1-1.1h23.7c0.6,0,1.1,0.5,1.1,1.1V102.3z M386.1,81.6L386.1,81.6h-0.2h-0.1h-0.2h-0.1h-0.3h-0.2h-0.1
						h-0.2h-1h-0.3H383h-0.2h-0.2l0,0c-2.1-0.4-4-1.5-5.3-3.3l-0.1-0.1l-0.1-0.2l-0.2,0l-0.1-0.1l-0.1-0.1c0,0,0,0.1,0,0.1l-0.1,0.1
						c-0.1,0.1-0.1,0.2-0.2,0.2l-0.1,0.2c0,0-0.1,0.1-0.1,0.1c-1.3,1.7-3.1,2.9-5.2,3.3l0,0h-0.2h-0.2h-0.2h-0.3h-1H369h-0.2h-0.2
						h-0.2l0,0c-2.1-0.4-4-1.5-5.2-3.3l-0.1-0.1l-0.1-0.2l-0.1-0.2l-0.1-0.1c0,0,0-0.1,0-0.1l-0.1,0.1c0,0,0,0.1-0.1,0.1
						c0,0.1-0.1,0.2-0.2,0.2l-0.1,0.2c0,0-0.1,0.1-0.1,0.1l-0.1,0.2l0,0c-1.3,1.6-3.1,2.8-5.1,3.1l0,0h-0.2h-0.2h-0.2h-0.3h-1h-0.3
						h-0.2h-0.2h-0.2l0,0c-2.1-0.4-4-1.5-5.3-3.3l-0.1-0.1l-0.1-0.2c-0.1-0.1-0.1-0.2-0.2-0.2l-0.1-0.1c0,0,0-0.1,0-0.1l0,0.1
						l-0.1,0.1c0,0.1-0.1,0.2-0.2,0.2l-0.1,0.2c0,0-0.1,0.1-0.1,0.1l-0.1,0.2l0,0c-1.3,1.6-3.1,2.8-5.1,3.1l0,0h-0.2h-0.2h-0.2h-0.3
						h-1h-0.3h-0.2h-0.2H340l0,0c-2.1-0.4-4-1.5-5.3-3.3l-0.1-0.1l-0.1-0.2l-0.1-0.2c0,0-0.1-0.1-0.1-0.1c0,0,0-0.1,0-0.1l-0.1,0.1
						L334,78l-0.2,0.2l-0.1,0.2c0,0-0.1,0.1-0.1,0.1l-0.1,0.2l0,0c-1.3,1.6-3.1,2.8-5.1,3.1l0,0h-0.2H328h-0.2h-0.3h-1h-0.2h-0.1
						h-0.3h-0.2h-0.1h-0.2h-0.1l-0.4-0.1h-0.1v28h6.9V87.2c0-0.6,0.5-1.1,1.1-1.1c0,0,0,0,0,0h14.2c0.6,0,1.1,0.5,1.1,1.1
						c0,0,0,0,0,0v22.3h38.4v-28L386.1,81.6L386.1,81.6z"/>
				</g>
				<path class="st2" d="M240.2,88.9L232,72.6h-19l-8.3,16.3c-3.2,7.5,0.2,16.2,7.7,19.4c1.8,0.8,3.8,1.2,5.8,1.2h8.4
					c4,0,7.8-1.6,10.5-4.5C241.4,100.7,242.6,94.4,240.2,88.9z M223.5,99v1.6c-0.1,0.9-0.8,1.5-1.7,1.5c-0.8-0.1-1.4-0.7-1.5-1.5V99
					h-0.5c-0.9-0.1-1.5-0.8-1.5-1.7c0.1-0.8,0.7-1.4,1.5-1.5h3.2c0.9,0,1.6-0.7,1.6-1.5c0,0,0,0,0,0c0-0.9-0.7-1.6-1.5-1.6
					c0,0-0.1,0-0.1,0h-1c-2.6,0-4.8-2.1-4.8-4.7c0-2,1.2-3.8,3.1-4.5v-1.9c0.1-0.9,0.8-1.5,1.7-1.5c0.8,0.1,1.4,0.7,1.5,1.5v1.6h1.6
					c0.9,0,1.6,0.7,1.6,1.6s-0.7,1.6-1.6,1.6l0,0H222c-0.9-0.1-1.6,0.6-1.7,1.5c-0.1,0.9,0.6,1.6,1.5,1.7c0.1,0,0.2,0,0.3,0h1
					c2.6,0,4.8,2.1,4.8,4.7C227.8,96.6,226,98.7,223.5,99z"/>
				<path class="st2" d="M213,70.5h8.4l-1.7-7.8c-0.2-1-1.1-1.7-2.1-1.6h-5.7c-0.6,0-1,0.5-1,1.1c0,0.1,0,0.1,0,0.2L213,70.5z"/>
				<path class="st2" d="M227.7,70.5h4.3l2.1-10.3c0.1-0.6-0.3-1.1-0.9-1.2c-0.1,0-0.1,0-0.2,0h-3.1c-1.2,0-2.1,1-2.1,2.1
					c0-1.2-0.9-2.1-2.1-2.1h-3.2c-0.6,0-1,0.5-1,1.1c0,0,0,0.1,0,0.1l2.1,10.3H227.7z"/>
				<path class="st2" d="M275.3,93.8L269,81.3h-14.5l-6.3,12.5c-1.8,4.2-0.9,9,2.3,12.3c2.1,2.2,5,3.4,8.1,3.4h6.5
					c3,0,6-1.2,8.1-3.4C276.2,102.8,277.1,98,275.3,93.8z M262.5,101.4v1.2c0,0.7-0.5,1.2-1.2,1.2c-0.7,0-1.2-0.5-1.2-1.2v-1.2h-0.4
					c-0.7,0.1-1.3-0.4-1.3-1.1c-0.1-0.7,0.4-1.3,1.1-1.3c0.1,0,0.1,0,0.2,0h2.4c0.7,0,1.2-0.5,1.2-1.2c0-0.7-0.5-1.2-1.2-1.2
					c0,0,0,0,0,0h-0.7c-2,0-3.6-1.7-3.6-3.7c0-1.5,0.9-2.8,2.3-3.3v-1.5c0-0.7,0.5-1.2,1.2-1.2c0.7,0,1.2,0.5,1.2,1.2v1.2h1.2
					c0.7,0,1.2,0.5,1.2,1.2c0,0.7-0.5,1.2-1.2,1.2h-2.4c-0.7-0.1-1.3,0.4-1.3,1.1c-0.1,0.7,0.4,1.3,1.1,1.3c0.1,0,0.1,0,0.2,0h0.7
					c2,0,3.6,1.6,3.6,3.7C265.7,99.7,264.4,101.2,262.5,101.4L262.5,101.4z"/>
				<path class="st2" d="M254.5,79.7h6.4l-1.3-6c-0.2-0.7-0.8-1.3-1.6-1.2h-4.4c-0.4,0-0.8,0.4-0.8,0.8c0,0.1,0,0.1,0,0.2
					L254.5,79.7z"/>
				<path class="st2" d="M265.8,79.7h3.2l1.6-7.9c0.1-0.4-0.2-0.9-0.6-1c-0.1,0-0.1,0-0.2,0h-2.4c-0.9,0-1.6,0.7-1.6,1.6
					c0-0.9-0.7-1.6-1.6-1.6h-2.4c-0.4,0-0.8,0.4-0.8,0.8c0,0.1,0,0.1,0,0.2l1.6,7.9H265.8z"/>
				<path class="st2" d="M303.9,98.7l-4.4-8.6h-10l-4.4,8.6c-1.2,2.9-0.6,6.2,1.6,8.5c1.5,1.5,3.5,2.4,5.6,2.3h4.5
					c4.3,0,7.8-3.5,7.8-7.8C304.5,100.7,304.3,99.6,303.9,98.7L303.9,98.7z M295.1,103.9v0.8c-0.1,0.5-0.5,0.8-0.9,0.7
					c-0.4,0-0.7-0.4-0.7-0.7v-0.8h-0.3c-0.5,0-0.8-0.4-0.8-0.8s0.4-0.8,0.8-0.8h1.6c0.5,0.1,0.9-0.3,0.9-0.7
					c0.1-0.5-0.3-0.9-0.7-0.9c-0.1,0-0.1,0-0.2,0h-0.5c-1.4,0-2.5-1.1-2.5-2.5c0-1.1,0.7-2,1.6-2.4v-1c-0.1-0.5,0.3-0.9,0.7-0.9
					c0.5-0.1,0.9,0.3,0.9,0.7c0,0.1,0,0.1,0,0.2v0.8h0.8c0.5-0.1,0.9,0.3,0.9,0.7c0.1,0.5-0.3,0.9-0.7,0.9c-0.1,0-0.1,0-0.2,0h-1.6
					c-0.5,0-0.9,0.4-0.9,0.8c0,0.5,0.4,0.8,0.9,0.8h0.5c1.4,0,2.5,1.1,2.5,2.5C297.3,102.7,296.3,103.8,295.1,103.9L295.1,103.9z"/>
				<path class="st2" d="M289.5,89h4.5l-1-4.2c-0.1-0.5-0.5-0.8-1-0.8h-3c-0.3,0-0.6,0.2-0.6,0.6c0,0,0,0.1,0,0.1L289.5,89z"/>
				<path class="st2" d="M297.3,89h2.2l1.1-5.5c0.1-0.3-0.1-0.6-0.4-0.6c0,0-0.1,0-0.1,0h-1.7c0,0.6-0.5,1.1-1.1,1.1
					c-0.6,0-1.1-0.5-1.1-1.1h-1.7c-0.3,0-0.6,0.2-0.6,0.5c0,0,0,0.1,0,0.1l1.1,5.5H297.3z"/>
				<path class="st2" d="M341.7,26.1l1.7-1.7c0.3-0.3,0.4-0.6,0.5-1c0.1-0.6-0.1-1.3-0.6-1.7c-0.3-0.3-0.6-0.5-1-0.5
					c-0.1-0.1-0.3-0.1-0.4-0.1c-0.5,0-1,0.2-1.3,0.5l-2.7,2.7l-2.1,2.1c-0.7,0.8-0.7,2,0.1,2.7c0.4,0.4,0.9,0.6,1.4,0.6
					c0.5,0,1-0.2,1.3-0.5L341.7,26.1L341.7,26.1z"/>
				<path class="st2" d="M355,10.6l-0.3,0.3l-3.6,3.7l-0.1,0.1l-1.4,1.4c-0.7,0.7-1.7,1.1-2.7,1.1h-0.3h-0.1
					c-2.1-0.3-3.6-2.2-3.3-4.3c0.1-0.8,0.5-1.6,1.1-2.2l8.1-8.1c0.2-0.2,0.4-0.4,0.6-0.6c-6.3-3.9-14.5-1.9-18.4,4.4
					c-3.3,5.3-2.5,12.1,1.9,16.5l0.1,0.1l2.8-2.8c0.7-0.7,1.7-1.1,2.7-1.1c0.7,0,1.3,0.2,1.9,0.5c0.3,0.2,0.6,0.4,0.9,0.6
					c0.7,0.7,1.1,1.7,1.1,2.7c0,0.4,0,0.7-0.1,1.1c0.3-0.1,0.7-0.1,1-0.1c2.1,0,3.9,1.7,3.9,3.9c0,0.4,0,0.7-0.1,1.1
					c0.3-0.1,0.7-0.1,1-0.1c2.1,0,3.9,1.7,3.9,3.8c0,0.4,0,0.7-0.1,1.1c0.3-0.1,0.7-0.1,1-0.1c2.1,0,3.9,1.7,3.9,3.8
					c0,0.6-0.1,1.2-0.3,1.7c0.3,0.1,0.7,0.2,1.1,0.2c1.6,0,2.9-1.3,2.9-2.9c0-0.5-0.1-1-0.4-1.4c0.5,0.3,1,0.4,1.5,0.4
					c1.6,0,2.9-1.3,2.9-2.9c0-0.6-0.2-1.1-0.5-1.6c0.4,0.2,0.9,0.4,1.4,0.4c1.6,0,2.9-1.3,2.8-2.9c0-0.8-0.3-1.5-0.8-2L355,10.6z"/>
				<path class="st2" d="M356.3,35.4H356c-0.4,0.1-0.7,0.2-1,0.5l-4.8,4.8c-0.7,0.8-0.7,2,0,2.7c0.4,0.4,0.9,0.6,1.4,0.6
					c0.5,0,1-0.2,1.3-0.5l4.8-4.8c0.3-0.3,0.5-0.6,0.5-1c0.2-1.1-0.6-2.1-1.7-2.3C356.5,35.4,356.4,35.4,356.3,35.4L356.3,35.4z"/>
				<path class="st2" d="M348.7,28.1c0.2-1.1-0.6-2.1-1.7-2.3c-0.1,0-0.2,0-0.3,0c-0.1,0-0.2,0-0.3,0c-0.4,0.1-0.7,0.2-1,0.5
					l-4.8,4.8c-0.7,0.8-0.7,2,0.1,2.7c0.4,0.4,0.9,0.6,1.4,0.6c0.5,0,1-0.2,1.3-0.5l4.8-4.8C348.5,28.8,348.7,28.5,348.7,28.1z"/>
				<path class="st2" d="M353.5,32.9c0.2-1.1-0.6-2.1-1.7-2.3c-0.1,0-0.2,0-0.3,0c-0.1,0-0.2,0-0.3,0c-0.4,0.1-0.7,0.2-1,0.5
					l-4.8,4.8c-0.7,0.8-0.7,2,0,2.7c0.4,0.4,0.9,0.6,1.4,0.6c0.5,0,1-0.2,1.3-0.5l4.8-4.7C353.3,33.6,353.5,33.3,353.5,32.9z"/>
				<path class="st2" d="M372.6,3.9c-3.8-3.8-9.5-5-14.5-2.9c-1.3,0.5-2.5,1.2-3.6,2.2c-0.3,0.2-0.6,0.5-0.9,0.8l-8.1,8.1
					c-0.7,0.7-0.7,2,0,2.7c0.4,0.4,0.8,0.6,1.3,0.6c0.5,0,1-0.2,1.4-0.6l7-7l2.4,2.4l13.7,13.7c0.4-0.3,0.8-0.6,1.1-1
					C377.8,17.7,377.8,9.3,372.6,3.9C372.6,4,372.6,3.9,372.6,3.9z"/>
			</g>
			<g id="one">
				<g class="st0">
					<path class="st2" d="M54,33.8H3.6c-2,0-3.6,1.6-3.6,3.6v39.6h57.6V37.5C57.6,35.5,56,33.8,54,33.8C54,33.8,54,33.8,54,33.8z
						 M19.8,42.8c0-1,0.8-1.8,1.8-1.8c1,0,1.8,0.8,1.8,1.8v5.4c0,1-0.8,1.8-1.8,1.8c-1,0-1.8-0.8-1.8-1.8V42.8z M27,73.5h-0.2
						c-3.9,0-7-3.1-7-7v-2H20c3.9,0,7,3.1,7,7V73.5z M27,62.7h-0.2c-3.9,0-7-3.1-7-7v-2H20c3.9,0,7,3.1,7,7V62.7z M28.8,53.7
						L28.8,53.7c-1,0-1.8-0.8-1.8-1.8V39.2c0-1,0.8-1.8,1.8-1.8h0.1c1,0,1.8,0.8,1.8,1.8v12.7C30.6,52.9,29.8,53.7,28.8,53.7
						L28.8,53.7z M37.8,66.5c0,3.9-3.1,7-7,7h-0.2v-2c0-3.9,3.1-7,7-7h0.2V66.5z M37.8,55.7c0,3.9-3.1,7-7,7h-0.2v-2
						c0-3.9,3.1-7,7-7h0.2V55.7z M37.8,48.3c0,1-0.8,1.8-1.8,1.8c-1,0-1.8-0.8-1.8-1.8c0,0,0,0,0,0v-5.4c0-1,0.8-1.8,1.8-1.8
						c1,0,1.8,0.8,1.8,1.8c0,0,0,0,0,0V48.3z"/>
					<path class="st2" d="M10.8,30.2h36c2,0,3.6-1.6,3.6-3.6S48.8,23,46.8,23h-36c-2,0-3.6,1.6-3.6,3.6S8.8,30.2,10.8,30.2z"/>
					<path class="st2" d="M0,109.5h21.6v-18c0-2,1.6-3.6,3.6-3.6h7.2c2,0,3.6,1.6,3.6,3.6v18h21.6V80.7H0V109.5z"/>
				</g>
				<circle class="st2" cx="86.6" cy="70.2" r="3.5"/>
				<path class="st2" d="M109.1,102.3c-0.2-0.4-0.8-0.6-1.2-0.3l-3.7,2.1l-9.4-16.5c-0.4-0.7-0.9-1.2-1.5-1.7
					c-0.8-0.5-1.8-0.7-2.7-0.4l-1.9,0.7L83.5,83l2-3.6c0,0,1.4-2.6,0-4.4c-0.5-0.8-1.4-1.4-2.4-1.6c-1.5-0.2-2.9,0.5-3.7,1.7
					l-4.1,7.6c-0.3,0.5-0.5,1-0.7,1.5c-0.2,0.5-0.4,1.1-0.5,1.6l-1.5,8.6L66.4,97c-2.1,0.9-1.3,4.7,2,3.7l6.8-2.9
					c0.2-0.1,0.4-0.2,0.6-0.4l0.1-0.1c0.2-0.2,0.3-0.4,0.4-0.6v-0.1l1.4-4.5l3.9,4.2l-1.3,9c-0.1,3,3.7,2.9,4.1,0l1.3-8.7
					c0-0.8-0.2-1.7-0.6-2.4l-0.4-0.8l-4-5.4l1.2-2.2l5,3.1c0.7,0.5,1.7,0.3,2.2-0.4c0.1-0.2,0.2-0.5,0.3-0.7l1.6-0.5
					c0.4-0.1,0.9,0,1.3,0.2c0.4,0.3,0.7,0.7,1,1.1l6.1,10.6c-2-1.8-5-1.7-6.8,0.3c-1.8,2-1.7,5,0.3,6.8s5,1.7,6.8-0.3
					c0.8-0.9,1.3-2.1,1.3-3.3c0-0.3,0-0.7-0.1-1l2.4,4.1c0.2,0.3,0.4,0.4,0.8,0.4c0.2,0,0.3,0,0.4-0.1l4.5-2.5
					C109.2,103.3,109.3,102.7,109.1,102.3C109.1,102.3,109.1,102.3,109.1,102.3z M96,104.3c-1,0-1.7-0.8-1.7-1.7s0.8-1.7,1.7-1.7
					s1.7,0.8,1.7,1.7C97.8,103.6,97,104.3,96,104.3C96,104.4,96,104.4,96,104.3L96,104.3z"/>
				
					<rect x="100.5" y="87.8" transform="matrix(0.8676 -0.4973 0.4973 0.8676 -33.0011 65.0967)" class="st2" width="10.5" height="13.4"/>
				<g class="st0">
					<path class="st1" d="M130.3,54.7h54.6v-5h-54.6V54.7z M129.8,57h55.2l6.1,10.6h-67.4L129.8,57z M177.8,69.7v4
						c0,0.6-0.1,1.1-0.2,1.7c0,0.1,0,0.1-0.1,0.2v0.1l-0.1,0.2c0,0,0,0.1,0,0.1c0,0.1-0.1,0.1-0.1,0.2l-0.1,0.2l-0.1,0.1l-0.1,0.1
						l-0.1,0.1l-0.1,0.1l-0.1,0.1l-0.1,0.1l-0.1,0.1v0.1c-1,1.4-2.5,2.3-4.1,2.5h-0.2h-0.1h-0.8h-0.1h-0.2c-1.7-0.2-3.2-1.1-4.1-2.5
						v-0.1l-0.1-0.1l-0.1-0.1l-0.1-0.1l-0.1-0.1c0,0,0-0.1-0.1-0.1l-0.1-0.1l-0.1-0.1l-0.1-0.2l-0.1-0.2c0,0,0-0.1,0-0.1l-0.1-0.2
						v-0.1c0-0.1,0-0.1-0.1-0.2c-0.2-0.5-0.2-1.1-0.2-1.7v-4L177.8,69.7z M163.5,69.7v4c0,0.6-0.1,1.1-0.2,1.7c0,0.1,0,0.1-0.1,0.2
						v0.1c0,0,0,0.1,0,0.2l-0.1,0.1l-0.1,0.2l-0.1,0.2l-0.1,0.1l-0.1,0.1l-0.1,0.1c0,0-0.1,0.1-0.1,0.1l-0.1,0.1l-0.1,0.1l-0.1,0.1
						l-0.1,0.1c-1,1.4-2.5,2.3-4.1,2.5h-0.2H158h-0.8H157h-0.2c-1.7-0.2-3.2-1.1-4.1-2.5v-0.1l-0.1-0.1l-0.1-0.1l-0.1-0.1l-0.1-0.1
						c0,0-0.1-0.1-0.1-0.1l-0.1-0.1l-0.1-0.1c0-0.1-0.1-0.1-0.1-0.2c0-0.1-0.1-0.1-0.1-0.2c0,0,0-0.1,0-0.1l-0.1-0.2v-0.1l-0.1-0.2
						c-0.2-0.5-0.2-1.1-0.2-1.7v-4L163.5,69.7z M148.5,76.9L148.5,76.9l-0.1,0.2v0.1c-1,1.4-2.5,2.3-4.1,2.5h-0.2h-0.1H143h-0.1
						h-0.2c-1.7-0.2-3.2-1.1-4.1-2.5v-0.1l-0.1-0.1l-0.1-0.1l-0.1-0.1l-0.1-0.1l-0.1-0.1l-0.1-0.1l-0.1-0.1c0,0,0-0.1-0.1-0.2
						l-0.1-0.2c0,0,0-0.1,0-0.1l-0.1-0.2v-0.1c0-0.1,0-0.1-0.1-0.2c-0.2-0.5-0.2-1.1-0.2-1.7v-4l11.8,0v4c0,0.6-0.1,1.1-0.2,1.7
						c0,0.1,0,0.1-0.1,0.2c0,0,0,0.1,0,0.1c0,0.1,0,0.1-0.1,0.2V76c0,0.1,0,0.1-0.1,0.2c0,0.1,0,0.1-0.1,0.2l-0.1,0.1
						c0,0,0,0.1-0.1,0.1l-0.1,0.1 M126.4,79.1l-0.3-0.2c-1.9-1.1-3.2-3.1-3.1-5.3v-4h12.1v4c0,0.6-0.1,1.1-0.2,1.7
						c0,0.1,0,0.1-0.1,0.2v0.1l-0.1,0.2c0,0,0,0.1,0,0.1l-0.1,0.2l-0.1,0.2c0,0,0,0.1-0.1,0.1c0,0-0.1,0.1-0.1,0.1
						c0,0,0,0.1-0.1,0.1l-0.1,0.1l-0.1,0.1l-0.1,0.1l-0.1,0.1c0,0,0,0,0,0.1c-1,1.4-2.5,2.3-4.1,2.5h-0.2h-0.1h-0.8h-0.3h-0.1H128
						l0,0c-0.2,0-0.5-0.1-0.7-0.2h-0.1l-0.3-0.1h-0.1l-0.2-0.1h-0.1 M135.9,109.7h11.9V88.3h-12.1L135.9,109.7z M192,73.7
						c0,2.2-1.2,4.2-3.1,5.3l-0.3,0.2l0,0l-0.3,0.2h-0.1l-0.3,0.1h-0.1c-0.2,0.1-0.5,0.1-0.7,0.2l0,0l-0.3,0.1h-0.1
						c-0.1,0-0.2,0-0.3,0h-0.9h-0.1h-0.2c-1.7-0.2-3.2-1.1-4.1-2.5c0,0,0,0,0-0.1l-0.1-0.1l-0.1-0.1l-0.1-0.1l-0.1-0.1
						c0,0-0.1-0.1-0.1-0.1l-0.1-0.1l-0.1-0.1c0-0.1-0.1-0.1-0.1-0.2c0-0.1-0.1-0.1-0.1-0.2c0,0,0-0.1,0-0.1l-0.1-0.2v-0.1
						c0-0.1,0-0.1-0.1-0.2c-0.2-0.5-0.2-1.1-0.2-1.7v-4H192V73.7z M182.3,102.3c0,0.6-0.5,1.1-1.1,1.1h-23.7c-0.6,0-1.1-0.5-1.1-1.1
						v-15c0-0.6,0.5-1.1,1.1-1.1h23.7c0.6,0,1.1,0.5,1.1,1.1V102.3z M188.1,81.6L188.1,81.6h-0.2h-0.1h-0.2h-0.1h-0.3h-0.2h-0.1
						h-0.2h-1h-0.3H185h-0.2h-0.2l0,0c-2.1-0.4-4-1.5-5.3-3.3l-0.1-0.1l-0.1-0.2l-0.2,0l-0.1-0.1l-0.1-0.1c0,0,0,0.1,0,0.1l-0.1,0.1
						c-0.1,0.1-0.1,0.2-0.2,0.2l-0.1,0.2c0,0-0.1,0.1-0.1,0.1c-1.3,1.7-3.1,2.9-5.2,3.3l0,0H173h-0.2h-0.2h-0.3h-1H171h-0.2h-0.2
						h-0.2l0,0c-2.1-0.4-4-1.5-5.2-3.3l-0.1-0.1l-0.1-0.2l-0.1-0.2l-0.1-0.1c0,0,0-0.1,0-0.1l-0.1,0.1c0,0,0,0.1-0.1,0.1
						c-0.1,0.1-0.1,0.2-0.2,0.2l-0.1,0.2c0,0-0.1,0.1-0.1,0.1l-0.1,0.2l0,0c-1.3,1.6-3.1,2.8-5.1,3.1l0,0h-0.2h-0.2h-0.2h-0.3h-1
						h-0.3h-0.2h-0.2h-0.2l0,0c-2.1-0.4-4-1.5-5.3-3.3l-0.1-0.1l-0.1-0.2c-0.1-0.1-0.1-0.2-0.2-0.2l-0.1-0.1c0,0,0-0.1-0.1-0.1v0.1
						l-0.1,0.1c-0.1,0.1-0.1,0.2-0.2,0.2l-0.1,0.2c0,0-0.1,0.1-0.1,0.1l-0.1,0.2l0,0c-1.3,1.6-3.1,2.8-5.1,3.1l0,0h-0.2h-0.2h-0.2
						H144h-1h-0.3h-0.2h-0.2h-0.2l0,0c-2.1-0.4-4-1.5-5.3-3.3l-0.1-0.1l-0.1-0.2l-0.1-0.2c0,0-0.1-0.1-0.1-0.1c0,0,0-0.1,0-0.1
						l-0.1,0.1L136,78l-0.2,0.2l-0.1,0.2c0,0-0.1,0.1-0.1,0.1l-0.1,0.2l0,0c-1.3,1.6-3.1,2.8-5.1,3.1l0,0h-0.2H130h-0.2h-0.3h-1
						h-0.2h-0.1h-0.3h-0.2h-0.2h-0.2h-0.1l-0.4-0.1h-0.1v28h6.9V87.2c0-0.6,0.5-1.1,1.1-1.1c0,0,0,0,0,0h14.2c0.6,0,1.1,0.5,1.1,1.1
						c0,0,0,0,0,0v22.3h38.4v-28L188.1,81.6L188.1,81.6z"/>
				</g>
			</g>
			<g id="three">
				<path class="st2" d="M415.5,69.5c-7.5,0-13,5-13,12c0,1.1,0.9,2,2,2s2-0.9,2-2c-0.1-2.9,1.5-5.6,4-7v31c0,1.1,0.9,2,2,2
					s2-0.9,2-2v-15h2v15c0,1.1,0.9,2,2,2s2-0.9,2-2v-31c2.5,1.4,4.1,4.1,4,7c0,1.1,0.9,2,2,2s2-0.9,2-2
					C428.5,74.5,423,69.5,415.5,69.5z"/>
				<circle class="st2" cx="415.5" cy="63.5" r="4"/>
				<path class="st2" d="M479.5,81.5c-5.7,0-10,4.1-10,9.5c0,0.8,0.7,1.5,1.5,1.5s1.5-0.7,1.5-1.5c0-2.2,1.1-4.2,3-5.4V107
					c0,0.8,0.7,1.5,1.5,1.5s1.5-0.7,1.5-1.5V96.5h2V107c0,0.8,0.7,1.5,1.5,1.5s1.5-0.7,1.5-1.5V85.6c1.9,1.1,3,3.2,3,5.4
					c0,0.8,0.7,1.5,1.5,1.5s1.5-0.7,1.5-1.5C489.5,85.6,485.2,81.5,479.5,81.5z"/>
				<circle class="st2" cx="479.5" cy="75.5" r="4"/>
				<path class="st2" d="M507.5,81.5c-5.7,0-10,4.1-10,9.5c0,0.8,0.7,1.5,1.5,1.5s1.5-0.7,1.5-1.5c0-2.4,1.4-4.6,3.5-5.6l-2.3,12
					c-0.1,0.5,0.3,1,0.9,1.1c0,0,0.1,0,0.1,0h0.9v8.5c0,0.8,0.7,1.5,1.5,1.5s1.5-0.7,1.5-1.5v-8.5h2v8.5c0,0.8,0.7,1.5,1.5,1.5
					s1.5-0.7,1.5-1.5v-8.5h0.9c0.6,0,1-0.4,1-1c0,0,0-0.1,0-0.1l-2.3-12c2.1,1.1,3.4,3.3,3.4,5.6c0,0.8,0.7,1.5,1.5,1.5
					s1.5-0.7,1.5-1.5C517.5,85.6,513.2,81.5,507.5,81.5z"/>
				<circle class="st2" cx="507.5" cy="75.5" r="4"/>
				<path class="st2" d="M448.5,71.5c-7.5,0-13,5-13,12c0,1.1,0.9,2,2,2s2-0.9,2-2c0-3.2,2-6,5-7l-4,19c0,0.5,0.3,1,0.8,1
					c0.1,0,0.1,0,0.2,0h2v11c0,1.1,0.9,2,2,2s2-0.9,2-2v-11h2v11c0,1.1,0.9,2,2,2s2-0.9,2-2v-11h2c0.5,0,1-0.3,1-0.8
					c0-0.1,0-0.1,0-0.2l-4-19c3,1.1,5,3.9,5,7c0,1.1,0.9,2,2,2s2-0.9,2-2C461.5,76.5,456,71.5,448.5,71.5z"/>
				<circle class="st2" cx="448.5" cy="65.5" r="4"/>
			</g>
		</g>
	</g>
</g>
</svg>
