<svg xmlns="http://www.w3.org/2000/svg" width="91.56" height="85.9" viewBox="0 0 91.56 85.9"><defs><style>.cls-1{fill:#fff;}.cls-2{opacity:0.5;}</style></defs><title>cbt04</title><g id="Layer_2" data-name="Layer 2"><g id="Layer_1-2" data-name="Layer 1"><path class="cls-1" d="M17.19,8.07l7.5,7.49a1.24,1.24,0,0,0,.91.37,1.15,1.15,0,0,0,.83-.33L37.74,4.29V9.64a1.26,1.26,0,1,0,2.51,0V1.26A1.25,1.25,0,0,0,39,0H30.61a1.26,1.26,0,1,0,0,2.52H36L25.58,12.9,18.13,5.45a1.41,1.41,0,0,0-1.88,0L.37,21.33a1.26,1.26,0,1,0,1.78,1.78Z"/><path class="cls-1" d="M9.68,28H3A1.54,1.54,0,0,0,1.3,29.27V40.82A1.53,1.53,0,0,0,3,42.12H9.68a1.53,1.53,0,0,0,1.69-1.3V29.27A1.54,1.54,0,0,0,9.68,28Z"/><path class="cls-1" d="M24.77,20.91h-6.6a1.52,1.52,0,0,0-1.68,1.29V40.82a1.52,1.52,0,0,0,1.68,1.3h6.6a1.53,1.53,0,0,0,1.69-1.3V22.2A1.53,1.53,0,0,0,24.77,20.91Z"/><path class="cls-1" d="M39.87,13.84H33.18a1.54,1.54,0,0,0-1.69,1.29V40.82a1.53,1.53,0,0,0,1.69,1.3h6.69a1.53,1.53,0,0,0,1.69-1.3V15.13A1.54,1.54,0,0,0,39.87,13.84Z"/><g class="cls-2"><path class="cls-1" d="M51.94,71.7l-7.18,7.18a4.12,4.12,0,0,0,5.82,5.82l7.18-7.18A24,24,0,0,1,51.94,71.7Z"/><path class="cls-1" d="M71.56,37.9a20,20,0,1,0,20,20A20,20,0,0,0,71.56,37.9Zm11,30.18a15,15,0,0,1-26-10.18,15,15,0,1,1,26,10.18Z"/><path class="cls-1" d="M83,56.49l-6-6a2,2,0,0,0-2.83,2.82l2.59,2.59H61.56a2,2,0,0,0,0,4H76.73l-2.59,2.59A2,2,0,1,0,77,65.31l6-6A2,2,0,0,0,83,56.49Z"/></g></g></g></svg>